<svg id="Layer_1" data-name="Layer 1" xmlns="http://www.w3.org/2000/svg" viewBox="0 0 960.95994 247.19993"><defs><style>.cls-1{fill:#fff;}</style></defs><title>lush-logo</title><path class="cls-1" d="M961.08,242.92v4.32H.12017Q.1201,123.64014.12006.04022,480.59969.0401,961.07977.04007,961.08012,2.2,961.08,4.36c-.31945-.01242-.63891-.03569-.95836-.03571q-35.99595-.00239-71.99191.00147c-.38157,0-.76313.0408-1.24465.06826V87.7434H806.36766V4.3984H732.71531V242.84714h73.713V146.49962h80.50711V242.92ZM214.21721,4.38672c-.02051.44734-.054.83758-.054,1.22783q-.00174,70.07319.01645,140.14636c.00149,3.03553.11268,6.07969.35862,9.10474a161.2947,161.2947,0,0,0,4.4254,24.85367,78.77245,78.77245,0,0,0,14.84828,31.0963c7.29677,9.16077,15.71,17.0248,25.933,22.84488,10.77188,6.13254,22.54362,9.07269,34.7,10.6613a317.51433,317.51433,0,0,0,35.01612,2.6494A180.44294,180.44294,0,0,0,371.179,243.404c13.93705-3.005,26.64613-8.4951,37.60017-17.82353,9.45674-8.0533,17.3845-17.30534,22.94467-28.45944a108.21611,108.21611,0,0,0,11.10146-48.52674c.15952-47.59445.05215-95.18978.05-142.78477,0-.46455,0-.92911,0-1.4069H369.24132l0,1.85745q0,71.873.0051,143.74605a54.74681,54.74681,0,0,1-1.46013,13.18967c-3.13989,12.72-10.70215,21.56074-23.2398,25.69762a51.139,51.139,0,0,1-30.35936.48885c-11.23717-3.15379-19.022-10.31213-23.32749-21.172-2.45356-6.18869-3.10485-12.69264-3.10515-19.28689q-.003-71.57305.00071-143.1461V4.38672ZM687.46289,71.423a104.12169,104.12169,0,0,0-4.30225-19.952c-3.47138-10.60462-8.77816-20.11594-16.79671-27.98792-7.47024-7.33366-16.39612-12.27684-26.17887-15.77221C625.76168,2.55738,610.76824.7626,595.56891.34279a235.50122,235.50122,0,0,0-28.63653.86934,134.50622,134.50622,0,0,0-26.8207,4.89421c-13.20018,4.0341-25.1949,10.29311-34.707,20.47178-13.95826,14.93622-19.70739,32.69669-17.03643,53.0146,1.81494,13.8063,8.0993,25.36074,18.25319,34.84624,7.00136,6.5405,15.10429,11.38893,23.73111,15.41888,14.9451,6.98146,30.69984,11.4832,46.72406,15.134,8.91516,2.03112,17.80764,4.13506,26.36244,7.43087,5.24731,2.02159,10.26035,4.39288,14.19223,8.64608,6.72475,7.27433,7.9568,17.08915,2.89764,25.29289a26.1895,26.1895,0,0,1-13.811,11.17822c-8.66168,3.08749-17.54092,3.23748-26.4777,1.4918a35.72292,35.72292,0,0,1-22.21986-13.74107c-4.21775-5.52056-6.35977-11.94157-7.81189-18.62971-.50455-2.32374-.877-4.67618-1.32311-7.0879l-70.22786,4.39868c.49834,3.50377.89563,6.83268,1.45485,10.13414a90.61328,90.61328,0,0,0,13.95651,35.77913c6.72263,10.03327,14.84332,18.59748,25.75107,24.21131a105.547,105.547,0,0,0,27.84334,9.32112,200.57726,200.57726,0,0,0,34.42008,3.52,199.33748,199.33748,0,0,0,38.60414-2.31413c12.09744-2.05834,23.68828-5.58151,34.44369-11.60339A77.24561,77.24561,0,0,0,687.417,199.19726a74.52732,74.52732,0,0,0,6.777-46.40826,61.41505,61.41505,0,0,0-21.16857-37.64286c-8.552-7.29937-18.31852-12.49119-28.75336-16.51449-15.19588-5.859-30.91939-9.91227-46.738-13.63584-7.53615-1.77395-15.10365-3.42094-22.61168-5.30588a37.20476,37.20476,0,0,1-12.14255-4.9641c-8.53079-5.82228-8.244-14.21561-3.86168-20.67728,2.993-4.41316,7.33851-6.9163,12.442-8.15753a48.8933,48.8933,0,0,1,17.63138-.72177c13.33207,1.62842,22.48295,8.50479,26.69455,21.45644.93252,2.86762,1.6009,5.82113,2.4242,8.85822ZM74.0528,184.1541V4.41077H.4473V242.83429H189.13289V184.1541Z" transform="translate(-0.12006 -0.04007)"/><path d="M961.08,242.92H886.93547V146.49962H806.42836v96.34752h-73.713V4.3984h73.65235v83.345h80.51742V4.394c.48152-.02746.86308-.06821,1.24465-.06826q35.99595-.00468,71.99191-.00147c.31945,0,.63891.02329.95836.03571Z" transform="translate(-0.12006 -0.04007)"/><path d="M214.21721,4.38672h73.538V5.77721q-.00107,71.573-.00071,143.1461c.0003,6.59425.65159,13.0982,3.10515,19.28689,4.30553,10.8599,12.09032,18.01824,23.32749,21.172a51.139,51.139,0,0,0,30.35936-.48885c12.53765-4.13688,20.09991-12.97765,23.2398-25.69762a54.74681,54.74681,0,0,0,1.46013-13.18967q-.01223-71.873-.0051-143.746l0-1.85745h73.63406c0,.47779-.00006.94235,0,1.4069.00211,47.595.10948,95.19032-.05,142.78477A108.21611,108.21611,0,0,1,431.72385,197.121c-5.56017,11.1541-13.48793,20.40614-22.94467,28.45944-10.954,9.32843-23.66312,14.81849-37.60017,17.82353a180.44294,180.44294,0,0,1-41.7179,3.56723,317.51433,317.51433,0,0,1-35.01612-2.6494c-12.15642-1.58861-23.92816-4.52876-34.7-10.6613-10.223-5.82008-18.63627-13.68411-25.933-22.84488a78.77245,78.77245,0,0,1-14.84828-31.0963,161.2947,161.2947,0,0,1-4.4254-24.85367c-.24594-3.025-.35713-6.06921-.35862-9.10474q-.03435-70.07316-.01645-140.14636C214.16317,5.2243,214.1967,4.83406,214.21721,4.38672Z" transform="translate(-0.12006 -0.04007)"/><path d="M687.46289,71.423l-69.35262,4.06095c-.8233-3.03709-1.49168-5.9906-2.4242-8.85822-4.2116-12.95165-13.36248-19.828-26.69455-21.45644a48.8933,48.8933,0,0,0-17.63138.72177c-5.10352,1.24123-9.44907,3.74437-12.442,8.15753-4.38229,6.46167-4.66911,14.855,3.86168,20.67728a37.20476,37.20476,0,0,0,12.14255,4.9641c7.508,1.88494,15.07553,3.53193,22.61168,5.30588,15.81862,3.72357,31.54213,7.77687,46.738,13.63584,10.43484,4.0233,20.20137,9.21512,28.75336,16.51449A61.41505,61.41505,0,0,1,694.194,152.789a74.52732,74.52732,0,0,1-6.777,46.40826,77.24561,77.24561,0,0,1-32.28574,33.82261c-10.75541,6.02188-22.34625,9.54505-34.44369,11.60339a199.33748,199.33748,0,0,1-38.60414,2.31413,200.57726,200.57726,0,0,1-34.42008-3.52A105.547,105.547,0,0,1,519.82,234.09624c-10.90775-5.61383-19.02844-14.178-25.75107-24.21131a90.61328,90.61328,0,0,1-13.95651-35.77913c-.55922-3.30146-.95651-6.63037-1.45485-10.13414l70.22786-4.39868c.44613,2.41172.81856,4.76416,1.32311,7.0879,1.45212,6.68814,3.59414,13.10915,7.81189,18.62971a35.72292,35.72292,0,0,0,22.21986,13.74107c8.93678,1.74568,17.816,1.59569,26.4777-1.4918a26.1895,26.1895,0,0,0,13.811-11.17822c5.05916-8.20374,3.82711-18.01856-2.89764-25.29289-3.93188-4.2532-8.94492-6.62449-14.19223-8.64608-8.5548-3.29581-17.44728-5.39975-26.36244-7.43087-16.02422-3.65076-31.779-8.1525-46.72406-15.134-8.62682-4.03-16.72975-8.87838-23.73111-15.41888-10.15389-9.4855-16.43825-21.03994-18.25319-34.84624-2.671-20.31791,3.07817-38.07838,17.03643-53.0146,9.51211-10.17867,21.50683-16.43768,34.707-20.47178a134.50622,134.50622,0,0,1,26.8207-4.89421A235.50122,235.50122,0,0,1,595.56891.34279c15.19933.41981,30.19277,2.21459,44.61615,7.36807,9.78275,3.49537,18.70863,8.43855,26.17887,15.77221,8.01855,7.872,13.32533,17.3833,16.79671,27.98792A104.12169,104.12169,0,0,1,687.46289,71.423Z" transform="translate(-0.12006 -0.04007)"/><path d="M74.0528,184.1541H189.13289v58.68019H.4473V4.41077H74.0528Z" transform="translate(-0.12006 -0.04007)"/></svg>