<?xml version="1.0" encoding="UTF-8" standalone="no"?>
<!DOCTYPE svg PUBLIC "-//W3C//DTD SVG 1.1//EN" "http://www.w3.org/Graphics/SVG/1.1/DTD/svg11.dtd">
<svg width="100%" height="100%" viewBox="0 0 300 52" version="1.1" xmlns="http://www.w3.org/2000/svg" xmlns:xlink="http://www.w3.org/1999/xlink" xml:space="preserve" xmlns:serif="http://www.serif.com/" style="fill-rule:evenodd;clip-rule:evenodd;stroke-linejoin:round;stroke-miterlimit:1.41421;">
    <path d="M294.51,3.94C290.687,1.321 284.901,0 277.317,0L257.455,0L250.071,40.087L224.051,40.087L225.723,30.992L241.397,30.992L243.255,20.777L227.59,20.8L229.267,11.745L245.412,11.745L247.56,0.002L214.773,0.002L207.763,38.027L195.731,38.027L202.788,0L185.649,0L178.639,38.025L166.918,38.025L173.982,0L156.852,0L149.459,40.087L123.252,40.087L124.909,30.992L140.646,30.992L142.505,20.835L126.783,20.82L128.451,11.747L144.777,11.747L146.912,-0.001L44.742,-0.001L38.927,31.765L27.346,-0.001L9.564,-0.001L-0.007,51.841L16.975,51.841L22.768,19.199L34.006,51.841L94.868,51.841L102.268,11.742L111.786,11.742L104.387,51.841L264.527,51.841L269.17,26.529L276.68,51.841L293.671,51.841L285.888,31.158L287.669,30.775C291.591,29.934 294.649,28.129 296.779,25.422C298.907,22.69 299.991,19.183 299.991,14.97C299.991,10.065 298.197,6.457 294.505,3.937L294.51,3.94ZM80.09,40.087L54.095,40.087L55.774,30.992L72.079,30.992L73.928,20.748L57.78,20.748L59.335,11.748L85.292,11.748L80.085,40.087L80.09,40.087ZM280.51,22.625C278.801,23.82 276.324,24.401 272.937,24.401L269.578,24.401L272.154,10.489L274.625,10.489C277.438,10.489 279.489,10.94 280.904,11.859C282.009,12.581 283.323,14.008 283.323,16.706C283.319,19.969 281.79,21.723 280.505,22.625L280.51,22.625Z" style="fill:rgb(122,122,122);fill-rule:nonzero;"/>
</svg>
