<svg class="hero-section__invoice__big__invoice" viewBox="0 0 344 405" version="1.1" xmlns="http://www.w3.org/2000/svg" xmlns:xlink="http://www.w3.org/1999/xlink" data-v-0c7fe579=""><title data-v-0c7fe579="">BP INVOICE</title> <desc data-v-0c7fe579="">Created with Sketch.</desc> <g id="Exp-Invoice-Flows" stroke="none" stroke-width="1" fill="none" fill-rule="evenodd" data-v-0c7fe579=""><g id="Invoice-Body" data-v-0c7fe579=""><g id="BP-INVOICE" data-v-0c7fe579=""><path d="M10.6758621,0 L333.324138,0 C339.220254,-1.0830989e-15 344,4.77974626 344,10.6758621 L344,394.324138 C344,400.220254 339.220254,405 333.324138,405 L10.6758621,405 C4.77974626,405 7.82749329e-15,400.220254 7.10542736e-15,394.324138 L0,10.6758621 C-7.22065936e-16,4.77974626 4.77974626,8.18852626e-15 10.6758621,7.10542736e-15 Z" id="Card" fill="#FFFFFF" data-v-0c7fe579=""></path> <svg data-v-0c7fe579="" xmlns:dc="http://purl.org/dc/elements/1.1/" xmlns:cc="http://creativecommons.org/ns#" xmlns:rdf="http://www.w3.org/1999/02/22-rdf-syntax-ns#" xmlns:svg="http://www.w3.org/2000/svg" xmlns="http://www.w3.org/2000/svg" xmlns:xlink="http://www.w3.org/1999/xlink" xmlns:sodipodi="http://sodipodi.sourceforge.net/DTD/sodipodi-0.dtd" xmlns:inkscape="http://www.inkscape.org/namespaces/inkscape" version="1.1" id="svg631" sodipodi:docname="eth-qr.svg" inkscape:version="0.92.4 (f8dce91, 2019-08-02)"><metadata id="metadata637"><rdf:RDF><cc:Work rdf:about=""><dc:format>image/svg+xml</dc:format> <dc:type rdf:resource="http://purl.org/dc/dcmitype/StillImage"></dc:type> <dc:title></dc:title></cc:Work></rdf:RDF></metadata> <defs id="defs635"><path id="path-1" d="M25.4464286,50.8928571 C39.500103,50.8928571 50.8928571,39.500103 50.8928571,25.4464286 C50.8928571,11.3927541 39.500103,0 25.4464286,0 C11.3927541,0 0,11.3927541 0,25.4464286 C0,39.500103 11.3927541,50.8928571 25.4464286,50.8928571 Z"></path> <path id="path-1-3" d="M25.4464286,50.8928571 C39.500103,50.8928571 50.8928571,39.500103 50.8928571,25.4464286 C50.8928571,11.3927541 39.500103,0 25.4464286,0 C11.3927541,0 0,11.3927541 0,25.4464286 C0,39.500103 11.3927541,50.8928571 25.4464286,50.8928571 Z"></path> <path id="path-1-6" d="M25.4464286,50.8928571 C39.500103,50.8928571 50.8928571,39.500103 50.8928571,25.4464286 C50.8928571,11.3927541 39.500103,0 25.4464286,0 C11.3927541,0 0,11.3927541 0,25.4464286 C0,39.500103 11.3927541,50.8928571 25.4464286,50.8928571 Z"></path> <path id="path-1-2" d="M25.4464286,50.8928571 C39.500103,50.8928571 50.8928571,39.500103 50.8928571,25.4464286 C50.8928571,11.3927541 39.500103,0 25.4464286,0 C11.3927541,0 0,11.3927541 0,25.4464286 C0,39.500103 11.3927541,50.8928571 25.4464286,50.8928571 Z"></path> <path id="path-1-28" d="M25.4464286,50.8928571 C39.500103,50.8928571 50.8928571,39.500103 50.8928571,25.4464286 C50.8928571,11.3927541 39.500103,0 25.4464286,0 C11.3927541,0 0,11.3927541 0,25.4464286 C0,39.500103 11.3927541,50.8928571 25.4464286,50.8928571 Z"></path> <path id="path-1-4" d="M25.4464286,50.8928571 C39.500103,50.8928571 50.8928571,39.500103 50.8928571,25.4464286 C50.8928571,11.3927541 39.500103,0 25.4464286,0 C11.3927541,0 0,11.3927541 0,25.4464286 C0,39.500103 11.3927541,50.8928571 25.4464286,50.8928571 Z"></path> <path id="path-1-63" d="M25.4464286,50.8928571 C39.500103,50.8928571 50.8928571,39.500103 50.8928571,25.4464286 C50.8928571,11.3927541 39.500103,0 25.4464286,0 C11.3927541,0 0,11.3927541 0,25.4464286 C0,39.500103 11.3927541,50.8928571 25.4464286,50.8928571 Z"></path></defs> <sodipodi:namedview pagecolor="#ffffff" borderColor="#666666" borderopacity="1" objecttolerance="10" gridtolerance="10" guidetolerance="10" inkscape:pageopacity="0" inkscape:pageshadow="2" inkscape:window-width="1920" inkscape:window-height="1025" id="namedview633" showgrid="false" inkscape:zoom="1.668772" inkscape:cx="-0.036793401" inkscape:cy="-68.644068" inkscape:window-x="0" inkscape:window-y="27" inkscape:window-maximized="1" inkscape:current-layer="bottom-left" showguides="true" inkscape:guide-bbox="true"><sodipodi:guide position="-122.0339,137.28814" orientation="0,1" id="guide9067" inkscape:locked="false"></sodipodi:guide> <sodipodi:guide position="-78.813559,163.55932" orientation="1,0" id="guide9069" inkscape:locked="false"></sodipodi:guide></sodipodi:namedview> <g id="QR---BitPay" transform="translate(55.000000, 115.000000)"><g stroke-width="1" id="Group-4"><g id="g626"><g id="qr"><g id="top-left" inkscape:transform-center-x="-11.016949" inkscape:transform-center-y="2.1186441"><g transform="translate(-165.19219,57.011199)" id="Currency/Large/XRP-"><g id="XRP"><mask fill="white" id="mask-2"><use id="use7388" xlink:href="#path-1" x="0" y="0" width="100%" height="100%"></use></mask> <g id="Button-Patterns" transform="translate(-855.74849,-1661.8671)" style="fill: none; fill-rule: evenodd; stroke: none; stroke-width: 1;"><g id="Payment-Mark-8" transform="translate(763.88136,1472.1186)" style="fill: none; fill-rule: evenodd; stroke: none; stroke-width: 1;"><g transform="translate(-816,-1595)" id="Button-Patterns-7"><g transform="translate(817,1596)" id="Group-2-Copy"><g transform="translate(-12.051445,-6.991524)" id="currency-xrp" style="fill: none; fill-rule: evenodd; stroke: none; stroke-width: 1;"><g transform="translate(295.48854,19.108942)" id="Currency/Large/XRP--9"></g></g></g></g></g></g></g></g></g> <g id="g9065"><g transform="translate(0.000000, 178.000000)" id="bottom-left" style="fill: rgb(78, 78, 80); fill-opacity: 1;"><path id="ring" d="M8,0 L48,0 C52.418278,-8.11624501e-16 56,3.581722 56,8 L56,48 C56,52.418278 52.418278,56 48,56 L8,56 C3.581722,56 5.41083001e-16,52.418278 0,48 L0,8 C-5.41083001e-16,3.581722 3.581722,8.11624501e-16 8,0 Z M12,8 C9.790861,8 8,9.790861 8,12 L8,44 C8,46.209139 9.790861,48 12,48 L44,48 C46.209139,48 48,46.209139 48,44 L48,12 C48,9.790861 46.209139,8 44,8 L12,8 Z" fill="#1A3A8B" style="fill: rgb(107, 113, 214); fill-opacity: 1;"></path> <rect rx="4" height="24.8504135" width="24.8571429" y="15.4243946" x="15.2857143" id="center" fill="#1A3A8B" style="fill: rgb(78, 78, 80); fill-opacity: 1;"></rect></g> <g transform="translate(178.000000, 0.000000)" id="top-right" style="fill: rgb(78, 78, 80); fill-opacity: 1;"><path id="path5" d="M8,0 L48,0 C52.418278,-8.11624501e-16 56,3.581722 56,8 L56,48 C56,52.418278 52.418278,56 48,56 L8,56 C3.581722,56 5.41083001e-16,52.418278 0,48 L0,8 C-5.41083001e-16,3.581722 3.581722,8.11624501e-16 8,0 Z M12,8 C9.790861,8 8,9.790861 8,12 L8,44 C8,46.209139 9.790861,48 12,48 L44,48 C46.209139,48 48,46.209139 48,44 L48,12 C48,9.790861 46.209139,8 44,8 L12,8 Z" fill="#1A3A8B" style="fill: rgb(107, 113, 214); fill-opacity: 1;"></path> <rect rx="4" height="24.8504135" width="24.8571429" y="15.4243946" x="15.2857143" id="rect7" fill="#1A3A8B" style="fill: rgb(78, 78, 80); fill-opacity: 1;"></rect> <g id="Payment-Mark-2" transform="translate(-453.66988,92.116055)" style="fill: none; fill-rule: evenodd; stroke: none; stroke-width: 1;"><g transform="translate(-816,-1436)" id="Button-Patterns-06"><g transform="translate(817,1437)" id="Group-2"><g id="currency-eth"><g transform="matrix(0.71522807,0,0,0.71522807,375.89988,7.953945)" id="Currency/Large/Ethereum-(alt)"><g id="item-ico-backup"><mask fill="white" id="mask-2-1"><use id="use9654" xlink:href="#path-1-63" x="0" y="0" width="100%" height="100%"></use></mask> <use xlink:href="#path-1-63" id="Mask" x="0" y="0" width="100%" height="100%" style="fill: rgb(107, 113, 214);"></use></g> <g transform="translate(15.267857,8.142857)" id="path0" style="fill: rgb(233, 236, 255);"><path id="Shape" d="M 10.541589,0.83385758 C 10.467717,1.012525 8.2354186,4.8004394 5.5809268,9.2514758 2.9264351,13.70242 0.73248515,17.40252 0.70534088,17.47395 0.67008978,17.56683 2.1121978,18.473419 5.7620101,20.652775 l 5.1061299,3.048852 5.104673,-3.050509 c 3.667301,-2.191598 5.090736,-3.08742 5.055121,-3.18131 C 20.84348,16.983972 10.917055,0.50892409 10.808751,0.50892409 c -0.07305,0 -0.193289,0.14617405 -0.267162,0.32493349 M 0.7174556,19.666653 C 0.91420607,20.00659 10.825966,34.099499 10.867412,34.09821 c 0.0685,-0.0021 10.20224,-14.473348 10.163185,-14.513021 -0.0371,-0.03728 -9.509263,5.600362 -9.904404,5.894828 l -0.242203,0.1806 -4.9042791,-2.926058 C 3.2823166,21.125263 0.97578168,19.743606 0.85408787,19.664351 0.65232755,19.532997 0.64021283,19.533181 0.7174556,19.666653" inkscape:connector-curvature="0"></path></g></g></g></g></g></g></g> <path inkscape:connector-curvature="0" id="path10" d="m 8,0 h 40 c 4.418278,0 8,3.581722 8,8 v 40 c 0,4.418278 -3.581722,8 -8,8 H 8 C 3.581722,56 0,52.418278 0,48 V 8 C 0,3.581722 3.581722,0 8,0 Z m 4,8 C 9.790861,8 8,9.790861 8,12 v 32 c 0,2.209139 1.790861,4 4,4 h 32 c 2.209139,0 4,-1.790861 4,-4 V 12 C 48,9.790861 46.209139,8 44,8 Z" style="fill: rgb(107, 113, 214); fill-opacity: 1;"></path> <rect rx="4" height="24.850414" width="24.857143" y="15.424395" x="15.285714" id="rect12" style="fill: rgb(78, 78, 80); fill-opacity: 1;"></rect> <rect ry="5.5084701" rx="4" y="116.48429" x="-29.835402" height="228.19368" width="235.61662" id="rect8731" transform="translate(27.377775,-119.61988)" style="fill: rgb(255, 255, 255); fill-rule: evenodd; stroke: none; stroke-width: 1; opacity: 0; fill-opacity: 1;"></rect> <g id="dots" fill="#1A3A8B" style="fill: rgb(78, 78, 80); fill-opacity: 1;"><rect rx="4.01889446" height="8.03778892" width="8.0399655" y="64.3023114" x="0" id="p" style="fill: rgb(78, 78, 80); fill-opacity: 1;"></rect> <rect rx="4.01889446" height="8.03778892" width="8.0399655" y="72.3401003" x="0" id="rect16" style="fill: rgb(78, 78, 80); fill-opacity: 1;"></rect> <rect rx="4.01889446" height="8.03778892" width="8.0399655" y="80.3778892" x="0" id="rect18" style="fill: rgb(78, 78, 80); fill-opacity: 1;"></rect> <rect rx="4.01889446" height="8.03778892" width="8.0399655" y="88.4156781" x="0" id="rect20" style="fill: rgb(78, 78, 80); fill-opacity: 1;"></rect> <rect rx="4.01889446" height="8.03778892" width="8.0399655" y="104.491256" x="0" id="rect22" style="fill: rgb(78, 78, 80); fill-opacity: 1;"></rect> <rect rx="4.01889446" height="8.03778892" width="8.0399655" y="112.529045" x="0" id="rect24" style="fill: rgb(78, 78, 80); fill-opacity: 1;"></rect> <rect rx="4.01889446" height="8.03778892" width="8.0399655" y="128.604623" x="0" id="rect26" style="fill: rgb(78, 78, 80); fill-opacity: 1;"></rect> <rect rx="4.01889446" height="8.03778892" width="8.0399655" y="72.3401003" x="8.0399655" id="rect28" style="fill: rgb(78, 78, 80); fill-opacity: 1;"></rect> <rect rx="4.01889446" height="8.03778892" width="8.0399655" y="88.4156781" x="8.0399655" id="rect30" style="fill: rgb(78, 78, 80); fill-opacity: 1;"></rect> <rect rx="4.01889446" height="8.03778892" width="8.0399655" y="96.453467" x="8.0399655" id="rect32" style="fill: rgb(78, 78, 80); fill-opacity: 1;"></rect> <rect rx="4.01889446" height="8.03778892" width="8.0399655" y="112.529045" x="8.0399655" id="rect34" style="fill: rgb(78, 78, 80); fill-opacity: 1;"></rect> <rect rx="4.01889446" height="8.03778892" width="8.0399655" y="128.604623" x="8.0399655" id="rect36" style="fill: rgb(78, 78, 80); fill-opacity: 1;"></rect> <rect rx="4.01889446" height="8.03778892" width="8.0399655" y="72.3401003" x="16.079931" id="rect38" style="fill: rgb(78, 78, 80); fill-opacity: 1;"></rect> <rect rx="4.01889446" height="8.03778892" width="8.0399655" y="80.3778892" x="16.079931" id="rect40" style="fill: rgb(78, 78, 80); fill-opacity: 1;"></rect> <rect rx="4.01889446" height="8.03778892" width="8.0399655" y="96.453467" x="16.079931" id="rect42" style="fill: rgb(78, 78, 80); fill-opacity: 1;"></rect> <rect rx="4.01889446" height="8.03778892" width="8.0399655" y="112.529045" x="16.079931" id="rect44" style="fill: rgb(78, 78, 80); fill-opacity: 1;"></rect> <rect rx="4.01889446" height="8.03778892" width="8.0399655" y="120.566834" x="16.079931" id="rect46" style="fill: rgb(78, 78, 80); fill-opacity: 1;"></rect> <rect rx="4.01889446" height="8.03778892" width="8.0399655" y="144.680201" x="16.079931" id="rect48" style="fill: rgb(78, 78, 80); fill-opacity: 1;"></rect> <rect rx="4.01889446" height="8.03778892" width="8.0399655" y="152.717989" x="16.079931" id="rect50" style="fill: rgb(78, 78, 80); fill-opacity: 1;"></rect> <rect rx="4.01889446" height="8.03778892" width="8.0399655" y="64" x="24" id="rect52" style="fill: rgb(78, 78, 80); fill-opacity: 1;"></rect> <rect rx="4.01889446" height="8.03778892" width="8.0399655" y="96.453467" x="24.1198965" id="rect54" style="fill: rgb(78, 78, 80); fill-opacity: 1;"></rect> <rect rx="4.01889446" height="8.03778892" width="8.0399655" y="136.642412" x="24.1198965" id="rect56" style="fill: rgb(78, 78, 80); fill-opacity: 1;"></rect> <rect rx="4.01889446" height="8.03778892" width="8.0399655" y="144.680201" x="24.1198965" id="rect58" style="fill: rgb(78, 78, 80); fill-opacity: 1;"></rect> <rect rx="4.01889446" height="8.03778892" width="8.0399655" y="152.717989" x="24.1198965" id="rect60" style="fill: rgb(78, 78, 80); fill-opacity: 1;"></rect> <rect rx="4.01889446" height="8.03778892" width="8.0399655" y="160.755778" x="24.1198965" id="rect62" style="fill: rgb(78, 78, 80); fill-opacity: 1;"></rect> <rect rx="4.01889446" height="8.03778892" width="8.0399655" y="64.3023114" x="32.159862" id="rect64" style="fill: rgb(78, 78, 80); fill-opacity: 1;"></rect> <rect rx="4.01889446" height="8.03778892" width="8.0399655" y="96.453467" x="32.159862" id="rect66" style="fill: rgb(78, 78, 80); fill-opacity: 1;"></rect> <rect rx="4.01889446" height="8.03778892" width="8.0399655" y="104.491256" x="32.159862" id="rect68" style="fill: rgb(78, 78, 80); fill-opacity: 1;"></rect> <rect rx="4.01889446" height="8.03778892" width="8.0399655" y="112.529045" x="32.159862" id="rect70" style="fill: rgb(78, 78, 80); fill-opacity: 1;"></rect> <rect rx="4.01889446" height="8.03778892" width="8.0399655" y="120.566834" x="32.159862" id="rect72" style="fill: rgb(78, 78, 80); fill-opacity: 1;"></rect> <rect rx="4.01889446" height="8.03778892" width="8.0399655" y="152.717989" x="32.159862" id="rect74" style="fill: rgb(78, 78, 80); fill-opacity: 1;"></rect> <rect rx="4.01889446" height="8.03778892" width="8.0399655" y="160.755778" x="32.159862" id="rect76" style="fill: rgb(78, 78, 80); fill-opacity: 1;"></rect> <rect rx="4.01889446" height="8.03778892" width="8.0399655" y="64.3023114" x="40.1998275" id="rect78" style="fill: rgb(78, 78, 80); fill-opacity: 1;"></rect> <rect rx="4.01889446" height="8.03778892" width="8.0399655" y="72.3401003" x="40.1998275" id="rect80" style="fill: rgb(78, 78, 80); fill-opacity: 1;"></rect> <rect rx="4.01889446" height="8.03778892" width="8.0399655" y="96.453467" x="40.1998275" id="rect82" style="fill: rgb(78, 78, 80); fill-opacity: 1;"></rect> <rect rx="4.01889446" height="8.03778892" width="8.0399655" y="104.491256" x="40.1998275" id="rect84" style="fill: rgb(78, 78, 80); fill-opacity: 1;"></rect> <rect rx="4.01889446" height="8.03778892" width="8.0399655" y="120.566834" x="40.1998275" id="rect86" style="fill: rgb(78, 78, 80); fill-opacity: 1;"></rect> <rect rx="4.01889446" height="8.03778892" width="8.0399655" y="136.642412" x="40.1998275" id="rect88" style="fill: rgb(78, 78, 80); fill-opacity: 1;"></rect> <rect rx="4.01889446" height="8.03778892" width="8.0399655" y="144.680201" x="40.1998275" id="rect90" style="fill: rgb(78, 78, 80); fill-opacity: 1;"></rect> <rect rx="4.01889446" height="8.03778892" width="8.0399655" y="152.717989" x="40.1998275" id="rect92" style="fill: rgb(78, 78, 80); fill-opacity: 1;"></rect> <rect rx="4.01889446" height="8.03778892" width="8.0399655" y="160.755778" x="40.1998275" id="rect94" style="fill: rgb(78, 78, 80); fill-opacity: 1;"></rect> <rect rx="4.01889446" height="8.03778892" width="8.0399655" y="64.3023114" x="48.239793" id="rect96" style="fill: rgb(78, 78, 80); fill-opacity: 1;"></rect> <rect rx="4.01889446" height="8.03778892" width="8.0399655" y="80.3778892" x="48.239793" id="rect98" style="fill: rgb(78, 78, 80); fill-opacity: 1;"></rect> <rect rx="4.01889446" height="8.03778892" width="8.0399655" y="96.453467" x="48.239793" id="rect100" style="fill: rgb(78, 78, 80); fill-opacity: 1;"></rect> <rect rx="4.01889446" height="8.03778892" width="8.0399655" y="112.529045" x="48.239793" id="rect102" style="fill: rgb(78, 78, 80); fill-opacity: 1;"></rect> <rect rx="4.01889446" height="8.03778892" width="8.0399655" y="128.604623" x="48.239793" id="rect104" style="fill: rgb(78, 78, 80); fill-opacity: 1;"></rect> <rect rx="4.01889446" height="8.03778892" width="8.0399655" y="144.680201" x="48.239793" id="rect106" style="fill: rgb(78, 78, 80); fill-opacity: 1;"></rect> <rect rx="4.01889446" height="8.03778892" width="8.0399655" y="160.755778" x="48.239793" id="rect108" style="fill: rgb(78, 78, 80); fill-opacity: 1;"></rect> <rect rx="4.01889446" height="8.03778892" width="8.0399655" y="64.3023114" x="56.2797585" id="rect110" style="fill: rgb(78, 78, 80); fill-opacity: 1;"></rect> <rect rx="4.01889446" height="8.03778892" width="8.0399655" y="72.3401003" x="56.2797585" id="rect112" style="fill: rgb(78, 78, 80); fill-opacity: 1;"></rect> <rect rx="4.01889446" height="8.03778892" width="8.0399655" y="88.4156781" x="56.2797585" id="rect114" style="fill: rgb(78, 78, 80); fill-opacity: 1;"></rect> <rect rx="4.01889446" height="8.03778892" width="8.0399655" y="120.566834" x="56.2797585" id="rect116" style="fill: rgb(78, 78, 80); fill-opacity: 1;"></rect> <rect rx="4.01889446" height="8.03778892" width="8.0399655" y="128.604623" x="56.2797585" id="rect118" style="fill: rgb(78, 78, 80); fill-opacity: 1;"></rect> <rect rx="4.01889446" height="8.03778892" width="8.0399655" y="136.642412" x="56.2797585" id="rect120" style="fill: rgb(78, 78, 80); fill-opacity: 1;"></rect> <rect rx="4.01889446" height="8.03778892" width="8.0399655" y="144.680201" x="56.2797585" id="rect122" style="fill: rgb(78, 78, 80); fill-opacity: 1;"></rect> <rect rx="4.01889446" height="8.03778892" width="8.0399655" y="160.755778" x="56.2797585" id="rect124" style="fill: rgb(78, 78, 80); fill-opacity: 1;"></rect> <path id="path126" d="M68.3386184,0 L68.340795,-8.8817842e-16 C70.5603691,-1.29590757e-15 72.3596895,1.79932034 72.3596895,4.01889446 L72.3596895,4.01889446 C72.3596895,6.23846858 70.5603691,8.03778892 68.340795,8.03778892 L68.3386184,8.03778892 C66.1190443,8.03778892 64.319724,6.23846858 64.319724,4.01889446 L64.319724,4.01889446 C64.319724,1.79932034 66.1190443,-4.80449268e-16 68.3386184,-8.8817842e-16 Z" style="fill: rgb(78, 78, 80); fill-opacity: 1;"></path> <path id="path128" d="M68.3386184,8.03778892 L68.340795,8.03778892 C70.5603691,8.03778892 72.3596895,9.83710926 72.3596895,12.0566834 L72.3596895,12.0566834 C72.3596895,14.2762575 70.5603691,16.0755778 68.340795,16.0755778 L68.3386184,16.0755778 C66.1190443,16.0755778 64.319724,14.2762575 64.319724,12.0566834 L64.319724,12.0566834 C64.319724,9.83710926 66.1190443,8.03778892 68.3386184,8.03778892 Z" style="fill: rgb(78, 78, 80); fill-opacity: 1;"></path> <path id="path130" d="M68.3386184,16.0755778 L68.340795,16.0755778 C70.5603691,16.0755778 72.3596895,17.8748982 72.3596895,20.0944723 L72.3596895,20.0944723 C72.3596895,22.3140464 70.5603691,24.1133668 68.340795,24.1133668 L68.3386184,24.1133668 C66.1190443,24.1133668 64.319724,22.3140464 64.319724,20.0944723 L64.319724,20.0944723 C64.319724,17.8748982 66.1190443,16.0755778 68.3386184,16.0755778 Z" style="fill: rgb(78, 78, 80); fill-opacity: 1;"></path> <path id="path132" d="M68.3386184,32.1511557 L68.340795,32.1511557 C70.5603691,32.1511557 72.3596895,33.950476 72.3596895,36.1700501 L72.3596895,36.1700501 C72.3596895,38.3896243 70.5603691,40.1889446 68.340795,40.1889446 L68.3386184,40.1889446 C66.1190443,40.1889446 64.319724,38.3896243 64.319724,36.1700501 L64.319724,36.1700501 C64.319724,33.950476 66.1190443,32.1511557 68.3386184,32.1511557 Z" style="fill: rgb(78, 78, 80); fill-opacity: 1;"></path> <path id="path134" d="M68.3386184,48.2267335 L68.340795,48.2267335 C70.5603691,48.2267335 72.3596895,50.0260539 72.3596895,52.245628 L72.3596895,52.245628 C72.3596895,54.4652021 70.5603691,56.2645224 68.340795,56.2645224 L68.3386184,56.2645224 C66.1190443,56.2645224 64.319724,54.4652021 64.319724,52.245628 L64.319724,52.245628 C64.319724,50.0260539 66.1190443,48.2267335 68.3386184,48.2267335 Z" style="fill: rgb(78, 78, 80); fill-opacity: 1;"></path> <path id="path136" d="M68.3386184,64.3023114 L68.340795,64.3023114 C70.5603691,64.3023114 72.3596895,66.1016317 72.3596895,68.3212058 L72.3596895,68.3212058 C72.3596895,70.5407799 70.5603691,72.3401003 68.340795,72.3401003 L68.3386184,72.3401003 C66.1190443,72.3401003 64.319724,70.5407799 64.319724,68.3212058 L64.319724,68.3212058 C64.319724,66.1016317 66.1190443,64.3023114 68.3386184,64.3023114 Z" style="fill: rgb(78, 78, 80); fill-opacity: 1;"></path> <path id="path138" d="M68.3386184,112.529045 L68.340795,112.529045 C70.5603691,112.529045 72.3596895,114.328365 72.3596895,116.547939 L72.3596895,116.547939 C72.3596895,118.767513 70.5603691,120.566834 68.340795,120.566834 L68.3386184,120.566834 C66.1190443,120.566834 64.319724,118.767513 64.319724,116.547939 L64.319724,116.547939 C64.319724,114.328365 66.1190443,112.529045 68.3386184,112.529045 Z" style="fill: rgb(78, 78, 80); fill-opacity: 1;"></path> <path id="path140" d="M68.3386184,120.566834 L68.340795,120.566834 C70.5603691,120.566834 72.3596895,122.366154 72.3596895,124.585728 L72.3596895,124.585728 C72.3596895,126.805302 70.5603691,128.604623 68.340795,128.604623 L68.3386184,128.604623 C66.1190443,128.604623 64.319724,126.805302 64.319724,124.585728 L64.319724,124.585728 C64.319724,122.366154 66.1190443,120.566834 68.3386184,120.566834 Z" style="fill: rgb(78, 78, 80); fill-opacity: 1;"></path> <path id="path142" d="M68.3386184,128.604623 L68.340795,128.604623 C70.5603691,128.604623 72.3596895,130.403943 72.3596895,132.623517 L72.3596895,132.623517 C72.3596895,134.843091 70.5603691,136.642412 68.340795,136.642412 L68.3386184,136.642412 C66.1190443,136.642412 64.319724,134.843091 64.319724,132.623517 L64.319724,132.623517 C64.319724,130.403943 66.1190443,128.604623 68.3386184,128.604623 Z" style="fill: rgb(78, 78, 80); fill-opacity: 1;"></path> <path id="path144" d="M68.3386184,152.717989 L68.340795,152.717989 C70.5603691,152.717989 72.3596895,154.51731 72.3596895,156.736884 L72.3596895,156.736884 C72.3596895,158.956458 70.5603691,160.755778 68.340795,160.755778 L68.3386184,160.755778 C66.1190443,160.755778 64.319724,158.956458 64.319724,156.736884 L64.319724,156.736884 C64.319724,154.51731 66.1190443,152.717989 68.3386184,152.717989 Z" style="fill: rgb(78, 78, 80); fill-opacity: 1;"></path> <path id="path146" d="M68.3386184,168.793567 L68.340795,168.793567 C70.5603691,168.793567 72.3596895,170.592888 72.3596895,172.812462 L72.3596895,172.812462 C72.3596895,175.032036 70.5603691,176.831356 68.340795,176.831356 L68.3386184,176.831356 C66.1190443,176.831356 64.319724,175.032036 64.319724,172.812462 L64.319724,172.812462 C64.319724,170.592888 66.1190443,168.793567 68.3386184,168.793567 Z" style="fill: rgb(78, 78, 80); fill-opacity: 1;"></path> <path id="path148" d="M68.3386184,176.831356 L68.340795,176.831356 C70.5603691,176.831356 72.3596895,178.630677 72.3596895,180.850251 L72.3596895,180.850251 C72.3596895,183.069825 70.5603691,184.869145 68.340795,184.869145 L68.3386184,184.869145 C66.1190443,184.869145 64.319724,183.069825 64.319724,180.850251 L64.319724,180.850251 C64.319724,178.630677 66.1190443,176.831356 68.3386184,176.831356 Z" style="fill: rgb(78, 78, 80); fill-opacity: 1;"></path> <path id="path150" d="M68.3386184,184.869145 L68.340795,184.869145 C70.5603691,184.869145 72.3596895,186.668466 72.3596895,188.88804 L72.3596895,188.88804 C72.3596895,191.107614 70.5603691,192.906934 68.340795,192.906934 L68.3386184,192.906934 C66.1190443,192.906934 64.319724,191.107614 64.319724,188.88804 L64.319724,188.88804 C64.319724,186.668466 66.1190443,184.869145 68.3386184,184.869145 Z" style="fill: rgb(78, 78, 80); fill-opacity: 1;"></path> <path id="path152" d="M68.3386184,192.906934 L68.340795,192.906934 C70.5603691,192.906934 72.3596895,194.706254 72.3596895,196.925829 L72.3596895,196.925829 C72.3596895,199.145403 70.5603691,200.944723 68.340795,200.944723 L68.3386184,200.944723 C66.1190443,200.944723 64.319724,199.145403 64.319724,196.925829 L64.319724,196.925829 C64.319724,194.706254 66.1190443,192.906934 68.3386184,192.906934 Z" style="fill: rgb(78, 78, 80); fill-opacity: 1;"></path> <path id="path154" d="M68.3386184,200.944723 L68.340795,200.944723 C70.5603691,200.944723 72.3596895,202.744043 72.3596895,204.963617 L72.3596895,204.963617 C72.3596895,207.183192 70.5603691,208.982512 68.340795,208.982512 L68.3386184,208.982512 C66.1190443,208.982512 64.319724,207.183192 64.319724,204.963617 L64.319724,204.963617 C64.319724,202.744043 66.1190443,200.944723 68.3386184,200.944723 Z" style="fill: rgb(78, 78, 80); fill-opacity: 1;"></path> <path id="path156" d="M68.3386184,225.05809 L68.340795,225.05809 C70.5603691,225.05809 72.3596895,226.85741 72.3596895,229.076984 L72.3596895,229.076984 C72.3596895,231.296558 70.5603691,233.095879 68.340795,233.095879 L68.3386184,233.095879 C66.1190443,233.095879 64.319724,231.296558 64.319724,229.076984 L64.319724,229.076984 C64.319724,226.85741 66.1190443,225.05809 68.3386184,225.05809 Z" style="fill: rgb(78, 78, 80); fill-opacity: 1;"></path> <rect rx="4.01889446" height="8.03778892" width="8.0399655" y="16.0755778" x="72.3596895" id="rect158" style="fill: rgb(78, 78, 80); fill-opacity: 1;"></rect> <rect rx="4.01889446" height="8.03778892" width="8.0399655" y="24.1133668" x="72.3596895" id="rect160" style="fill: rgb(78, 78, 80); fill-opacity: 1;"></rect> <rect rx="4.01889446" height="8.03778892" width="8.0399655" y="56.2645224" x="72.3596895" id="rect162" style="fill: rgb(78, 78, 80); fill-opacity: 1;"></rect> <rect rx="4.01889446" height="8.03778892" width="8.0399655" y="72.3401003" x="72.3596895" id="rect164" style="fill: rgb(78, 78, 80); fill-opacity: 1;"></rect> <rect rx="4.01889446" height="8.03778892" width="8.0399655" y="80.3778892" x="72.3596895" id="rect166" style="fill: rgb(78, 78, 80); fill-opacity: 1;"></rect> <rect rx="4.01889446" height="8.03778892" width="8.0399655" y="96.453467" x="72.3596895" id="rect168" style="fill: rgb(78, 78, 80); fill-opacity: 1;"></rect> <rect rx="4.01889446" height="8.03778892" width="8.0399655" y="104.491256" x="72.3596895" id="rect170" style="fill: rgb(78, 78, 80); fill-opacity: 1;"></rect> <rect rx="4.01889446" height="8.03778892" width="8.0399655" y="112.529045" x="72.3596895" id="rect172" style="fill: rgb(78, 78, 80); fill-opacity: 1;"></rect> <rect rx="4.01889446" height="8.03778892" width="8.0399655" y="120.566834" x="72.3596895" id="rect174" style="fill: rgb(78, 78, 80); fill-opacity: 1;"></rect> <rect rx="4.01889446" height="8.03778892" width="8.0399655" y="128.604623" x="72.3596895" id="rect176" style="fill: rgb(78, 78, 80); fill-opacity: 1;"></rect> <rect rx="4.01889446" height="8.03778892" width="8.0399655" y="144.680201" x="72.3596895" id="rect178" style="fill: rgb(78, 78, 80); fill-opacity: 1;"></rect> <rect rx="4.01889446" height="8.03778892" width="8.0399655" y="152.717989" x="72.3596895" id="rect180" style="fill: rgb(78, 78, 80); fill-opacity: 1;"></rect> <rect rx="4.01889446" height="8.03778892" width="8.0399655" y="160.755778" x="72.3596895" id="rect182" style="fill: rgb(78, 78, 80); fill-opacity: 1;"></rect> <rect rx="4.01889446" height="8.03778892" width="8.0399655" y="168.793567" x="72.3596895" id="rect184" style="fill: rgb(78, 78, 80); fill-opacity: 1;"></rect> <rect rx="4.01889446" height="8.03778892" width="8.0399655" y="192.906934" x="72.3596895" id="rect186" style="fill: rgb(78, 78, 80); fill-opacity: 1;"></rect> <rect rx="4.01889446" height="8.03778892" width="8.0399655" y="200.944723" x="72.3596895" id="rect188" style="fill: rgb(78, 78, 80); fill-opacity: 1;"></rect> <rect rx="4.01889446" height="8.03778892" width="8.0399655" y="217.020301" x="72.3596895" id="rect190" style="fill: rgb(78, 78, 80); fill-opacity: 1;"></rect> <rect rx="4.01889446" height="8.03778892" width="8.0399655" y="225.05809" x="72.3596895" id="rect192" style="fill: rgb(78, 78, 80); fill-opacity: 1;"></rect> <rect rx="4.01889446" height="8.03778892" width="8.0399655" y="0" x="80.399655" id="rect194" style="fill: rgb(78, 78, 80); fill-opacity: 1;"></rect> <rect rx="4.01889446" height="8.03778892" width="8.0399655" y="16.0755778" x="80.399655" id="rect196" style="fill: rgb(78, 78, 80); fill-opacity: 1;"></rect> <rect rx="4.01889446" height="8.03778892" width="8.0399655" y="48.2267335" x="80.399655" id="rect198" style="fill: rgb(78, 78, 80); fill-opacity: 1;"></rect> <rect rx="4.01889446" height="8.03778892" width="8.0399655" y="56.2645224" x="80.399655" id="rect200" style="fill: rgb(78, 78, 80); fill-opacity: 1;"></rect> <rect rx="4.01889446" height="8.03778892" width="8.0399655" y="64.3023114" x="80.399655" id="rect202" style="fill: rgb(78, 78, 80); fill-opacity: 1;"></rect> <rect rx="4.01889446" height="8.03778892" width="8.0399655" y="80.3778892" x="80.399655" id="rect204" style="fill: rgb(78, 78, 80); fill-opacity: 1;"></rect> <rect rx="4.01889446" height="8.03778892" width="8.0399655" y="88.4156781" x="80.399655" id="rect206" style="fill: rgb(78, 78, 80); fill-opacity: 1;"></rect> <rect rx="4.01889446" height="8.03778892" width="8.0399655" y="96.453467" x="80.399655" id="rect208" style="fill: rgb(78, 78, 80); fill-opacity: 1;"></rect> <rect rx="4.01889446" height="8.03778892" width="8.0399655" y="104.491256" x="80.399655" id="rect210" style="fill: rgb(78, 78, 80); fill-opacity: 1;"></rect> <rect rx="4.01889446" height="8.03778892" width="8.0399655" y="120.566834" x="80.399655" id="rect212" style="fill: rgb(78, 78, 80); fill-opacity: 1;"></rect> <rect rx="4.01889446" height="8.03778892" width="8.0399655" y="136.642412" x="80.399655" id="rect214" style="fill: rgb(78, 78, 80); fill-opacity: 1;"></rect> <rect rx="4.01889446" height="8.03778892" width="8.0399655" y="152.717989" x="80.399655" id="rect216" style="fill: rgb(78, 78, 80); fill-opacity: 1;"></rect> <rect rx="4.01889446" height="8.03778892" width="8.0399655" y="160.755778" x="80.399655" id="rect218" style="fill: rgb(78, 78, 80); fill-opacity: 1;"></rect> <rect rx="4.01889446" height="8.03778892" width="8.0399655" y="168.793567" x="80.399655" id="rect220" style="fill: rgb(78, 78, 80); fill-opacity: 1;"></rect> <rect rx="4.01889446" height="8.03778892" width="8.0399655" y="192.906934" x="80.399655" id="rect222" style="fill: rgb(78, 78, 80); fill-opacity: 1;"></rect> <rect rx="4.01889446" height="8.03778892" width="8.0399655" y="200.944723" x="80.399655" id="rect224" style="fill: rgb(78, 78, 80); fill-opacity: 1;"></rect> <rect rx="4.01889446" height="8.03778892" width="8.0399655" y="208.982512" x="80.399655" id="rect226" style="fill: rgb(78, 78, 80); fill-opacity: 1;"></rect> <rect rx="4.01889446" height="8.03778892" width="8.0399655" y="217.020301" x="80.399655" id="rect228" style="fill: rgb(78, 78, 80); fill-opacity: 1;"></rect> <rect rx="4.01889446" height="8.03778892" width="8.0399655" y="0" x="88.4396205" id="rect230" style="fill: rgb(78, 78, 80); fill-opacity: 1;"></rect> <rect rx="4.01889446" height="8.03778892" width="8.0399655" y="32.1511557" x="88.4396205" id="rect232" style="fill: rgb(78, 78, 80); fill-opacity: 1;"></rect> <rect rx="4.01889446" height="8.03778892" width="8.0399655" y="56.2645224" x="88.4396205" id="rect234" style="fill: rgb(78, 78, 80); fill-opacity: 1;"></rect> <rect rx="4.01889446" height="8.03778892" width="8.0399655" y="144.680201" x="88.4396205" id="rect236" style="fill: rgb(78, 78, 80); fill-opacity: 1;"></rect> <rect rx="4.01889446" height="8.03778892" width="8.0399655" y="176.831356" x="88.4396205" id="rect238" style="fill: rgb(78, 78, 80); fill-opacity: 1;"></rect> <rect rx="4.01889446" height="8.03778892" width="8.0399655" y="192.906934" x="88.4396205" id="rect240" style="fill: rgb(78, 78, 80); fill-opacity: 1;"></rect> <rect rx="4.01889446" height="8.03778892" width="8.0399655" y="208.982512" x="88.4396205" id="rect242" style="fill: rgb(78, 78, 80); fill-opacity: 1;"></rect> <rect rx="4.01889446" height="8.03778892" width="8.0399655" y="24.1133668" x="96.479586" id="rect244" style="fill: rgb(78, 78, 80); fill-opacity: 1;"></rect> <rect rx="4.01889446" height="8.03778892" width="8.0399655" y="48.2267335" x="96.479586" id="rect246" style="fill: rgb(78, 78, 80); fill-opacity: 1;"></rect> <rect rx="4.01889446" height="8.03778892" width="8.0399655" y="64.3023114" x="96.479586" id="rect248" style="fill: rgb(78, 78, 80); fill-opacity: 1;"></rect> <rect rx="4.01889446" height="8.03778892" width="8.0399655" y="72.3401003" x="96.479586" id="rect250" style="fill: rgb(78, 78, 80); fill-opacity: 1;"></rect> <rect rx="4.01889446" height="8.03778892" width="8.0399655" y="80.3778892" x="96.479586" id="rect252" style="fill: rgb(78, 78, 80); fill-opacity: 1;"></rect> <rect rx="4.01889446" height="8.03778892" width="8.0399655" y="152.717989" x="96.479586" id="rect254" style="fill: rgb(78, 78, 80); fill-opacity: 1;"></rect> <rect rx="4.01889446" height="8.03778892" width="8.0399655" y="160.755778" x="96.479586" id="rect256" style="fill: rgb(78, 78, 80); fill-opacity: 1;"></rect> <rect rx="4.01889446" height="8.03778892" width="8.0399655" y="176.831356" x="96.479586" id="rect258" style="fill: rgb(78, 78, 80); fill-opacity: 1;"></rect> <rect rx="4.01889446" height="8.03778892" width="8.0399655" y="200.944723" x="96.479586" id="rect260" style="fill: rgb(78, 78, 80); fill-opacity: 1;"></rect> <rect rx="4.01889446" height="8.03778892" width="8.0399655" y="208.982512" x="96.479586" id="rect262" style="fill: rgb(78, 78, 80); fill-opacity: 1;"></rect> <rect rx="4.01889446" height="8.03778892" width="8.0399655" y="217.020301" x="96.479586" id="rect264" style="fill: rgb(78, 78, 80); fill-opacity: 1;"></rect> <rect rx="4.01889446" height="8.03778892" width="8.0399655" y="225.05809" x="96.479586" id="rect266" style="fill: rgb(78, 78, 80); fill-opacity: 1;"></rect> <rect rx="4.01889446" height="8.03778892" width="8.0399655" y="56.2645224" x="104.519551" id="rect268" style="fill: rgb(78, 78, 80); fill-opacity: 1;"></rect> <rect rx="4.01889446" height="8.03778892" width="8.0399655" y="64.3023114" x="104.519551" id="rect270" style="fill: rgb(78, 78, 80); fill-opacity: 1;"></rect> <rect rx="4.01889446" height="8.03778892" width="8.0399655" y="72.3401003" x="104.519551" id="rect272" style="fill: rgb(78, 78, 80); fill-opacity: 1;"></rect> <rect rx="4.01889446" height="8.03778892" width="8.0399655" y="80.3778892" x="104.519551" id="rect274" style="fill: rgb(78, 78, 80); fill-opacity: 1;"></rect> <rect rx="4.01889446" height="8.03778892" width="8.0399655" y="160.755778" x="104.519551" id="rect276" style="fill: rgb(78, 78, 80); fill-opacity: 1;"></rect> <rect rx="4.01889446" height="8.03778892" width="8.0399655" y="192.906934" x="104.519551" id="rect278" style="fill: rgb(78, 78, 80); fill-opacity: 1;"></rect> <rect rx="4.01889446" height="8.03778892" width="8.0399655" y="200.944723" x="104.519551" id="rect280" style="fill: rgb(78, 78, 80); fill-opacity: 1;"></rect> <rect rx="4.01889446" height="8.03778892" width="8.0399655" y="217.020301" x="104.519551" id="rect282" style="fill: rgb(78, 78, 80); fill-opacity: 1;"></rect> <rect rx="4.01889446" height="8.03778892" width="8.0399655" y="32.1511557" x="112.559517" id="rect284" style="fill: rgb(78, 78, 80); fill-opacity: 1;"></rect> <rect rx="4.01889446" height="8.03778892" width="8.0399655" y="48.2267335" x="112.559517" id="rect286" style="fill: rgb(78, 78, 80); fill-opacity: 1;"></rect> <rect rx="4.01889446" height="8.03778892" width="8.0399655" y="152.717989" x="112.559517" id="rect288" style="fill: rgb(78, 78, 80); fill-opacity: 1;"></rect> <rect rx="4.01889446" height="8.03778892" width="8.0399655" y="160.755778" x="112.559517" id="rect290" style="fill: rgb(78, 78, 80); fill-opacity: 1;"></rect> <rect rx="4.01889446" height="8.03778892" width="8.0399655" y="168.793567" x="112.559517" id="rect292" style="fill: rgb(78, 78, 80); fill-opacity: 1;"></rect> <rect rx="4.01889446" height="8.03778892" width="8.0399655" y="176.831356" x="112.559517" id="rect294" style="fill: rgb(78, 78, 80); fill-opacity: 1;"></rect> <rect rx="4.01889446" height="8.03778892" width="8.0399655" y="184.869145" x="112.559517" id="rect296" style="fill: rgb(78, 78, 80); fill-opacity: 1;"></rect> <rect rx="4.01889446" height="8.03778892" width="8.0399655" y="192.906934" x="112.559517" id="rect298" style="fill: rgb(78, 78, 80); fill-opacity: 1;"></rect> <rect rx="4.01889446" height="8.03778892" width="8.0399655" y="208.982512" x="112.559517" id="rect300" style="fill: rgb(78, 78, 80); fill-opacity: 1;"></rect> <rect rx="4.01889446" height="8.03778892" width="8.0399655" y="0" x="120.599482" id="rect302" style="fill: rgb(78, 78, 80); fill-opacity: 1;"></rect> <rect rx="4.01889446" height="8.03778892" width="8.0399655" y="16.0755778" x="120.599482" id="rect304" style="fill: rgb(78, 78, 80); fill-opacity: 1;"></rect> <rect rx="4.01889446" height="8.03778892" width="8.0399655" y="32.1511557" x="120.599482" id="rect306" style="fill: rgb(78, 78, 80); fill-opacity: 1;"></rect> <rect rx="4.01889446" height="8.03778892" width="8.0399655" y="40.1889446" x="120.599482" id="rect308" style="fill: rgb(78, 78, 80); fill-opacity: 1;"></rect> <rect rx="4.01889446" height="8.03778892" width="8.0399655" y="56.2645224" x="120.599482" id="rect310" style="fill: rgb(78, 78, 80); fill-opacity: 1;"></rect> <rect rx="4.01889446" height="8.03778892" width="8.0399655" y="80.3778892" x="120.599482" id="rect312" style="fill: rgb(78, 78, 80); fill-opacity: 1;"></rect> <rect rx="4.01889446" height="8.03778892" width="8.0399655" y="144.680201" x="120.599482" id="rect314" style="fill: rgb(78, 78, 80); fill-opacity: 1;"></rect> <rect rx="4.01889446" height="8.03778892" width="8.0399655" y="160.755778" x="120.599482" id="rect316" style="fill: rgb(78, 78, 80); fill-opacity: 1;"></rect> <rect rx="4.01889446" height="8.03778892" width="8.0399655" y="184.869145" x="120.599482" id="rect318" style="fill: rgb(78, 78, 80); fill-opacity: 1;"></rect> <rect rx="4.01889446" height="8.03778892" width="8.0399655" y="208.982512" x="120.599482" id="rect320" style="fill: rgb(78, 78, 80); fill-opacity: 1;"></rect> <rect rx="4.01889446" height="8.03778892" width="8.0399655" y="225.05809" x="120.599482" id="rect322" style="fill: rgb(78, 78, 80); fill-opacity: 1;"></rect> <rect rx="4.01889446" height="8.03778892" width="8.0399655" y="0" x="128.639448" id="rect324" style="fill: rgb(78, 78, 80); fill-opacity: 1;"></rect> <rect rx="4.01889446" height="8.03778892" width="8.0399655" y="8.03778892" x="128.639448" id="rect326" style="fill: rgb(78, 78, 80); fill-opacity: 1;"></rect> <rect rx="4.01889446" height="8.03778892" width="8.0399655" y="16.0755778" x="128.639448" id="rect328" style="fill: rgb(78, 78, 80); fill-opacity: 1;"></rect> <rect rx="4.01889446" height="8.03778892" width="8.0399655" y="24.1133668" x="128.639448" id="rect330" style="fill: rgb(78, 78, 80); fill-opacity: 1;"></rect> <rect rx="4.01889446" height="8.03778892" width="8.0399655" y="32.1511557" x="128.639448" id="rect332" style="fill: rgb(78, 78, 80); fill-opacity: 1;"></rect> <rect rx="4.01889446" height="8.03778892" width="8.0399655" y="40.1889446" x="128.639448" id="rect334" style="fill: rgb(78, 78, 80); fill-opacity: 1;"></rect> <rect rx="4.01889446" height="8.03778892" width="8.0399655" y="48.2267335" x="128.639448" id="rect336" style="fill: rgb(78, 78, 80); fill-opacity: 1;"></rect> <rect rx="4.01889446" height="8.03778892" width="8.0399655" y="56.2645224" x="128.639448" id="rect338" style="fill: rgb(78, 78, 80); fill-opacity: 1;"></rect> <rect rx="4.01889446" height="8.03778892" width="8.0399655" y="72.3401003" x="128.639448" id="rect340" style="fill: rgb(78, 78, 80); fill-opacity: 1;"></rect> <rect rx="4.01889446" height="8.03778892" width="8.0399655" y="80.3778892" x="128.639448" id="rect342" style="fill: rgb(78, 78, 80); fill-opacity: 1;"></rect> <rect rx="4.01889446" height="8.03778892" width="8.0399655" y="160.755778" x="128.639448" id="rect344" style="fill: rgb(78, 78, 80); fill-opacity: 1;"></rect> <rect rx="4.01889446" height="8.03778892" width="8.0399655" y="217.020301" x="128.639448" id="rect346" style="fill: rgb(78, 78, 80); fill-opacity: 1;"></rect> <rect rx="4.01889446" height="8.03778892" width="8.0399655" y="0" x="136.679413" id="rect348" style="fill: rgb(78, 78, 80); fill-opacity: 1;"></rect> <rect rx="4.01889446" height="8.03778892" width="8.0399655" y="24.1133668" x="136.679413" id="rect350" style="fill: rgb(78, 78, 80); fill-opacity: 1;"></rect> <rect rx="4.01889446" height="8.03778892" width="8.0399655" y="64.3023114" x="136.679413" id="rect352" style="fill: rgb(78, 78, 80); fill-opacity: 1;"></rect> <rect rx="4.01889446" height="8.03778892" width="8.0399655" y="88.4156781" x="144.719379" id="rect354" style="fill: rgb(78, 78, 80); fill-opacity: 1;"></rect> <rect rx="4.01889446" height="8.03778892" width="8.0399655" y="96.453467" x="144.719379" id="rect356" style="fill: rgb(78, 78, 80); fill-opacity: 1;"></rect> <rect rx="4.01889446" height="8.03778892" width="8.0399655" y="144.680201" x="136.679413" id="rect358" style="fill: rgb(78, 78, 80); fill-opacity: 1;"></rect> <rect rx="4.01889446" height="8.03778892" width="8.0399655" y="160.755778" x="136.679413" id="rect360" style="fill: rgb(78, 78, 80); fill-opacity: 1;"></rect> <rect rx="4.01889446" height="8.03778892" width="8.0399655" y="184.869145" x="136.679413" id="rect362" style="fill: rgb(78, 78, 80); fill-opacity: 1;"></rect> <rect rx="4.01889446" height="8.03778892" width="8.0399655" y="192.906934" x="136.679413" id="rect364" style="fill: rgb(78, 78, 80); fill-opacity: 1;"></rect> <rect rx="4.01889446" height="8.03778892" width="8.0399655" y="200.944723" x="136.679413" id="rect366" style="fill: rgb(78, 78, 80); fill-opacity: 1;"></rect> <rect rx="4.01889446" height="8.03778892" width="8.0399655" y="208.982512" x="136.679413" id="rect368" style="fill: rgb(78, 78, 80); fill-opacity: 1;"></rect> <rect rx="4.01889446" height="8.03778892" width="8.0399655" y="217.020301" x="136.679413" id="rect370" style="fill: rgb(78, 78, 80); fill-opacity: 1;"></rect> <rect rx="4.01889446" height="8.03778892" width="8.0399655" y="225.05809" x="136.679413" id="rect372" style="fill: rgb(78, 78, 80); fill-opacity: 1;"></rect> <rect rx="4.01889446" height="8.03778892" width="8.0399655" y="0" x="144.719379" id="rect374" style="fill: rgb(78, 78, 80); fill-opacity: 1;"></rect> <rect rx="4.01889446" height="8.03778892" width="8.0399655" y="8.03778892" x="144.719379" id="rect376" style="fill: rgb(78, 78, 80); fill-opacity: 1;"></rect> <rect rx="4.01889446" height="8.03778892" width="8.0399655" y="24.1133668" x="144.719379" id="rect378" style="fill: rgb(78, 78, 80); fill-opacity: 1;"></rect> <rect rx="4.01889446" height="8.03778892" width="8.0399655" y="48.2267335" x="144.719379" id="rect380" style="fill: rgb(78, 78, 80); fill-opacity: 1;"></rect> <rect rx="4.01889446" height="8.03778892" width="8.0399655" y="80.3778892" x="144.719379" id="rect382" style="fill: rgb(78, 78, 80); fill-opacity: 1;"></rect> <rect rx="4.01889446" height="8.03778892" width="8.0399655" y="144.680201" x="144.719379" id="rect384" style="fill: rgb(78, 78, 80); fill-opacity: 1;"></rect> <rect rx="4.01889446" height="8.03778892" width="8.0399655" y="176.831356" x="144.719379" id="rect386" style="fill: rgb(78, 78, 80); fill-opacity: 1;"></rect> <rect rx="4.01889446" height="8.03778892" width="8.0399655" y="184.869145" x="144.719379" id="rect388" style="fill: rgb(78, 78, 80); fill-opacity: 1;"></rect> <rect rx="4.01889446" height="8.03778892" width="8.0399655" y="192.906934" x="144.719379" id="rect390" style="fill: rgb(78, 78, 80); fill-opacity: 1;"></rect> <rect rx="4.01889446" height="8.03778892" width="8.0399655" y="200.944723" x="144.719379" id="rect392" style="fill: rgb(78, 78, 80); fill-opacity: 1;"></rect> <rect rx="4.01889446" height="8.03778892" width="8.0399655" y="217.020301" x="144.719379" id="rect394" style="fill: rgb(78, 78, 80); fill-opacity: 1;"></rect> <path id="path396" d="M156.778239,8.03778892 L156.780415,8.03778892 C158.99999,8.03778892 160.79931,9.83710926 160.79931,12.0566834 L160.79931,12.0566834 C160.79931,14.2762575 158.99999,16.0755778 156.780415,16.0755778 L156.778239,16.0755778 C154.558665,16.0755778 152.759344,14.2762575 152.759344,12.0566834 L152.759344,12.0566834 C152.759344,9.83710926 154.558665,8.03778892 156.778239,8.03778892 Z" style="fill: rgb(78, 78, 80); fill-opacity: 1;"></path> <path id="path398" d="M156.778239,32.1511557 L156.780415,32.1511557 C158.99999,32.1511557 160.79931,33.950476 160.79931,36.1700501 L160.79931,36.1700501 C160.79931,38.3896243 158.99999,40.1889446 156.780415,40.1889446 L156.778239,40.1889446 C154.558665,40.1889446 152.759344,38.3896243 152.759344,36.1700501 L152.759344,36.1700501 C152.759344,33.950476 154.558665,32.1511557 156.778239,32.1511557 Z" style="fill: rgb(78, 78, 80); fill-opacity: 1;"></path> <path id="path400" d="M156.778239,56.2645224 L156.780415,56.2645224 C158.99999,56.2645224 160.79931,58.0638428 160.79931,60.2834169 L160.79931,60.2834169 C160.79931,62.502991 158.99999,64.3023114 156.780415,64.3023114 L156.778239,64.3023114 C154.558665,64.3023114 152.759344,62.502991 152.759344,60.2834169 L152.759344,60.2834169 C152.759344,58.0638428 154.558665,56.2645224 156.778239,56.2645224 Z" style="fill: rgb(78, 78, 80); fill-opacity: 1;"></path> <path id="path402" d="M156.778239,72.3401003 L156.780415,72.3401003 C158.99999,72.3401003 160.79931,74.1394206 160.79931,76.3589947 L160.79931,76.3589947 C160.79931,78.5785689 158.99999,80.3778892 156.780415,80.3778892 L156.778239,80.3778892 C154.558665,80.3778892 152.759344,78.5785689 152.759344,76.3589947 L152.759344,76.3589947 C152.759344,74.1394206 154.558665,72.3401003 156.778239,72.3401003 Z" style="fill: rgb(78, 78, 80); fill-opacity: 1;"></path> <path id="path404" d="M156.778239,88.4156781 L156.780415,88.4156781 C158.99999,88.4156781 160.79931,90.2149985 160.79931,92.4345726 L160.79931,92.4345726 C160.79931,94.6541467 158.99999,96.453467 156.780415,96.453467 L156.778239,96.453467 C154.558665,96.453467 152.759344,94.6541467 152.759344,92.4345726 L152.759344,92.4345726 C152.759344,90.2149985 154.558665,88.4156781 156.778239,88.4156781 Z" style="fill: rgb(78, 78, 80); fill-opacity: 1;"></path> <path id="path406" d="M156.778239,96.453467 L156.780415,96.453467 C158.99999,96.453467 160.79931,98.2527874 160.79931,100.472362 L160.79931,100.472362 C160.79931,102.691936 158.99999,104.491256 156.780415,104.491256 L156.778239,104.491256 C154.558665,104.491256 152.759344,102.691936 152.759344,100.472362 L152.759344,100.472362 C152.759344,98.2527874 154.558665,96.453467 156.778239,96.453467 Z" style="fill: rgb(78, 78, 80); fill-opacity: 1;"></path> <path id="path408" d="M156.778239,112.529045 L156.780415,112.529045 C158.99999,112.529045 160.79931,114.328365 160.79931,116.547939 L160.79931,116.547939 C160.79931,118.767513 158.99999,120.566834 156.780415,120.566834 L156.778239,120.566834 C154.558665,120.566834 152.759344,118.767513 152.759344,116.547939 L152.759344,116.547939 C152.759344,114.328365 154.558665,112.529045 156.778239,112.529045 Z" style="fill: rgb(78, 78, 80); fill-opacity: 1;"></path> <path id="path410" d="M156.778239,120.566834 L156.780415,120.566834 C158.99999,120.566834 160.79931,122.366154 160.79931,124.585728 L160.79931,124.585728 C160.79931,126.805302 158.99999,128.604623 156.780415,128.604623 L156.778239,128.604623 C154.558665,128.604623 152.759344,126.805302 152.759344,124.585728 L152.759344,124.585728 C152.759344,122.366154 154.558665,120.566834 156.778239,120.566834 Z" style="fill: rgb(78, 78, 80); fill-opacity: 1;"></path> <path id="path412" d="M156.778239,128.604623 L156.780415,128.604623 C158.99999,128.604623 160.79931,130.403943 160.79931,132.623517 L160.79931,132.623517 C160.79931,134.843091 158.99999,136.642412 156.780415,136.642412 L156.778239,136.642412 C154.558665,136.642412 152.759344,134.843091 152.759344,132.623517 L152.759344,132.623517 C152.759344,130.403943 154.558665,128.604623 156.778239,128.604623 Z" style="fill: rgb(78, 78, 80); fill-opacity: 1;"></path> <path id="path414" d="M156.778239,136.642412 L156.780415,136.642412 C158.99999,136.642412 160.79931,138.441732 160.79931,140.661306 L160.79931,140.661306 C160.79931,142.88088 158.99999,144.680201 156.780415,144.680201 L156.778239,144.680201 C154.558665,144.680201 152.759344,142.88088 152.759344,140.661306 L152.759344,140.661306 C152.759344,138.441732 154.558665,136.642412 156.778239,136.642412 Z" style="fill: rgb(78, 78, 80); fill-opacity: 1;"></path> <path id="path416" d="M156.778239,144.680201 L156.780415,144.680201 C158.99999,144.680201 160.79931,146.479521 160.79931,148.699095 L160.79931,148.699095 C160.79931,150.918669 158.99999,152.717989 156.780415,152.717989 L156.778239,152.717989 C154.558665,152.717989 152.759344,150.918669 152.759344,148.699095 L152.759344,148.699095 C152.759344,146.479521 154.558665,144.680201 156.778239,144.680201 Z" style="fill: rgb(78, 78, 80); fill-opacity: 1;"></path> <path id="path418" d="M156.778239,152.717989 L156.780415,152.717989 C158.99999,152.717989 160.79931,154.51731 160.79931,156.736884 L160.79931,156.736884 C160.79931,158.956458 158.99999,160.755778 156.780415,160.755778 L156.778239,160.755778 C154.558665,160.755778 152.759344,158.956458 152.759344,156.736884 L152.759344,156.736884 C152.759344,154.51731 154.558665,152.717989 156.778239,152.717989 Z" style="fill: rgb(78, 78, 80); fill-opacity: 1;"></path> <path id="path420" d="M156.778239,176.831356 L156.780415,176.831356 C158.99999,176.831356 160.79931,178.630677 160.79931,180.850251 L160.79931,180.850251 C160.79931,183.069825 158.99999,184.869145 156.780415,184.869145 L156.778239,184.869145 C154.558665,184.869145 152.759344,183.069825 152.759344,180.850251 L152.759344,180.850251 C152.759344,178.630677 154.558665,176.831356 156.778239,176.831356 Z" style="fill: rgb(78, 78, 80); fill-opacity: 1;"></path> <path id="path422" d="M156.778239,184.869145 L156.780415,184.869145 C158.99999,184.869145 160.79931,186.668466 160.79931,188.88804 L160.79931,188.88804 C160.79931,191.107614 158.99999,192.906934 156.780415,192.906934 L156.778239,192.906934 C154.558665,192.906934 152.759344,191.107614 152.759344,188.88804 L152.759344,188.88804 C152.759344,186.668466 154.558665,184.869145 156.778239,184.869145 Z" style="fill: rgb(78, 78, 80); fill-opacity: 1;"></path> <path id="path424" d="M156.778239,192.906934 L156.780415,192.906934 C158.99999,192.906934 160.79931,194.706254 160.79931,196.925829 L160.79931,196.925829 C160.79931,199.145403 158.99999,200.944723 156.780415,200.944723 L156.778239,200.944723 C154.558665,200.944723 152.759344,199.145403 152.759344,196.925829 L152.759344,196.925829 C152.759344,194.706254 154.558665,192.906934 156.778239,192.906934 Z" style="fill: rgb(78, 78, 80); fill-opacity: 1;"></path> <path id="path426" d="M156.778239,225.05809 L156.780415,225.05809 C158.99999,225.05809 160.79931,226.85741 160.79931,229.076984 L160.79931,229.076984 C160.79931,231.296558 158.99999,233.095879 156.780415,233.095879 L156.778239,233.095879 C154.558665,233.095879 152.759344,231.296558 152.759344,229.076984 L152.759344,229.076984 C152.759344,226.85741 154.558665,225.05809 156.778239,225.05809 Z" style="fill: rgb(78, 78, 80); fill-opacity: 1;"></path> <path id="path428" d="M164.818204,40.1889446 L164.820381,40.1889446 C167.039955,40.1889446 168.839275,41.9882649 168.839275,44.2078391 L168.839275,44.2078391 C168.839275,46.4274132 167.039955,48.2267335 164.820381,48.2267335 L164.818204,48.2267335 C162.59863,48.2267335 160.79931,46.4274132 160.79931,44.2078391 L160.79931,44.2078391 C160.79931,41.9882649 162.59863,40.1889446 164.818204,40.1889446 Z" style="fill: rgb(78, 78, 80); fill-opacity: 1;"></path> <path id="path430" d="M164.818204,48.2267335 L164.820381,48.2267335 C167.039955,48.2267335 168.839275,50.0260539 168.839275,52.245628 L168.839275,52.245628 C168.839275,54.4652021 167.039955,56.2645224 164.820381,56.2645224 L164.818204,56.2645224 C162.59863,56.2645224 160.79931,54.4652021 160.79931,52.245628 L160.79931,52.245628 C160.79931,50.0260539 162.59863,48.2267335 164.818204,48.2267335 Z" style="fill: rgb(78, 78, 80); fill-opacity: 1;"></path> <path id="path432" d="M164.818204,56.2645224 L164.820381,56.2645224 C167.039955,56.2645224 168.839275,58.0638428 168.839275,60.2834169 L168.839275,60.2834169 C168.839275,62.502991 167.039955,64.3023114 164.820381,64.3023114 L164.818204,64.3023114 C162.59863,64.3023114 160.79931,62.502991 160.79931,60.2834169 L160.79931,60.2834169 C160.79931,58.0638428 162.59863,56.2645224 164.818204,56.2645224 Z" style="fill: rgb(78, 78, 80); fill-opacity: 1;"></path> <path id="path434" d="M164.818204,80.3778892 L164.820381,80.3778892 C167.039955,80.3778892 168.839275,82.1772095 168.839275,84.3967837 L168.839275,84.3967837 C168.839275,86.6163578 167.039955,88.4156781 164.820381,88.4156781 L164.818204,88.4156781 C162.59863,88.4156781 160.79931,86.6163578 160.79931,84.3967837 L160.79931,84.3967837 C160.79931,82.1772095 162.59863,80.3778892 164.818204,80.3778892 Z" style="fill: rgb(78, 78, 80); fill-opacity: 1;"></path> <path id="path436" d="M164.818204,88.4156781 L164.820381,88.4156781 C167.039955,88.4156781 168.839275,90.2149985 168.839275,92.4345726 L168.839275,92.4345726 C168.839275,94.6541467 167.039955,96.453467 164.820381,96.453467 L164.818204,96.453467 C162.59863,96.453467 160.79931,94.6541467 160.79931,92.4345726 L160.79931,92.4345726 C160.79931,90.2149985 162.59863,88.4156781 164.818204,88.4156781 Z" style="fill: rgb(78, 78, 80); fill-opacity: 1;"></path> <path id="path438" d="M164.818204,112.529045 L164.820381,112.529045 C167.039955,112.529045 168.839275,114.328365 168.839275,116.547939 L168.839275,116.547939 C168.839275,118.767513 167.039955,120.566834 164.820381,120.566834 L164.818204,120.566834 C162.59863,120.566834 160.79931,118.767513 160.79931,116.547939 L160.79931,116.547939 C160.79931,114.328365 162.59863,112.529045 164.818204,112.529045 Z" style="fill: rgb(78, 78, 80); fill-opacity: 1;"></path> <path id="path440" d="M164.818204,128.604623 L164.820381,128.604623 C167.039955,128.604623 168.839275,130.403943 168.839275,132.623517 L168.839275,132.623517 C168.839275,134.843091 167.039955,136.642412 164.820381,136.642412 L164.818204,136.642412 C162.59863,136.642412 160.79931,134.843091 160.79931,132.623517 L160.79931,132.623517 C160.79931,130.403943 162.59863,128.604623 164.818204,128.604623 Z" style="fill: rgb(78, 78, 80); fill-opacity: 1;"></path> <path id="path442" d="M164.818204,160.755778 L164.820381,160.755778 C167.039955,160.755778 168.839275,162.555099 168.839275,164.774673 L168.839275,164.774673 C168.839275,166.994247 167.039955,168.793567 164.820381,168.793567 L164.818204,168.793567 C162.59863,168.793567 160.79931,166.994247 160.79931,164.774673 L160.79931,164.774673 C160.79931,162.555099 162.59863,160.755778 164.818204,160.755778 Z" style="fill: rgb(78, 78, 80); fill-opacity: 1;"></path> <path id="path444" d="M164.818204,168.793567 L164.820381,168.793567 C167.039955,168.793567 168.839275,170.592888 168.839275,172.812462 L168.839275,172.812462 C168.839275,175.032036 167.039955,176.831356 164.820381,176.831356 L164.818204,176.831356 C162.59863,176.831356 160.79931,175.032036 160.79931,172.812462 L160.79931,172.812462 C160.79931,170.592888 162.59863,168.793567 164.818204,168.793567 Z" style="fill: rgb(78, 78, 80); fill-opacity: 1;"></path> <path id="path446" d="M164.818204,176.831356 L164.820381,176.831356 C167.039955,176.831356 168.839275,178.630677 168.839275,180.850251 L168.839275,180.850251 C168.839275,183.069825 167.039955,184.869145 164.820381,184.869145 L164.818204,184.869145 C162.59863,184.869145 160.79931,183.069825 160.79931,180.850251 L160.79931,180.850251 C160.79931,178.630677 162.59863,176.831356 164.818204,176.831356 Z" style="fill: rgb(78, 78, 80); fill-opacity: 1;"></path> <path id="path448" d="M164.818204,184.869145 L164.820381,184.869145 C167.039955,184.869145 168.839275,186.668466 168.839275,188.88804 L168.839275,188.88804 C168.839275,191.107614 167.039955,192.906934 164.820381,192.906934 L164.818204,192.906934 C162.59863,192.906934 160.79931,191.107614 160.79931,188.88804 L160.79931,188.88804 C160.79931,186.668466 162.59863,184.869145 164.818204,184.869145 Z" style="fill: rgb(78, 78, 80); fill-opacity: 1;"></path> <path id="path450" d="M164.818204,192.906934 L164.820381,192.906934 C167.039955,192.906934 168.839275,194.706254 168.839275,196.925829 L168.839275,196.925829 C168.839275,199.145403 167.039955,200.944723 164.820381,200.944723 L164.818204,200.944723 C162.59863,200.944723 160.79931,199.145403 160.79931,196.925829 L160.79931,196.925829 C160.79931,194.706254 162.59863,192.906934 164.818204,192.906934 Z" style="fill: rgb(78, 78, 80); fill-opacity: 1;"></path> <path id="path452" d="M164.818204,208.982512 L164.820381,208.982512 C167.039955,208.982512 168.839275,210.781832 168.839275,213.001406 L168.839275,213.001406 C168.839275,215.220981 167.039955,217.020301 164.820381,217.020301 L164.818204,217.020301 C162.59863,217.020301 160.79931,215.220981 160.79931,213.001406 L160.79931,213.001406 C160.79931,210.781832 162.59863,208.982512 164.818204,208.982512 Z" style="fill: rgb(78, 78, 80); fill-opacity: 1;"></path> <path id="path454" d="M164.818204,225.05809 L164.820381,225.05809 C167.039955,225.05809 168.839275,226.85741 168.839275,229.076984 L168.839275,229.076984 C168.839275,231.296558 167.039955,233.095879 164.820381,233.095879 L164.818204,233.095879 C162.59863,233.095879 160.79931,231.296558 160.79931,229.076984 L160.79931,229.076984 C160.79931,226.85741 162.59863,225.05809 164.818204,225.05809 Z" style="fill: rgb(78, 78, 80); fill-opacity: 1;"></path> <path id="path456" d="M172.85817,64.3023114 L172.860346,64.3023114 C175.079921,64.3023114 176.879241,66.1016317 176.879241,68.3212058 L176.879241,68.3212058 C176.879241,70.5407799 175.079921,72.3401003 172.860346,72.3401003 L172.85817,72.3401003 C170.638596,72.3401003 168.839275,70.5407799 168.839275,68.3212058 L168.839275,68.3212058 C168.839275,66.1016317 170.638596,64.3023114 172.85817,64.3023114 Z" style="fill: rgb(78, 78, 80); fill-opacity: 1;"></path> <path id="path458" d="M172.85817,80.3778892 L172.860346,80.3778892 C175.079921,80.3778892 176.879241,82.1772095 176.879241,84.3967837 L176.879241,84.3967837 C176.879241,86.6163578 175.079921,88.4156781 172.860346,88.4156781 L172.85817,88.4156781 C170.638596,88.4156781 168.839275,86.6163578 168.839275,84.3967837 L168.839275,84.3967837 C168.839275,82.1772095 170.638596,80.3778892 172.85817,80.3778892 Z" style="fill: rgb(78, 78, 80); fill-opacity: 1;"></path> <path id="path460" d="M172.85817,88.4156781 L172.860346,88.4156781 C175.079921,88.4156781 176.879241,90.2149985 176.879241,92.4345726 L176.879241,92.4345726 C176.879241,94.6541467 175.079921,96.453467 172.860346,96.453467 L172.85817,96.453467 C170.638596,96.453467 168.839275,94.6541467 168.839275,92.4345726 L168.839275,92.4345726 C168.839275,90.2149985 170.638596,88.4156781 172.85817,88.4156781 Z" style="fill: rgb(78, 78, 80); fill-opacity: 1;"></path> <path id="path462" d="M172.85817,104.491256 L172.860346,104.491256 C175.079921,104.491256 176.879241,106.290576 176.879241,108.51015 L176.879241,108.51015 C176.879241,110.729725 175.079921,112.529045 172.860346,112.529045 L172.85817,112.529045 C170.638596,112.529045 168.839275,110.729725 168.839275,108.51015 L168.839275,108.51015 C168.839275,106.290576 170.638596,104.491256 172.85817,104.491256 Z" style="fill: rgb(78, 78, 80); fill-opacity: 1;"></path> <path id="path464" d="M172.85817,112.529045 L172.860346,112.529045 C175.079921,112.529045 176.879241,114.328365 176.879241,116.547939 L176.879241,116.547939 C176.879241,118.767513 175.079921,120.566834 172.860346,120.566834 L172.85817,120.566834 C170.638596,120.566834 168.839275,118.767513 168.839275,116.547939 L168.839275,116.547939 C168.839275,114.328365 170.638596,112.529045 172.85817,112.529045 Z" style="fill: rgb(78, 78, 80); fill-opacity: 1;"></path> <path id="path466" d="M172.85817,120.566834 L172.860346,120.566834 C175.079921,120.566834 176.879241,122.366154 176.879241,124.585728 L176.879241,124.585728 C176.879241,126.805302 175.079921,128.604623 172.860346,128.604623 L172.85817,128.604623 C170.638596,128.604623 168.839275,126.805302 168.839275,124.585728 L168.839275,124.585728 C168.839275,122.366154 170.638596,120.566834 172.85817,120.566834 Z" style="fill: rgb(78, 78, 80); fill-opacity: 1;"></path> <path id="path468" d="M172.85817,128.604623 L172.860346,128.604623 C175.079921,128.604623 176.879241,130.403943 176.879241,132.623517 L176.879241,132.623517 C176.879241,134.843091 175.079921,136.642412 172.860346,136.642412 L172.85817,136.642412 C170.638596,136.642412 168.839275,134.843091 168.839275,132.623517 L168.839275,132.623517 C168.839275,130.403943 170.638596,128.604623 172.85817,128.604623 Z" style="fill: rgb(78, 78, 80); fill-opacity: 1;"></path> <path id="path470" d="M172.85817,160.755778 L172.860346,160.755778 C175.079921,160.755778 176.879241,162.555099 176.879241,164.774673 L176.879241,164.774673 C176.879241,166.994247 175.079921,168.793567 172.860346,168.793567 L172.85817,168.793567 C170.638596,168.793567 168.839275,166.994247 168.839275,164.774673 L168.839275,164.774673 C168.839275,162.555099 170.638596,160.755778 172.85817,160.755778 Z" style="fill: rgb(78, 78, 80); fill-opacity: 1;"></path> <path id="path472" d="M172.85817,192.906934 L172.860346,192.906934 C175.079921,192.906934 176.879241,194.706254 176.879241,196.925829 L176.879241,196.925829 C176.879241,199.145403 175.079921,200.944723 172.860346,200.944723 L172.85817,200.944723 C170.638596,200.944723 168.839275,199.145403 168.839275,196.925829 L168.839275,196.925829 C168.839275,194.706254 170.638596,192.906934 172.85817,192.906934 Z" style="fill: rgb(78, 78, 80); fill-opacity: 1;"></path> <path id="path474" d="M172.85817,200.944723 L172.860346,200.944723 C175.079921,200.944723 176.879241,202.744043 176.879241,204.963617 L176.879241,204.963617 C176.879241,207.183192 175.079921,208.982512 172.860346,208.982512 L172.85817,208.982512 C170.638596,208.982512 168.839275,207.183192 168.839275,204.963617 L168.839275,204.963617 C168.839275,202.744043 170.638596,200.944723 172.85817,200.944723 Z" style="fill: rgb(78, 78, 80); fill-opacity: 1;"></path> <path id="path476" d="M172.85817,208.982512 L172.860346,208.982512 C175.079921,208.982512 176.879241,210.781832 176.879241,213.001406 L176.879241,213.001406 C176.879241,215.220981 175.079921,217.020301 172.860346,217.020301 L172.85817,217.020301 C170.638596,217.020301 168.839275,215.220981 168.839275,213.001406 L168.839275,213.001406 C168.839275,210.781832 170.638596,208.982512 172.85817,208.982512 Z" style="fill: rgb(78, 78, 80); fill-opacity: 1;"></path> <rect rx="4.01889446" height="8.03778892" width="8.0399655" y="88.4156781" x="176.879241" id="rect478" style="fill: rgb(78, 78, 80); fill-opacity: 1;"></rect> <rect rx="4.01889446" height="8.03778892" width="8.0399655" y="96.453467" x="176.879241" id="rect480" style="fill: rgb(78, 78, 80); fill-opacity: 1;"></rect> <rect rx="4.01889446" height="8.03778892" width="8.0399655" y="104.491256" x="176.879241" id="rect482" style="fill: rgb(78, 78, 80); fill-opacity: 1;"></rect> <rect rx="4.01889446" height="8.03778892" width="8.0399655" y="120.566834" x="176.879241" id="rect484" style="fill: rgb(78, 78, 80); fill-opacity: 1;"></rect> <rect rx="4.01889446" height="8.03778892" width="8.0399655" y="152.717989" x="176.879241" id="rect486" style="fill: rgb(78, 78, 80); fill-opacity: 1;"></rect> <rect rx="4.01889446" height="8.03778892" width="8.0399655" y="160.755778" x="176.879241" id="rect488" style="fill: rgb(78, 78, 80); fill-opacity: 1;"></rect> <rect rx="4.01889446" height="8.03778892" width="8.0399655" y="176.831356" x="176.879241" id="rect490" style="fill: rgb(78, 78, 80); fill-opacity: 1;"></rect> <rect rx="4.01889446" height="8.03778892" width="8.0399655" y="192.906934" x="176.879241" id="rect492" style="fill: rgb(78, 78, 80); fill-opacity: 1;"></rect> <rect rx="4.01889446" height="8.03778892" width="8.0399655" y="217.020301" x="176.879241" id="rect494" style="fill: rgb(78, 78, 80); fill-opacity: 1;"></rect> <rect rx="4.01889446" height="8.03778892" width="8.0399655" y="225.05809" x="176.879241" id="rect496" style="fill: rgb(78, 78, 80); fill-opacity: 1;"></rect> <rect rx="4.01889446" height="8.03778892" width="8.0399655" y="72.3401003" x="184.919206" id="rect498" style="fill: rgb(78, 78, 80); fill-opacity: 1;"></rect> <rect rx="4.01889446" height="8.03778892" width="8.0399655" y="80.3778892" x="184.919206" id="rect500" style="fill: rgb(78, 78, 80); fill-opacity: 1;"></rect> <rect rx="4.01889446" height="8.03778892" width="8.0399655" y="88.4156781" x="184.919206" id="rect502" style="fill: rgb(78, 78, 80); fill-opacity: 1;"></rect> <rect rx="4.01889446" height="8.03778892" width="8.0399655" y="104.491256" x="184.919206" id="rect504" style="fill: rgb(78, 78, 80); fill-opacity: 1;"></rect> <rect rx="4.01889446" height="8.03778892" width="8.0399655" y="120.566834" x="184.919206" id="rect506" style="fill: rgb(78, 78, 80); fill-opacity: 1;"></rect> <rect rx="4.01889446" height="8.03778892" width="8.0399655" y="160.755778" x="184.919206" id="rect508" style="fill: rgb(78, 78, 80); fill-opacity: 1;"></rect> <rect rx="4.01889446" height="8.03778892" width="8.0399655" y="192.906934" x="184.919206" id="rect510" style="fill: rgb(78, 78, 80); fill-opacity: 1;"></rect> <rect rx="4.01889446" height="8.03778892" width="8.0399655" y="208.982512" x="184.919206" id="rect512" style="fill: rgb(78, 78, 80); fill-opacity: 1;"></rect> <rect rx="4.01889446" height="8.03778892" width="8.0399655" y="225.05809" x="184.919206" id="rect514" style="fill: rgb(78, 78, 80); fill-opacity: 1;"></rect> <rect rx="4.01889446" height="8.03778892" width="8.0399655" y="64.3023114" x="192.959172" id="rect516" style="fill: rgb(78, 78, 80); fill-opacity: 1;"></rect> <rect rx="4.01889446" height="8.03778892" width="8.0399655" y="72.3401003" x="192.959172" id="rect518" style="fill: rgb(78, 78, 80); fill-opacity: 1;"></rect> <rect rx="4.01889446" height="8.03778892" width="8.0399655" y="80.3778892" x="192.959172" id="rect520" style="fill: rgb(78, 78, 80); fill-opacity: 1;"></rect> <rect rx="4.01889446" height="8.03778892" width="8.0399655" y="88.4156781" x="192.959172" id="rect522" style="fill: rgb(78, 78, 80); fill-opacity: 1;"></rect> <rect rx="4.01889446" height="8.03778892" width="8.0399655" y="104.491256" x="192.959172" id="rect524" style="fill: rgb(78, 78, 80); fill-opacity: 1;"></rect> <rect rx="4.01889446" height="8.03778892" width="8.0399655" y="112.529045" x="192.959172" id="rect526" style="fill: rgb(78, 78, 80); fill-opacity: 1;"></rect> <rect rx="4.01889446" height="8.03778892" width="8.0399655" y="120.566834" x="192.959172" id="rect528" style="fill: rgb(78, 78, 80); fill-opacity: 1;"></rect> <rect rx="4.01889446" height="8.03778892" width="8.0399655" y="136.642412" x="192.959172" id="rect530" style="fill: rgb(78, 78, 80); fill-opacity: 1;"></rect> <rect rx="4.01889446" height="8.03778892" width="8.0399655" y="144.680201" x="192.959172" id="rect532" style="fill: rgb(78, 78, 80); fill-opacity: 1;"></rect> <rect rx="4.01889446" height="8.03778892" width="8.0399655" y="160.755778" x="192.959172" id="rect534" style="fill: rgb(78, 78, 80); fill-opacity: 1;"></rect> <rect rx="4.01889446" height="8.03778892" width="8.0399655" y="168.793567" x="192.959172" id="rect536" style="fill: rgb(78, 78, 80); fill-opacity: 1;"></rect> <rect rx="4.01889446" height="8.03778892" width="8.0399655" y="176.831356" x="192.959172" id="rect538" style="fill: rgb(78, 78, 80); fill-opacity: 1;"></rect> <rect rx="4.01889446" height="8.03778892" width="8.0399655" y="184.869145" x="192.959172" id="rect540" style="fill: rgb(78, 78, 80); fill-opacity: 1;"></rect> <rect rx="4.01889446" height="8.03778892" width="8.0399655" y="192.906934" x="192.959172" id="rect542" style="fill: rgb(78, 78, 80); fill-opacity: 1;"></rect> <rect rx="4.01889446" height="8.03778892" width="8.0399655" y="208.982512" x="192.959172" id="rect544" style="fill: rgb(78, 78, 80); fill-opacity: 1;"></rect> <rect rx="4.01889446" height="8.03778892" width="8.0399655" y="225.05809" x="192.959172" id="rect546" style="fill: rgb(78, 78, 80); fill-opacity: 1;"></rect> <rect rx="4.01889446" height="8.03778892" width="8.0399655" y="88.4156781" x="200.999137" id="rect548" style="fill: rgb(78, 78, 80); fill-opacity: 1;"></rect> <rect rx="4.01889446" height="8.03778892" width="8.0399655" y="104.491256" x="200.999137" id="rect550" style="fill: rgb(78, 78, 80); fill-opacity: 1;"></rect> <rect rx="4.01889446" height="8.03778892" width="8.0399655" y="128.604623" x="200.999137" id="rect552" style="fill: rgb(78, 78, 80); fill-opacity: 1;"></rect> <rect rx="4.01889446" height="8.03778892" width="8.0399655" y="144.680201" x="200.999137" id="rect554" style="fill: rgb(78, 78, 80); fill-opacity: 1;"></rect> <rect rx="4.01889446" height="8.03778892" width="8.0399655" y="152.717989" x="200.999137" id="rect556" style="fill: rgb(78, 78, 80); fill-opacity: 1;"></rect> <rect rx="4.01889446" height="8.03778892" width="8.0399655" y="160.755778" x="200.999137" id="rect558" style="fill: rgb(78, 78, 80); fill-opacity: 1;"></rect> <rect rx="4.01889446" height="8.03778892" width="8.0399655" y="168.793567" x="200.999137" id="rect560" style="fill: rgb(78, 78, 80); fill-opacity: 1;"></rect> <rect rx="4.01889446" height="8.03778892" width="8.0399655" y="176.831356" x="200.999137" id="rect562" style="fill: rgb(78, 78, 80); fill-opacity: 1;"></rect> <rect rx="4.01889446" height="8.03778892" width="8.0399655" y="192.906934" x="200.999137" id="rect564" style="fill: rgb(78, 78, 80); fill-opacity: 1;"></rect> <rect rx="4.01889446" height="8.03778892" width="8.0399655" y="217.020301" x="200.999137" id="rect566" style="fill: rgb(78, 78, 80); fill-opacity: 1;"></rect> <rect rx="4.01889446" height="8.03778892" width="8.0399655" y="64.3023114" x="209.039103" id="rect568" style="fill: rgb(78, 78, 80); fill-opacity: 1;"></rect> <rect rx="4.01889446" height="8.03778892" width="8.0399655" y="72.3401003" x="209.039103" id="rect570" style="fill: rgb(78, 78, 80); fill-opacity: 1;"></rect> <rect rx="4.01889446" height="8.03778892" width="8.0399655" y="80.3778892" x="209.039103" id="rect572" style="fill: rgb(78, 78, 80); fill-opacity: 1;"></rect> <rect rx="4.01889446" height="8.03778892" width="8.0399655" y="104.491256" x="209.039103" id="rect574" style="fill: rgb(78, 78, 80); fill-opacity: 1;"></rect> <rect rx="4.01889446" height="8.03778892" width="8.0399655" y="112.529045" x="209.039103" id="rect576" style="fill: rgb(78, 78, 80); fill-opacity: 1;"></rect> <rect rx="4.01889446" height="8.03778892" width="8.0399655" y="120.566834" x="209.039103" id="rect578" style="fill: rgb(78, 78, 80); fill-opacity: 1;"></rect> <rect rx="4.01889446" height="8.03778892" width="8.0399655" y="136.642412" x="209.039103" id="rect580" style="fill: rgb(78, 78, 80); fill-opacity: 1;"></rect> <rect rx="4.01889446" height="8.03778892" width="8.0399655" y="152.717989" x="209.039103" id="rect582" style="fill: rgb(78, 78, 80); fill-opacity: 1;"></rect> <rect rx="4.01889446" height="8.03778892" width="8.0399655" y="160.755778" x="209.039103" id="rect584" style="fill: rgb(78, 78, 80); fill-opacity: 1;"></rect> <rect rx="4.01889446" height="8.03778892" width="8.0399655" y="208.982512" x="209.039103" id="rect586" style="fill: rgb(78, 78, 80); fill-opacity: 1;"></rect> <rect rx="4.01889446" height="8.03778892" width="8.0399655" y="217.020301" x="209.039103" id="rect588" style="fill: rgb(78, 78, 80); fill-opacity: 1;"></rect> <rect rx="4.01889446" height="8.03778892" width="8.0399655" y="64.3023114" x="217.079068" id="rect590" style="fill: rgb(78, 78, 80); fill-opacity: 1;"></rect> <rect rx="4.01889446" height="8.03778892" width="8.0399655" y="72.3401003" x="217.079068" id="rect592" style="fill: rgb(78, 78, 80); fill-opacity: 1;"></rect> <rect rx="4.01889446" height="8.03778892" width="8.0399655" y="104.491256" x="217.079068" id="rect594" style="fill: rgb(78, 78, 80); fill-opacity: 1;"></rect> <rect rx="4.01889446" height="8.03778892" width="8.0399655" y="136.642412" x="217.079068" id="rect596" style="fill: rgb(78, 78, 80); fill-opacity: 1;"></rect> <rect rx="4.01889446" height="8.03778892" width="8.0399655" y="160.755778" x="217.079068" id="rect598" style="fill: rgb(78, 78, 80); fill-opacity: 1;"></rect> <rect rx="4.01889446" height="8.03778892" width="8.0399655" y="200.944723" x="217.079068" id="rect600" style="fill: rgb(78, 78, 80); fill-opacity: 1;"></rect> <rect rx="4.01889446" height="8.03778892" width="8.0399655" y="208.982512" x="217.079068" id="rect602" style="fill: rgb(78, 78, 80); fill-opacity: 1;"></rect> <rect rx="4.01889446" height="8.03778892" width="8.0399655" y="64.3023114" x="225.119034" id="rect604" style="fill: rgb(78, 78, 80); fill-opacity: 1;"></rect> <rect rx="4.01889446" height="8.03778892" width="8.0399655" y="88.4156781" x="225.119034" id="rect606" style="fill: rgb(78, 78, 80); fill-opacity: 1;"></rect> <rect rx="4.01889446" height="8.03778892" width="8.0399655" y="96.453467" x="225.119034" id="rect608" style="fill: rgb(78, 78, 80); fill-opacity: 1;"></rect> <rect rx="4.01889446" height="8.03778892" width="8.0399655" y="104.491256" x="225.119034" id="rect610" style="fill: rgb(78, 78, 80); fill-opacity: 1;"></rect> <rect rx="4.01889446" height="8.03778892" width="8.0399655" y="112.529045" x="225.119034" id="rect612" style="fill: rgb(78, 78, 80); fill-opacity: 1;"></rect> <rect rx="4.01889446" height="8.03778892" width="8.0399655" y="120.566834" x="225.119034" id="rect614" style="fill: rgb(78, 78, 80); fill-opacity: 1;"></rect> <rect rx="4.01889446" height="8.03778892" width="8.0399655" y="144.680201" x="225.119034" id="rect616" style="fill: rgb(78, 78, 80); fill-opacity: 1;"></rect> <rect rx="4.01889446" height="8.03778892" width="8.0399655" y="184.869145" x="225.119034" id="rect618" style="fill: rgb(78, 78, 80); fill-opacity: 1;"></rect> <rect rx="4.01889446" height="8.03778892" width="8.0399655" y="208.982512" x="225.119034" id="rect620" style="fill: rgb(78, 78, 80); fill-opacity: 1;"></rect> <rect rx="4.01889446" height="8.03778892" width="8.0399655" y="217.020301" x="225.119034" id="rect622" style="fill: rgb(78, 78, 80); fill-opacity: 1;"></rect></g></g></g></g></g> <g id="Payment-Mark" transform="translate(-183.75424,68.533898)" style="fill: rgb(78, 78, 80); fill-rule: evenodd; stroke: none; stroke-width: 1; fill-opacity: 1;"></g></g></svg> <g id="PRICE" transform="translate(96.000000, 32.000000) scale(1.25)" fill="#565D6E" data-v-0c7fe579=""><text id="$135.00" font-family="Heebo-Medium, Heebo" font-size="30" font-weight="500" data-v-0c7fe579=""><tspan x="4.54833984" y="31" data-v-0c7fe579="">$135.00</tspan></text></g> <g id="info-icon-sm" transform="translate(296.000000, 20.000000)" data-v-0c7fe579=""><circle id="blue" stroke="#E6E9F7" stroke-width="3" cx="14" cy="14" r="13" data-v-0c7fe579=""></circle> <circle id="blue" stroke="#4F6EF7" stroke-width="3" cx="14" cy="14" r="13" stroke-dasharray="81.6814089933" stroke-dashoffset="81.6814089933" transform="rotate(-90 14 14)" data-v-0c7fe579=""><animate attributeName="stroke-dashoffset" from="81.6814089933" to="0" dur="120s" repeatCount="indefinite" data-v-0c7fe579=""></animate></circle> <g id="i" transform="translate(13.000000, 8.000000)" fill="#4F6EF7" data-v-0c7fe579=""><path d="M1,2 L1,2 C0.44771525,2 6.76353751e-17,1.55228475 0,1 L0,1 C-6.76353751e-17,0.44771525 0.44771525,1.01453063e-16 1,0 L1,0 C1.55228475,-1.01453063e-16 2,0.44771525 2,1 L2,1 C2,1.55228475 1.55228475,2 1,2 Z" id="Path" stroke="#4F6EF7" stroke-width="0.75" transform="translate(1.000000, 1.000000) rotate(180.000000) translate(-1.000000, -1.000000) " data-v-0c7fe579=""></path> <path d="M1.20425532,12 L0.795744681,12 C0.356267029,12 5.382049e-17,11.643733 0,11.2042553 L0,4.79574468 C-5.382049e-17,4.35626703 0.356267029,4 0.795744681,4 L1.20425532,4 C1.64373297,4 2,4.35626703 2,4.79574468 L2,11.2042553 C2,11.643733 1.64373297,12 1.20425532,12 Z" id="Path" transform="translate(1.000000, 8.000000) rotate(180.000000) translate(-1.000000, -8.000000) " data-v-0c7fe579=""></path></g></g> <g id="copy" transform="translate(20.000000, 20.000000)" fill="#4F6EF7" fill-rule="nonzero" data-v-0c7fe579=""><path d="M19,5 L7,5 C5.9,5 5,5.9 5,7 L5,21 L7,21 L7,7 L19,7 L19,5 Z M22,9 L11,9 C9.9,9 9,9.9 9,11 L9,25 C9,26.1 9.9,27 11,27 L22,27 C23.1,27 24,26.1 24,25 L24,11 C24,9.9 23.1,9 22,9 Z M22,25 L11,25 L11,11 L22,11 L22,25 Z" id="Shape" data-v-0c7fe579=""></path></g></g></g></g></svg>