<?xml version="1.0" encoding="UTF-8" standalone="no"?>
<!DOCTYPE svg PUBLIC "-//W3C//DTD SVG 1.1//EN" "http://www.w3.org/Graphics/SVG/1.1/DTD/svg11.dtd">
<svg width="100%" height="100%" viewBox="0 0 608 174" version="1.1" xmlns="http://www.w3.org/2000/svg" xmlns:xlink="http://www.w3.org/1999/xlink" xml:space="preserve" xmlns:serif="http://www.serif.com/" style="fill-rule:evenodd;clip-rule:evenodd;stroke-linejoin:round;stroke-miterlimit:1.41421;">
    <path d="M130.6,33C130.5,32.1 129.7,31.7 129.1,31.6C128.5,31.5 115.4,30.6 115.4,30.6C115.4,30.6 106.3,21.6 105.4,20.6C104.4,19.6 102.5,19.9 101.7,20.1C101.6,20.1 99.7,20.7 96.6,21.7C93.7,13 88.3,5 78.9,5L78.1,5C75.4,1.5 72.1,-0.1 69.3,-0.1C47.4,0 37,27.3 33.7,41.2C25.2,43.8 19.2,45.7 18.4,45.9C13.7,47.4 13.5,47.5 12.9,52C12.4,55.5 0,151.5 0,151.5L96.7,169.6L149.1,158.3C149.1,158.2 130.7,33.9 130.6,33ZM91.3,23.4C88.9,24.2 86.1,25 83.1,25.9L83.1,24.1C83.1,18.7 82.3,14.3 81.1,10.9C86,11.6 89.3,17.1 91.3,23.4ZM75.2,12C76.5,15.4 77.4,20.2 77.4,26.7L77.4,27.6C72.1,29.2 66.3,31 60.5,32.8C63.8,20.4 69.9,14.3 75.2,12ZM68.7,5.9C69.6,5.9 70.6,6.2 71.5,6.8C64.5,10.1 57,18.4 53.8,35C49.2,36.4 44.6,37.8 40.4,39.1C44.2,26.5 53,5.9 68.7,5.9Z" style="fill:rgb(122,122,122);fill-rule:nonzero;"/>
    <path d="M129.1,31.6C128.5,31.5 115.4,30.6 115.4,30.6C115.4,30.6 106.3,21.6 105.4,20.6C105,20.2 104.5,20 104,20L96.7,169.6L149.1,158.3C149.1,158.3 130.7,33.9 130.6,33.1C130.5,32.2 129.7,31.7 129.1,31.6Z" style="fill:rgb(101,101,101);fill-rule:nonzero;"/>
    <path d="M78.9,60.6L72.4,79.8C72.4,79.8 66.7,76.8 59.8,76.8C49.6,76.8 49.1,83.2 49.1,84.8C49.1,93.6 72,96.9 72,117.5C72,133.7 61.7,144.1 47.9,144.1C31.3,144.1 22.8,133.8 22.8,133.8L27.2,119.1C27.2,119.1 35.9,126.6 43.3,126.6C48.1,126.6 50.1,122.8 50.1,120C50.1,108.5 31.3,108 31.3,89.2C31.3,73.4 42.7,58 65.6,58C74.6,58.1 78.9,60.6 78.9,60.6Z" style="fill:white;fill-rule:nonzero;"/>
    <path d="M210.2,96.6C205,93.8 202.3,91.4 202.3,88.1C202.3,83.9 206,81.2 211.9,81.2C218.7,81.2 224.7,84 224.7,84L229.5,69.4C229.5,69.4 225.1,66 212.2,66C194.2,66 181.7,76.3 181.7,90.8C181.7,99 187.5,105.3 195.3,109.8C201.6,113.4 203.8,115.9 203.8,119.7C203.8,123.6 200.7,126.7 194.8,126.7C186.1,126.7 177.9,122.2 177.9,122.2L172.8,136.8C172.8,136.8 180.4,141.9 193.1,141.9C211.6,141.9 224.9,132.8 224.9,116.4C225,107.5 218.3,101.3 210.2,96.6ZM284,65.9C274.9,65.9 267.7,70.2 262.2,76.8L261.9,76.7L269.8,35.3L249.2,35.3L229.2,140.6L249.8,140.6L256.7,104.6C259.4,91 266.4,82.6 273,82.6C277.6,82.6 279.4,85.7 279.4,90.2C279.4,93 279.1,96.5 278.5,99.3L270.7,140.5L291.3,140.5L299.4,97.9C300.3,93.4 300.9,88 300.9,84.5C300.8,72.9 294.7,65.9 284,65.9ZM347.4,65.9C322.6,65.9 306.2,88.3 306.2,113.2C306.2,129.2 316.1,142 334.6,142C358.9,142 375.4,120.2 375.4,94.7C375.4,79.9 366.7,65.9 347.4,65.9ZM337.3,126.2C330.3,126.2 327.3,120.2 327.3,112.8C327.3,101 333.4,81.7 344.6,81.7C351.9,81.7 354.3,88 354.3,94.1C354.3,106.8 348.2,126.2 337.3,126.2ZM428.1,65.9C414.2,65.9 406.3,78.1 406.3,78.1L406,78.1L407.2,67.1L389,67.1C388.1,74.6 386.5,85.9 384.8,94.4L370.5,169.8L391,169.8L396.7,139.3L397.1,139.3C397.1,139.3 401.3,142 409.2,142C433.4,142 449.2,117.2 449.2,92.1C449.3,78.3 443.1,65.9 428.1,65.9ZM408.4,126.5C403,126.5 399.9,123.5 399.9,123.5L403.3,104.2C405.7,91.4 412.4,82.8 419.6,82.8C425.9,82.8 427.8,88.6 427.8,94.1C427.8,107.5 419.9,126.5 408.4,126.5ZM478.7,36.3C472.1,36.3 466.9,41.5 466.9,48.2C466.9,54.3 470.8,58.5 476.6,58.5L476.9,58.5C483.3,58.5 488.8,54.2 489,46.6C489,40.6 485,36.3 478.7,36.3ZM449.9,140.5L470.5,140.5L484.5,67.5L463.8,67.5M536.9,67.4L522.6,67.4L523.3,64C524.5,57 528.7,50.7 535.5,50.7C539.2,50.7 542.1,51.7 542.1,51.7L546.1,35.6C546.1,35.6 542.5,33.8 534.9,33.8C527.6,33.8 520.3,35.9 514.7,40.7C507.7,46.7 504.4,55.3 502.8,64L502.2,67.4L492.6,67.4L489.6,82.9L499.2,82.9L488.3,140.5L509,140.5L519.9,82.9L534.1,82.9L536.9,67.4ZM586.5,67.5C586.5,67.5 573.6,100 567.8,117.7L567.5,117.7C567.1,112 562.4,67.5 562.4,67.5L540.7,67.5L553.1,134.5C553.4,136 553.2,136.9 552.7,137.9C550.3,142.5 546.3,147 541.5,150.3C537.6,153.1 533.3,154.9 529.9,156.1L535.6,173.6C539.8,172.7 548.4,169.3 555.8,162.4C565.2,153.6 573.9,140 582.8,121.5L608,67.5L586.5,67.5Z" style="fill:rgb(122,122,122);fill-rule:nonzero;"/>
</svg>
