<?xml version="1.0" encoding="utf-8"?>
<!-- Generator: Adobe Illustrator 15.1.0, SVG Export Plug-In . SVG Version: 6.00 Build 0)  -->
<!DOCTYPE svg PUBLIC "-//W3C//DTD SVG 1.1//EN" "http://www.w3.org/Graphics/SVG/1.1/DTD/svg11.dtd">
<svg version="1.1" xmlns="http://www.w3.org/2000/svg" xmlns:xlink="http://www.w3.org/1999/xlink" x="0px" y="0px" width="124px"
	 height="32px" viewBox="-0.5 -0.5 124 32" enable-background="new -0.5 -0.5 124 32" xml:space="preserve">
<g id="Layer_2_1_">
	<rect x="-2.5" y="-1.833" fill="#202020" stroke="#FFFFFF" stroke-miterlimit="10" width="127.5" height="35.833"/>
</g>
<g id="Layer_1">
	<g id="Layer_1_2_" display="none">
		<g id="Layer_1_1_" display="inline">
			<path fill="#CC6666" d="M60.831,3.79c-0.062-0.653,0.612-1.222,1.243-1.064c0.447,0.082,0.689,0.503,0.965,0.824
				c2.391,3.074,4.787,6.11,7.186,9.18V2.946l1.963-0.001v12.44c-0.043,0.885-1.367,1.23-1.832,0.495
				c-2.541-3.151-5.024-6.347-7.567-9.494l0.004,9.722c-0.653,0-1.307,0-1.958-0.004L60.831,3.79L60.831,3.79z"/>
			<path fill="#CC6666" d="M31.472,3.994c-0.032-0.563,0.466-1.069,1.032-1.049l5.702,0.001c2.003,0.079,3.681,2.007,3.496,4.003
				c-0.01,0.969-0.573,1.834-1.313,2.417c1.662,0.811,2.222,2.996,1.384,4.59c-0.599,1.254-1.933,2.149-3.335,2.136l-5.954-0.004
				c-0.585,0.014-1.06-0.564-1.019-1.131C31.474,11.303,31.456,7.648,31.472,3.994 M33.421,4.904l-0.002,3.647h4.582
				c0.93-0.018,1.785-0.87,1.751-1.811c0.041-0.948-0.799-1.857-1.756-1.837L33.421,4.904L33.421,4.904z M33.421,10.493
				c-0.002,1.22,0,2.424-0.002,3.644l5.022,0.004c0.825,0.004,1.583-0.66,1.71-1.473c0.272-1.028-0.586-2.175-1.648-2.175H33.421z"
				/>
			<path fill="#CC6666" d="M49.959,3.442c0.215-0.635,1.064-0.92,1.581-0.463c0.413,0.478,0.58,1.107,0.833,1.674
				c1.617,3.818,3.229,7.638,4.852,11.453c-0.731,0.002-1.459,0.002-2.188,0.002c-1.384-3.251-2.759-6.511-4.136-9.77
				c-1.363,3.264-2.798,6.498-4.159,9.762c-0.736,0.01-1.471,0.008-2.206,0.008C46.354,11.889,48.136,7.656,49.959,3.442"/>
			<path fill="#CC6666" d="M82.659,2.946h10.053c0.824-0.06,1.345,0.994,0.81,1.625c-2.66,3.204-5.357,6.37-8.027,9.568h7.914v1.969
				l-10.074-0.017c-0.745-0.015-1.195-1.009-0.691-1.573c2.662-3.223,5.375-6.408,8.063-9.611c-2.684-0.005-8.042-0.003-8.042-0.003
				L82.659,2.946L82.659,2.946z"/>
			<path fill="#CC6666" d="M97.178,4.019c-0.039-0.573,0.465-1.096,1.038-1.072h9.08v1.958h-8.167l-0.003,3.647h7.618v1.935
				l-7.615,0.007v3.646h8.167v1.969l-9.108-0.012c-0.58,0.01-1.056-0.558-1.017-1.123C97.18,11.322,97.164,7.668,97.178,4.019"/>
			<path fill="#CC6666" d="M43.072,26.365c0.229,0.298,0.344,0.671,0.344,1.115c0,0.609-0.236,1.086-0.707,1.418
				c-0.471,0.334-1.158,0.5-2.06,0.5h-3.514v-7.069h3.312c0.834,0,1.478,0.164,1.929,0.491c0.45,0.326,0.676,0.775,0.676,1.348
				c0,0.352-0.081,0.66-0.242,0.93c-0.162,0.271-0.384,0.479-0.667,0.627C42.534,25.852,42.843,26.064,43.072,26.365 M38.447,23.359
				v1.949h1.858c0.458,0,0.81-0.082,1.056-0.246c0.245-0.166,0.368-0.406,0.368-0.726c0-0.321-0.123-0.565-0.368-0.729
				c-0.246-0.164-0.598-0.248-1.056-0.248H38.447z M42.093,27.35c0-0.68-0.509-1.021-1.525-1.021h-2.121v2.041h2.121
				C41.584,28.369,42.093,28.029,42.093,27.35"/>
			<rect x="48.86" y="22.33" fill="#CC6666" width="1.312" height="7.068"/>
			<polygon fill="#CC6666" points="58.554,26.439 57.433,27.592 57.433,29.398 56.119,29.398 56.119,22.33 57.433,22.33 
				57.433,25.956 60.928,22.33 62.402,22.33 59.433,25.491 62.584,29.398 61.049,29.398 			"/>
			<polygon fill="#CC6666" points="72.823,28.299 72.823,29.398 67.521,29.398 67.521,22.33 72.682,22.33 72.682,23.432 
				68.834,23.432 68.834,25.27 72.248,25.27 72.248,26.35 68.834,26.35 68.834,28.299 			"/>
			<path fill="#CC6666" d="M78.938,29.268c-0.508-0.151-0.91-0.356-1.207-0.615l0.455-1.021c0.289,0.229,0.646,0.416,1.065,0.562
				c0.421,0.146,0.843,0.22,1.269,0.22c0.523,0,0.916-0.085,1.176-0.253c0.262-0.168,0.392-0.393,0.392-0.666
				c0-0.203-0.069-0.37-0.217-0.501c-0.146-0.134-0.328-0.233-0.554-0.31c-0.223-0.076-0.521-0.158-0.907-0.252
				c-0.537-0.129-0.976-0.257-1.31-0.385c-0.332-0.128-0.619-0.329-0.856-0.602c-0.238-0.273-0.357-0.641-0.357-1.105
				c0-0.391,0.105-0.744,0.318-1.064c0.212-0.316,0.528-0.571,0.959-0.764c0.428-0.188,0.948-0.281,1.567-0.281
				c0.435,0,0.854,0.056,1.272,0.16c0.417,0.108,0.778,0.264,1.081,0.465l-0.415,1.021c-0.31-0.184-0.632-0.32-0.97-0.415
				c-0.336-0.094-0.662-0.142-0.979-0.142c-0.521,0-0.904,0.089-1.156,0.263c-0.252,0.176-0.379,0.408-0.379,0.696
				c0,0.203,0.069,0.367,0.217,0.496c0.145,0.127,0.328,0.229,0.551,0.303c0.222,0.074,0.525,0.158,0.908,0.252
				c0.525,0.121,0.957,0.248,1.293,0.379s0.625,0.332,0.863,0.602c0.236,0.271,0.355,0.633,0.355,1.09
				c0,0.395-0.104,0.746-0.314,1.063c-0.213,0.315-0.533,0.569-0.968,0.761c-0.429,0.184-0.952,0.276-1.571,0.276
				C79.973,29.5,79.445,29.423,78.938,29.268"/>
			<rect x="76.475" y="2.94" fill="#CC6666" width="1.957" height="13.166"/>
			<path fill="#CC6666" d="M24.296,11.402c1.711-0.435,3.093-1.92,3.232-3.763c0.145-1.92-1.066-3.767-2.832-4.434
				c-0.391-0.119-0.774-0.26-1.407-0.26l-5.464-0.001c-0.566-0.021-1.064,0.484-1.032,1.048c-0.004,0.058-0.004,12.109-0.004,12.109
				c0.653,0.004,1.304,0.004,1.957,0.004v-4.609h3.452c1.075,1.532,2.13,3.079,3.211,4.609c0.737,0,1.478,0,2.217-0.004
				C26.51,14.542,25.429,12.952,24.296,11.402 M18.742,9.673V4.904h4.549V4.899c1.273,0.025,2.35,1.258,2.3,2.539
				c-0.046,1.189-1.091,2.209-2.266,2.218C21.8,9.692,18.742,9.673,18.742,9.673"/>
			<path fill="#CC6666" d="M13.135,3.914c0.025-0.607-0.551-1.056-1.131-1c-0.266-0.001-0.534,0-0.801-0.001v4.479
				c0,0,0.075,2.385-0.256,3.532c-0.564,1.793-2.325,3.137-4.212,3.17c-0.053,0.004-0.106,0.002-0.16,0.004
				c-0.053-0.002-0.106,0-0.159-0.004c-1.887-0.033-3.648-1.377-4.212-3.17C1.873,9.777,1.947,7.392,1.947,7.392V2.913
				c-0.267,0.001-0.534,0-0.801,0.001c-0.58-0.056-1.155,0.393-1.13,1C-0.005,5.371-0.005,8.21,0.018,9.67
				c0.057,1.921,0.985,3.8,2.513,4.979c1.134,0.916,2.588,1.39,4.042,1.397h0.002h0.003c1.454-0.009,2.908-0.481,4.042-1.397
				c1.528-1.178,2.455-3.058,2.513-4.979C13.156,8.21,13.156,5.371,13.135,3.914"/>
			<path fill="#CC6666" d="M111.813,2.966c-0.604-0.025-1.055,0.551-1,1.131c0,0.266,0,0.533,0,0.801h4.479
				c0,0,2.388-0.074,3.532,0.256c1.794,0.564,3.138,2.325,3.171,4.212c0.004,0.054,0.002,0.106,0.004,0.16
				c-0.002,0.054,0,0.106-0.004,0.16c-0.033,1.885-1.377,3.647-3.171,4.21c-1.146,0.332-3.532,0.258-3.532,0.258h-4.479
				c0,0.267,0,0.533,0,0.801c-0.055,0.58,0.396,1.156,1,1.131c1.457,0.021,4.297,0.021,5.756-0.002
				c1.92-0.059,3.804-0.984,4.979-2.514c0.916-1.134,1.39-2.587,1.397-4.042V9.526V9.523c-0.008-1.454-0.481-2.907-1.397-4.042
				c-1.178-1.528-3.059-2.455-4.979-2.513C116.107,2.944,113.27,2.944,111.813,2.966"/>
		</g>
	</g>
	<path fill="#FFFFFF" d="M124.205,7.5c0-3.214-2.527-5.831-5.705-5.985V1.5h-6v2h5.705c2.209,0,4,1.791,4,4s-1.791,4-4,4H112.5v2h6
		v-0.015C121.678,13.331,124.205,10.715,124.205,7.5z"/>
	<path fill="#FFFFFF" d="M11.5,1.5v6c0,2.209-1.791,4-4,4s-4-1.791-4-4v-6h-2v6.429h0.021C1.742,11.042,4.33,13.5,7.5,13.5
		c3.096,0,5.644-2.345,5.964-5.357H13.5V1.5H11.5z"/>
	<polygon fill="#FFFFFF" points="108.5,3.5 108.5,1.5 100.5,1.5 99.5,1.5 98.5,1.5 98.5,13.5 99.5,13.5 100.5,13.5 108.5,13.5 
		108.5,11.5 100.5,11.5 100.5,8.5 108.5,8.5 108.5,6.5 100.5,6.5 100.5,3.5 	"/>
	<rect x="78.5" y="1.5" fill="#FFFFFF" width="2" height="12"/>
	<polygon fill="#FFFFFF" points="95.5,3.5 95.5,1.5 85.5,1.5 85.5,3.5 92.552,3.5 85.838,11.5 85.5,11.5 85.5,13.5 95.5,13.5 
		95.5,11.5 88.449,11.5 95.162,3.5 	"/>
	<polygon fill="#FFFFFF" points="71.285,1.5 71.285,10.699 63.5,1.5 61.5,1.5 61.5,13.5 63.5,13.5 63.5,4.659 70.816,13.5 
		73.285,13.5 73.285,1.5 	"/>
	<polygon fill="#FFFFFF" points="57,12.906 52.207,1.5 49.714,1.5 44.921,12.906 46.897,13.5 50.96,3.829 55.024,13.5 	"/>
	<path fill="#FFFFFF" d="M40.944,7.5C41.594,6.865,42,5.98,42,5c0-1.917-1.542-3.469-3.453-3.495V1.5H32.5v0.063h-1V13.5h1h1h5l0,0
		c1.933,0,3.5-1.566,3.5-3.5C42,9.02,41.594,8.135,40.944,7.5z M40,5c0,0.829-0.672,1.5-1.5,1.5h-5v-3h5C39.328,3.5,40,4.171,40,5z
		 M38.5,11.5h-5v-3h5c0.828,0,1.5,0.671,1.5,1.5C40,10.828,39.328,11.5,38.5,11.5z"/>
	<path fill="#FFFFFF" d="M26.716,13.5l1.732-1l-2.763-4.787C26.48,7.072,27,6.102,27,5c0-1.815-1.386-3.29-3.156-3.465V1.5H19.5h-1
		h-1v12h2v-5h4.275V8.472c0.012-0.001,0.024-0.002,0.036-0.003L26.716,13.5z M19.5,6.5v-3h4C24.328,3.5,25,4.171,25,5
		s-0.672,1.5-1.5,1.5H19.5z"/>
	<path fill="#FFFFFF" d="M44.199,26.364c0.229,0.298,0.344,0.671,0.344,1.115c0,0.609-0.236,1.086-0.707,1.418
		c-0.471,0.334-1.158,0.5-2.06,0.5h-3.514v-7.069h3.312c0.834,0,1.478,0.164,1.929,0.491c0.45,0.326,0.676,0.775,0.676,1.348
		c0,0.352-0.081,0.66-0.242,0.93c-0.162,0.271-0.384,0.479-0.667,0.627C43.661,25.851,43.97,26.063,44.199,26.364 M39.574,23.358
		v1.949h1.858c0.458,0,0.81-0.082,1.056-0.246c0.245-0.166,0.368-0.406,0.368-0.726c0-0.321-0.123-0.565-0.368-0.729
		c-0.246-0.164-0.598-0.248-1.056-0.248H39.574z M43.22,27.349c0-0.68-0.509-1.021-1.525-1.021h-2.121v2.041h2.121
		C42.711,28.368,43.22,28.028,43.22,27.349"/>
	<rect x="50.5" y="22.329" fill="#FFFFFF" width="1" height="7.068"/>
	<polygon fill="#FFFFFF" points="59.681,26.438 58.56,27.591 58.56,29.397 57.246,29.397 57.246,22.329 58.56,22.329 58.56,25.955 
		62.055,22.329 63.529,22.329 60.56,25.49 63.711,29.397 62.176,29.397 	"/>
	<polygon fill="#FFFFFF" points="73.95,28.298 73.95,29.397 68.648,29.397 68.648,22.329 73.809,22.329 73.809,23.431 
		69.961,23.431 69.961,25.269 73.375,25.269 73.375,26.349 69.961,26.349 69.961,28.298 	"/>
	<path fill="#FFFFFF" d="M80.064,29.267c-0.508-0.151-0.91-0.356-1.207-0.615l0.455-1.021c0.289,0.229,0.646,0.416,1.065,0.562
		c0.421,0.146,0.843,0.22,1.269,0.22c0.523,0,0.916-0.085,1.176-0.253c0.262-0.168,0.392-0.393,0.392-0.666
		c0-0.203-0.069-0.37-0.217-0.501c-0.146-0.134-0.328-0.233-0.554-0.31c-0.223-0.076-0.521-0.158-0.907-0.252
		c-0.537-0.129-0.976-0.257-1.31-0.385c-0.332-0.128-0.619-0.329-0.856-0.602c-0.238-0.273-0.357-0.641-0.357-1.105
		c0-0.391,0.105-0.744,0.318-1.064c0.212-0.316,0.528-0.571,0.959-0.764c0.428-0.188,0.948-0.281,1.567-0.281
		c0.435,0,0.854,0.056,1.272,0.16c0.417,0.108,0.778,0.264,1.081,0.465l-0.415,1.021c-0.31-0.184-0.632-0.32-0.97-0.415
		c-0.336-0.094-0.662-0.142-0.979-0.142c-0.521,0-0.904,0.089-1.156,0.263c-0.252,0.176-0.379,0.408-0.379,0.696
		c0,0.203,0.069,0.367,0.217,0.496c0.145,0.127,0.328,0.229,0.551,0.303c0.222,0.074,0.525,0.158,0.908,0.252
		c0.525,0.121,0.957,0.248,1.293,0.379s0.625,0.332,0.863,0.602c0.236,0.271,0.355,0.633,0.355,1.09
		c0,0.395-0.104,0.746-0.314,1.063c-0.213,0.315-0.533,0.569-0.968,0.761c-0.429,0.184-0.952,0.276-1.571,0.276
		C81.1,29.499,80.572,29.422,80.064,29.267"/>
</g>
</svg>
