<svg height="22" viewBox="0 0 20 22" width="20" xmlns="http://www.w3.org/2000/svg"><path d="m128.869129 27.0032382h-7.867218c-.847837 0-1.310994-.9888575-.768221-1.6401844l10-12c.639253-.7671035 1.884353-.226615 1.760499.7642191l-.859496 6.8759653h7.867218c.847838 0 1.310994.9888575.768221 1.6401844l-10 12c-.639252.7671035-1.884353.226615-1.760499-.7642191zm-5.732176-2h6.864958c.601498 0 1.066885.5271816.992278 1.1240347l-.576938 4.6155081 6.449619-7.7395428h-6.864959c-.601498 0-1.066884-.5271816-.992278-1.1240347l.576939-4.6155081z" fill="#fff" transform="translate(-120 -13)"/></svg>