<svg height="58" viewBox="0 0 58 58" width="58" xmlns="http://www.w3.org/2000/svg" xmlns:xlink="http://www.w3.org/1999/xlink"><defs><rect id="a" height="57.333333" rx="28.548528" width="57.333333"/><mask id="b" fill="#fff"><use fill="#fff" fill-rule="evenodd" xlink:href="#a"/></mask></defs><g fill="none" fill-rule="evenodd" transform="translate(.333333 .333333)"><use fill="#4ad97f" xlink:href="#a"/><g fill="#fff" fill-rule="nonzero" mask="url(#b)" stroke="#fff" stroke-width="2.666667"><path d="m4.46458844 19.0019843c-1.00040691-.9894134-2.62238699-.9894134-3.6227939 0-1.00040691.9894135-1.00040691 2.5935696 0 3.582983l9.74989566 9.6091428c1.000407.9894135 2.622387.9894135 3.6227939 0 6.2609397-6.8603544 10.9566445-12.0056203 14.0871143-15.4357975 2.5215396-2.7629488 6.303849-6.90737199 11.3469283-12.43326956 1.0004069-.98941343 1.0004069-2.59356954 0-3.58298297-1.0004069-.98941343-2.622387-.98941343-3.6227939 0-5.0579194 5.58355224-8.851359 9.77121643-11.3803187 12.56299253-2.7205171 3.0032407-6.8012927 7.5081017-12.2423269 13.5145831z" transform="translate(13.274927 9.148936)"/></g></g></svg>