<svg height="31" viewBox="0 0 29 31" width="29" xmlns="http://www.w3.org/2000/svg"><path d="m6.25 12.75v-4.125c0-4.55634919 3.69365081-8.25 8.25-8.25 4.5563492 0 8.25 3.69365081 8.25 8.25v4.125h1.375c2.2781746 0 4.125 1.8468254 4.125 4.125v9.625c0 2.2781746-1.8468254 4.125-4.125 4.125h-19.25c-2.27817459 0-4.125-1.8468254-4.125-4.125v-9.625c0-2.2781746 1.84682541-4.125 4.125-4.125zm2.75 0h11v-4.125c0-3.03756612-2.4624339-5.5-5.5-5.5s-5.5 2.46243388-5.5 5.5zm-4.125 2.75c-.75939153 0-1.375.6156085-1.375 1.375v9.625c0 .7593915.61560847 1.375 1.375 1.375h19.25c.7593915 0 1.375-.6156085 1.375-1.375v-9.625c0-.7593915-.6156085-1.375-1.375-1.375z" fill="#4199ff" fill-rule="evenodd"/></svg>