<svg height="26" viewBox="0 0 26 26" width="26" xmlns="http://www.w3.org/2000/svg"><path d="m7.09090909 18.9090909v2.3636364h-2.36363636v-2.3636364zm0-14.18181817v2.36363636h-2.36363636v-2.36363636zm14.18181821 0v2.36363636h-2.3636364v-2.36363636zm-18.90909094 18.89062497h7.09090909v-7.0724432h-7.09090909zm0-14.16335225h7.09090909v-7.09090909h-7.09090909zm14.18181814 0h7.0909091v-7.09090909h-7.0909091zm-4.7272727 4.72727275v11.8181818h-11.8181818v-11.8181818zm9.4545455 9.4545454v2.3636364h-2.3636364v-2.3636364zm4.7272727 0v2.3636364h-2.3636364v-2.3636364zm0-9.4545454v7.0909091h-7.0909091v-2.3636364h-2.3636364v7.0909091h-2.3636363v-11.8181818h7.0909091v2.3636363h2.3636363v-2.3636363zm-14.1818182-14.1818182v11.8181818h-11.8181818v-11.8181818zm14.1818182 0v11.8181818h-11.8181818v-11.8181818z" fill="#b98bff"/></svg>