<svg height="30" viewBox="0 0 127 30" width="127" xmlns="http://www.w3.org/2000/svg" xmlns:xlink="http://www.w3.org/1999/xlink"><mask id="a" fill="#fff"><path d="m.0000148 0h126.9418282v29.89335h-126.9418282z" fill="#fff" fill-rule="evenodd"/></mask><path d="m124.001305 18.210825c-.078894.4032-.214775.75465-.406459 1.05705-.19272.30225-.4445.5481-.755783.73485-.310544.18825-.698056.2829-1.161651.2829-.450569 0-.834677-.09465-1.152177-.2829-.318388-.18675-.572832-.4326-.765404-.73485-.191092-.3024-.330822-.65385-.417265-1.05705-.085999-.4023-.128776-.81225-.128776-1.22715 0-.4311.040557-.84705.119599-1.2489.079338-.4029.215367-.7584.407199-1.0686.191684-.3081.44376-.55965.754895-.7539.310395-.1947.697908-.2931 1.162095-.2931.450272 0 .830532.0984 1.141372.2931.312171.19425.566319.4485.765404.7644.199381.31575.341627.6753.427478 1.0776.086887.4029.12922.8127.12922 1.2294 0 .4149-.040261.82485-.119747 1.22715zm2.662115-3.2724c-.185615-.67725-.469959-1.2717-.854511-1.782-.384109-.50985-.866649-.91965-1.449399-1.22805-.583341-.3093-1.279177-.4629-2.086915-.4629-.635 0-1.218045.12675-1.74736.38205-.529907.2553-.967154.66495-1.311445 1.2288h-.038633v-1.32975h-2.68269v14.0565h2.820495v-4.9335h.039965c.344292.5106.785535.89595 1.321215 1.1568.536123.26205 1.122721.39375 1.758609.39375.754155 0 1.412838-.14895 1.976641-.44355.562027-.2949 1.033023-.6915 1.40973-1.18845.378336-.49695.658683-1.0668.844298-1.7112.186356-.6447.278423-1.31565.278423-2.01375 0-.7383-.092067-1.44615-.278423-2.12475zm-13.904575 3.2724c-.080374.4032-.216404.75465-.40794 1.05705-.19198.30225-.44376.5481-.755931.73485-.310247.18825-.698204.2829-1.161354.2829-.450865 0-.833493-.09465-1.151437-.2829-.31824-.18675-.572981-.4326-.765257-.73485-.19198-.3024-.330969-.65385-.417264-1.05705-.086443-.4023-.128481-.81225-.128481-1.22715 0-.4311.038633-.84705.117971-1.2489.080522-.4029.215367-.7584.408088-1.0686.190796-.3081.443316-.55965.755339-.7539.310691-.1947.69702-.2931 1.161354-.2931.449681 0 .831865.0984 1.142112.2931.311135.19425.566912.4485.76496.7644.198197.31575.340591.6753.426886 1.0776.086739.4029.12848.8127.12848 1.2294 0 .4149-.038632.82485-.117526 1.22715zm1.806715-5.0544c-.383368-.50985-.867241-.91965-1.450286-1.22805-.582898-.3093-1.277549-.4629-2.084991-.4629-.636628 0-1.218786.12675-1.7481.38205-.531091.2553-.967006.66495-1.311002 1.2288h-.040409v-1.32975h-2.68269v14.0565h2.822716v-4.9335h.038189c.343995.5106.785535.89595 1.32225 1.1568.535236.26205 1.121538.39375 1.757426.39375.755339 0 1.413726-.14895 1.976345-.44355.563063-.2949 1.03317-.6915 1.410618-1.18845.378039-.49695.65809-1.0668.84489-1.7112.183987-.6447.277831-1.31565.277831-2.01375 0-.7383-.093844-1.44615-.277831-2.12475-.1868-.67725-.470699-1.2717-.854956-1.782zm-18.5535452 3.44385 1.8474207-5.2764h.039373l1.7882133 5.2764zm.2975175-8.82045-5.3630117 14.3778h3.1385874l1.1117681-3.2019h5.3046919l1.071803 3.2019h3.238796l-5.3035077-14.3778zm-5.6020618 9.81705c-.1853193-.3288-.4304382-.60405-.7349126-.8262-.3043263-.22065-.6529102-.39915-1.0426433-.534-.3912133-.1335-.7917518-.24675-1.2025035-.34125-.396986-.09405-.7871632-.1815-1.1712716-.2622-.3841084-.081-.7258834-.17145-1.023993-.27135-.2975175-.1011-.5384918-.23115-.7239592-.3936-.1862075-.16065-.277979-.36825-.277979-.62385 0-.2148.0518065-.3858.1582319-.5136.1064254-.1269.2354977-.22455.3876608-.2922.1527553-.06675.3201644-.10995.5062238-.13095.1853194-.01965.3580571-.0291.5165851-.0291.5035594 0 .9405105.0969 1.3121853.2916.3696026.1944.5754965.56715.6145734 1.1172h2.6818019c-.0529907-.64395-.2149231-1.17735-.4866853-1.6014-.2710221-.42225-.6126492-.7614-1.0228089-1.0161-.4097156-.25515-.8770104-.43605-1.4008484-.54375-.523246-.10755-1.0624779-.16065-1.6176958-.16065-.5572903 0-1.1006667.0504-1.6289453.15-.5309429.10125-1.0075629.27645-1.4307482.52425-.4243695.24825-.7646644.58665-1.023549 1.0167-.2585886.42945-.3878088.98055-.3878088 1.6512 0 .45645.0935478.8433.2791631 1.1583.1836912.31605.4299942.57675.7335805.7851.3055104.2079.6532063.3762 1.0436794.50295.3907693.12885.7914558.23895 1.2011714.33315 1.0075629.21495 1.7925058.42915 2.3548286.64485.562915.2142.8444464.5364.8444464.9663 0 .255-.0592074.46545-.1786585.63345-.119451.16875-.2682098.3021-.4467203.4029-.1798426.10125-.3787797.17535-.5960711.2214-.2187715.04725-.4279219.07095-.6262669.07095-.278127 0-.5463368-.03375-.8038892-.10065-.2588846-.06735-.4872774-.1716-.6856224-.31245-.198493-.14085-.3617576-.32175-.4872774-.54375-.1249277-.2217-.1891678-.48585-.1891678-.79545h-2.6813578c.0270874.6981.1820629 1.27905.4675909 1.74195.2834557.4632.6474335.83535 1.0919335 1.1178.4434639.2814.9507238.4833 1.5207436.6045.5683916.12045 1.1512891.1812 1.746324.1812.5830455 0 1.1560257-.0576 1.7193847-.17085.5626188-.11445 1.0626258-.3126 1.4998729-.59505.4378392-.2814.7905676-.65385 1.0629219-1.11735.2707261-.4638.4063112-1.03755.4063112-1.7223 0-.4839-.0925116-.88875-.277831-1.2177zm-11.660021-8.97105h-2.8215314v3.12075h-1.7076912v1.9128h1.7076912v6.14205c0 .5244.0870349.9468.2585885 1.2687.1724418.32175.4071993.57165.7048648.74565.2981096.17445.642697.29175 1.0336143.35205.389437.06.8050734.09045 1.2411363.09045.2791632 0 .563063-.0072.8549557-.01935.2907087-.01365.555514-.0399.7942681-.0813v-2.2152c-.1329207.0273-.2716142.04815-.4177086.0603-.1453543.01365-.2978135.02085-.4567856.02085-.476176 0-.7944161-.08115-.9538321-.2421-.158084-.16095-.23757-.48315-.23757-.9669v-5.1552h2.0658963v-1.9128h-2.0658963zm-8.0853706 9.5037c0 .16245-.016134.37725-.0497343.64515-.0328601.2694-.1222634.5334-.2679137.79545-.1457984.2616-.3715268.48735-.6754091.67455-.3044744.1884-.7347646.2823-1.2917587.2823-.2243963 0-.4434639-.01995-.6551306-.0612-.2122587-.03945-.397282-.1107-.5562541-.21105-.158676-.10065-.2849359-.23835-.3775955-.41295-.0922157-.17445-.1389895-.3885-.1389895-.6435 0-.26835.0467738-.49125.1389895-.66495.0926596-.1737.2155151-.3186.3679743-.4329.1517191-.11415.3308217-.20475.5359756-.2724.2053018-.06675.413416-.12045.6261188-.16065.2243963-.0396.4502728-.07425.674669-.10095.2260245-.02625.4409476-.06075.6458054-.10035.2058939-.0402.397282-.0912.5765326-.15165.1788066-.06045.3272693-.14325.4467203-.25125zm2.8207914 1.71225v-5.4162c0-.63195-.1383975-1.13835-.4175606-1.5204-.277535-.38295-.635148-.6813-1.071655-.89625-.4378392-.21465-.9215641-.35925-1.4510268-.43275-.5293147-.07395-1.0528567-.1107-1.5688497-.1107-.5691317 0-1.1360431.0567-1.6980699.171-.5642471.11415-1.0697308.30555-1.5204476.57375-.4502727.26835-.8220955.6246-1.111768 1.0671-.2923369.44295-.4576737 1.0002-.4971947 1.6716h2.8204954c.0528426-.564.2391981-.9672.5572902-1.20855.3175-.2418.754007-.3618 1.3108531-.3618.2511877 0 .4859452.01665.7050128.0501.2180315.03375.4103077.0999.5760886.20115.1657809.10065.2981096.2412.396986.423.0993205.18105.1490548.42675.1490548.73455.0131737.29625-.0732692.51975-.2578485.6744-.1859114.15525-.437099.273-.7551911.3525-.3177961.08115-.68207.1419-1.0928217.1809-.4107517.0411-.8275723.09585-1.2509056.162-.4243695.06735-.8450385.1578-1.2611189.27195-.4172645.11355-.7890874.28545-1.1132482.5127-.3247529.22935-.5892623.5343-.7953042.91695-.2048578.38295-.3072867.87-.3072867 1.4601 0 .5367.0892552.9999.2680617 1.3887.1786585.39045.4268858.71145.7452739.96675.3179441.25515.6885828.4434 1.1122121.5646.4233334.12045.880563.1812 1.3709488.1812.6357401 0 1.2583065-.09435 1.8665151-.2814.6095408-.1893 1.1398916-.5172 1.5901644-.98775.0131736.17445.0364125.3462.0689766.51345.0331562.1674.0765257.3327.1295164.4932h2.8609044c-.1323287-.2136-.2257284-.5361-.2781271-.96645-.0535827-.4293-.07993-.8781-.07993-1.3494zm-11.6212401-7.19925c-.277831-.3693-.658683-.65745-1.1415198-.8661-.483873-.20685-1.103183-.31095-1.857486-.31095-.5300548 0-1.0726912.1371-1.6296854.41295-.555958.27435-1.0128916.71445-1.3703566 1.31895h-.0596515v-5.41755h-2.8207914v14.3778h2.8207914v-5.457c0-1.0605.1721457-1.8219.5167331-2.28585.3439953-.4626.9001014-.6945 1.6686142-.6945.6752611 0 1.1453683.2115 1.4103217.6348.2649534.4224.397282 1.0638.397282 1.92255v5.88h2.8210874v-6.40335c0-.6441-.0568391-1.23105-.1688892-1.7625-.1127902-.52935-.3080268-.9795-.5864499-1.34925zm-14.898817 5.04495h-.039077l-2.4235093-9.90765h-2.9204079l-2.4636224 9.7866h-.0393729l-2.2449989-9.7866h-3.1184569l3.754345 14.3778h3.158866l2.3635618-9.78675h.039817l2.4035268 9.78675h3.0992145l3.8142925-14.3778h-3.0592494zm-25.8587098.2262c-.36531-.18525-2.1609243-1.0806-2.4957424-1.20405-.3346702-.12345-.5783089-.18525-.8217996.1851-.2433426.37065-.9433228 1.20435-1.1563217 1.4511-.2131468.24735-.4261456.27825-.7913076.09315-.3653101-.18555-1.5422063-.5763-2.9371341-1.8375-1.0858648-.98115-1.8187051-2.19345-2.031852-2.56395-.2131468-.37035-.0227948-.5706.1601562-.75525.1643007-.1656.365162-.43245.547817-.6483.182507-.21645.2434907-.37065.3653101-.61785.1216713-.24675.0606876-.4632-.0304919-.6483-.0913275-.18525-.8217995-2.007-1.1261259-2.748-.2964813-.72165-.5975512-.62415-.8217995-.63525-.2127028-.0111-.45648951-.01335-.69998018-.01335-.24349068 0-.63914452.093-.97381469.46335-.33481818.37035-1.27828904 1.26585-1.27828904 3.08745 0 1.8219 1.30863287 3.58185 1.49128788 3.8292.18265501.2466 2.57537643 3.98535 6.23928203 5.5884.8713858.3813 1.5516795.609 2.0820303.7797.8749383.28155 1.6711306.24195 2.3005058.1467.7016084-.10635 2.1607763-.89565 2.4651026-1.7601.3043264-.8646.3043264-1.6053.2129988-1.7601-.0911794-.1542-.3346701-.24675-.6998321-.43215zm-6.6640956 9.22095h-.0050326c-2.1798707-.00075-4.318148-.5946-6.18347905-1.71615l-.4437599-.2667-4.59805128 1.22235 1.22737062-4.5432-.2889324-.4659c-1.21612121-1.9602-1.85852214-4.2261-1.85763495-6.55215.00266526-6.78825 5.4528599-12.31095 12.15425616-12.31095 3.2450128.00105 6.2953811 1.28355 8.5892261 3.61065s3.5564441 5.42055 3.555113 8.71035c-.0026654 6.78855-5.4528601 12.3117-12.1490757 12.3117zm-.000148-27.1347c-8.05680304 0-14.61402915 6.6447-14.61728556 14.8119-.00103613 2.6109.67200466 5.15925 1.95118182 7.4052l-2.07374126 7.6764 7.74877623-2.05995c2.13502097 1.18005 4.53869577 1.80195 6.98529607 1.80285h.0059207c8.0559149 0 14.6137331-6.6453 14.6169908-14.8128.0016269-3.9576-1.5174885-7.6794-4.2771481-10.4793-2.7596597-2.79975-6.4297821-4.34235-10.3399907-4.3443z" fill="#c6c6c6" fill-rule="evenodd" mask="url(#a)"/></svg>