<svg height="29" viewBox="0 0 27 29" width="27" xmlns="http://www.w3.org/2000/svg"><path d="m21.5554564 25.5-5.9027282-5.9027282c-.5369709-.5369709-.5369709-1.4075727 0-1.9445436s1.4075727-.5369709 1.9445436 0l5.9027282 5.9027282v-3.5554564c0-.7593915.6156085-1.375 1.375-1.375s1.375.6156085 1.375 1.375v6.875c0 .7593915-.6156085 1.375-1.375 1.375h-6.875c-.7593915 0-1.375-.6156085-1.375-1.375s.6156085-1.375 1.375-1.375zm1.9445436-20.05545635-21.02772818 21.02772815c-.5369709.5369709-1.40757274.5369709-1.94454364 0-.53697091-.5369709-.53697091-1.4075727 0-1.9445436l21.02772822-21.0277282h-3.5554564c-.7593915 0-1.375-.61560847-1.375-1.375s.6156085-1.375 1.375-1.375h6.875c.7593915 0 1.375.61560847 1.375 1.375v6.875c0 .75939153-.6156085 1.375-1.375 1.375s-1.375-.61560847-1.375-1.375zm-22.97227182-.97227183c-.53697091-.5369709-.53697091-1.40757274 0-1.94454364.5369709-.53697091 1.40757274-.53697091 1.94454364 0l6.875 6.875c.53697091.5369709.53697091 1.40757272 0 1.94454362-.5369709.5369709-1.40757274.5369709-1.94454364 0z" fill="#ffce66"/></svg>