<svg height="28" viewBox="0 0 33 28" width="33" xmlns="http://www.w3.org/2000/svg"><g style="stroke:#ff83ca;stroke-width:2.3;fill:none;fill-rule:evenodd;stroke-linecap:round;stroke-linejoin:round" transform="translate(1 1)"><path d="m5.75510204 9.03809524c.79591837-5.01428572 5.99999996-8.85238095 12.24489796-8.85238095 6.7959184 0 12 4.58095238 12 10.21428571 0 2.4761905-.6734694 4.7666667-3.122449 6.5-.3673469 1.9809524 0 3.9619048.367347 5.2.1224489.4952381-.3061225.9285714-.7959184.7428571l-6.6122449-2.3523809c-.6734694.0619048-1.2244898.1238095-1.8979592.1238095"/><path d="m9.85714286 8.2952381c-5.26530613 0-9.30612245 3.5285714-9.30612245 7.9238095 0 1.9190476.6122449 3.652381 2.44897959 5.0761905.36734694 1.3619048.12244898 2.7857143-.18367347 3.7142857-.12244898.4952381.30612245.9285714.79591837.7428572l4.83673469-1.7333334c.48979592.0619048.97959184.1238095 1.46938776.1238095 5.26530615 0 9.55102045-3.5285714 9.55102045-7.9238095s-4.3469388-7.9238095-9.61224494-7.9238095z"/></g></svg>