<svg height="25" viewBox="0 0 75 25" width="75" xmlns="http://www.w3.org/2000/svg"><g fill="#c6c6c6"><path d="m68.5464656 21.063764c-3.9559312.0257775-7.7025091.0575055-8.7472895-.0356963-2.113254-.1844217-3.5253856-1.5725439-3.6893077-3.6150668-.1105961-1.3405296-.1105961-2.4510277-.005921-3.5079835.1915718-1.9889811 1.8486042-3.8827765 3.6952287-3.97399606.6616275-.03569664 2.4312328-.03172713 5.6366599-.01784451l9.3279413.01784451v-3.88475945s-7.4299615-.00793293-9.6636862-.01784451c-2.9980597-.0138811-4.5069626-.01586586-5.4628664.01784451-2.1033735.08130396-3.8650779.83287348-5.2337551 2.22892805-1.2975789 1.31871585-2.0717824 3.41676346-2.1863319 5.54059086-.0651741 1.1461924-.0868938 2.6433814 0 3.5337628.2152773 2.2844527.9519564 4.0771134 2.1863319 5.3323732 1.3193017 1.3484616 3.3278806 2.2031481 5.2357318 2.2289274 1.5661761.0198293 15.1245759 0 15.1245759 0v-3.8827765s-4.1178826.0158658-6.2173087.0356963"/><path d="m26.4374156 6.25448171v3.88079359h9.2035196v14.7081476h3.884833v-14.7081476h9.2035112v-3.88079359z"/><path d="m22.402486 13.5936832c-.0276625-2.0901155-.7623528-3.88277649-2.1863271-5.33237314-1.4852062-1.51701921-3.7505323-2.14762347-5.2337614-2.22694451-1.2896791-.07337256-6.37136086-.04957805-7.56426167 0-1.68072723.07138902-2.90523249.57507896-3.51945911 1.03514207-.00590587.0039939-.01187247.00198171-.01187247-.00793292v-7.0615747h-3.88680425v24.9108448h3.88087986s-.07702257-10.1967497.0098836-11.3072475c.15404484-1.9731168 1.64517541-3.5238476 3.54710405-3.6904223 1.5246999-.13088018 6.10078789-.09518537 7.53661059.00198171 1.9710559.13682869 3.4266343 1.68359419 3.5411855 3.76776009.0375464.7674338-.0017612 11.227928-.0017612 11.227928h3.888781s.0098836-10.4208335 0-11.317164"/></g></svg>