<svg height="29" viewBox="0 0 31 29" width="31" xmlns="http://www.w3.org/2000/svg"><path d="m10.6391223 3.5h-6.1391223c-.75939153 0-1.375.61560847-1.375 1.375v19.25c0 .7593915.61560847 1.375 1.375 1.375h22c.7593915 0 1.375-.6156085 1.375-1.375v-15.125c0-.75939153-.6156085-1.375-1.375-1.375h-12.375c-.4597356 0-.8890537-.22976406-1.1440692-.61228723zm4.2217554 1.375h11.6391223c2.2781746 0 4.125 1.84682541 4.125 4.125v15.125c0 2.2781746-1.8468254 4.125-4.125 4.125h-22c-2.27817459 0-4.125-1.8468254-4.125-4.125v-19.25c0-2.27817459 1.84682541-4.125 4.125-4.125h6.875c.4597356 0 .8890537.22976406 1.1440692.61228723z" fill="#7a41ff"/></svg>