<svg height="770" viewBox="0 0 763 770" width="763" xmlns="http://www.w3.org/2000/svg" xmlns:xlink="http://www.w3.org/1999/xlink"><linearGradient id="a" x1="-.238474%" x2="98.862141%" y1="15.541937%" y2="84.458063%"><stop offset="0" stop-color="#4f8fe3"/><stop offset="1" stop-color="#a250f6"/></linearGradient><linearGradient id="b" x1="15.182859%" x2="79.669926%" y1="20.015786%" y2="82.029562%"><stop offset="0" stop-color="#53fdc3"/><stop offset="1" stop-color="#51ceec"/></linearGradient><g fill="none" fill-rule="evenodd" transform="matrix(-1 0 0 -1 763 770)"><path d="m301.649681 127.169212c114.332031-151.5390621 284.949219-137.9648434 368.466909-72.5534432 132.23283 103.5652992 93.312077 312.4727682 52.08979 389.3582402-112.501399 209.831229-250.004974 52.695334-345.288526 218.278709-49.69357 86.357286-87.539169 112.351243-174.3857 108.377377s-116.8445651-42.004753-168.8675697-124.083733c-31.02516795-48.94977-48.653921-88.771946-9.1642284-277.070885 29.5165127-140.743765 162.8172941-90.767202 277.1493251-242.306265z" fill="url(#a)" opacity=".2" transform="matrix(0 -1 -1 0 771.016868 771.016868)"/><path d="m154.360975 76.8685426c68.739775-60.7740643 121.899421-60.7740643 181.648747-70.18374385 59.749325-9.40967955 112.763716-19.40967955 151.423901 68.86666275 35.351613 80.7215735 209.398176 130.4144445 231.052177 247.6873655 21.654 117.272922 21.654 236.978869-44.873348 288.352806-73.006743 56.377474-220.690856-5.788613-287.477693 11.0681s-225.001725 52.929605-305.8550994-25.539632c-94.378304-91.595354-63.3331488-251.369867-51.0914921-323.944915 12.2416566-72.575049 56.4330326-135.532579 125.1728075-196.3066434z" fill="url(#b)" opacity=".1"/></g></svg>