<svg height="25" viewBox="0 0 127 25" width="127" xmlns="http://www.w3.org/2000/svg"><path d="m9.95174731 3.92361111c-1.50215054 0-1.92889785.67708333-1.92889785 2.17013889v2.46527778h3.99435484l-.3926075 3.99305552h-3.60174734v12.1006945h-4.77956989v-12.1006945h-3.22620968v-3.99305552h3.22620968v-2.39583334c0-4.02777777 1.5875-6.14583333 6.04274194-6.14583333.95591399 0 2.09959679.06944445 2.78239249.17361111v3.75zm2.38978499 13.17708329c0 4.4965278 2.0995967 7.8645834 6.4694892 7.8645834 2.389785 0 3.8919355-1.2152778 4.5576613-2.7604167v2.4305556h4.5918011v-16.07638892h-4.5918011v2.46527782c-.6998656-1.54513893-2.1508065-2.81250004-4.5576613-2.81250004-4.3869624 0-6.4694892 3.38541664-6.4694892 7.86458334zm4.7966397-1.09375c0-2.3958333.8705646-3.9930555 3.0896506-3.9930555 1.9630376 0 2.9530914 1.4583333 2.9530914 3.75v1.6145833c0 2.2916667-.9900538 3.75-2.9530914 3.75-2.219086 0-3.0896506-1.5798611-3.0896506-3.9930555zm20.7911291-7.79513884c-5.6159946 0-8.1764785 3.07291664-8.1764785 8.00347224v.7465278c0 4.9305555 2.5604839 8.0034722 8.1764785 8.0034722 1.8606183 0 3.6188172-.3993056 4.5918011-1.0763889l-1.0583334-3.4548611c-.7340054.3645833-1.9288978.7465278-3.1920699.7465278-2.5946236 0-3.7212365-1.5277778-3.7212365-4.1145834v-.9375c0-2.6041666 1.1266129-4.1145833 3.7212365-4.1145833 1.2631721 0 2.4580645.3645833 3.1920699.7465278l1.0583334-3.45486114c-.9729839-.69444445-2.7311828-1.09375-4.5918011-1.09375zm5.2063172 8.99305554c0 4.7222222 2.2532258 7.7951389 8.2959677 7.7951389 2.2873656 0 4.8819893-.5034722 6.1451613-1.1805556l-.8705645-3.3506944c-1.3997312.6076389-3.2944893.9722222-5.086828.9722222-2.6629032 0-3.6188172-.9722222-3.7212365-3.1770833h10.0712365v-2.5694445c0-4.4618055-2.1508064-7.49999996-7.0669354-7.49999996-5.2233871 0-7.7668011 3.00347226-7.7668011 7.56944446zm4.7795699-2.1006944c0-2.1701389.8364247-3.5416667 2.9872312-3.5416667 2.0995967 0 2.7823924 1.3888889 2.7823924 3.1423611v.3993056zm27.8068548.9722222c0-4.4965278-2.1337365-7.86458334-6.503629-7.86458334-2.219086 0-3.7553764 1.14583333-4.455242 2.56944444v-10.74652778l-4.7795698.43402778v24.1666667h4.5235215v-2.4305556c.6657258 1.5451389 2.3215053 2.7777778 4.7112903 2.7777778 4.3869623 0 6.503629-3.3854167 6.503629-7.8645833zm-4.7795699 1.1111111c0 2.2569444-.8705645 3.9583333-3.1579301 3.9583333-1.9630376 0-3.021371-1.4236111-3.021371-3.7152777v-1.6840278c0-2.2916667 1.0583334-3.7152778 3.021371-3.7152778 2.2873656 0 3.1579301 1.6840278 3.1579301 3.9583333zm6.3841398-.1909722c0 4.6354166 2.5946237 7.96875 7.8692204 7.96875 5.2745968 0 7.8692205-3.3506945 7.8692205-7.96875v-.8159722c0-4.6354167-2.5946237-7.96875004-7.8692205-7.96875004-5.2745967 0-7.8692204 3.35069444-7.8692204 7.96875004zm10.958871.3298611c0 2.1354167-.8705645 3.8194444-3.0896506 3.8194444-2.219086 0-3.0896505-1.6840277-3.0896505-3.8194444v-1.4930556c0-2.1354166.8705645-3.8194444 3.0896505-3.8194444 2.2190861 0 3.0896506 1.6840278 3.0896506 3.8194444zm6.3670699-.3298611c0 4.6354166 2.5946236 7.96875 7.8692202 7.96875 5.274597 0 7.869221-3.3506945 7.869221-7.96875v-.8159722c0-4.6354167-2.594624-7.96875004-7.869221-7.96875004-5.2745966 0-7.8692202 3.35069444-7.8692202 7.96875004zm10.9759412.3298611c0 2.1354167-.870565 3.8194444-3.089651 3.8194444s-3.0896505-1.6840277-3.0896505-3.8194444v-1.4930556c0-2.1354166.8705645-3.8194444 3.0896505-3.8194444s3.089651 1.6840278 3.089651 3.8194444zm11.351478-17.29166668-4.77957.43402778v24.1493056h4.77957v-7.8645834l4.916129 7.8645834h5.086828l-5.155107-8.125 4.950268-7.93402782h-5.086828l-4.71129 7.67361112z" fill="#c6c6c6"/></svg>