<svg height="26" viewBox="0 0 33 26" width="33" xmlns="http://www.w3.org/2000/svg"><path d="m.7173913 1.41176471c0 .39403108.3156829.70588235.70791841.70588235h22.97546749c.3897502 0 .7079185-.31510357.7079185-.70588235 0-.39403109-.3156829-.70588236-.7079185-.70588236h-22.97546749c-.38975024 0-.70791841.31510357-.70791841.70588236zm7.17391305 7.05882353c0 .39403115.31568289.70588235.70791841.70588235h22.97546754c.3897502 0 .7079184-.31510363.7079184-.70588235 0-.39403116-.3156829-.70588236-.7079184-.70588236h-22.97546754c-.38975025 0-.70791841.31510363-.70791841.70588236zm-7.17391305 7.05882356c0 .3940311.3156829.7058823.70791841.7058823h22.97546749c.3897502 0 .7079185-.3151036.7079185-.7058823 0-.3940312-.3156829-.7058824-.7079185-.7058824h-22.97546749c-.38975024 0-.70791841.3151036-.70791841.7058824zm0 7.0588235c0 .3940311.3156829.7058823.70791841.7058823h22.97546749c.3897502 0 .7079185-.3151036.7079185-.7058823 0-.3940312-.3156829-.7058824-.7079185-.7058824h-22.97546749c-.38975024 0-.70791841.3151037-.70791841.7058824z" fill="none" stroke="#ff6b6b" stroke-width="1.434783" transform="translate(0 1)"/></svg>