<svg height="800" viewBox="0 0 837 800" width="837" xmlns="http://www.w3.org/2000/svg" xmlns:xlink="http://www.w3.org/1999/xlink"><linearGradient id="a"><stop offset="0" stop-color="#4f8fe3"/><stop offset="1" stop-color="#a250f6"/></linearGradient><linearGradient id="b" x1="2.974509%" x2="95.737181%" xlink:href="#a" y1="15.541937%" y2="84.458063%"/><linearGradient id="c" x1="-.694412%" x2="99.305588%" xlink:href="#a" y1="23.448164%" y2="76.551836%"/><g fill="none" fill-rule="evenodd"><path d="m191.621944 47.6219441c48.261607-21.5636968 181-32 258.774596-23.0154269 77.774596 8.984573 185.119893 31.7435899 208.712848 40.0154269 48.487443 17 105.047291 64.3120719 130.509986 110.6127389 52.279647 95.063876 35.628203 218.273807-14.807919 312.344402-112.501399 209.831229-250.004973 52.695334-345.288526 218.278708-49.693569 86.357287-87.539169 112.351243-174.3857 108.377377s-116.844565-42.004752-168.8675692-124.083732c-48.9501998-77.230881-25.6315072-197.396105-.3367499-360.495671 12.1618755-78.419279 11.6890342-240.0338229 105.6890341-282.0338229z" fill="url(#b)" opacity=".2" transform="matrix(0 -1 -1 0 857.621944 857.621944)"/><path d="m107.360975 110.868543c68.739775-60.7740647 211.899421-60.7740647 271.648747-70.1837442 59.749325-9.4096796 208.748552-123.9476436 301.423901 78.8666632 36.673904 80.258585 59.398176 120.414444 81.052177 237.687365 21.654 117.272922 21.654 236.978869-44.873348 288.352806-73.006743 56.377474-220.690856-5.788613-287.477693 11.0681s-225.001725 52.929605-305.855099-25.539632c-94.3783044-91.595354-133.3331492-251.369867-121.09149252-323.944915 12.24165662-72.575049 36.43303262-135.532579 105.17280752-196.306643z" fill="url(#c)" opacity=".1"/></g></svg>