<svg height="29" viewBox="0 0 97 29" width="97" xmlns="http://www.w3.org/2000/svg"><g fill="#c6c6c6" fill-rule="evenodd"><path d="m60.1522752 22.6209381c-5.6345267 4.1113699-13.8014305 6.3049343-20.8329799 6.3049343-9.85937 0-18.7353318-3.6099806-25.4503396-9.6140814-.5275766-.4721422-.0548699-1.1155856.5782253-.7479041 7.2468032 4.1740425 16.207182 6.6851525 25.4630027 6.6851525 6.2422922 0 13.1092421-1.2785375 19.4232904-3.9317046.9538598-.4011114 1.751557.6183762.8188011 1.3036033"/><path d="m62.4947206 19.967771c-.7175086-.9108516-4.7608616-.4303571-6.5757272-.2172677-.552903.0668524-.6373124-.4094652-.1392824-.752081 3.2203342-2.2437034 8.504552-1.5960786 9.120762-.8440006.6162086.7562593-.1603833 5.9999254-3.1865695 8.5026757-.4642683.384395-.9074328.1796654-.700621-.3300792.6795186-1.6796445 2.2031644-5.4442173 1.4814381-6.3592472"/><path d="m56.0456121 3.15879644v-2.18102963c0-.33007915.2532372-.55152429.5571222-.55152429h9.8635863c.3165488 0 .569786.22562386.569786.55152429v1.86766377c-.0042148.31336586-.2701203.72283122-.7428316 1.37045493l-5.1111692 7.22414069c1.8992809-.0459579 3.9040752.2339797 5.6260882 1.1949709.3882959.2172665.4938122.5348111.5233561.84818v2.3272678c0 .3175441-.3545328.6894025-.7259471.4972065-3.0346263-1.5751895-7.0653186-1.7464963-10.4207115.0167134-.3418689.1838423-.700621-.1838407-.700621-.5013863v-2.2102769c0-.3551483.0042148-.9609928.3629698-1.4999825l5.9215317-8.40657547h-5.1533769c-.3165458 0-.569783-.22144356-.569783-.54734719"/><path d="m20.0648251 16.767254h-3.0008601c-.2870004-.0208888-.5149146-.2339782-.5360184-.5055647v-15.24631558c0-.30501002.257458-.54734877.5782246-.54734877h2.7982706c.2912257.01252667.5233562.23397972.5444615.50974186v1.99301272h.0548685c.7301664-1.92616115 2.101866-2.82447788 3.9504991-2.82447788 1.8781756 0 3.0515079.89831673 3.8956321 2.82447788.7259471-1.92616115 2.3762086-2.82447788 4.1446501-2.82447788 1.2577448 0 2.6336666.51392058 3.47357 1.66710904.949639 1.28271291.7554895 3.14619801.7554895 4.77988357l-.0042148 9.62243744c0 .305009-.257458.5515223-.5782246.5515223h-2.9966424c-.2996612-.0208888-.5402362-.2590469-.5402362-.5515223v-8.08067567c0-.64344505.0590848-2.24788114-.0844139-2.8579028-.2236918-1.02366079-.8947704-1.31196074-1.7642207-1.31196074-.7259471 0-1.4856574.48049553-1.7937632 1.24928952-.3081058.76879222-.2785604 2.05568068-.2785604 2.92057402v8.08067567c0 .305009-.257458.5515223-.5782261.5515223h-2.9966379c-.303885-.0208888-.5402407-.2590469-.5402407-.5515223l-.0042148-8.08067567c0-1.70053411.2827782-4.20328856-1.8486316-4.20328856-2.156739 0-2.0723266 2.4400785-2.0723266 4.20328856v8.08067567c0 .305009-.257458.5515223-.5782246.5515223"/><path d="m75.5279948.14630165c4.4527544 0 6.8627261 3.78546582 6.8627261 8.59877441 0 4.65035594-2.6632135 8.33972204-6.8627261 8.33972204-4.3725642 0-6.752995-3.7854656-6.752995-8.50267304 0-4.74645708 2.4099747-8.43582341 6.752995-8.43582341m.0253216 3.11277457c-2.2116029 0-2.3509031 2.98324524-2.3509031 4.8425548 0 1.8634851-.0295262 5.84114818 2.3255815 5.84114818 2.3255608 0 2.4352979-3.2088692 2.4352979-5.16427975 0-1.28688847-.0548686-2.82447305-.4473883-4.04451474-.3376496-1.06126447-1.0087252-1.47490849-1.962588-1.47490849"/><path d="m88.1645301 16.767254h-2.9881979c-.2996657-.0208888-.5402407-.2590469-.5402407-.5515223l-.0042192-15.25049946c.0253246-.27994086.2743426-.49720729.5782261-.49720729h2.7813905c.2616758.01252667.4769277.18802015.5360184.4261786v2.3314444h.0548656c.8399064-2.08493012 2.017455-3.0793463 4.08978-3.0793463 1.346378 0 2.6589912.48049559 3.5031154 1.79663354.7850349 1.22003992.7850349 3.27154682.7850349 4.7464553v9.59737051c-.0337631.2674037-.2827811.480493-.5782216.480493h-3.0093032c-.2743426-.0208888-.5022567-.2214431-.5317976-.480493v-8.28122933c0-1.66710909.1941479-4.10719084-1.8781786-4.10719084-.7301649 0-1.401245.48467597-1.7346739 1.22004006-.4220606.931745-.4769291 1.85930955-.4769291 2.88715078v8.21020003c-.0042148.305009-.2658981.5515223-.5866647.5515223"/><path d="m48.1825963 9.48462045c0 1.15736555.0295439 2.12253395-.5613431 3.15037665-.4769291.8356455-1.2366409 1.3495661-2.0765428 1.3495661-1.15223 0-1.8275293-.869072-1.8275293-2.1517849 0-2.53199921 2.2917961-2.99160275 4.4654152-2.99160275zm3.0261847 7.24085135c-.1983672.1754855-.4853721.1880192-.709064.0710308-.9960674-.8189304-1.1775531-1.199147-1.722013-1.9804736-1.6460422 1.6629295-2.8151552 2.160136-4.9465681 2.160136-2.5281518 0-4.4907383-1.5417628-4.4907383-4.6294629 0-2.41083381 1.3168355-4.05287373 3.1992319-4.85509112 1.6291576-.71029966 3.9040691-.83564387 5.6429668-1.03201989v-.38439603c0-.70612115.0548685-1.54176503-.3671936-2.1517818-.3629728-.54734882-1.0635983-.77297266-1.6840276-.77297266-1.1437899 0-2.1609567.5807722-2.4099747 1.78409894-.0506478.26740781-.249015.53063549-.5233576.54317l-2.9080062-.30919031c-.2447972-.05431389-.5191354-.25069302-.4473852-.62255143.6668578-3.49299038 3.8576481-4.54590387 6.7107843-4.54590387 1.4603357 0 3.3680552.38439616 4.5202852 1.4790889 1.4603327 1.34956443 1.3210533 3.15037669 1.3210533 5.10996277v4.6294655c0 1.3913485.5824454 2.0013654 1.1311261 2.7534476.1899302.267403.2321364.5891264-.0126743.7896811-.6119893.5055666-1.7009107 1.4456652-2.3002376 1.9721203l-.0042148-.0083745"/><path d="m8.84219911 9.48462045c0 1.15736555.02954136 2.12253395-.56134259 3.15037665-.47693271.8356455-1.23242296 1.3495661-2.07654715 1.3495661-1.15222952 0-1.82330676-.869072-1.82330676-2.1517849 0-2.53199921 2.29179568-2.99160275 4.4611965-2.99160275zm3.02618339 7.24085135c-.1983688.1754855-.4853735.1880192-.7090658.0710308-.996064-.8189304-1.173332-1.199147-1.72201258-1.9804736-1.64604217 1.6629295-2.81093027 2.160136-4.94656671 2.160136-2.52393193 0-4.49073773-1.5417628-4.49073773-4.6294629 0-2.41083381 1.32105372-4.05287373 3.19922876-4.85509112 1.62915894-.71029966 3.90407334-.83564387 5.64297067-1.03201989v-.38439603c0-.70612115.05486822-1.54176503-.36297355-2.1517818-.36719642-.54734882-1.06781681-.77297266-1.68402911-.77297266-1.14378559 0-2.1651778.5807722-2.41419384 1.78409894-.05064865.26740781-.24901753.53063549-.51913593.54317l-2.91222747-.30919031c-.24479647-.05431389-.51491646-.25069302-.44738647-.62255143.67107888-3.49299038 3.85764587-4.54590387 6.71078713-4.54590387 1.46033186 0 3.36805153.38439616 4.52028103 1.4790889 1.4603365 1.34956443 1.3210537 3.15037669 1.3210537 5.10996277v4.6294655c0 1.3913485.5824481 2.0013654 1.1311287 2.7534476.1941478.267403.2363542.5891264-.0084415.7896811-.6119895.5055666-1.7009085 1.4456652-2.3002395 1.9721203l-.0084386-.0083745"/></g></svg>