<svg height="32" viewBox="0 0 118 32" width="118" xmlns="http://www.w3.org/2000/svg"><g fill="none" fill-rule="evenodd" transform="matrix(1 0 0 -1 0 32)"><g fill="#c6c6c6"><path d="m86.865429 29.4888421c0 1.2463158 1.0258911 2.2572632 2.2914516 2.2572632h26.4253284c1.265519 0 2.291452-1.0109474 2.291452-2.2572632v-26.99663157c0-1.24673685-1.025933-2.25726316-2.291452-2.25726316h-26.4253284c-1.2655605 0-2.2914516 1.01052631-2.2914516 2.25726316z" fill-rule="nonzero"/><path d="m.06321131 5.35115789h12.94063889v4.29010527h-8.25758165v16.36800004h-4.68305724z"/><path d="m19.5555187 5.35115789v14.22863161h-4.6834742v-14.22863161zm-2.3417371 16.17136841c1.6332368 0 2.649788 1.0926316 2.649788 2.4589474-.0304382 1.3957895-1.0165512 2.4576842-2.618641 2.4576842-1.6022982 0-2.649788-1.0618947-2.649788-2.4576842 0-1.3663158 1.0163428-2.4589474 2.5880778-2.4589474h.0304381z"/><path d="m21.7300961 5.35115789h4.6835159v7.94610531c0 .4252631.0304382.8501052.1543173 1.1541052.338364.8492632 1.1089499 1.7292632 2.4028219 1.7292632 1.6949053 0 2.3728841-1.3052632 2.3728841-3.2168421v-7.61263161h4.6830573v8.15873681c0 4.3705264-2.3107986 6.4042106-5.3921831 6.4042106-2.5264091 0-3.6357759-1.4261053-4.2520862-2.3974737h.0312721v2.0631579h-4.6835993c.0615852-1.3351579 0-14.22863161 0-14.22863161z"/><path d="m42.6337336 26.0092632h-4.6836827v-20.65810531h4.6836827v4.61305264l1.1704933 1.48799997 3.6667144-6.10105261h5.7615273l-6.1619767 8.83242101 5.3919745 6.0092632h-5.6383569s-3.8513865-5.376421-4.1903759-6.0138947z"/><path d="m65.7573555 11.2863158c.0615017.3654737.1541505 1.0665263.1541505 1.8589474 0 3.6783157-1.8490558 7.4122105-6.7169936 7.4122105-5.2073442 0-7.6105414-4.1587369-7.6105414-7.9305263 0-4.66526319 2.9270672-7.5789474 8.0417626-7.5789474 2.0336862 0 3.9128883.30315789 5.4536848.94063158l-.6164771 3.12336842c-1.2631003-.42315789-2.5571809-.63452632-4.1592289-.63452632-2.1876283 0-4.0977689.90652632-4.2520863 2.83915792l9.7057294-.0294737zm-9.7362509 3.1995789c.1231703 1.2143158.9243194 3.0054737 2.9270671 3.0054737 2.1255011 0 2.6188078-1.9128421 2.6188078-3.0054737z"/><path d="m77.4717951 26.0092632v-7.1511579h-.0615018c-.6779788 1.0008421-2.095605 1.6686315-3.9745569 1.6686315-3.6052544 0-6.7786622-2.9136842-6.7481406-7.8909473 0-4.61389476 2.865607-7.61852634 6.4396728-7.61852634 1.9410791 0 3.789718.85010526 4.7140374 2.48926316h.0926488l.1848388-2.15536843h4.1598545c-.0617103 1.00168422-.1237958 2.73178948-.1237958 4.4311579v16.22694741zm0-14.072c0-.3637895-.0308552-.7284211-.0926488-1.031579-.2769039-1.30526315-1.3864792-2.21557894-2.7418113-2.21557894-1.941246 0-3.2045548 1.57810524-3.2045548 4.06694734 0 2.3368421 1.0786368 4.2185263 3.235118 4.2185263 1.4479393 0 2.4649075-1.0012631 2.7423951-2.2454736.0615018-.2736842.0615018-.5772632.0615018-.8501053z"/></g><path d="m96.2649837 5.368v14.2290526h-4.6835159v-14.2290526zm-2.3417788 16.1717895c1.6332368 0 2.649788 1.0926316 2.649788 2.4581052-.0304381 1.3962106-1.0165512 2.4585264-2.6188077 2.4585264-1.6020898 0-2.6495795-1.0623158-2.6495795-2.4585264 0-1.3654736 1.0163427-2.4581052 2.5880777-2.4581052h.0304382z" fill="#fff"/><path d="m98.8565223 5.368h4.6834737v7.9461053c0 .4252631.030439.8501052.154109 1.1541052.338573.8496842 1.1092 1.7296842 2.403031 1.7296842 1.694738 0 2.372675-1.3048421 2.372675-3.2176842v-7.6122105h4.683099v8.1587368c0 4.3705264-2.31059 6.4042106-5.391974 6.4042106-2.526618 0-3.635818-1.4261053-4.252087-2.3974737h.031273v2.0635789h-4.6835997c.0615851-1.3351579 0-14.2290526 0-14.2290526z" fill="#fff"/></g></svg>