<svg height="800" viewBox="0 0 835 800" width="835" xmlns="http://www.w3.org/2000/svg" xmlns:xlink="http://www.w3.org/1999/xlink"><linearGradient id="a" x1="2.782571%" x2="95.923861%" y1="15.541937%" y2="84.458063%"><stop offset="0" stop-color="#a44fe3"/><stop offset="1" stop-color="#f65050"/></linearGradient><linearGradient id="b" x1="-.694412%" x2="99.305588%" y1="23.448164%" y2="76.551836%"><stop offset="0" stop-color="#ff9dc9"/><stop offset="1" stop-color="#f65053"/></linearGradient><g fill="none" fill-rule="evenodd"><path d="m112.21049 63.8149912c42.350062-27.11955 190.615475-47.3612642 324.063304-40.1638673 97.826214 5.2761749 187.541197 28.1638673 222.028641 40.1638673 34.487443 12 105.047291 64.3120718 130.509986 110.6127388 52.279647 95.063876 35.628203 218.273807-14.807919 312.344402-112.501398 209.831229-250.004973 52.695334-345.288525 218.278709-49.69357 86.357286-87.539169 112.351242-174.385701 108.377376-86.846531-3.973866-116.844565-42.004752-168.8675691-124.083732-48.9501998-77.230881-25.6315072-197.396104-.3367499-360.495671 12.1618755-78.419279-46.3109658-218.033823 27.084533-265.0338228z" fill="url(#a)" opacity=".2" transform="matrix(0 -1 -1 0 856.814991 856.814991)"/><path d="m107.360975 110.868543c68.739775-60.7740647 211.899421-60.7740647 271.648747-70.1837442 59.749325-9.4096796 208.748552-123.9476436 301.423901 78.8666632 36.673904 80.258585 59.398176 120.414444 81.052177 237.687365 21.654 117.272922 21.654 236.978869-44.873348 288.352806-73.006743 56.377474-220.690856-5.788613-287.477693 11.0681s-225.001725 52.929605-305.855099-25.539632c-94.3783044-91.595354-133.3331492-251.369867-121.09149252-323.944915 12.24165662-72.575049 36.43303262-135.532579 105.17280752-196.306643z" fill="url(#b)" opacity=".158226"/></g></svg>