<svg height="31" viewBox="0 0 31 31" width="31" xmlns="http://www.w3.org/2000/svg"><path d="m22.375896 15.5006176v1.375c0 1.518783 1.2312169 2.75 2.75 2.75 1.518783 0 2.75-1.231217 2.75-2.75v-1.3749135c-.0003622-5.75078054-3.9623087-10.74346224-9.5626099-12.05040677-5.6003012-1.30694454-11.36291918 1.41631163-13.90873592 6.57288947-2.54581675 5.1565778-1.20384654 11.3873888 3.23899818 15.0387733 4.44284474 3.6513844 10.81558994 3.7609686 15.38134764.264494.602909-.46171 1.4659533-.3472456 1.9276634.2556635.46171.602909.3472456 1.4659533-.2556634 1.9276634-5.5803705 4.2734689-13.3692813 4.1395326-18.79942489-.3232706-5.43014355-4.4628032-7.07032936-12.0782389-3.95877556-18.3807229 3.1115538-6.30248397 10.15475355-9.63090819 16.99956615-8.03353153s11.6871916 7.69954317 11.6876343 14.72836163v1.375c0 3.0375661-2.4624339 5.5-5.5 5.5-1.849235 0-3.4853125-.9126354-4.4823986-2.312072-1.259393 1.4183478-3.096627 2.312072-5.1426014 2.312072-3.7969577 0-6.87500003-3.0780424-6.87500003-6.875 0-3.7969577 3.07804233-6.87500004 6.87500003-6.87500004 3.7969576 0 6.875 3.07804234 6.875 6.87500004zm-6.875 4.125c2.2781746 0 4.125-1.8468254 4.125-4.125s-1.8468254-4.125-4.125-4.125-4.125 1.8468254-4.125 4.125 1.8468254 4.125 4.125 4.125z" fill="#4ad97f"/></svg>