<svg height="33" viewBox="0 0 123 33" width="123" xmlns="http://www.w3.org/2000/svg"><g fill="#c6c6c6"><path d="m23.5166724 15.5876817c.2409581-.0290285.4720139-.0296883.683925 0 .1227896-.2817091.1439147-.7666182.0336681-1.2944104-.1643796-.7850909-.3861932-1.2601039-.8450039-1.186213s-.4759748.642587-.3115951 1.4276779c.0924223.4413663.2568019.8193975.439666 1.0529455z"/><path d="m19.5761817 16.2091571c.3287593.1438234.5301079.2394857.609327.1563584.0508322-.0521195.0356486-.1510805-.0429104-.2790701-.161739-.2645559-.4957796-.5324104-.8489648-.683491-.7235346-.3113974-1.5863628-.2078181-2.2518033.2704936-.2198331.1609766-.4277832.3839688-.3980761.5192156.0099024.0435428.0422502.0765298.1194889.0877454.1808836.020452.8139764-.2988623 1.5434524-.3437247.5149242-.0316675.9413871.1293091 1.2694863.2731325z"/><path d="m18.9153622 16.5858688c-.4277832.0672935-.6634601.2084779-.8152967.3397662-.1293912.1128156-.2092705.2375065-.2086144.325252l.033012.0778493.0706371.0270494c.0963832 0 .3129155-.086426.3129155-.086426.5954636-.2130961.9882584-.1873662 1.3770922-.1431636.215212.0244104.3168765.0376052.3637478-.0362858.0138633-.0211116.0310275-.0666337-.0118829-.1365662-.1003442-.1622961-.5320883-.4367481-1.1209504-.3668156z"/><path d="m22.1864514 17.9686844c.2904701.1425039.6099872.086426.7142924-.1253507.1043051-.2117766-.0468713-.4987636-.3373414-.6412675s-.6099872-.086426-.7142924.1253506c-.1043051.2117767.0468714.4987637.3373414.6412676"/><path d="m24.0533819 16.3384662c-.2356769-.0039585-.4317442.2546597-.4370255.5785922-.0052812.3232727.1815438.5884883.4172207.5924468.2356769.0039584.4317442-.2546598.4370254-.5779325.0052813-.3232728-.1815438-.5884884-.4172206-.5931065z"/><path d="m8.20493809 22.1692508c-.05875418-.0732312-.15513743-.0508-.24821989-.0296883-.06535577.015174-.13929361.0323272-.21983304.0310078-.17362189-.0032987-.32083741-.0771897-.40335732-.2038598-.10760596-.1649351-.10100437-.4110182.01716414-.6927273l.05545338-.1260104c.18946571-.424213.50568201-1.1347533.15051632-1.8109871-.26736451-.5093195-.70438995-.8266545-1.22921658-.8932883-.50370153-.0639948-1.02258672.1227117-1.35332652.4875481-.52218599.5752935-.60338558 1.3584052-.50238121 1.6354961.03696892.1016.09506294.1293091.13665297.1352468.0891215.0118753.21983304-.0527792.30235295-.2737922l.02376573-.0719117c.03696892-.116774.10496533-.3344883.21653225-.5093195.13467249-.2104572.34460314-.3556.59150271-.4083792.25086053-.053439.50766248-.0059377.72221425.134587.36572824.2394857.50634217.6867896.35054458 1.1143013-.08053944.221013-.21191113.6432468-.18286412.9902702.05875417.7026234.4911585.9849922.87933216 1.0146805.3776111.0145143.64167481-.1979221.7083509-.352961.03960956-.0917039.00594143-.1471221-.01518366-.1715325z"/><path d="m30.0073584 20.8840767c-.0145235-.0508-.1082661-.3932052-.2369972-.8055429l-.2620832-.7026234c.5162445-.7725558.5254868-1.4633039.4568302-1.8545299-.0732777-.4849091-.2752864-.8985663-.6826047-1.3254182-.4073183-.4275117-1.2397791-.8649195-2.4102415-1.1928105l-.6139481-.170213c-.0033008-.0250701-.0323478-1.4468104-.0587542-2.0570702-.0191446-.4413662-.0574339-1.1294753-.2713255-1.8083481-.2548215-.9183584-.6984485-1.72126236-1.2529823-2.23520004 1.5295891-1.58403641 2.4841794-3.3297092 2.4815387-4.8266599-.0046211-2.87910658-3.5424146-3.75062349-7.9027667-1.94623383l-.9235628.39188573c-.003961-.00395844-1.670203-1.63747538-1.695289-1.65924681-4.9709994-4.33317482-20.5144496 12.93222895-15.54477055 17.12553825l1.08596201.9196779c-.28188801.729013-.39213461 1.564904-.30169279 2.4634702.11618803 1.1538858.7116517 2.2602702 1.67746472 3.1152937.91630108.8114805 2.12175192 1.3254182 3.29089401 1.3240987 1.93360652 4.4539066 6.3520526 7.1858911 11.5329826 7.3396106 5.5572208.1649351 10.2225664-2.441039 12.177298-7.1225561.1280709-.3285506.6707219-1.8090078.6707219-3.1159533 0-1.3135429-.7426792-1.8578286-1.2160134-1.8578286zm-22.73720585 3.5052001c-.16900078.0290286-.34130235.0402442-.51492424.0362857-1.67878504-.0448623-3.49158242-1.5550078-3.6718059-3.3462027-.1993681-1.9792208.81265607-3.5032209 2.60498851-3.8640988.21389161-.0428831.4733342-.0679532.75258158-.053439 1.00410226.0547585 2.4835192.8253351 2.82152075 3.0110547.29905215 1.935678-.17626253 3.9069819-1.9923607 4.2164001zm-1.87419219-8.3582496c-1.11566918.2170545-2.09864635.848426-2.70005145 1.7212624-.35912665-.2995221-1.02918831-.8794338-1.14735682-1.105065-.95987159-1.8215429 1.04767277-5.3630287 2.44985108-7.36270152 3.46583621-4.94277419 8.89366583-8.68350158 11.40689213-8.00528858.4086386.11545455 1.761305 1.68299746 1.761305 1.68299746s-2.5119061 1.39271174-4.840948 3.33432738c-3.13839721 2.41530917-5.50968933 5.92512746-6.92969194 9.73446786zm17.67576464 7.5197197c-.0052812-.0508-.0508322-.0877454-.1016645-.0824675 0 0-2.6294144.3892468-5.1135938-.5198754.2706653-.878774.990239-.5614389 2.0775213-.4736935 1.9600129.1167741 3.7166967-.1695532 5.0145699-.5416467 1.1249114-.322613 2.6023478-.9586027 3.7503648-1.8637663.3868534.8497454.5235063 1.7845974.5235063 1.7845974s.2997123-.0534389.5499127.1002805c.236337.1458026.4099589.4479637.2917904 1.2304157-.2416183 1.4613247-.8628282 2.646878-1.9072001 3.7380884-.6357334.6841507-1.4074596 1.2785767-2.2907527 1.7107066-.4687131.2460831-.9684537.4591792-1.495921.6313714-3.9371899 1.2851741-7.9681225-.1279896-9.2673159-3.1621352-.103645-.2282701-.1914462-.4670961-.2607629-.7164779-.5538737-1.9996728-.0838403-4.3984885 1.3856743-5.908634v-.0006597c.0904418-.0963221.1828641-.2091377.1828641-.3516416 0-.119413-.0759183-.2447636-.1412741-.3338286-.514264-.7448467-2.2947136-2.0148468-1.9369073-4.4723793.256802-1.765465 1.8015747-3.0084157 3.2420422-2.9345248l.3650681.0211117c.6238505.0369454 1.1684819.116774 1.682746.1385454.8601875.0369455 1.6332341-.0877454 2.548875-.8504052.3089545-.2572987.5565142-.4802909.9757154-.5515429.0442307-.0072571.1538171-.0468415.3723298-.0362857.223794.0118754.4363653.0732312.6278115.2005611.7340971.4882078.8384023 1.6711221.8766915 2.5360416.0217853.4941455.0811996 1.6889351.1016645 2.0313403.0468714.7844312.252841.8946079.6700617 1.0324936.2350167.0771896.4528693.134587.7737067.2249714.9717544.2724728 1.5480735.5495637 1.9118213.9045039.2165322.2223325.3175366.4578598.3485641.683491.1148677.8358909-.6489366 1.8677247-2.6710045 2.8058754-2.2102132 1.0252364-4.8911201 1.2845143-6.743527 1.0786754l-.6489366-.0732312c-1.4820576-.1992416-2.3270614 1.714665-1.4378269 3.0255689.5730183.8451273 2.134295 1.394691 3.6962318 1.3953507 3.5813641.0006597 6.3342283-1.5279585 7.3581353-2.8480988l.0818598-.116774c.0501721-.0758701.008582-.1174338-.0541331-.0745507-.8364218.5719949-4.5524584 2.8434806-8.5272774 2.1599897 0 0-.4832366-.0791688-.9235628-.2507013-.3505446-.1359065-1.0833214-.4730338-1.1724429-1.2251377 3.2077139.9915896 5.2271412.0540987 5.2271412.0540987v-.0013195c.0363087-.015174.0613948-.0573974.0574338-.0983013zm-11.2748603-14.28733551c1.2318572-1.42305979 2.7489033-2.66007281 4.107511-3.35477933.0468714-.02375065.0970435.02704935.0712973.07323117-.107606.19528312-.3155562.61355846-.3815721.9302338-.0105626.04948052.0435705.08642597.0851605.05805714.8450039-.57595326 2.3158388-1.19281043 3.60579-1.27197926.0554534-.0032987.0818598.06729351.0382892.1016-.1960673.15042079-.410619.35823898-.5670768.56869612-.0264063.03562598-.0013203.08708572.0429104.08774546.9057385.00659741 2.1824866.32327274 3.0142872.78970912.0561136.03166753.016504.14052468-.0468713.12601039-1.2589237-.2883065-3.319941-.50734027-5.4608375.01451429-1.9111611.46577664-3.3701131 1.18489354-4.4342899 1.95876889-.0534729.03892468-.1181685-.03166753-.074598-.08246753z"/><path d="m118.939395 12.6089544c-1.841844 0-2.685528 1.3801766-3.052576 2.1659273-.242279.5192156-.230396.6716156-.407319.6716156-.256141 0-.04357-.4169559.071298-.9078026.227094-.9658598.054133-1.7034494.054133-1.7034494h-2.624794v12.5871848h3.582685v-3.990769c.423822.7184572 1.209412 1.4863949 2.420144 1.4863949 2.590465 0 3.894279-2.1909975 3.894279-5.1505924 0-3.3547793-1.560616-5.1598287-3.93851-5.1598287zm-.983637 7.9729613c-.821898 0-1.425944-1.0410702-1.425944-2.4924988 0-1.4092053.62121-2.4918391 1.397557-2.4918391.996841 0 1.421983.9137403 1.421983 2.4918391 0 1.6414338-.391474 2.4924988-1.393596 2.4924988z"/><path d="m47.7260334 12.6089544c-1.5758002 0-2.3554483 1.2396519-2.7132546 2.0385974-.2000283.4466442-.2554816.7996052-.4178808.7996052-.2284151 0-.0646956-.3067792-.2515207-.9869714-.2462394-.8952676-.9869381-1.8512312-2.5620782-1.8512312-1.6556794 0-2.3646905 1.3979896-2.7007116 2.1659273-.2297354.5251533-.2303956.6716156-.4073182.6716156-.2561418 0-.0435706-.4169559.0712972-.9078026.2270947-.9658598.054133-1.7034494.054133-1.7034494h-2.6247933v9.8631172h3.5826844v-4.9071482c0-.967839.4053378-2.1962754 1.0998254-2.1962754.8020935 0 .9631724.6161974.9631724 1.7562286v5.3498339h3.5972079v-4.9097871c0-.8616208.3518649-2.1962754 1.1051066-2.1962754.8133162 0 .9578911.8649195.9578911 1.7562286v5.347195h3.5325123v-5.8004366c0-2.5743066-.907719-4.290291-3.2856127-4.290291zm60.8099116 0c-1.5758 0-2.355448 1.2396519-2.713254 2.0385974-.200029.4466442-.255482.7996052-.417881.7996052-.228415 0-.075919-.3899065-.251521-.9869714-.262743-.8906494-.915641-1.8512312-2.562078-1.8512312-1.65568 0-2.364691 1.3979896-2.7007117 2.1659273-.2297355.5251533-.2303956.6716156-.4073183.6716156-.2561418 0-.0435705-.4169559.0712972-.9078026.2270948-.9658598.0541331-1.7034494.0541331-1.7034494h-2.6247933v9.8631172h3.582684v-4.9071482c0-.967839.405338-2.1962754 1.099826-2.1962754.802093 0 .963172.6161974.963172 1.7562286v5.3498339h3.597208v-4.9097871c0-.8616208.351865-2.1962754 1.105107-2.1962754.813316 0 .957891.8649195.957891 1.7562286v5.347195h3.532512v-5.8004366c0-2.5743066-.907719-4.290291-3.285613-4.290291zm-51.407263.0019792c-2.7442821 0-4.7135372 1.0080831-4.7135372 1.0080831v2.9642131s2.1745646-1.2495481 3.9385102-1.2495481c1.4081198 0 1.5810815.7587013 1.5170461 1.3887533 0 0-.405998-.1075377-1.645117-.1075377-2.9198844 0-4.3940201 1.326078-4.3940201 3.4530807 0 2.0174858 1.6563396 2.8606338 3.0525765 2.8606338 2.0365914 0 2.9317673-1.3676416 3.2070538-2.016826.190786-.4499429.2257744-.7534234.3974158-.7534234.1954072 0 .1293913.2177143.120149.6656779-.0165039.7844312.020465 1.3781975.1452351 1.8776209h2.7000514v-4.854369c0-3.0308469-1.0727588-5.2363586-4.3247034-5.2363586zm-.8720704 7.7829561c-.8568867.1979221-1.3005138-.0659741-1.3005138-.6333507 0-.777174.8047342-1.0885715 1.9527512-1.0885715.5063422 0 .982317.0435429.982317.0435429 0 .3331688-.7228744 1.4685819-1.6345544 1.6783793m11.0985978-10.5439692h3.5826844v12.8517407h-3.5826844zm7.5258158 7.9195223c0-.8866909.8245389-1.6935533 2.337624-1.6935533 1.6490779 0 2.9753379.7936676 3.2730697.9737767v-3.4306495s-1.0476728-1.0080831-3.6236143-1.0080831c-2.7152351 0-4.9762806 1.5879948-4.9762806 5.0054495s2.051775 5.3122287 4.9690189 5.3122287c2.2782096 0 3.6368174-1.2508675 3.6368174-1.2508675v-3.2584573c-.4297637.2401455-1.6272926 1.0707585-3.2625071 1.0707585-1.7315978 0-2.3547882-.7963065-2.3547882-1.7199429zm12.8684848-5.1585092c-2.0742205 0-2.8631108 1.9640468-3.0222092 2.3051325s-.2383175.5370286-.3683689.5330702c-.2264346-.0072572-.0686565-.4189351.0198048-.6848104.1670203-.5033819.5202055-1.8228624.5202055-3.4458235 0-1.1004468-.149196-1.4685819-.149196-1.4685819h-3.0928462v12.8517407h3.5826844v-4.9071482c0-.7996053.3188569-2.1962754 1.2219548-2.1962754.7473003 0 .9816569.5535221.9816569 1.6684831v5.4356002h3.5826844v-5.2205248c0-2.5320832-.4198613-4.869543-3.2763705-4.869543zm4.4408915.2381662v9.8519016h3.5826844v-9.8519016s-.6020653.3523013-1.7877114.3523013c-1.185646 0-1.794973-.3523013-1.794973-.3523013z"/><path d="m96.1645603 11.1806166c0 .7899731-.9816568 1.430317-2.1930491 1.430317s-2.1930491-.6403439-2.1930491-1.430317c0-.789973.9816568-1.43031688 2.1930491-1.43031688s2.1930491.64034388 2.1930491 1.43031688"/><path d="m62.6126252 12.8490998v9.8519016h3.5826844v-9.8519016s-.6020653.3523013-1.7877114.3523013z"/><path d="m66.586784 11.1806166c0 .7899731-.9818549 1.430317-2.1930491 1.430317s-2.1930491-.6403439-2.1930491-1.430317c0-.789973.9818549-1.43031688 2.1930491-1.43031688s2.1930491.64034388 2.1930491 1.43031688"/></g></svg>