<svg height="28" viewBox="0 0 28 28" width="28" xmlns="http://www.w3.org/2000/svg"><path d="m13.4933 27.475.1317-8.58-3.56-.02.1-4.15h3.5v-3c0-.4205.0513-.8499.1231-1.2637.0642-.3701.156-.736.2839-1.0893.1153-.3184.2602-.6265.4389-.9143.1674-.2696.3643-.5208.5884-.7455.2209-.2215.4676-.4167.7326-.5829.2744-.1722.5677-.3133.8711-.4266.4991-.1864 1.0282-.3056 1.558-.3606.5479-.057 1.1013-.0278 1.6509-.0161.2271.0048.4542.0097.6813.0126.422.0054.844.0104 1.2661.015.0162.0002.0324.0004.0487.0006l-.103 3.8408s-.49-.02-2.21 0c-1.69.02-1.71 1.28-1.71 1.34l-.02 3.19 3.94.07-.57 4.08h-3.35l-.0226 8.6h7.0926c1.39 0 2.52-1.13 2.52-2.52v-21.91c0-1.39-1.13-2.52-2.52-2.52h-21.91c-1.39 0-2.52 1.13-2.52 2.52v21.91c0 1.39 1.13 2.52 2.52 2.52z" fill="#3b5998"/></svg>