<svg height="28" viewBox="0 0 28 28" width="28" xmlns="http://www.w3.org/2000/svg"><path d="m24.955.525h-21.91c-1.39 0-2.52 1.13-2.52 2.5201v21.9099c0 1.39 1.13 2.52 2.52 2.52h21.91c1.39 0 2.52-1.13 2.52-2.52v-21.9099c0-1.3901-1.13-2.5201-2.52-2.5201zm-4.0797537 10.4711669s-.0167488 1.584942-.2512315 2.579746c-.2344828.9863734-1.0216749 3.7431608-3.3665025 5.6821855-2.353202 1.9390247-5.208867 2.3605518-6.8334975 2.2508705-1.62463056-.1095971-3.60935963-.7334572-4.8990148-1.5343587 0 0 2.93940887.3203606 5.1083744-1.4837755 0 0-2.1857143.1012508-3.22413795-2.4363424 0 0 .7453202.1348044 1.54926109-.0928203 0 0-2.7635468-.5058325-2.79704434-3.4985907 0 0 .91280788.4467344 1.58275862.4045817 0 0-2.63793103-2.0316764-1.03004926-4.65357503 0 0 2.63793104 3.52396663 7.21871924 3.65885533-1.1054187-3.094009 3.8773399-6.02792203 5.9374384-3.21203659 0 0 .7955665-.02529163 2.244335-.81776261 0 0-.3433498 1.11274728-1.4571429 1.85463501 0 0 .8374384-.00834624 1.8674877-.45516498-.0753695.11802759-.7034483 1.08745567-1.6497537 1.75355277z" fill="#4aa0ec"/></svg>