<svg fill="none" height="1600" viewBox="0 0 1674 1600" width="1674" xmlns="http://www.w3.org/2000/svg" xmlns:xlink="http://www.w3.org/1999/xlink"><linearGradient id="a" gradientUnits="userSpaceOnUse" x1="2219.16" x2="671.554" y1="1084.09" y2="2191.47"><stop offset="0" stop-color="#ffc1ab"/><stop offset="1" stop-color="#ff6f97"/></linearGradient><linearGradient id="b" gradientUnits="userSpaceOnUse" x1="-247.756" x2="440.559" y1="503.329" y2="1661.49"><stop offset="0" stop-color="#ff8c63"/><stop offset="1" stop-color="#ffc42c"/></linearGradient><g clip-rule="evenodd" fill-rule="evenodd"><path d="m1620 1332c43.13-96.52 64-362 46.03-517.549s-63.49-370.24-80.03-417.426c-34-96.975-128.62-210.094-221.22-261.02-190.13-104.5592-436.553-71.2563-624.694 29.616-419.662 225.003-105.39 500.01-436.557 690.577-172.715 99.387-224.7027 175.082-216.755 348.772 7.9478 173.69 84.01 233.69 248.168 337.73 154.461 97.9 394.792 51.27 720.988.68 156.84-24.33 480.07-23.38 564.07-211.38z" fill="url(#a)" opacity=".2"/><path d="m214.722 221.737c137.48-121.548 423.799-121.548 543.297-140.3674 119.499-18.8194 417.501-247.8956 602.851 157.7334 73.34 160.517 118.79 240.829 162.1 475.375 43.31 234.545 43.31 473.962-89.75 576.702-146.01 112.76-441.377-11.57-574.95 22.14-133.574 33.71-450.004 105.86-611.711-51.08-188.7563-183.19-266.666-502.74-242.18266-647.89 24.48326-145.15 72.86606-271.065 210.34566-392.613z" fill="url(#b)" opacity=".1"/></g></svg>