<svg xmlns="http://www.w3.org/2000/svg" viewBox="0 0 450 475" width="450" height="475" preserveAspectRatio="xMidYMid slice" style="width: 100%; height: 100%; transform: translate3d(0px, 0px, 0px);"><defs><clipPath id="__lottie_element_83"><rect width="450" height="475" x="0" y="0"></rect></clipPath><linearGradient id="__lottie_element_90" spreadMethod="pad" gradientUnits="userSpaceOnUse" x1="15.545254707336426" y1="9.904208183288574" x2="15.875" y2="34.625"><stop offset="0%" stop-color="rgb(255,255,255)" stop-opacity="0"></stop><stop offset="50%" stop-color="rgb(255,255,255)" stop-opacity="0.10000000149011612"></stop><stop offset="100%" stop-color="rgb(255,255,255)" stop-opacity="0.20000000298023224"></stop></linearGradient></defs><g clip-path="url(#__lottie_element_83)"><g transform="matrix(1,0,0,1,9,17)" opacity="1" style="display: block;"><g opacity="1" transform="matrix(1,0,0,1,177.3260040283203,124.16600036621094)"><path fill="rgb(236,239,243)" fill-opacity="1" d=" M134.24200439453125,28.33099937438965 C134.24200439453125,28.33099937438965 -134.24200439453125,28.33099937438965 -134.24200439453125,28.33099937438965 C-134.24200439453125,28.33099937438965 -134.24200439453125,-28.33099937438965 -134.24200439453125,-28.33099937438965 C-134.24200439453125,-28.33099937438965 134.24200439453125,-28.33099937438965 134.24200439453125,-28.33099937438965 C134.24200439453125,-28.33099937438965 134.24200439453125,28.33099937438965 134.24200439453125,28.33099937438965z"></path></g><g opacity="1" transform="matrix(1,0,0,1,313.5480041503906,315.8349914550781)"><path fill="rgb(236,239,243)" fill-opacity="1" d=" M89.67400360107422,28.33099937438965 C89.67400360107422,28.33099937438965 -89.67400360107422,28.33099937438965 -89.67400360107422,28.33099937438965 C-89.67400360107422,28.33099937438965 -89.67400360107422,-28.33099937438965 -89.67400360107422,-28.33099937438965 C-89.67400360107422,-28.33099937438965 89.67400360107422,-28.33099937438965 89.67400360107422,-28.33099937438965 C89.67400360107422,-28.33099937438965 89.67400360107422,28.33099937438965 89.67400360107422,28.33099937438965z"></path></g><g opacity="1" transform="matrix(1,0,0,1,117.79900360107422,315.8349914550781)"><path fill="rgb(236,239,243)" fill-opacity="1" d=" M73.57499694824219,28.33099937438965 C73.57499694824219,28.33099937438965 -73.57499694824219,28.33099937438965 -73.57499694824219,28.33099937438965 C-73.57499694824219,28.33099937438965 -73.57499694824219,-28.33099937438965 -73.57499694824219,-28.33099937438965 C-73.57499694824219,-28.33099937438965 73.57499694824219,-28.33099937438965 73.57499694824219,-28.33099937438965 C73.57499694824219,-28.33099937438965 73.57499694824219,28.33099937438965 73.57499694824219,28.33099937438965z"></path></g><g opacity="1" transform="matrix(1,0,0,1,46.689998626708984,28.33099937438965)"><path fill="rgb(236,239,243)" fill-opacity="1" d=" M-46.689998626708984,28.33099937438965 C-46.689998626708984,28.33099937438965 46.689998626708984,28.33099937438965 46.689998626708984,28.33099937438965 C46.689998626708984,28.33099937438965 46.689998626708984,-28.33099937438965 46.689998626708984,-28.33099937438965 C46.689998626708984,-28.33099937438965 -46.689998626708984,-28.33099937438965 -46.689998626708984,-28.33099937438965 C-46.689998626708984,-28.33099937438965 -46.689998626708984,28.33099937438965 -46.689998626708984,28.33099937438965z"></path></g><g opacity="1" transform="matrix(1,0,0,1,133.48300170898438,411.66900634765625)"><path fill="rgb(236,239,243)" fill-opacity="1" d=" M-133.48300170898438,28.33099937438965 C-133.48300170898438,28.33099937438965 133.48300170898438,28.33099937438965 133.48300170898438,28.33099937438965 C133.48300170898438,28.33099937438965 133.48300170898438,-28.33099937438965 133.48300170898438,-28.33099937438965 C133.48300170898438,-28.33099937438965 -133.48300170898438,-28.33099937438965 -133.48300170898438,-28.33099937438965 C-133.48300170898438,-28.33099937438965 -133.48300170898438,28.33099937438965 -133.48300170898438,28.33099937438965z"></path></g><g opacity="1" transform="matrix(1,0,0,1,365.7330017089844,411.66900634765625)"><path fill="rgb(236,239,243)" fill-opacity="1" d=" M-66.26699829101562,28.33099937438965 C-66.26699829101562,28.33099937438965 66.26699829101562,28.33099937438965 66.26699829101562,28.33099937438965 C66.26699829101562,28.33099937438965 66.26699829101562,-28.33099937438965 66.26699829101562,-28.33099937438965 C66.26699829101562,-28.33099937438965 -66.26699829101562,-28.33099937438965 -66.26699829101562,-28.33099937438965 C-66.26699829101562,-28.33099937438965 -66.26699829101562,28.33099937438965 -66.26699829101562,28.33099937438965z"></path></g><g opacity="1" transform="matrix(1,0,0,1,141.0229949951172,220)"><path fill="rgb(236,239,243)" fill-opacity="1" d=" M-141.0229949951172,28.33099937438965 C-141.0229949951172,28.33099937438965 141.0229949951172,28.33099937438965 141.0229949951172,28.33099937438965 C141.0229949951172,28.33099937438965 141.0229949951172,-28.329999923706055 141.0229949951172,-28.329999923706055 C141.0229949951172,-28.329999923706055 -141.0229949951172,-28.329999923706055 -141.0229949951172,-28.329999923706055 C-141.0229949951172,-28.329999923706055 -141.0229949951172,28.33099937438965 -141.0229949951172,28.33099937438965z"></path></g><g opacity="1" transform="matrix(1,0,0,1,391.7850036621094,124.16600036621094)"><path fill="rgb(236,239,243)" fill-opacity="1" d=" M-40.21500015258789,-28.329999923706055 C-40.21500015258789,-28.329999923706055 -40.21500015258789,28.33099937438965 -40.21500015258789,28.33099937438965 C-40.21500015258789,28.33099937438965 40.21500015258789,28.33099937438965 40.21500015258789,28.33099937438965 C40.21500015258789,28.33099937438965 40.21500015258789,-28.33099937438965 40.21500015258789,-28.33099937438965 C40.21500015258789,-28.33099937438965 -40.21500015258789,-28.329999923706055 -40.21500015258789,-28.329999923706055z"></path></g></g><g transform="matrix(0.9978030323982239,-0.06625068187713623,0.06625068187713623,0.9978030323982239,255.49783325195312,304.88494873046875)" opacity="1" style="display: block;"><g opacity="1" transform="matrix(1,0,0,1,45.90399932861328,29.986000061035156)"><path fill="rgb(75,213,144)" fill-opacity="1" d=" M9.968000411987305,-13.824000358581543 C9.968000411987305,-13.824000358581543 27.822999954223633,-13.824000358581543 27.822999954223633,-13.824000358581543 C27.822999954223633,-13.824000358581543 32.816001892089844,-14.015999794006348 32.23899841308594,-9.02400016784668 C32.23899841308594,-9.02400016784668 25.13599967956543,5.567999839782715 -5.008999824523926,8.831999778747559 C-5.008999824523926,8.831999778747559 -9.039999961853027,8.831999778747559 -10.00100040435791,10.751999855041504 C-10.00100040435791,10.751999855041504 -20.753000259399414,14.015999794006348 -20.753000259399414,14.015999794006348 C-20.753000259399414,14.015999794006348 -28.048999786376953,6.71999979019165 -28.048999786376953,6.71999979019165 C-28.048999786376953,6.71999979019165 -32.2859992980957,2.7109999656677246 -29.30299949645996,-4.116000175476074 C-29.30299949645996,-4.116000175476074 9.968000411987305,-13.824000358581543 9.968000411987305,-13.824000358581543z"></path></g><g opacity="1" transform="matrix(1,0,0,1,29.08799934387207,16.52899932861328)"><path fill="rgb(255,208,156)" fill-opacity="1" d=" M-19.83799934387207,-16.52899932861328 C-19.83799934387207,-16.52899932861328 -0.48100000619888306,-5.360000133514404 -0.48100000619888306,-5.360000133514404 C-0.48100000619888306,-5.360000133514404 5.855000019073486,-2.565000057220459 12.576000213623047,-1.9459999799728394 C12.576000213623047,-1.9459999799728394 26.784000396728516,-0.367000013589859 26.784000396728516,-0.367000013589859 C26.784000396728516,-0.367000013589859 29.08799934387207,5.968999862670898 19.488000869750977,9.809000015258789 C19.488000869750977,9.809000015258789 6.432000160217285,11.901000022888184 0.2879999876022339,13.159000396728516 C0.2879999876022339,13.159000396728516 -5.85699987411499,16.52899932861328 -13.343999862670898,8.46500015258789 C-13.343999862670898,8.46500015258789 -29.08799934387207,-1.9459999799728394 -29.08799934387207,-1.9459999799728394 C-29.08799934387207,-1.9459999799728394 -19.83799934387207,-16.52899932861328 -19.83799934387207,-16.52899932861328z"></path></g></g><g transform="matrix(1,0,0,1,74.5,27)" opacity="1" style="display: block;"><g opacity="1" transform="matrix(1,0,0,1,71.12200164794922,61.10599899291992)"><path fill="rgb(57,64,95)" fill-opacity="1" d=" M-34.06100082397461,51.7760009765625 C-34.209999084472656,51.709999084472656 -34.35599899291992,51.6349983215332 -34.49700164794922,51.54899978637695 C-35.3489990234375,51.02299880981445 -46.178001403808594,48.082000732421875 -46.59400177001953,47.17300033569336 C-50.56100082397461,38.51100158691406 -34.75699996948242,25.28499984741211 -36.22800064086914,15.876999855041504 C-37.24800109863281,9.350000381469727 -42.176998138427734,4.251999855041504 -45.71900177001953,-1.3300000429153442 C-53.742000579833984,-13.975000381469727 -52.974998474121094,-25.51099967956543 -46.499000549316406,-38.97100067138672 C-40.178001403808594,-52.11199951171875 -24.298999786376953,-60.388999938964844 -10.020000457763672,-61.0369987487793 C3.388000011444092,-61.645999908447266 12.800999641418457,-58.27399826049805 20.604999542236328,-47.387001037597656 C27.309999465942383,-38.03200149536133 29.187000274658203,-26.05299949645996 27.136999130249023,-14.862000465393066 C26.0939998626709,-9.17199993133545 23.989999771118164,-3.9690001010894775 21.298999786376953,1.1200000047683716 C18.74799919128418,5.946000099182129 14.984999656677246,12.276000022888184 18.388999938964844,17.607999801635742 C20.847999572753906,21.458999633789062 26.03499984741211,22.195999145507812 30.5,23.21299934387207 C35.31700134277344,24.31100082397461 39.96200180053711,26.158000946044922 44.21500015258789,28.667999267578125 C47.53499984741211,30.62700080871582 50.75400161743164,33.165000915527344 52.189998626708984,36.73400115966797 C53.74100112915039,40.5890007019043 52.92100143432617,45.06999969482422 50.983001708984375,48.74800109863281 C49.04499816894531,52.42499923706055 46.09700012207031,55.457000732421875 43.191001892089844,58.43299865722656 C42.2239990234375,59.42300033569336 41.19200134277344,60.45199966430664 39.858001708984375,60.82400131225586 C38.8489990234375,61.10599899291992 37.77799987792969,60.97800064086914 36.7400016784668,60.847999572753906 C13.880000114440918,57.9900016784668 -8.977999687194824,55.13199996948242 -31.836999893188477,52.275001525878906 C-32.59199905395508,52.180999755859375 -33.37099838256836,52.07899856567383 -34.06100082397461,51.7760009765625z"></path></g><g opacity="1" transform="matrix(1,0,0,1,146.92599487304688,199.2469940185547)"><path fill="rgb(255,208,156)" fill-opacity="1" d=" M-36.959999084472656,-37.94499969482422 C-36.959999084472656,-37.94499969482422 -19.871999740600586,-5.497000217437744 -14.111000061035156,8.135000228881836 C-14.111000061035156,8.135000228881836 -6.047999858856201,24.454999923706055 -6.047999858856201,24.454999923706055 C-6.047999858856201,24.454999923706055 -4.895999908447266,35.207000732421875 0.6729999780654907,37.702999114990234 C0.6729999780654907,37.702999114990234 9.696000099182129,42.887001037597656 9.696000099182129,42.887001037597656 C9.696000099182129,42.887001037597656 15.456000328063965,44.80699920654297 12.960000038146973,40.00699996948242 C12.960000038146973,40.00699996948242 11.039999961853027,36.16699981689453 9.312000274658203,34.63100051879883 C9.312000274658203,34.63100051879883 19.488000869750977,36.74300003051758 19.488000869750977,36.74300003051758 C19.488000869750977,36.74300003051758 23.71299934387207,37.702999114990234 26.20800018310547,39.430999755859375 C26.20800018310547,39.430999755859375 31.200000762939453,43.26599884033203 31.200000762939453,43.26599884033203 C31.200000762939453,43.26599884033203 32.54399871826172,44.41299819946289 34.8489990234375,43.26599884033203 C34.8489990234375,43.26599884033203 36.959999084472656,42.11899948120117 34.8489990234375,38.27899932861328 C34.8489990234375,38.27899932861328 28.51300048828125,28.48699951171875 28.51300048828125,28.48699951171875 C28.51300048828125,28.48699951171875 25.632999420166016,24.070999145507812 19.680999755859375,24.454999923706055 C19.680999755859375,24.454999923706055 8.352999687194824,21.575000762939453 8.352999687194824,21.575000762939453 C8.352999687194824,21.575000762939453 -15.723999977111816,-44.80699920654297 -15.723999977111816,-44.80699920654297 C-15.723999977111816,-44.80699920654297 -36.959999084472656,-37.94499969482422 -36.959999084472656,-37.94499969482422z"></path></g><g opacity="1" transform="matrix(1,0,0,1,70.79900360107422,172.4669952392578)"><path fill="rgb(251,135,85)" fill-opacity="1" d=" M-13.857000350952148,-78.3010025024414 C-13.857000350952148,-78.3010025024414 -41.08700180053711,-69.59400177001953 -41.08700180053711,-69.59400177001953 C-41.08700180053711,-69.59400177001953 -52.99300003051758,-66.52200317382812 -54.91299819946289,-58.650001525878906 C-58.23699951171875,-44.9119987487793 -62.03200149536133,-31.1560001373291 -63.53799819946289,-17.06599998474121 C-64.375,-9.230999946594238 -65.21199798583984,-1.3949999809265137 -66.0479965209961,6.440000057220459 C-66.0479965209961,6.440000057220459 -43.584999084472656,2.1470000743865967 -43.584999084472656,2.1470000743865967 C-43.584999084472656,2.1470000743865967 -33.215999603271484,29.795000076293945 -41.28099822998047,48.22700119018555 C-41.28099822998047,48.22700119018555 -51.70399856567383,78.30000305175781 -51.70399856567383,78.30000305175781 C-51.70399856567383,78.30000305175781 1.343999981880188,56.29100036621094 57.025001525878906,63.01100158691406 C57.025001525878906,63.01100158691406 36.28900146484375,34.979000091552734 38.016998291015625,18.466999053955078 C38.016998291015625,18.466999053955078 40.895999908447266,-4.572999954223633 40.895999908447266,-4.572999954223633 C40.895999908447266,-4.572999954223633 50.68899917602539,-3.611999988555908 60.8650016784668,-10.715999603271484 C60.8650016784668,-10.715999603271484 66.0469970703125,-12.82800006866455 64.12699890136719,-17.43600082397461 C64.12699890136719,-17.43600082397461 45.60100173950195,-59.051998138427734 45.60100173950195,-59.051998138427734 C45.60100173950195,-59.051998138427734 41.7599983215332,-69.61199951171875 32.73699951171875,-70.76399993896484 C32.73699951171875,-70.76399993896484 3.3289999961853027,-76.70999908447266 3.3289999961853027,-76.70999908447266 C3.3289999961853027,-76.70999908447266 -13.857000350952148,-78.3010025024414 -13.857000350952148,-78.3010025024414z"></path></g><g opacity="1" transform="matrix(1,0,0,1,66.50299835205078,139.94400024414062)"><path fill="rgb(244,239,230)" fill-opacity="1" d=" M8.095999717712402,22.3700008392334 C8.095999717712402,22.3700008392334 -8.097000122070312,22.3700008392334 -8.097000122070312,22.3700008392334 C-9.947999954223633,22.3700008392334 -11.447999954223633,20.8700008392334 -11.447999954223633,19.018999099731445 C-11.447999954223633,19.018999099731445 -11.447999954223633,-19.01799964904785 -11.447999954223633,-19.01799964904785 C-11.447999954223633,-20.868999481201172 -9.947999954223633,-22.3700008392334 -8.097000122070312,-22.3700008392334 C-8.097000122070312,-22.3700008392334 8.095999717712402,-22.3700008392334 8.095999717712402,-22.3700008392334 C9.947999954223633,-22.3700008392334 11.447999954223633,-20.868999481201172 11.447999954223633,-19.01799964904785 C11.447999954223633,-19.01799964904785 11.447999954223633,19.018999099731445 11.447999954223633,19.018999099731445 C11.447999954223633,20.8700008392334 9.947999954223633,22.3700008392334 8.095999717712402,22.3700008392334z"></path></g><g opacity="1" transform="matrix(1,0,0,1,40.66699981689453,165.88999938964844)"><path fill="rgb(255,208,156)" fill-opacity="1" d=" M-39.23099899291992,29.225000381469727 C-40.53900146484375,25.743000030517578 -42.87699890136719,16.90999984741211 -35.7239990234375,11.269000053405762 C-29.79800033569336,6.5970001220703125 -22.777999877929688,2.884000062942505 -16.450000762939453,-1.2139999866485596 C-8.795999526977539,-6.171000003814697 -0.6809999942779541,-10.767999649047852 6.658999919891357,-16.18199920654297 C9.164999961853027,-18.030000686645508 11.621000289916992,-21.350000381469727 11.508000373840332,-24.586999893188477 C11.508000373840332,-24.586999893188477 11.51200008392334,-34.380001068115234 11.51200008392334,-34.380001068115234 C11.51200008392334,-34.380001068115234 12.805000305175781,-36.82899856567383 15.109000205993652,-34.380001068115234 C15.109000205993652,-34.380001068115234 17.469999313354492,-30.06100082397461 16.792999267578125,-25.165000915527344 C16.792999267578125,-25.165000915527344 17.124000549316406,-24.011999130249023 20.437000274658203,-25.45199966430664 C20.437000274658203,-25.45199966430664 33.685001373291016,-29.19700050354004 36.99700164794922,-33.229000091552734 C36.99700164794922,-33.229000091552734 40.66699981689453,-32.6510009765625 38.47200012207031,-22.139999389648438 C38.47200012207031,-22.139999389648438 36.85300064086914,-12.345999717712402 28.933000564575195,-9.467000007629395 C28.933000564575195,-9.467000007629395 20.35099983215332,-7.739999771118164 16.792999267578125,-8.170999526977539 C16.792999267578125,-8.170999526977539 14.388999938964844,-8.315999984741211 12.229000091552734,-5.435999870300293 C12.229000091552734,-5.435999870300293 -16.570999145507812,25.523000717163086 -16.570999145507812,25.523000717163086 C-16.570999145507812,25.523000717163086 -23.0310001373291,36.82899856567383 -37.12099838256836,31.336999893188477 C-38.0880012512207,30.958999633789062 -38.8650016784668,30.197999954223633 -39.23099899291992,29.225000381469727z"></path></g><g opacity="1" transform="matrix(1,0,0,1,62.21099853515625,419.8760070800781)"><path fill="rgb(75,213,144)" fill-opacity="1" d=" M-1.1510000228881836,-21.650999069213867 C-1.1510000228881836,-21.650999069213867 -11.28499984741211,-10.779999732971191 -14.54800033569336,-3.4839999675750732 C-14.54800033569336,-3.4839999675750732 -17.42799949645996,-0.2199999988079071 -12.244999885559082,11.87600040435791 C-12.244999885559082,11.87600040435791 -7.822000026702881,26.788000106811523 5.160999774932861,19.774999618530273 C5.419000148773193,19.63599967956543 5.660999774932861,19.450000762939453 5.867000102996826,19.239999771118164 C5.867000102996826,19.239999771118164 10.628999710083008,14.383000373840332 10.628999710083008,14.383000373840332 C10.628999710083008,14.383000373840332 17.42799949645996,7.02400016784668 14.258000373840332,-1.281000018119812 C14.258000373840332,-1.281000018119812 10.625,-16.152999877929688 10.625,-16.152999877929688 C10.625,-16.152999877929688 -1.1510000228881836,-21.650999069213867 -1.1510000228881836,-21.650999069213867z"></path></g><g opacity="1" transform="matrix(1,0,0,1,65.89700317382812,404.25799560546875)"><path fill="rgb(255,208,156)" fill-opacity="1" d=" M-2.5940001010894775,-30.56599998474121 C-2.5940001010894775,-30.56599998474121 -4.361000061035156,-8.793000221252441 -4.361000061035156,-8.793000221252441 C-4.361000061035156,-8.793000221252441 -4.986999988555908,-3.4170000553131104 -6.906000137329102,0.039000000804662704 C-6.906000137329102,0.039000000804662704 -16.506999969482422,10.597999572753906 -11.130999565124512,20.965999603271484 C-11.130999565124512,20.965999603271484 -6.328999996185303,30.566999435424805 2.118000030517578,22.886999130249023 C2.118000030517578,22.886999130249023 8.454000473022461,17.70199966430664 6.72599983215332,4.070000171661377 C6.72599983215332,4.070000171661377 6.3429999351501465,-1.496999979019165 8.645999908447266,-7.448999881744385 C8.645999908447266,-7.448999881744385 16.506999969482422,-25.75 16.506999969482422,-25.75 C16.506999969482422,-25.75 -2.5940001010894775,-30.56599998474121 -2.5940001010894775,-30.56599998474121z"></path></g><g opacity="1" transform="matrix(1,0,0,1,91.83599853515625,311.1709899902344)"><path fill="rgb(57,64,95)" fill-opacity="1" d=" M-31.589000701904297,60.75400161743164 C-31.589000701904297,60.75400161743164 -21.201000213623047,-40.46500015258789 -21.201000213623047,-40.46500015258789 C-21.201000213623047,-40.46500015258789 -17.426000595092773,-73.55799865722656 9.638999938964844,-67.37799835205078 C9.638999938964844,-67.37799835205078 33.62200164794922,-63.027000427246094 17.78499984741211,-16.68600082397461 C17.78499984741211,-16.68600082397461 -4.197999954223633,62.582000732421875 -4.197999954223633,62.582000732421875 C-4.197999954223633,62.582000732421875 -5.572999954223633,67.66500091552734 -5.572999954223633,67.66500091552734 C-5.572999954223633,67.66500091552734 -5.980000019073486,73.55799865722656 -14.517000198364258,72.13500213623047 C-14.517000198364258,72.13500213623047 -33.62099838256836,71.5260009765625 -31.589000701904297,60.75400161743164z"></path></g><g opacity="1" transform="matrix(1,0,0,1,103.74700164794922,250.2429962158203)"><path fill="rgb(73,82,123)" fill-opacity="1" d=" M-84.18199920654297,-0.9120000004768372 C-84.18199920654297,-0.9120000004768372 -94.29299926757812,25.007999420166016 -67.44499969482422,36.9119987487793 C-67.44499969482422,36.9119987487793 -47.893001556396484,44.59199905395508 -23.70199966430664,25.775999069213867 C-23.70199966430664,25.775999069213867 0.8740000128746033,10.416000366210938 0.8740000128746033,10.416000366210938 C0.8740000128746033,10.416000366210938 63.08300018310547,38.832000732421875 78.8270034790039,44.59199905395508 C78.8270034790039,44.59199905395508 83.81900024414062,47.95199966430664 87.2750015258789,44.59199905395508 C87.2750015258789,44.59199905395508 96.48999786376953,36.14400100708008 93.802001953125,30 C93.802001953125,30 93.01300048828125,27.336999893188477 88.427001953125,24.624000549316406 C88.427001953125,24.624000549316406 15.083000183105469,-31.055999755859375 15.083000183105469,-31.055999755859375 C15.083000183105469,-31.055999755859375 -6.421000003814697,-47.95199966430664 -32.70399856567383,-31.055999755859375 C-32.70399856567383,-31.055999755859375 -84.18199920654297,-0.9120000004768372 -84.18199920654297,-0.9120000004768372z"></path></g><g opacity="1" transform="matrix(1,0,0,1,61.060001373291016,56.22999954223633)"><path fill="rgb(255,208,156)" fill-opacity="1" d=" M-15.72700023651123,-22.277999877929688 C-15.746000289916992,-22.582000732421875 -15.37399959564209,-22.729999542236328 -15.184000015258789,-22.490999221801758 C-12.770999908447266,-19.45599937438965 -4.054999828338623,-10.496000289916992 8.074999809265137,-21.020000457763672 C11.425999641418457,-23.926000595092773 15.067000389099121,-25.572999954223633 19.5310001373291,-23.408000946044922 C23.687000274658203,-21.392000198364258 23.836000442504883,-19.034000396728516 23.659000396728516,-14.960000038146973 C23.274999618530273,-6.159999847412109 21.700000762939453,-2.5799999237060547 18.90399932861328,4.317999839782715 C16.981000900268555,9.064000129699707 14.887999534606934,13.942000389099121 11.600000381469727,17.93000030517578 C9.156000137329102,20.893999099731445 3.6530001163482666,25.572999954223633 -0.6990000009536743,24.312000274658203 C-0.7110000252723694,24.308000564575195 -8.949999809265137,21.917999267578125 -16.124000549316406,10.791000366210938 C-16.124000549316406,10.791000366210938 -23.834999084472656,0.4519999921321869 -19.58099937438965,-8.031000137329102 C-19.58099937438965,-8.031000137329102 -15.350000381469727,-16.229999542236328 -15.72700023651123,-22.277999877929688z"></path></g><g opacity="1" transform="matrix(1,0,0,1,62.0890007019043,94.98600006103516)"><path fill="rgb(255,208,156)" fill-opacity="1" d=" M-8.907999992370605,-19.549999237060547 C-8.907999992370605,-19.549999237060547 -8.907999992370605,-7.090000152587891 -8.907999992370605,-7.090000152587891 C-8.907999992370605,-7.090000152587891 -8.376999855041504,-1.5230000019073486 -14.760000228881836,2.188999891281128 C-14.760000228881836,2.188999891281128 -12.074000358581543,8.151000022888184 -2.2339999675750732,15.307999610900879 C-2.2339999675750732,15.307999610900879 2.552999973297119,20.079999923706055 7.073999881744385,12.392000198364258 C7.073999881744385,12.392000198364258 14.760000228881836,1.312000036239624 14.760000228881836,1.312000036239624 C14.760000228881836,1.312000036239624 10.23799991607666,-2.318000078201294 9.706000328063965,-9.741000175476074 C9.706000328063965,-9.741000175476074 9.173999786376953,-20.079999923706055 9.173999786376953,-20.079999923706055 C9.173999786376953,-20.079999923706055 -8.907999992370605,-19.549999237060547 -8.907999992370605,-19.549999237060547z"></path></g><g opacity="0.15" transform="matrix(1,0,0,1,62.132999420166016,80.75299835205078)"><path fill="rgb(57,64,95)" fill-opacity="1" d=" M-9.17199993133545,4.5929999351501465 C-9.17199993133545,4.5929999351501465 -8.95300006866455,-4.379000186920166 -8.95300006866455,-4.379000186920166 C-8.95300006866455,-4.379000186920166 -1.50600004196167,3.5139999389648438 9.130000114440918,-4.9079999923706055 C9.130000114440918,-4.9079999923706055 10.911999702453613,6.9679999351501465 -9.17199993133545,4.5929999351501465z"></path></g><g opacity="1" transform="matrix(1,0,0,1,72.95999908447266,127.55000305175781)"><path fill="rgb(199,211,232)" fill-opacity="1" d=" M1.656000018119812,0 C1.656000018119812,0.9150000214576721 0.9150000214576721,1.656000018119812 0.0010000000474974513,1.656000018119812 C-0.9139999747276306,1.656000018119812 -1.656000018119812,0.9150000214576721 -1.656000018119812,0 C-1.656000018119812,-0.9150000214576721 -0.9139999747276306,-1.656000018119812 0.0010000000474974513,-1.656000018119812 C0.9150000214576721,-1.656000018119812 1.656000018119812,-0.9150000214576721 1.656000018119812,0z"></path></g><g opacity="1" transform="matrix(1,0,0,1,52.99800109863281,49.84600067138672)"><path stroke-linecap="round" stroke-linejoin="round" fill-opacity="0" stroke="rgb(209,147,94)" stroke-opacity="1" stroke-width="2" d=" M-3.6480000019073486,2.0160000324249268 C-3.6480000019073486,2.0160000324249268 -0.0010000000474974513,-2.0160000324249268 3.6480000019073486,2.0160000324249268"></path></g><g opacity="1" transform="matrix(1,0,0,1,70.47200012207031,49.84600067138672)"><path stroke-linecap="round" stroke-linejoin="round" fill-opacity="0" stroke="rgb(209,147,94)" stroke-opacity="1" stroke-width="2" d=" M-3.6480000019073486,2.0160000324249268 C-3.6480000019073486,2.0160000324249268 0,-2.0160000324249268 3.6480000019073486,2.0160000324249268"></path></g><g opacity="1" transform="matrix(1,0,0,1,61.35100173950195,68.06700134277344)"><path fill="rgb(255,255,255)" fill-opacity="1" d=" M-5.764999866485596,-3.4059998989105225 C-6.452000141143799,-3.614000082015991 -7.073999881744385,-2.9489998817443848 -6.916999816894531,-2.2149999141693115 C-6.204999923706055,1.121000051498413 -3.375999927520752,3.61299991607666 0.004999999888241291,3.61299991607666 C3.3429999351501465,3.61299991607666 6.14300012588501,1.1829999685287476 6.8979997634887695,-2.0899999141693115 C7.073999881744385,-2.8529999256134033 6.382999897003174,-3.50600004196167 5.677000045776367,-3.255000114440918 C1.2480000257492065,-1.6759999990463257 -3.513000011444092,-2.7239999771118164 -5.764999866485596,-3.4059998989105225z"></path></g></g><g transform="matrix(1,0,0,1,62.75,79.375)" opacity="1" style="display: block;"><g opacity="1" transform="matrix(1,0,0,1,61.22200012207031,33.65299987792969)"><path fill="url(#__lottie_element_90)" fill-opacity="1" d=" M-19.34600067138672,2.5959999561309814 C-19.34600067138672,2.5959999561309814 6.043000221252441,34.27799987792969 6.043000221252441,34.27799987792969 C6.043000221252441,34.27799987792969 28.09600067138672,34.27799987792969 28.09600067138672,34.27799987792969 C28.09600067138672,34.27799987792969 50.05099868774414,1.4709999561309814 50.05099868774414,1.4709999561309814 C50.05099868774414,1.4709999561309814 -19.34600067138672,2.5959999561309814 -19.34600067138672,2.5959999561309814z"></path><g opacity="1" transform="matrix(1,0,0,1,0,0)"></g></g></g><g style="display: block;" transform="matrix(1,0,0,1,220.5,98.95233917236328)" opacity="0.5638131350487663"><g opacity="1" transform="matrix(1,0,0,1,11.611000061035156,20.614999771118164)"><path fill="rgb(133,124,248)" fill-opacity="1" d=" M9.520000457763672,20.614999771118164 C9.520000457763672,20.614999771118164 -9.520999908447266,20.614999771118164 -9.520999908447266,20.614999771118164 C-10.675000190734863,20.614999771118164 -11.612000465393066,19.67799949645996 -11.612000465393066,18.523000717163086 C-11.612000465393066,18.523000717163086 -11.612000465393066,-18.524999618530273 -11.612000465393066,-18.524999618530273 C-11.612000465393066,-19.679000854492188 -10.675000190734863,-20.614999771118164 -9.520999908447266,-20.614999771118164 C-9.520999908447266,-20.614999771118164 9.520000457763672,-20.614999771118164 9.520000457763672,-20.614999771118164 C10.673999786376953,-20.614999771118164 11.611000061035156,-19.679000854492188 11.611000061035156,-18.524999618530273 C11.611000061035156,-18.524999618530273 11.611000061035156,18.523000717163086 11.611000061035156,18.523000717163086 C11.611000061035156,19.67799949645996 10.673999786376953,20.614999771118164 9.520000457763672,20.614999771118164z"></path></g><g opacity="1" transform="matrix(1,0,0,1,11.611000061035156,9.880999565124512)"><path fill="rgb(255,255,255)" fill-opacity="1" d=" M3.5179998874664307,0 C3.5179998874664307,1.9429999589920044 1.9429999589920044,3.5179998874664307 -0.0010000000474974513,3.5179998874664307 C-1.9429999589920044,3.5179998874664307 -3.5179998874664307,1.9429999589920044 -3.5179998874664307,0 C-3.5179998874664307,-1.9429999589920044 -1.9429999589920044,-3.5179998874664307 -0.0010000000474974513,-3.5179998874664307 C1.9429999589920044,-3.5179998874664307 3.5179998874664307,-1.9429999589920044 3.5179998874664307,0z"></path></g><g opacity="0" transform="matrix(1,0,0,1,-1.75,0)"><g opacity="0.6" transform="matrix(1,0,0,1,5.74399995803833,34.38600158691406)"><path fill="rgb(255,255,255)" fill-opacity="1" d=" M1.5440000295639038,0.6179999709129333 C1.5440000295639038,0.6179999709129333 -1.5440000295639038,0.6179999709129333 -1.5440000295639038,0.6179999709129333 C-1.8849999904632568,0.6179999709129333 -2.1610000133514404,0.34200000762939453 -2.1610000133514404,0 C-2.1610000133514404,-0.3409999907016754 -1.8849999904632568,-0.6169999837875366 -1.5440000295639038,-0.6169999837875366 C-1.5440000295639038,-0.6169999837875366 1.5440000295639038,-0.6169999837875366 1.5440000295639038,-0.6169999837875366 C1.8860000371932983,-0.6169999837875366 2.1610000133514404,-0.3409999907016754 2.1610000133514404,0 C2.1610000133514404,0.34200000762939453 1.8860000371932983,0.6179999709129333 1.5440000295639038,0.6179999709129333z"></path></g><g opacity="0.6" transform="matrix(1,0,0,1,14.390000343322754,34.38600158691406)"><path fill="rgb(255,255,255)" fill-opacity="1" d=" M2.1610000133514404,0.6179999709129333 C2.1610000133514404,0.6179999709129333 -2.1619999408721924,0.6179999709129333 -2.1619999408721924,0.6179999709129333 C-2.503000020980835,0.6179999709129333 -2.7790000438690186,0.34200000762939453 -2.7790000438690186,0 C-2.7790000438690186,-0.3409999907016754 -2.503000020980835,-0.6169999837875366 -2.1619999408721924,-0.6169999837875366 C-2.1619999408721924,-0.6169999837875366 2.1610000133514404,-0.6169999837875366 2.1610000133514404,-0.6169999837875366 C2.503000020980835,-0.6169999837875366 2.7790000438690186,-0.3409999907016754 2.7790000438690186,0 C2.7790000438690186,0.34200000762939453 2.503000020980835,0.6179999709129333 2.1610000133514404,0.6179999709129333z"></path></g><g opacity="1" transform="matrix(1,0,0,1,9.758000373840332,34.361000061035156)"><path fill="rgb(255,255,255)" fill-opacity="1" d=" M0.0010000000474974513,0.6430000066757202 C-0.16599999368190765,0.6430000066757202 -0.32199999690055847,0.574999988079071 -0.43799999356269836,0.46399998664855957 C-0.5509999990463257,0.34700000286102295 -0.6169999837875366,0.1860000044107437 -0.6169999837875366,0.02500000037252903 C-0.6169999837875366,-0.1420000046491623 -0.5509999990463257,-0.29600000381469727 -0.43799999356269836,-0.4129999876022339 C-0.20999999344348907,-0.6420000195503235 0.20499999821186066,-0.6420000195503235 0.4390000104904175,-0.4129999876022339 C0.5509999990463257,-0.29600000381469727 0.6179999709129333,-0.13500000536441803 0.6179999709129333,0.02500000037252903 C0.6179999709129333,0.1860000044107437 0.5509999990463257,0.34700000286102295 0.4390000104904175,0.46399998664855957 C0.32199999690055847,0.574999988079071 0.16099999845027924,0.6430000066757202 0.0010000000474974513,0.6430000066757202z"></path></g><g opacity="1" transform="matrix(1,0,0,1,19.020999908447266,34.361000061035156)"><path fill="rgb(255,255,255)" fill-opacity="1" d=" M0.0010000000474974513,0.6430000066757202 C-0.1599999964237213,0.6430000066757202 -0.32199999690055847,0.574999988079071 -0.43799999356269836,0.46399998664855957 C-0.5509999990463257,0.34700000286102295 -0.6179999709129333,0.1860000044107437 -0.6179999709129333,0.02500000037252903 C-0.6179999709129333,-0.13500000536441803 -0.5509999990463257,-0.29600000381469727 -0.43799999356269836,-0.4129999876022339 C-0.20999999344348907,-0.6420000195503235 0.210999995470047,-0.6420000195503235 0.4390000104904175,-0.4129999876022339 C0.5509999990463257,-0.29600000381469727 0.6169999837875366,-0.13500000536441803 0.6169999837875366,0.02500000037252903 C0.6169999837875366,0.1860000044107437 0.5509999990463257,0.34700000286102295 0.4390000104904175,0.46399998664855957 C0.32199999690055847,0.574999988079071 0.1679999977350235,0.6430000066757202 0.0010000000474974513,0.6430000066757202z"></path></g></g><g opacity="0" transform="matrix(1,0,0,1,-1.75,0)"><g opacity="0.6" transform="matrix(1,0,0,1,17.16900062561035,29.44499969482422)"><path fill="rgb(255,255,255)" fill-opacity="1" d=" M1.8530000448226929,0.6179999709129333 C1.8530000448226929,0.6179999709129333 -1.8530000448226929,0.6179999709129333 -1.8530000448226929,0.6179999709129333 C-2.194000005722046,0.6179999709129333 -2.4700000286102295,0.3409999907016754 -2.4700000286102295,-0.0010000000474974513 C-2.4700000286102295,-0.34200000762939453 -2.194000005722046,-0.6179999709129333 -1.8530000448226929,-0.6179999709129333 C-1.8530000448226929,-0.6179999709129333 1.8530000448226929,-0.6179999709129333 1.8530000448226929,-0.6179999709129333 C2.194999933242798,-0.6179999709129333 2.4700000286102295,-0.34200000762939453 2.4700000286102295,-0.0010000000474974513 C2.4700000286102295,0.3409999907016754 2.194999933242798,0.6179999709129333 1.8530000448226929,0.6179999709129333z"></path></g><g opacity="0.6" transform="matrix(1,0,0,1,9.758000373840332,29.44499969482422)"><path fill="rgb(255,255,255)" fill-opacity="1" d=" M3.0880000591278076,0.6179999709129333 C3.0880000591278076,0.6179999709129333 -3.0880000591278076,0.6179999709129333 -3.0880000591278076,0.6179999709129333 C-3.430000066757202,0.6179999709129333 -3.7049999237060547,0.3409999907016754 -3.7049999237060547,-0.0010000000474974513 C-3.7049999237060547,-0.34200000762939453 -3.430000066757202,-0.6179999709129333 -3.0880000591278076,-0.6179999709129333 C-3.0880000591278076,-0.6179999709129333 3.0880000591278076,-0.6179999709129333 3.0880000591278076,-0.6179999709129333 C3.430000066757202,-0.6179999709129333 3.7049999237060547,-0.34200000762939453 3.7049999237060547,-0.0010000000474974513 C3.7049999237060547,0.3409999907016754 3.430000066757202,0.6179999709129333 3.0880000591278076,0.6179999709129333z"></path></g><g opacity="0.6" transform="matrix(1,0,0,1,4.199999809265137,29.420000076293945)"><path fill="rgb(255,255,255)" fill-opacity="1" d=" M-0.0010000000474974513,0.6430000066757202 C-0.16099999845027924,0.6430000066757202 -0.32199999690055847,0.574999988079071 -0.4390000104904175,0.46399998664855957 C-0.5509999990463257,0.34599998593330383 -0.6169999837875366,0.1860000044107437 -0.6169999837875366,0.02500000037252903 C-0.6169999837875366,-0.13500000536441803 -0.5509999990463257,-0.29600000381469727 -0.4390000104904175,-0.4129999876022339 C-0.210999995470047,-0.6420000195503235 0.20399999618530273,-0.6420000195503235 0.43799999356269836,-0.4129999876022339 C0.550000011920929,-0.29600000381469727 0.6169999837875366,-0.13500000536441803 0.6169999837875366,0.02500000037252903 C0.6169999837875366,0.1860000044107437 0.550000011920929,0.34599998593330383 0.43799999356269836,0.46399998664855957 C0.32100000977516174,0.5809999704360962 0.1599999964237213,0.6430000066757202 -0.0010000000474974513,0.6430000066757202z"></path></g></g><g opacity="0.06627934490194144" transform="matrix(1,0,0,1,-1.634011149406433,0)"><g opacity="0.6" transform="matrix(1,0,0,1,5.74399995803833,24.503999710083008)"><path fill="rgb(255,255,255)" fill-opacity="1" d=" M1.5440000295639038,0.6169999837875366 C1.5440000295639038,0.6169999837875366 -1.5440000295639038,0.6169999837875366 -1.5440000295639038,0.6169999837875366 C-1.8849999904632568,0.6169999837875366 -2.1610000133514404,0.3409999907016754 -2.1610000133514404,-0.0010000000474974513 C-2.1610000133514404,-0.34200000762939453 -1.8849999904632568,-0.6179999709129333 -1.5440000295639038,-0.6179999709129333 C-1.5440000295639038,-0.6179999709129333 1.5440000295639038,-0.6179999709129333 1.5440000295639038,-0.6179999709129333 C1.8860000371932983,-0.6179999709129333 2.1610000133514404,-0.34200000762939453 2.1610000133514404,-0.0010000000474974513 C2.1610000133514404,0.3409999907016754 1.8860000371932983,0.6169999837875366 1.5440000295639038,0.6169999837875366z"></path></g><g opacity="0.6" transform="matrix(1,0,0,1,14.390000343322754,24.503999710083008)"><path fill="rgb(255,255,255)" fill-opacity="1" d=" M2.1610000133514404,0.6169999837875366 C2.1610000133514404,0.6169999837875366 -2.1619999408721924,0.6169999837875366 -2.1619999408721924,0.6169999837875366 C-2.503000020980835,0.6169999837875366 -2.7790000438690186,0.3409999907016754 -2.7790000438690186,-0.0010000000474974513 C-2.7790000438690186,-0.34200000762939453 -2.503000020980835,-0.6179999709129333 -2.1619999408721924,-0.6179999709129333 C-2.1619999408721924,-0.6179999709129333 2.1610000133514404,-0.6179999709129333 2.1610000133514404,-0.6179999709129333 C2.503000020980835,-0.6179999709129333 2.7790000438690186,-0.34200000762939453 2.7790000438690186,-0.0010000000474974513 C2.7790000438690186,0.3409999907016754 2.503000020980835,0.6169999837875366 2.1610000133514404,0.6169999837875366z"></path></g><g opacity="0.6" transform="matrix(1,0,0,1,9.758000373840332,24.479999542236328)"><path fill="rgb(255,255,255)" fill-opacity="1" d=" M0.0010000000474974513,0.6420000195503235 C-0.1599999964237213,0.6420000195503235 -0.32199999690055847,0.5740000009536743 -0.43799999356269836,0.46299999952316284 C-0.5509999990463257,0.34599998593330383 -0.6169999837875366,0.1850000023841858 -0.6169999837875366,0.024000000208616257 C-0.6169999837875366,-0.13600000739097595 -0.5509999990463257,-0.296999990940094 -0.43799999356269836,-0.414000004529953 C-0.20999999344348907,-0.6420000195503235 0.210999995470047,-0.6420000195503235 0.4390000104904175,-0.414000004529953 C0.5509999990463257,-0.296999990940094 0.6179999709129333,-0.13600000739097595 0.6179999709129333,0.024000000208616257 C0.6179999709129333,0.1850000023841858 0.5509999990463257,0.34599998593330383 0.4390000104904175,0.46299999952316284 C0.32199999690055847,0.5740000009536743 0.16099999845027924,0.6420000195503235 0.0010000000474974513,0.6420000195503235z"></path></g><g opacity="0.6" transform="matrix(1,0,0,1,19.020999908447266,24.479999542236328)"><path fill="rgb(255,255,255)" fill-opacity="1" d=" M0.0010000000474974513,0.6420000195503235 C-0.1599999964237213,0.6420000195503235 -0.32199999690055847,0.5740000009536743 -0.43799999356269836,0.46299999952316284 C-0.5509999990463257,0.34599998593330383 -0.6179999709129333,0.1850000023841858 -0.6179999709129333,0.024000000208616257 C-0.6179999709129333,-0.14300000667572021 -0.5509999990463257,-0.296999990940094 -0.43799999356269836,-0.414000004529953 C-0.20999999344348907,-0.6420000195503235 0.210999995470047,-0.6420000195503235 0.4390000104904175,-0.414000004529953 C0.5509999990463257,-0.296999990940094 0.6169999837875366,-0.14300000667572021 0.6169999837875366,0.024000000208616257 C0.6169999837875366,0.19099999964237213 0.5509999990463257,0.34599998593330383 0.4390000104904175,0.46299999952316284 C0.32199999690055847,0.5740000009536743 0.16099999845027924,0.6420000195503235 0.0010000000474974513,0.6420000195503235z"></path></g></g><g opacity="0.3621736933473701" transform="matrix(1,0,0,1,-1.1161960363388062,0)"><g opacity="0.6" transform="matrix(1,0,0,1,11.611000061035156,19.56399917602539)"><path fill="rgb(255,255,255)" fill-opacity="1" d=" M1.8530000448226929,0.6169999837875366 C1.8530000448226929,0.6169999837875366 -1.8519999980926514,0.6169999837875366 -1.8519999980926514,0.6169999837875366 C-2.194000005722046,0.6169999837875366 -2.4709999561309814,0.3409999907016754 -2.4709999561309814,-0.0010000000474974513 C-2.4709999561309814,-0.34200000762939453 -2.194000005722046,-0.6179999709129333 -1.8519999980926514,-0.6179999709129333 C-1.8519999980926514,-0.6179999709129333 1.8530000448226929,-0.6179999709129333 1.8530000448226929,-0.6179999709129333 C2.194999933242798,-0.6179999709129333 2.4709999561309814,-0.34200000762939453 2.4709999561309814,-0.0010000000474974513 C2.4709999561309814,0.3409999907016754 2.194999933242798,0.6169999837875366 1.8530000448226929,0.6169999837875366z"></path></g><g opacity="1" transform="matrix(1,0,0,1,0,0)"></g></g></g></g></svg>