<svg xmlns="http://www.w3.org/2000/svg" viewBox="0 0 450 475" width="450" height="475" preserveAspectRatio="xMidYMid slice" style="width: 100%; height: 100%; transform: translate3d(0px, 0px, 0px);"><defs><clipPath id="__lottie_element_228"><rect width="450" height="475" x="0" y="0"></rect></clipPath></defs><g clip-path="url(#__lottie_element_228)"><g transform="matrix(1,0,0,1,9,17)" opacity="1" style="display: block;"><g opacity="1" transform="matrix(1,0,0,1,134.5449981689453,124.19499969482422)"><path fill="rgb(236,239,243)" fill-opacity="1" d=" M50.48500061035156,28.336999893188477 C50.48500061035156,28.336999893188477 -50.48500061035156,28.336999893188477 -50.48500061035156,28.336999893188477 C-50.48500061035156,28.336999893188477 -50.48500061035156,-28.336999893188477 -50.48500061035156,-28.336999893188477 C-50.48500061035156,-28.336999893188477 50.48500061035156,-28.336999893188477 50.48500061035156,-28.336999893188477 C50.48500061035156,-28.336999893188477 50.48500061035156,28.336999893188477 50.48500061035156,28.336999893188477z"></path></g><g opacity="1" transform="matrix(1,0,0,1,177.0959930419922,315.9010009765625)"><path fill="rgb(236,239,243)" fill-opacity="1" d=" M-177.0959930419922,28.336000442504883 C-177.0959930419922,28.336000442504883 177.0959930419922,28.336000442504883 177.0959930419922,28.336000442504883 C177.0959930419922,28.336000442504883 177.0959930419922,-28.336999893188477 177.0959930419922,-28.336999893188477 C177.0959930419922,-28.336999893188477 -177.0959930419922,-28.336999893188477 -177.0959930419922,-28.336999893188477 C-177.0959930419922,-28.336999893188477 -177.0959930419922,28.336000442504883 -177.0959930419922,28.336000442504883z"></path></g><g opacity="1" transform="matrix(1,0,0,1,61.691001892089844,28.33799934387207)"><path fill="rgb(236,239,243)" fill-opacity="1" d=" M-61.691001892089844,28.336999893188477 C-61.691001892089844,28.336999893188477 61.691001892089844,28.336999893188477 61.691001892089844,28.336999893188477 C61.691001892089844,28.336999893188477 61.691001892089844,-28.336999893188477 61.691001892089844,-28.336999893188477 C61.691001892089844,-28.336999893188477 -61.691001892089844,-28.336999893188477 -61.691001892089844,-28.336999893188477 C-61.691001892089844,-28.336999893188477 -61.691001892089844,28.336999893188477 -61.691001892089844,28.336999893188477z"></path></g><g opacity="1" transform="matrix(1,0,0,1,183.48699951171875,411.7510070800781)"><path fill="rgb(236,239,243)" fill-opacity="1" d=" M-103.48100280761719,28.336000442504883 C-103.48100280761719,28.336000442504883 103.48100280761719,28.336000442504883 103.48100280761719,28.336000442504883 C103.48100280761719,28.336000442504883 103.48100280761719,-28.336000442504883 103.48100280761719,-28.336000442504883 C103.48100280761719,-28.336000442504883 -103.48100280761719,-28.336000442504883 -103.48100280761719,-28.336000442504883 C-103.48100280761719,-28.336000442504883 -103.48100280761719,28.336000442504883 -103.48100280761719,28.336000442504883z"></path></g><g opacity="1" transform="matrix(1,0,0,1,375.8219909667969,411.7539978027344)"><path fill="rgb(236,239,243)" fill-opacity="1" d=" M-56.178001403808594,28.336000442504883 C-56.178001403808594,28.336000442504883 56.178001403808594,28.336000442504883 56.178001403808594,28.336000442504883 C56.178001403808594,28.336000442504883 56.178001403808594,-28.336000442504883 56.178001403808594,-28.336000442504883 C56.178001403808594,-28.336000442504883 -56.178001403808594,-28.336000442504883 -56.178001403808594,-28.336000442504883 C-56.178001403808594,-28.336000442504883 -56.178001403808594,28.336000442504883 -56.178001403808594,28.336000442504883z"></path></g><g opacity="1" transform="matrix(1,0,0,1,354.1940002441406,220.04600524902344)"><path fill="rgb(236,239,243)" fill-opacity="1" d=" M40.87699890136719,28.336999893188477 C40.87699890136719,28.336999893188477 -40.87699890136719,28.336999893188477 -40.87699890136719,28.336999893188477 C-40.87699890136719,28.336999893188477 -40.87699890136719,-28.336999893188477 -40.87699890136719,-28.336999893188477 C-40.87699890136719,-28.336999893188477 40.87699890136719,-28.336999893188477 40.87699890136719,-28.336999893188477 C40.87699890136719,-28.336999893188477 40.87699890136719,28.336999893188477 40.87699890136719,28.336999893188477z"></path></g><g opacity="1" transform="matrix(1,0,0,1,154.2530059814453,220.04600524902344)"><path fill="rgb(236,239,243)" fill-opacity="1" d=" M107.09300231933594,28.336999893188477 C107.09300231933594,28.336999893188477 -107.09300231933594,28.336999893188477 -107.09300231933594,28.336999893188477 C-107.09300231933594,28.336999893188477 -107.09300231933594,-28.336999893188477 -107.09300231933594,-28.336999893188477 C-107.09300231933594,-28.336999893188477 107.09300231933594,-28.336999893188477 107.09300231933594,-28.336999893188477 C107.09300231933594,-28.336999893188477 107.09300231933594,28.336999893188477 107.09300231933594,28.336999893188477z"></path></g><g opacity="1" transform="matrix(1,0,0,1,324.39300537109375,124.19100189208984)"><path fill="rgb(236,239,243)" fill-opacity="1" d=" M-107.60600280761719,28.336999893188477 C-107.60600280761719,28.336999893188477 107.60700225830078,28.336999893188477 107.60700225830078,28.336999893188477 C107.60700225830078,28.336999893188477 107.60700225830078,-28.336999893188477 107.60700225830078,-28.336999893188477 C107.60700225830078,-28.336999893188477 -107.60600280761719,-28.336999893188477 -107.60600280761719,-28.336999893188477 C-107.60600280761719,-28.336999893188477 -107.60600280761719,28.336999893188477 -107.60600280761719,28.336999893188477z"></path></g></g><g transform="matrix(1,0,0,1,135.5,31)" opacity="1" style="display: block;"><g opacity="1" transform="matrix(1,0,0,1,134.23800659179688,399.5559997558594)"><path fill="rgb(255,208,156)" fill-opacity="1" d=" M-9.859000205993652,-9.09000015258789 C-9.859000205993652,-9.09000015258789 9.859000205993652,-8.394000053405762 9.859000205993652,-8.394000053405762 C9.859000205993652,-8.394000053405762 7.73199987411499,9.09000015258789 7.73199987411499,9.09000015258789 C4.453000068664551,4.565999984741211 -4.818999767303467,4.671999931335449 -9.595999717712402,6.882999897003174 C-9.595999717712402,6.882999897003174 -9.859000205993652,-9.09000015258789 -9.859000205993652,-9.09000015258789z"></path></g><g opacity="1" transform="matrix(1,0,0,1,49.36899948120117,402.06500244140625)"><path fill="rgb(255,208,156)" fill-opacity="1" d=" M8.491000175476074,-10.407999992370605 C8.491000175476074,-10.407999992370605 -10.847999572753906,-6.488999843597412 -10.847999572753906,-6.488999843597412 C-10.847999572753906,-6.488999843597412 -5.883999824523926,10.409000396728516 -5.883999824523926,10.409000396728516 C-3.3910000324249268,5.408999919891357 5.7729997634887695,3.993000030517578 10.847999572753906,5.392000198364258 C10.847999572753906,5.392000198364258 8.491000175476074,-10.407999992370605 8.491000175476074,-10.407999992370605z"></path></g><g opacity="1" transform="matrix(1,0,0,1,21.14299964904785,178.14599609375)"><path fill="rgb(255,208,156)" fill-opacity="1" d=" M13.84000015258789,-23.309999465942383 C13.84000015258789,-23.309999465942383 -5.630000114440918,-33.847999572753906 -5.630000114440918,-33.847999572753906 C-5.630000114440918,-33.847999572753906 -19.57200050354004,-13.517000198364258 -19.57200050354004,-13.517000198364258 C-19.57200050354004,-13.517000198364258 -23.107999801635742,-9.272000312805176 -19.57200050354004,-4.672999858856201 C-19.57200050354004,-4.672999858856201 2.566999912261963,19.3439998626709 21.14299964904785,33.847999572753906 C21.14299964904785,33.847999572753906 21.14299964904785,10.916000366210938 21.14299964904785,10.916000366210938 C21.14299964904785,10.916000366210938 4.241000175476074,-7.710000038146973 4.241000175476074,-7.710000038146973 C3.8889999389648438,-8.098999977111816 3.8580000400543213,-8.680000305175781 4.176000118255615,-9.098999977111816 C5.441999912261963,-10.770000457763672 8.848999977111816,-15.41100025177002 13.84000015258789,-23.309999465942383z"></path></g><g opacity="1" transform="matrix(1,0,0,1,157.92100524902344,178.7429962158203)"><path fill="rgb(255,208,156)" fill-opacity="1" d=" M-14.020000457763672,-23.868000030517578 C-14.020000457763672,-23.868000030517578 5.696000099182129,-33.250999450683594 5.696000099182129,-33.250999450683594 C5.696000099182129,-33.250999450683594 19.10700035095215,-13.913000106811523 19.10700035095215,-13.913000106811523 C19.10700035095215,-13.913000106811523 22.643999099731445,-9.668999671936035 19.10700035095215,-5.068999767303467 C19.10700035095215,-5.068999767303467 -2.6440000534057617,18.746999740600586 -20.679000854492188,33.250999450683594 C-20.679000854492188,33.250999450683594 -20.679000854492188,10.451000213623047 -20.679000854492188,10.451000213623047 C-20.679000854492188,10.451000213623047 -5.001999855041504,-7.2820000648498535 -5.001999855041504,-7.2820000648498535 C-4.105000019073486,-8.29800033569336 -4.060999870300293,-9.803999900817871 -4.9039998054504395,-10.86400032043457 C-7.230999946594238,-13.791000366210938 -11.741000175476074,-19.649999618530273 -14.020000457763672,-23.868000030517578z"></path></g><g opacity="1" transform="matrix(1,0,0,1,89.45500183105469,128.33299255371094)"><path fill="rgb(255,182,84)" fill-opacity="1" d=" M-14.354999542236328,-37.832000732421875 C-14.354999542236328,-37.832000732421875 -40.095001220703125,-29.54400062561035 -40.095001220703125,-29.54400062561035 C-40.10599899291992,-29.541000366210938 -40.10900115966797,-29.538999557495117 -40.12099838256836,-29.53700065612793 C-40.446998596191406,-29.4689998626709 -49.7140007019043,-27.489999771118164 -52.667999267578125,-21.756000518798828 C-52.667999267578125,-21.756000518798828 -76.0009994506836,13.192999839782715 -76.0009994506836,13.192999839782715 C-76.05599975585938,13.277999877929688 -76.0719985961914,13.378999710083008 -76.04299926757812,13.47700023651123 C-75.59100341796875,15.010000228881836 -70.50199890136719,27.790000915527344 -53.2400016784668,29.864999771118164 C-53.108001708984375,29.881000518798828 -52.974998474121094,29.81999969482422 -52.902000427246094,29.709999084472656 C-52.902000427246094,29.709999084472656 -46.95100021362305,20.701000213623047 -46.95100021362305,20.701000213623047 C-46.77899932861328,20.44099998474121 -46.37799835205078,20.52199935913086 -46.321998596191406,20.82900047302246 C-46.321998596191406,20.82900047302246 -43.207000732421875,37.56700134277344 -43.207000732421875,37.56700134277344 C-43.17599868774414,37.73099899291992 -43.034000396728516,37.85100173950195 -42.867000579833984,37.85100173950195 C-42.867000579833984,37.85100173950195 44.45800018310547,37.85100173950195 44.45800018310547,37.85100173950195 C44.6349983215332,37.85100173950195 44.784000396728516,37.715999603271484 44.80099868774414,37.53799819946289 C44.80099868774414,37.53799819946289 46.46099853515625,20.93400001525879 46.46099853515625,20.93400001525879 C46.492000579833984,20.63599967956543 46.86000061035156,20.513999938964844 47.0620002746582,20.733999252319336 C47.0620002746582,20.733999252319336 53.74599838256836,28.77899932861328 53.74599838256836,28.77899932861328 C53.816001892089844,28.854999542236328 53.915000915527344,28.89699935913086 54.01900100708008,28.891000747680664 C55.75199890136719,28.798999786376953 71.10700225830078,25.937999725341797 76.02300262451172,14.776000022888184 C76.0719985961914,14.664999961853027 76.05899810791016,14.531999588012695 75.99099731445312,14.432000160217285 C75.99099731445312,14.432000160217285 52.92399978637695,-18.030000686645508 52.92399978637695,-18.030000686645508 C52.917999267578125,-18.038000106811523 52.91699981689453,-18.038000106811523 52.91400146484375,-18.047000885009766 C52.79999923706055,-18.249000549316406 49.10100173950195,-24.781999588012695 42.659000396728516,-26.000999450683594 C42.659000396728516,-26.000999450683594 11.038000106811523,-36.42300033569336 11.038000106811523,-36.42300033569336 C11.008999824523926,-36.43199920654297 10.979000091552734,-36.4370002746582 10.949000358581543,-36.43899917602539 C10.949000358581543,-36.43899917602539 -14.229000091552734,-37.8489990234375 -14.229000091552734,-37.8489990234375 C-14.272000312805176,-37.85100173950195 -14.314000129699707,-37.845001220703125 -14.354999542236328,-37.832000732421875z"></path></g><g opacity="0.4" transform="matrix(1,0,0,1,82.76499938964844,150.50100708007812)"><path fill="rgb(251,251,251)" fill-opacity="1" d=" M12.711000442504883,-10.70199966430664 C11.918000221252441,-12.067000389099121 10.010000228881836,-12.668000221252441 8.548999786376953,-12.932000160217285 C4.563000202178955,-13.654000282287598 -0.8259999752044678,-12.753000259399414 -3.1019999980926514,-11.00100040435791 C-3.4149999618530273,-9.73799991607666 -3.4049999713897705,-7.566999912261963 -3.38700008392334,-5.754000186920166 C-3.38700008392334,-5.754000186920166 7.395999908447266,-5.754000186920166 7.395999908447266,-5.754000186920166 C7.395999908447266,-5.754000186920166 7.395999908447266,-4.876999855041504 7.395999908447266,-4.876999855041504 C7.395999908447266,-4.876999855041504 7.395999908447266,-3.9110000133514404 7.395999908447266,-3.9110000133514404 C7.395999908447266,-3.9110000133514404 -3.8310000896453857,-3.9110000133514404 -3.8310000896453857,-3.9110000133514404 C-3.8310000896453857,-3.9110000133514404 -4.938000202178955,-3.9110000133514404 -4.938000202178955,-3.9110000133514404 C-5.715000152587891,-3.8919999599456787 -6.873000144958496,-3.88700008392334 -8.628000259399414,-3.88100004196167 C-12.32699966430664,-3.88100004196167 -14.010000228881836,-0.0010000000474974513 -14.010000228881836,3.6029999256134033 C-14.010000228881836,6.046000003814697 -13.272000312805176,8.4350004196167 -11.984000205993652,10.157999992370605 C-10.579999923706055,12.038000106811523 -8.590999603271484,13.07800006866455 -6.215000152587891,13.182999610900879 C-6.091000080108643,12.100000381469727 -5.7170000076293945,9.178999900817871 -5.132999897003174,7.515999794006348 C-3.688999891281128,3.4170000553131104 0.5120000243186951,3.63100004196167 4.577000141143799,3.8329999446868896 C6.982999801635742,3.9570000171661377 9.473999977111816,4.079999923706055 11.253999710083008,3.2709999084472656 C11.253999710083008,3.2709999084472656 11.255000114440918,3.2709999084472656 11.255000114440918,3.2709999084472656 C11.892000198364258,2.9820001125335693 12.458999633789062,2.111999988555908 12.894000053405762,0.7549999952316284 C14.01099967956543,-2.734999895095825 13.916000366210938,-8.62399959564209 12.711000442504883,-10.70199966430664z M-0.23600000143051147,-6.796999931335449 C-1.3300000429153442,-6.796999931335449 -2.2170000076293945,-7.684000015258789 -2.2170000076293945,-8.777000427246094 C-2.2170000076293945,-9.871000289916992 -1.3300000429153442,-10.758999824523926 -0.23600000143051147,-10.758999824523926 C0.8579999804496765,-10.758999824523926 1.7430000305175781,-9.871000289916992 1.7430000305175781,-8.777000427246094 C1.7430000305175781,-7.684000015258789 0.8579999804496765,-6.796999931335449 -0.23600000143051147,-6.796999931335449z"></path></g><g opacity="0.4" transform="matrix(1,0,0,1,92.30999755859375,160.2899932861328)"><path fill="rgb(251,251,251)" fill-opacity="1" d=" M-12.711000442504883,10.701000213623047 C-11.918000221252441,12.065999984741211 -10.010000228881836,12.668000221252441 -8.548999786376953,12.932000160217285 C-4.563000202178955,13.654000282287598 0.8259999752044678,12.753000259399414 3.1019999980926514,11 C3.4149999618530273,9.73799991607666 3.4049999713897705,7.565999984741211 3.38700008392334,5.752999782562256 C3.38700008392334,5.752999782562256 -7.395999908447266,5.752999782562256 -7.395999908447266,5.752999782562256 C-7.395999908447266,5.752999782562256 -7.395999908447266,4.876999855041504 -7.395999908447266,4.876999855041504 C-7.395999908447266,4.876999855041504 -7.395999908447266,3.9100000858306885 -7.395999908447266,3.9100000858306885 C-7.395999908447266,3.9100000858306885 3.8310000896453857,3.9100000858306885 3.8310000896453857,3.9100000858306885 C3.8310000896453857,3.9100000858306885 4.938000202178955,3.9100000858306885 4.938000202178955,3.9100000858306885 C5.715000152587891,3.8910000324249268 6.873000144958496,3.88700008392334 8.628000259399414,3.88100004196167 C12.32699966430664,3.88100004196167 14.010000228881836,0.0010000000474974513 14.010000228881836,-3.6029999256134033 C14.010000228881836,-6.046999931335449 13.272000312805176,-8.435999870300293 11.984000205993652,-10.159000396728516 C10.579000473022461,-12.038000106811523 8.590999603271484,-13.07800006866455 6.215000152587891,-13.182999610900879 C6.091000080108643,-12.10099983215332 5.7170000076293945,-9.178999900817871 5.132999897003174,-7.517000198364258 C3.688999891281128,-3.4170000553131104 -0.5120000243186951,-3.63100004196167 -4.577000141143799,-3.8340001106262207 C-6.982999801635742,-3.9570000171661377 -9.473999977111816,-4.079999923706055 -11.253000259399414,-3.2720000743865967 C-11.253000259399414,-3.2720000743865967 -11.255000114440918,-3.2720000743865967 -11.255000114440918,-3.2720000743865967 C-11.892000198364258,-2.9830000400543213 -12.458999633789062,-2.11299991607666 -12.894000053405762,-0.7559999823570251 C-14.01099967956543,2.734999895095825 -13.916000366210938,8.62399959564209 -12.711000442504883,10.701000213623047z M0.2370000034570694,6.796000003814697 C1.3309999704360962,6.796000003814697 2.2170000076293945,7.683000087738037 2.2170000076293945,8.777000427246094 C2.2170000076293945,9.871000289916992 1.3309999704360962,10.758000373840332 0.2370000034570694,10.758000373840332 C-0.8569999933242798,10.758000373840332 -1.7430000305175781,9.871000289916992 -1.7430000305175781,8.777000427246094 C-1.7430000305175781,7.683000087738037 -0.8569999933242798,6.796000003814697 0.2370000034570694,6.796000003814697z"></path></g><g opacity="1" transform="matrix(1,0,0,1,86.9209976196289,57.625999450683594)"><path fill="rgb(255,208,156)" fill-opacity="1" d=" M-24.84600067138672,-10.302000045776367 C-24.84600067138672,-10.302000045776367 -28.736000061035156,-9.0649995803833 -26.790000915527344,-3.2279999256134033 C-26.790000915527344,-3.2279999256134033 -24.492000579833984,6.323999881744385 -19.364999771118164,5.793000221252441 C-18.722999572753906,9.406000137329102 -17.077999114990234,13.010000228881836 -15.111000061035156,16.07200050354004 C-10.442999839782715,23.340999603271484 -1.5609999895095825,29.757999420166016 7.15500020980835,25.742000579833984 C14.758000373840332,22.23900032043457 18.729999542236328,14.071999549865723 20.601999282836914,6.323999881744385 C20.601999282836914,6.323999881744385 25.37700080871582,7.563000202178955 27.145000457763672,-1.6349999904632568 C27.145000457763672,-1.6349999904632568 28.73699951171875,-7.826000213623047 25.55299949645996,-9.418000221252441 C25.55299949645996,-9.418000221252441 20.426000595092773,-24.275999069213867 20.426000595092773,-24.275999069213867 C20.426000595092773,-24.275999069213867 -22.3700008392334,-29.759000778198242 -22.3700008392334,-29.759000778198242 C-22.3700008392334,-29.759000778198242 -24.84600067138672,-10.302000045776367 -24.84600067138672,-10.302000045776367z"></path></g><g opacity="1" transform="matrix(1,0,0,1,88.33000183105469,28.761999130249023)"><path fill="rgb(41,47,75)" fill-opacity="1" d=" M-14.718999862670898,6.577000141143799 C-8.748000144958496,10.887999534606934 2.486999988555908,16.68899917602539 17.357999801635742,14.008000373840332 C17.490999221801758,13.984000205993652 17.597999572753906,14.064000129699707 17.594999313354492,14.199000358581543 C17.55299949645996,15.704000473022461 17.336000442504883,24.030000686645508 17.413999557495117,28.493999481201172 C17.417999267578125,28.680999755859375 17.64699935913086,28.761999130249023 17.774999618530273,28.625 C17.774999618530273,28.625 20.18600082397461,26.062999725341797 20.18600082397461,26.062999725341797 C20.22800064086914,26.017000198364258 20.25,25.96500015258789 20.242000579833984,25.902999877929688 C20.15399932861328,25.20400047302246 19.733999252319336,20.520000457763672 24.01799964904785,19.475000381469727 C24.0939998626709,19.45800018310547 24.155000686645508,19.39900016784668 24.172000885009766,19.322999954223633 C24.172000885009766,19.322999954223633 26.797000885009766,7.419000148773193 26.797000885009766,7.419000148773193 C26.969999313354492,6.633999824523926 27.74799919128418,5.710999965667725 28.070999145507812,4.955999851226807 C29.020999908447266,2.7300000190734863 29.5939998626709,0.3269999921321869 29.70199966430664,-2.0929999351501465 C29.884000778198242,-6.131999969482422 28.652000427246094,-10.585000038146973 25.37700080871582,-13.1899995803833 C23.20400047302246,-14.918000221252441 14.642999649047852,-15.633999824523926 15.12600040435791,-19.288999557495117 C15.65999984741211,-23.336999893188477 10.416000366210938,-23.541000366210938 7.669000148773193,-23.110000610351562 C5.574999809265137,-22.7810001373291 3.51200008392334,-22.158000946044922 1.3919999599456787,-22.143999099731445 C0.47699999809265137,-22.13800048828125 -0.5730000138282776,-22.327999114990234 -1.034999966621399,-23.118999481201172 C-2.1050000190734863,-24.950000762939453 0.7889999747276306,-26.541000366210938 -1.430999994277954,-28.15399932861328 C-2.572999954223633,-28.985000610351562 -4.6020002365112305,-28.750999450683594 -5.916999816894531,-28.663000106811523 C-14.168000221252441,-28.113000869750977 -22.746999740600586,-22.094999313354492 -22.665000915527344,-13.178999900817871 C-22.649999618530273,-11.46500015258789 -22.01300048828125,-9.253999710083008 -22.683000564575195,-7.604000091552734 C-23.20599937438965,-6.315000057220459 -24.527000427246094,-6.327000141143799 -25.58300018310547,-5.7129998207092285 C-26.756999969482422,-5.03000020980835 -27.641000747680664,-4.019999980926514 -28.29199981689453,-2.8380000591278076 C-29.614999771118164,-0.44200000166893005 -29.884000778198242,2.509999990463257 -29.788000106811523,5.197999954223633 C-29.70400047302246,7.578999996185303 -29.284000396728516,9.932000160217285 -28.572999954223633,12.20300006866455 C-28.280000686645508,13.13599967956543 -27.020000457763672,18.336999893188477 -26.253999710083008,18.562000274658203 C-26.253999710083008,18.562000274658203 -23.24799919128418,19.445999145507812 -22.895000457763672,22.6299991607666 C-22.895000457763672,22.6299991607666 -22.204999923706055,26.940000534057617 -22.204999923706055,26.940000534057617 C-22.194000244140625,27.010000228881836 -22.14900016784668,27.069000244140625 -22.083999633789062,27.097999572753906 C-22.083999633789062,27.097999572753906 -19.31100082397461,28.33099937438965 -19.31100082397461,28.33099937438965 C-19.16900062561035,28.39299964904785 -19.01099967956543,28.288000106811523 -19.01799964904785,28.134000778198242 C-19.084999084472656,26.44300079345703 -19.38599967956543,18.5310001373291 -19.4950008392334,9.07699966430664 C-19.52400016784668,6.599999904632568 -16.72800064086914,5.127999782562256 -14.718999862670898,6.577000141143799z"></path></g><g opacity="1" transform="matrix(1,0,0,1,87.36699676513672,96.0530014038086)"><path fill="rgb(255,208,156)" fill-opacity="1" d=" M-10.260000228881836,-17.2450008392334 C-10.260000228881836,-17.2450008392334 -12.206000328063965,-5.571000099182129 -12.206000328063965,-5.571000099182129 C-12.206000328063965,-5.571000099182129 -15.027999877929688,2.8469998836517334 -10.614999771118164,6.632999897003174 C-10.614999771118164,6.632999897003174 -4.763000011444092,13.531000137329102 -1.065000057220459,15.123000144958496 C-1.065000057220459,15.123000144958496 2.2799999713897705,17.2450008392334 8.293000221252441,10.524999618530273 C8.293000221252441,10.524999618530273 15.027999877929688,4.511000156402588 13.083000183105469,-4.156000137329102 C13.083000183105469,-4.156000137329102 10.392999649047852,-16.072999954223633 10.392999649047852,-16.072999954223633 C10.392999649047852,-16.072999954223633 -10.260000228881836,-17.2450008392334 -10.260000228881836,-17.2450008392334z"></path></g><g opacity="1" transform="matrix(1,0,0,1,90.08899688720703,197.49000549316406)"><path fill="rgb(199,211,232)" fill-opacity="1" d=" M46.51599884033203,33.43000030517578 C46.51599884033203,33.43000030517578 -46.51599884033203,33.43000030517578 -46.51599884033203,33.43000030517578 C-47.22700119018555,33.43000030517578 -47.803001403808594,32.854000091552734 -47.803001403808594,32.143001556396484 C-47.803001403808594,32.143001556396484 -47.803001403808594,-32.141998291015625 -47.803001403808594,-32.141998291015625 C-47.803001403808594,-32.85300064086914 -47.22700119018555,-33.42900085449219 -46.51599884033203,-33.42900085449219 C-46.51599884033203,-33.42900085449219 46.51599884033203,-33.42900085449219 46.51599884033203,-33.42900085449219 C47.22700119018555,-33.42900085449219 47.801998138427734,-32.85300064086914 47.801998138427734,-32.141998291015625 C47.801998138427734,-32.141998291015625 47.801998138427734,32.143001556396484 47.801998138427734,32.143001556396484 C47.801998138427734,32.854000091552734 47.22700119018555,33.43000030517578 46.51599884033203,33.43000030517578z"></path></g><g opacity="1" transform="matrix(1,0,0,1,91.34200286865234,316.4599914550781)"><path fill="rgb(57,64,95)" fill-opacity="1" d=" M42.19300079345703,-85.54000091552734 C42.19300079345703,-85.54000091552734 -47.150001525878906,-85.54000091552734 -47.150001525878906,-85.54000091552734 C-52.47999954223633,-85.54000091552734 -57.409000396728516,-88.45999908447266 -63.12200164794922,-87.71499633789062 C-79.47699737548828,-85.58000183105469 -80.90399932861328,-70.3290023803711 -76.41699981689453,-57.0629997253418 C-76.41699981689453,-57.0629997253418 -55.59400177001953,78.7750015258789 -55.59400177001953,78.7750015258789 C-55.59400177001953,78.7750015258789 -47.02899932861328,88.85700225830078 -31.97599983215332,78.7750015258789 C-31.97599983215332,78.7750015258789 -37.74700164794922,-47.04199981689453 -37.74700164794922,-47.04199981689453 C-37.74700164794922,-47.04199981689453 2.4110000133514404,-35.8390007019043 37.61000061035156,-47.04199981689453 C37.61000061035156,-47.04199981689453 30.243000030517578,78.7750015258789 30.243000030517578,78.7750015258789 C30.243000030517578,78.7750015258789 44.125,86.2040023803711 54.040000915527344,79.30599975585938 C54.040000915527344,79.30599975585938 73.80000305175781,-55.47200012207031 73.80000305175781,-55.47200012207031 C76.71199798583984,-66.51200103759766 80.90299987792969,-85.2300033569336 64.21499633789062,-87.7040023803711 C56.43199920654297,-88.85700225830078 49.62699890136719,-85.54000091552734 42.19300079345703,-85.54000091552734z"></path></g><g opacity="1" transform="matrix(1,0,0,1,90.28700256347656,197.49000549316406)"><path fill="rgb(237,245,255)" fill-opacity="1" d=" M6.888999938964844,0 C6.888999938964844,3.805999994277954 3.803999900817871,6.889999866485596 -0.0010000000474974513,6.889999866485596 C-3.805000066757202,6.889999866485596 -6.888999938964844,3.805999994277954 -6.888999938964844,0 C-6.888999938964844,-3.805999994277954 -3.805000066757202,-6.889999866485596 -0.0010000000474974513,-6.889999866485596 C3.803999900817871,-6.889999866485596 6.888999938964844,-3.805999994277954 6.888999938964844,0z"></path></g><g opacity="0.1" transform="matrix(1,0,0,1,87.53700256347656,86.09300231933594)"><path fill="rgb(57,64,95)" fill-opacity="1" d=" M6.60699987411499,-2.5920000076293945 C0.4740000069141388,0.2329999953508377 -5.73799991607666,-2.109999895095825 -10.508999824523926,-6.2769999504089355 C-10.508999824523926,-6.2769999504089355 -0.23999999463558197,21.107999801635742 10.508000373840332,-5.019999980926514 C9.329000473022461,-4.068999767303467 8.031000137329102,-3.247999906539917 6.60699987411499,-2.5920000076293945z"></path></g><g opacity="1" transform="matrix(1,0,0,1,79.7040023803711,52.73500061035156)"><path stroke-linecap="round" stroke-linejoin="round" fill-opacity="0" stroke="rgb(209,147,94)" stroke-opacity="1" stroke-width="2" d=" M-3.6640000343322754,2.4760000705718994 C-3.6640000343322754,2.4760000705718994 0,-2.4769999980926514 3.6640000343322754,2.4760000705718994"></path></g><g opacity="1" transform="matrix(1,0,0,1,95.51100158691406,52.73500061035156)"><path stroke-linecap="round" stroke-linejoin="round" fill-opacity="0" stroke="rgb(209,147,94)" stroke-opacity="1" stroke-width="2" d=" M3.6649999618530273,2.4760000705718994 C3.6649999618530273,2.4760000705718994 0,-2.4769999980926514 -3.6649999618530273,2.4760000705718994"></path></g><g opacity="1" transform="matrix(1,0,0,1,88.28600311279297,73.91600036621094)"><path fill="rgb(255,255,255)" fill-opacity="1" d=" M-6.317999839782715,-3.493000030517578 C-7.248000144958496,-3.493000030517578 -7.964000225067139,-2.6040000915527344 -7.697000026702881,-1.7130000591278076 C-6.800000190734863,1.2829999923706055 -3.694000005722046,3.493000030517578 0,3.493000030517578 C3.694999933242798,3.493000030517578 6.801000118255615,1.2829999923706055 7.697999954223633,-1.7130000591278076 C7.964000225067139,-2.6040000915527344 7.248000144958496,-3.493000030517578 6.317999839782715,-3.493000030517578 C6.317999839782715,-3.493000030517578 -6.317999839782715,-3.493000030517578 -6.317999839782715,-3.493000030517578z"></path></g></g><g transform="matrix(1,0,0,1,253.75,429)" opacity="1" style="display: block;"><g opacity="1" transform="matrix(1,0,0,1,16.716999053955078,10.461000442504883)"><path fill="rgb(133,124,248)" fill-opacity="1" d=" M-15.152999877929688,10.461000442504883 C-15.095000267028809,2.430999994277954 -13.518949508666992,1.3445762395858765 -8.701949119567871,-5.493423938751221 C-5.168879985809326,-8.300806999206543 2.3503148555755615,-9.17407512664795 5.797919273376465,-5.384686470031738 C11.1159086227417,-0.4002448320388794 13.494000434875488,2.249000072479248 15.152999877929688,9.906000137329102 C12.70300006866455,4.455999851226807 6.800747394561768,4.0277886390686035 -0.10325251519680023,4.154788494110107 C-7.0072526931762695,4.280788421630859 -12.902000427246094,4.925000190734863 -15.152999877929688,10.461000442504883z"></path></g><g opacity="1" transform="matrix(1,0,0,1,16.716999053955078,16.025999069213867)"><path fill="rgb(166,163,255)" fill-opacity="1" d=" M-15.152999877929688,4.896999835968018 C-12.902000427246094,-0.6389999985694885 -6.900848388671875,-1.2837775945663452 0.0031516975723206997,-1.4097775220870972 C6.907151699066162,-1.5367774963378906 12.70300006866455,-1.1080000400543213 15.152999877929688,4.3420000076293945 C14.925999641418457,4.2729997634887695 14.682999610900879,4.23799991607666 14.430999755859375,4.243000030517578 C14.430999755859375,4.243000030517578 -14.4399995803833,4.770999908447266 -14.4399995803833,4.770999908447266 C-14.6850004196167,4.776000022888184 -14.928999900817871,4.820000171661377 -15.152999877929688,4.896999835968018z"></path></g><g opacity="1" transform="matrix(1,0,0,1,16.756000518798828,22.850000381469727)"><path fill="rgb(57,64,95)" fill-opacity="1" d=" M-8.352510452270508,-7.169156551361084 C-8.352510452270508,-7.169156551361084 7.817571640014648,-7.39970588684082 7.817571640014648,-7.39970588684082 C8.069571495056152,-7.40470552444458 11.792510032653809,-5.496002674102783 12.019510269165039,-5.427002429962158 C12.951509475708008,-5.140002727508545 15.9027099609375,-2.798314332962036 15.833663940429688,-0.6639411449432373 C15.810547828674316,0.7292318344116211 15.755000114440918,2.0339999198913574 14.47599983215332,2.056999921798706 C14.47599983215332,2.056999921798706 -14.395000457763672,2.5859999656677246 -14.395000457763672,2.5859999656677246 C-15.67300033569336,2.6089999675750732 -15.705009460449219,1.5883314609527588 -15.89315414428711,0.3365071415901184 C-16.43899917602539,-1.9711495637893677 -13.14148998260498,-4.7589802742004395 -12.218490600585938,-5.079980373382568 C-11.994490623474121,-5.156980514526367 -8.59751033782959,-7.164156913757324 -8.352510452270508,-7.169156551361084z"></path></g></g><g transform="matrix(0.9989705681800842,-0.045362986624240875,0.045362986624240875,0.9989705681800842,172.84121704101562,431.385986328125)" opacity="1" style="display: block;"><g opacity="1" transform="matrix(1,0,0,1,16.716999053955078,10.461000442504883)"><path fill="rgb(133,124,248)" fill-opacity="1" d=" M-15.152999877929688,10.461000442504883 C-15.095000267028809,2.430999994277954 -13.81789493560791,0.7555283308029175 -9.000895500183105,-6.08247184753418 C-5.340534210205078,-8.998878479003906 1.5794639587402344,-9.78805923461914 5.218005180358887,-6.064345836639404 C10.934830665588379,-1.4862791299819946 13.494000434875488,2.249000072479248 15.152999877929688,9.906000137329102 C12.70300006866455,4.455999851226807 6.782625198364258,3.1669058799743652 -0.12137483805418015,3.293905735015869 C-7.025374889373779,3.4199059009552 -12.902000427246094,4.925000190734863 -15.152999877929688,10.461000442504883z"></path></g><g opacity="1" transform="matrix(1,0,0,1,16.716999053955078,16.025999069213867)"><path fill="rgb(166,163,255)" fill-opacity="1" d=" M-15.152999877929688,4.896999835968018 C-12.902000427246094,-0.6389999985694885 -6.946226596832275,-2.1445152759552 -0.04222658649086952,-2.270515203475952 C6.861773490905762,-2.397515296936035 12.70300006866455,-1.1080000400543213 15.152999877929688,4.3420000076293945 C14.925999641418457,4.2729997634887695 14.682999610900879,4.23799991607666 14.430999755859375,4.243000030517578 C14.430999755859375,4.243000030517578 -14.4399995803833,4.770999908447266 -14.4399995803833,4.770999908447266 C-14.6850004196167,4.776000022888184 -14.928999900817871,4.820000171661377 -15.152999877929688,4.896999835968018z"></path></g><g opacity="1" transform="matrix(1,0,0,1,16.756000518798828,22.850000381469727)"><path fill="rgb(57,64,95)" fill-opacity="1" d=" M-9.059608459472656,-6.578763961791992 C-9.059608459472656,-6.578763961791992 8.576129913330078,-6.8436384201049805 8.576129913330078,-6.8436384201049805 C8.828129768371582,-6.848638534545898 12.149491310119629,-5.156156063079834 12.37649154663086,-5.087156295776367 C13.308491706848145,-4.800156116485596 15.998984336853027,-2.6291050910949707 15.940099716186523,-0.622750997543335 C15.922420501708984,0.7571313381195068 15.755000114440918,2.0339999198913574 14.47599983215332,2.056999921798706 C14.47599983215332,2.056999921798706 -14.395000457763672,2.5859999656677246 -14.395000457763672,2.5859999656677246 C-15.67300033569336,2.6089999675750732 -15.823637008666992,1.5879470109939575 -15.992724418640137,0.3331020772457123 C-16.477773666381836,-1.8266544342041016 -13.484742164611816,-4.3951334953308105 -12.561741828918457,-4.7161335945129395 C-12.33774185180664,-4.793133735656738 -9.304608345031738,-6.573764324188232 -9.059608459472656,-6.578763961791992z"></path></g></g><g transform="matrix(1,0,0,1,321.5,60.91552734375)" opacity="1" style="display: block;"><g opacity="0.4910049284509599" transform="matrix(1,0,0,1,26.968000411987305,38.18000030517578)"><path stroke-linecap="round" stroke-linejoin="round" fill-opacity="0" stroke="rgb(199,211,232)" stroke-opacity="1" stroke-width="2" d=" M-1.5829999446868896,-2.628000020980835 C-1.5829999446868896,-2.628000020980835 1.5829999446868896,-4.705999851226807 1.5829999446868896,-4.705999851226807 C1.5829999446868896,-4.705999851226807 1.5829999446868896,4.705999851226807 1.5829999446868896,4.705999851226807"></path></g><g opacity="0" transform="matrix(1,0,0,1,14.838000297546387,38.18000030517578)"><path stroke-linecap="round" stroke-linejoin="round" fill-opacity="0" stroke="rgb(199,211,232)" stroke-opacity="1" stroke-width="2" d=" M0,4.705999851226807 C0,4.705999851226807 0,4.705999851226807 0,4.705999851226807 C-1.8109999895095825,4.705999851226807 -3.2920000553131104,3.2260000705718994 -3.2920000553131104,1.4149999618530273 C-3.2920000553131104,1.4149999618530273 -3.2920000553131104,-1.4149999618530273 -3.2920000553131104,-1.4149999618530273 C-3.2920000553131104,-3.2260000705718994 -1.8109999895095825,-4.705999851226807 0,-4.705999851226807 C1.8109999895095825,-4.705999851226807 3.2920000553131104,-3.2260000705718994 3.2920000553131104,-1.4149999618530273 C3.2920000553131104,-1.4149999618530273 3.2920000553131104,1.4149999618530273 3.2920000553131104,1.4149999618530273 C3.2920000553131104,3.2260000705718994 1.8109999895095825,4.705999851226807 0,4.705999851226807z"></path></g><g opacity="0" transform="matrix(1,0,0,1,2.7079999446868896,38.18000030517578)"><path stroke-linecap="round" stroke-linejoin="round" fill-opacity="0" stroke="rgb(199,211,232)" stroke-opacity="1" stroke-width="2" d=" M-1.5829999446868896,-2.628000020980835 C-1.5829999446868896,-2.628000020980835 1.5829999446868896,-4.705999851226807 1.5829999446868896,-4.705999851226807 C1.5829999446868896,-4.705999851226807 1.5829999446868896,4.705999851226807 1.5829999446868896,4.705999851226807"></path></g><g opacity="0" transform="matrix(1,0,0,1,25.097999572753906,20.099000930786133)"><path stroke-linecap="round" stroke-linejoin="round" fill-opacity="0" stroke="rgb(199,211,232)" stroke-opacity="1" stroke-width="2" d=" M0,4.706999778747559 C0,4.706999778747559 0,4.706999778747559 0,4.706999778747559 C-1.8109999895095825,4.706999778747559 -3.2920000553131104,3.2249999046325684 -3.2920000553131104,1.4140000343322754 C-3.2920000553131104,1.4140000343322754 -3.2920000553131104,-1.4149999618530273 -3.2920000553131104,-1.4149999618530273 C-3.2920000553131104,-3.2260000705718994 -1.8109999895095825,-4.706999778747559 0,-4.706999778747559 C1.8109999895095825,-4.706999778747559 3.2920000553131104,-3.2260000705718994 3.2920000553131104,-1.4149999618530273"></path></g><g opacity="0" transform="matrix(1,0,0,1,11.295000076293945,20.099000930786133)"><path stroke-linecap="round" stroke-linejoin="round" fill-opacity="0" stroke="rgb(199,211,232)" stroke-opacity="1" stroke-width="2" d=" M-1.5829999446868896,-2.628000020980835 C-1.5829999446868896,-2.628000020980835 1.5829999446868896,-4.706999778747559 1.5829999446868896,-4.706999778747559 C1.5829999446868896,-4.706999778747559 1.5829999446868896,4.706999778747559 1.5829999446868896,4.706999778747559"></path></g><g opacity="0" transform="matrix(1,0,0,1,4.291999816894531,5.706999778747559)"><path stroke-linecap="round" stroke-linejoin="round" fill-opacity="0" stroke="rgb(199,211,232)" stroke-opacity="1" stroke-width="2" d=" M-0.0010000000474974513,4.705999851226807 C-0.0010000000474974513,4.705999851226807 -0.0010000000474974513,4.705999851226807 -0.0010000000474974513,4.705999851226807 C-1.812000036239624,4.705999851226807 -3.2920000553131104,3.2260000705718994 -3.2920000553131104,1.4149999618530273 C-3.2920000553131104,1.4149999618530273 -3.2920000553131104,-1.4149999618530273 -3.2920000553131104,-1.4149999618530273 C-3.2920000553131104,-3.2260000705718994 -1.812000036239624,-4.705999851226807 -0.0010000000474974513,-4.705999851226807 C1.809999942779541,-4.705999851226807 3.2920000553131104,-3.2260000705718994 3.2920000553131104,-1.4149999618530273 C3.2920000553131104,-1.4149999618530273 3.2920000553131104,1.4149999618530273 3.2920000553131104,1.4149999618530273 C3.2920000553131104,3.2260000705718994 1.809999942779541,4.705999851226807 -0.0010000000474974513,4.705999851226807z"></path></g></g><g transform="matrix(1,0,0,1,121.5,-20.75)" opacity="1" style="display: block;"><g opacity="0" transform="matrix(1,0,0,1,26.968000411987305,38.18000030517578)"><path stroke-linecap="round" stroke-linejoin="round" fill-opacity="0" stroke="rgb(199,211,232)" stroke-opacity="1" stroke-width="2" d=" M-1.5829999446868896,-2.628000020980835 C-1.5829999446868896,-2.628000020980835 1.5829999446868896,-4.705999851226807 1.5829999446868896,-4.705999851226807 C1.5829999446868896,-4.705999851226807 1.5829999446868896,4.705999851226807 1.5829999446868896,4.705999851226807"></path></g><g opacity="0" transform="matrix(1,0,0,1,14.838000297546387,38.18000030517578)"><path stroke-linecap="round" stroke-linejoin="round" fill-opacity="0" stroke="rgb(199,211,232)" stroke-opacity="1" stroke-width="2" d=" M0,4.705999851226807 C0,4.705999851226807 0,4.705999851226807 0,4.705999851226807 C-1.8109999895095825,4.705999851226807 -3.2920000553131104,3.2260000705718994 -3.2920000553131104,1.4149999618530273 C-3.2920000553131104,1.4149999618530273 -3.2920000553131104,-1.4149999618530273 -3.2920000553131104,-1.4149999618530273 C-3.2920000553131104,-3.2260000705718994 -1.8109999895095825,-4.705999851226807 0,-4.705999851226807 C1.8109999895095825,-4.705999851226807 3.2920000553131104,-3.2260000705718994 3.2920000553131104,-1.4149999618530273 C3.2920000553131104,-1.4149999618530273 3.2920000553131104,1.4149999618530273 3.2920000553131104,1.4149999618530273 C3.2920000553131104,3.2260000705718994 1.8109999895095825,4.705999851226807 0,4.705999851226807z"></path></g><g opacity="0" transform="matrix(1,0,0,1,2.7079999446868896,38.18000030517578)"><path stroke-linecap="round" stroke-linejoin="round" fill-opacity="0" stroke="rgb(199,211,232)" stroke-opacity="1" stroke-width="2" d=" M-1.5829999446868896,-2.628000020980835 C-1.5829999446868896,-2.628000020980835 1.5829999446868896,-4.705999851226807 1.5829999446868896,-4.705999851226807 C1.5829999446868896,-4.705999851226807 1.5829999446868896,4.705999851226807 1.5829999446868896,4.705999851226807"></path></g><g opacity="0" transform="matrix(1,0,0,1,25.097999572753906,20.099000930786133)"><path stroke-linecap="round" stroke-linejoin="round" fill-opacity="0" stroke="rgb(199,211,232)" stroke-opacity="1" stroke-width="2" d=" M0,4.706999778747559 C0,4.706999778747559 0,4.706999778747559 0,4.706999778747559 C-1.8109999895095825,4.706999778747559 -3.2920000553131104,3.2249999046325684 -3.2920000553131104,1.4140000343322754 C-3.2920000553131104,1.4140000343322754 -3.2920000553131104,-1.4149999618530273 -3.2920000553131104,-1.4149999618530273 C-3.2920000553131104,-3.2260000705718994 -1.8109999895095825,-4.706999778747559 0,-4.706999778747559 C1.8109999895095825,-4.706999778747559 3.2920000553131104,-3.2260000705718994 3.2920000553131104,-1.4149999618530273"></path></g><g opacity="0" transform="matrix(1,0,0,1,11.295000076293945,20.099000930786133)"><path stroke-linecap="round" stroke-linejoin="round" fill-opacity="0" stroke="rgb(199,211,232)" stroke-opacity="1" stroke-width="2" d=" M-1.5829999446868896,-2.628000020980835 C-1.5829999446868896,-2.628000020980835 1.5829999446868896,-4.706999778747559 1.5829999446868896,-4.706999778747559 C1.5829999446868896,-4.706999778747559 1.5829999446868896,4.706999778747559 1.5829999446868896,4.706999778747559"></path></g><g opacity="0" transform="matrix(1,0,0,1,4.291999816894531,5.706999778747559)"><path stroke-linecap="round" stroke-linejoin="round" fill-opacity="0" stroke="rgb(199,211,232)" stroke-opacity="1" stroke-width="2" d=" M-0.0010000000474974513,4.705999851226807 C-0.0010000000474974513,4.705999851226807 -0.0010000000474974513,4.705999851226807 -0.0010000000474974513,4.705999851226807 C-1.812000036239624,4.705999851226807 -3.2920000553131104,3.2260000705718994 -3.2920000553131104,1.4149999618530273 C-3.2920000553131104,1.4149999618530273 -3.2920000553131104,-1.4149999618530273 -3.2920000553131104,-1.4149999618530273 C-3.2920000553131104,-3.2260000705718994 -1.812000036239624,-4.705999851226807 -0.0010000000474974513,-4.705999851226807 C1.809999942779541,-4.705999851226807 3.2920000553131104,-3.2260000705718994 3.2920000553131104,-1.4149999618530273 C3.2920000553131104,-1.4149999618530273 3.2920000553131104,1.4149999618530273 3.2920000553131104,1.4149999618530273 C3.2920000553131104,3.2260000705718994 1.809999942779541,4.705999851226807 -0.0010000000474974513,4.705999851226807z"></path></g></g></g></svg>