<svg xmlns="http://www.w3.org/2000/svg" viewBox="0 0 624 616" width="624" height="616" preserveAspectRatio="xMidYMid slice" style="width: 100%; height: 100%; transform: translate3d(0px, 0px, 0px);"><defs><clipPath id="__lottie_element_38"><rect width="624" height="616" x="0" y="0"></rect></clipPath><linearGradient id="__lottie_element_42" spreadMethod="pad" gradientUnits="userSpaceOnUse" x1="-0.23101802170276642" y1="-40.763938903808594" x2="-26.108999252319336" y2="26.145000457763672"><stop offset="0%" stop-color="rgb(255,255,255)" stop-opacity="0"></stop><stop offset="50%" stop-color="rgb(255,255,255)" stop-opacity="0.10000000149011612"></stop><stop offset="100%" stop-color="rgb(255,255,255)" stop-opacity="0.20000000298023224"></stop></linearGradient><linearGradient id="__lottie_element_79" spreadMethod="pad" gradientUnits="userSpaceOnUse" x1="5.296635150909424" y1="-16.59326934814453" x2="5.25" y2="34.75"><stop offset="0%" stop-color="rgb(255,255,255)" stop-opacity="0"></stop><stop offset="50%" stop-color="rgb(255,255,255)" stop-opacity="0.10000000149011612"></stop><stop offset="100%" stop-color="rgb(255,255,255)" stop-opacity="0.20000000298023224"></stop></linearGradient></defs><g clip-path="url(#__lottie_element_38)"><g transform="matrix(1,0,0,1,5.5,52)" opacity="0.2" style="display: block;"><g opacity="1" transform="matrix(1,0,0,1,234.54800415039062,366.0530090332031)"><path fill="rgb(236,239,243)" fill-opacity="1" d=" M-81.34300231933594,-35.766998291015625 C-81.34300231933594,-35.766998291015625 81.34300231933594,-35.766998291015625 81.34300231933594,-35.766998291015625 C81.34300231933594,-35.766998291015625 81.34300231933594,35.768001556396484 81.34300231933594,35.768001556396484 C81.34300231933594,35.768001556396484 -81.34300231933594,35.768001556396484 -81.34300231933594,35.768001556396484 C-81.34300231933594,35.768001556396484 -81.34300231933594,-35.766998291015625 -81.34300231933594,-35.766998291015625z"></path></g><g opacity="1" transform="matrix(1,0,0,1,439.87200927734375,366.0530090332031)"><path fill="rgb(236,239,243)" fill-opacity="1" d=" M-81.34300231933594,-35.766998291015625 C-81.34300231933594,-35.766998291015625 81.34300231933594,-35.766998291015625 81.34300231933594,-35.766998291015625 C81.34300231933594,-35.766998291015625 81.34300231933594,35.768001556396484 81.34300231933594,35.768001556396484 C81.34300231933594,35.768001556396484 -81.34300231933594,35.768001556396484 -81.34300231933594,35.768001556396484 C-81.34300231933594,35.768001556396484 -81.34300231933594,-35.766998291015625 -81.34300231933594,-35.766998291015625z"></path></g><g opacity="1" transform="matrix(1,0,0,1,382.34600830078125,476.14801025390625)"><path fill="rgb(236,239,243)" fill-opacity="1" d=" M-57.527000427246094,-35.768001556396484 C-57.527000427246094,-35.768001556396484 57.5260009765625,-35.768001556396484 57.5260009765625,-35.768001556396484 C57.5260009765625,-35.768001556396484 57.5260009765625,35.766998291015625 57.5260009765625,35.766998291015625 C57.5260009765625,35.766998291015625 -57.527000427246094,35.766998291015625 -57.527000427246094,35.766998291015625 C-57.527000427246094,35.766998291015625 -57.527000427246094,-35.768001556396484 -57.527000427246094,-35.768001556396484z"></path></g><g opacity="1" transform="matrix(1,0,0,1,186.11099243164062,476.14801025390625)"><path fill="rgb(236,239,243)" fill-opacity="1" d=" M-96.06999969482422,-35.768001556396484 C-96.06999969482422,-35.768001556396484 96.06999969482422,-35.768001556396484 96.06999969482422,-35.768001556396484 C96.06999969482422,-35.768001556396484 96.06999969482422,35.766998291015625 96.06999969482422,35.766998291015625 C96.06999969482422,35.766998291015625 -96.06999969482422,35.766998291015625 -96.06999969482422,35.766998291015625 C-96.06999969482422,35.766998291015625 -96.06999969482422,-35.768001556396484 -96.06999969482422,-35.768001556396484z"></path></g><g opacity="1" transform="matrix(1,0,0,1,306.1159973144531,255.95799255371094)"><path fill="rgb(236,239,243)" fill-opacity="1" d=" M-44.887001037597656,35.768001556396484 C-44.887001037597656,35.768001556396484 130.63299560546875,35.768001556396484 130.63299560546875,35.768001556396484 C130.63299560546875,35.768001556396484 130.63299560546875,-35.768001556396484 130.63299560546875,-35.768001556396484 C130.63299560546875,-35.768001556396484 -44.887001037597656,-35.768001556396484 -44.887001037597656,-35.768001556396484 C-44.887001037597656,-35.768001556396484 -44.887001037597656,35.768001556396484 -44.887001037597656,35.768001556396484z"></path></g><g opacity="1" transform="matrix(1,0,0,1,306.1159973144531,255.95799255371094)"><path fill="rgb(236,239,243)" fill-opacity="1" d=" M-306.1159973144531,35.768001556396484 C-306.1159973144531,35.768001556396484 -86.56700134277344,35.768001556396484 -86.56700134277344,35.768001556396484 C-86.56700134277344,35.768001556396484 -86.56700134277344,-35.768001556396484 -86.56700134277344,-35.768001556396484 C-86.56700134277344,-35.768001556396484 -306.1159973144531,-35.768001556396484 -306.1159973144531,-35.768001556396484 C-306.1159973144531,-35.768001556396484 -306.1159973144531,35.768001556396484 -306.1159973144531,35.768001556396484z"></path></g><g opacity="1" transform="matrix(1,0,0,1,489.11199951171875,145.86199951171875)"><path fill="rgb(236,239,243)" fill-opacity="1" d=" M-123.11799621582031,-35.768001556396484 C-123.11799621582031,-35.768001556396484 123.11799621582031,-35.768001556396484 123.11799621582031,-35.768001556396484 C123.11799621582031,-35.768001556396484 123.11799621582031,35.768001556396484 123.11799621582031,35.768001556396484 C123.11799621582031,35.768001556396484 -123.11799621582031,35.768001556396484 -123.11799621582031,35.768001556396484 C-123.11799621582031,35.768001556396484 -123.11799621582031,-35.768001556396484 -123.11799621582031,-35.768001556396484z"></path></g><g opacity="1" transform="matrix(1,0,0,1,214.15699768066406,145.86199951171875)"><path fill="rgb(236,239,243)" fill-opacity="1" d=" M-109.197998046875,-35.768001556396484 C-109.197998046875,-35.768001556396484 109.197998046875,-35.768001556396484 109.197998046875,-35.768001556396484 C109.197998046875,-35.768001556396484 109.197998046875,35.768001556396484 109.197998046875,35.768001556396484 C109.197998046875,35.768001556396484 -109.197998046875,35.768001556396484 -109.197998046875,35.768001556396484 C-109.197998046875,35.768001556396484 -109.197998046875,-35.768001556396484 -109.197998046875,-35.768001556396484z"></path></g><g opacity="1" transform="matrix(1,0,0,1,436.625,35.766998291015625)"><path fill="rgb(236,239,243)" fill-opacity="1" d=" M-34.02000045776367,-35.766998291015625 C-34.02000045776367,-35.766998291015625 34.020999908447266,-35.766998291015625 34.020999908447266,-35.766998291015625 C34.020999908447266,-35.766998291015625 34.020999908447266,35.76900100708008 34.020999908447266,35.76900100708008 C34.020999908447266,35.76900100708008 -34.02000045776367,35.76900100708008 -34.02000045776367,35.76900100708008 C-34.02000045776367,35.76900100708008 -34.02000045776367,-35.766998291015625 -34.02000045776367,-35.766998291015625z"></path></g></g><g transform="matrix(1,0,0,1,57.5,17.75)" opacity="1" style="display: block;"><g opacity="1" transform="matrix(1,0,0,1,75.64600372314453,59.18199920654297)"><path fill="rgb(41,47,75)" fill-opacity="1" d=" M-39.79199981689453,18.393999099731445 C-36.10100173950195,13.706999778747559 -34.82500076293945,8.508999824523926 -35.040000915527344,1.8040000200271606 C-35.500999450683594,-12.529000282287598 -39.435001373291016,-24.68400001525879 -33.41699981689453,-38.57099914550781 C-27.26099967956543,-52.7760009765625 -13.458999633789062,-58.93299865722656 1.4539999961853027,-59.176998138427734 C5.88100004196167,-59.250999450683594 10.571999549865723,-58.222999572753906 14.741999626159668,-56.847999572753906 C18.551000595092773,-55.59299850463867 22.125999450683594,-53.78900146484375 25.266000747680664,-51.28200149536133 C28.242000579833984,-48.90599822998047 32.06399917602539,-46.69300079345703 36.09199905395508,-46.68199920654297 C40.15999984741211,-46.66999816894531 43.9010009765625,-48.84400177001953 47.79399871826172,-46.55699920654297 C51.21500015258789,-44.547000885009766 52.571998596191406,-40.53499984741211 53.000999450683594,-36.79199981689453 C53.909000396728516,-28.884000778198242 49.72700119018555,-23.038999557495117 47.02299880981445,-16.1299991607666 C45.125,-11.281000137329102 43.81700134277344,-6.135000228881836 43.611000061035156,-0.9160000085830688 C43.41899871826172,3.9189999103546143 44.7239990234375,8.032999992370605 45.81100082397461,12.644000053405762 C47.85200119018555,21.301000595092773 46.05699920654297,30.740999221801758 40.632999420166016,37.827999114990234 C40.632999420166016,37.827999114990234 33.20399856567383,49.02299880981445 34.1349983215332,59.18199920654297 C34.1349983215332,59.18199920654297 -49.82699966430664,47.22999954223633 -49.89699935913086,47.220001220703125 C-53.22700119018555,46.74599838256836 -53.909000396728516,38.888999938964844 -53.63199996948242,36.76300048828125 C-52.744998931884766,29.969999313354492 -47.25899887084961,25.81100082397461 -42.60200119018555,21.437000274658203 C-41.54100036621094,20.440000534057617 -40.606998443603516,19.429000854492188 -39.79199981689453,18.393999099731445z"></path></g><g opacity="1" transform="matrix(1,0,0,1,91.85600280761719,62.92100143432617)"><path fill="rgb(255,208,156)" fill-opacity="1" d=" M21.19300079345703,-25.062000274658203 C21.19300079345703,-25.062000274658203 27.68400001525879,7.784999847412109 10.381999969482422,28.906999588012695 C4.98199987411499,35.499000549316406 -6.714000225067139,28.57699966430664 -12.140999794006348,24.187999725341797 C-18.67799949645996,18.902999877929688 -27.684999465942383,10.413999557495117 -26.00200080871582,1.0440000295639038 C-25.905000686645508,0.5019999742507935 -25.768999099731445,-0.032999999821186066 -25.597000122070312,-0.5559999942779541 C-24.849000930786133,-2.828000068664551 -24.128000259399414,-5.193999767303467 -22.895000457763672,-7.256999969482422 C-20.749000549316406,-10.848999977111816 -17.472000122070312,-13.795000076293945 -17.312999725341797,-18.222999572753906 C-17.312999725341797,-18.222999572753906 -16.985000610351562,-27.298999786376953 -5.550000190734863,-24.135000228881836 C-5.550000190734863,-24.135000228881836 5.789000034332275,-21.59600067138672 12.22700023651123,-28.415000915527344 C12.22700023651123,-28.415000915527344 18.302000045776367,-35.499000549316406 21.19300079345703,-25.062000274658203z"></path></g><g opacity="1" transform="matrix(1,0,0,1,96.58300018310547,537.5369873046875)"><path fill="rgb(255,208,156)" fill-opacity="1" d=" M11.097000122070312,0.9599999785423279 C6.35699987411499,3.6500000953674316 1.9950000047683716,7.260000228881836 -2.194999933242798,11.28600025177002 C-5.493000030517578,11.005999565124512 -8.609999656677246,10.192000389099121 -11.097000122070312,7.535999774932861 C-11.097000122070312,7.535999774932861 -6.131999969482422,-11.28600025177002 -6.131999969482422,-11.28600025177002 C-0.8059999942779541,-10.161999702453613 4.757999897003174,-9.90999984741211 10.550999641418457,-10.496000289916992 C10.550999641418457,-10.496000289916992 9.737000465393066,-2.4660000801086426 9.737000465393066,-2.4660000801086426 C9.737000465393066,-2.4660000801086426 11.097000122070312,0.9599999785423279 11.097000122070312,0.9599999785423279z"></path></g><g opacity="1" transform="matrix(1,0,0,1,48.832000732421875,543.2990112304688)"><path fill="rgb(255,208,156)" fill-opacity="1" d=" M8.354000091552734,1.3589999675750732 C8.354000091552734,1.3589999675750732 8.756999969482422,-17.743000030517578 8.756999969482422,-17.743000030517578 C8.756999969482422,-17.743000030517578 -9.270999908447266,-13.937000274658203 -9.270999908447266,-13.937000274658203 C-9.270999908447266,-13.937000274658203 -8.361000061035156,14.039999961853027 -8.361000061035156,14.039999961853027 C-8.361000061035156,14.039999961853027 9.270999908447266,17.743000030517578 9.270999908447266,17.743000030517578 C9.270999908447266,17.743000030517578 8.354000091552734,1.3589999675750732 8.354000091552734,1.3589999675750732z"></path></g><g opacity="1" transform="matrix(1,0,0,1,68.46099853515625,399.6600036621094)"><path fill="rgb(243,248,255)" fill-opacity="1" d=" M47.07699966430664,-137.12100219726562 C47.07699966430664,-137.12100219726562 0.050999999046325684,-123.51699829101562 0.050999999046325684,-123.51699829101562 C0.050999999046325684,-123.51699829101562 -46.25600051879883,-136.0590057373047 -46.2599983215332,-136.0590057373047 C-47.66899871826172,-136.4409942626953 -50.854000091552734,-104.76100158691406 -50.92399978637695,-103.25 C-52.58300018310547,-67.37200164794922 -44.891998291015625,-32.12699890136719 -42.01900100708008,3.4570000171661377 C-39.99300003051758,28.55900001525879 -38.00400161743164,53.66400146484375 -36.191001892089844,78.78099822998047 C-35.250999450683594,91.8030014038086 -33.880001068115234,104.94999694824219 -33.84199905395508,118.01699829101562 C-33.84199905395508,118.01699829101562 -34.11199951171875,124.88600158691406 -34.11199951171875,124.88600158691406 C-34.11199951171875,124.88600158691406 -36.67399978637695,130.58399963378906 -27.183000564575195,134.31300354003906 C-27.183000564575195,134.31300354003906 -4.255000114440918,138.1820068359375 -6.618000030517578,123.68599700927734 C-6.618000030517578,123.68599700927734 -0.5479999780654907,21.23900032043457 1.9789999723434448,-4.830999851226807 C2.2079999446868896,-7.192999839782715 2.000999927520752,-12.02400016784668 3.5980000495910645,-13.810999870300293 C4.010000228881836,-14.27299976348877 5.84499979019165,-14.406000137329102 6.2170000076293945,-13.911999702453613 C6.368000030517578,-13.711000442504883 6.414000034332275,-13.451000213623047 6.453999996185303,-13.20199966430664 C8.281999588012695,-1.5989999771118164 8.121000289916992,10.239999771118164 9.508999824523926,21.9060001373291 C11.892999649047852,41.94599914550781 12.244999885559082,62.15399932861328 13.291999816894531,82.28900146484375 C13.725000381469727,90.63200378417969 14.168999671936035,98.9749984741211 14.6850004196167,107.31300354003906 C14.95300006866455,111.6520004272461 14.569000244140625,116.88400268554688 15.79800033569336,121.10199737548828 C15.79800033569336,121.10199737548828 14.329000473022461,128.64300537109375 18.44099998474121,129.8350067138672 C18.44099998474121,129.8350067138672 31.20599937438965,134.04299926757812 39.231998443603516,129.7030029296875 C39.231998443603516,129.7030029296875 43.542999267578125,129.73199462890625 42.433998107910156,121.5999984741211 C42.68899917602539,94.7750015258789 42.94300079345703,67.9520034790039 43.196998596191406,41.12799835205078 C43.49599838256836,9.545000076293945 46.409000396728516,-21.93199920654297 49.27000045776367,-53.36399841308594 C50.57699966430664,-67.71900177001953 51.94200134277344,-82.03500366210938 52.4640007019043,-96.43399810791016 C52.58300018310547,-99.73300170898438 51.319000244140625,-138.1820068359375 47.07699966430664,-137.12100219726562z"></path></g><g opacity="1" transform="matrix(1,0,0,1,70.83699798583984,196.64500427246094)"><path fill="rgb(255,173,84)" fill-opacity="1" d=" M-1.4950000047683716,-100.8219985961914 C-1.9830000400543213,-100.9219970703125 -2.486999988555908,-100.9219970703125 -2.9749999046325684,-100.81999969482422 C-2.9749999046325684,-100.81999969482422 -39.402000427246094,-93.28500366210938 -39.402000427246094,-93.28500366210938 C-39.402000427246094,-93.28500366210938 -53.380001068115234,-90.95600128173828 -57.8650016784668,-77.00599670410156 C-57.8650016784668,-77.00599670410156 -69.05799865722656,-39.21900177001953 -69.05799865722656,-39.21900177001953 C-69.05799865722656,-39.21900177001953 -70.26599884033203,-34.68299865722656 -70.26599884033203,-34.68299865722656 C-70.3280029296875,-34.452999114990234 -70.41899871826172,-34.23400115966797 -70.52100372314453,-34.01900100708008 C-70.93800354003906,-33.13999938964844 -71.75900268554688,-30.268999099731445 -66.59100341796875,-27.437999725341797 C-66.59100341796875,-27.437999725341797 -55.89400100708008,-20.875999450683594 -44.625999450683594,-23.34600067138672 C-42.77399826049805,-23.753000259399414 -40.9010009765625,-22.72800064086914 -40.31700134277344,-20.924999237060547 C-29.52899932861328,12.380999565124512 -52.45600128173828,39.65399932861328 -55.233001708984375,71.92500305175781 C-55.44300079345703,74.36599731445312 -54.55799865722656,76.78500366210938 -52.779998779296875,78.47200012207031 C-45.77399826049805,85.11599731445312 -25.020999908447266,100.9209976196289 11.791000366210938,98.28900146484375 C11.902999877929688,98.28199768066406 12.017000198364258,98.26899719238281 12.128999710083008,98.2509994506836 C14.678999900817871,97.84700012207031 43.20199966430664,93.96499633789062 53.66600036621094,76.7249984741211 C54.10599899291992,75.9990005493164 54.24599838256836,75.13300323486328 54.10499954223633,74.2959976196289 C53.43899917602539,70.36799621582031 52.7760009765625,62.19200134277344 43.07899856567383,38.112998962402344 C43.042999267578125,38.02299880981445 43.00899887084961,37.93199920654297 42.98099899291992,37.8390007019043 C42.42900085449219,36.02899932861328 37.07899856567383,16.895000457763672 45.00699996948242,-21.145999908447266 C45.237998962402344,-22.256000518798828 45.97700119018555,-23.200000762939453 46.994998931884766,-23.69700050354004 C46.994998931884766,-23.69700050354004 68.7249984741211,-36.54499816894531 68.7249984741211,-36.54499816894531 C70.60900115966797,-37.465999603271484 70.83699798583984,-38.180999755859375 69.8280029296875,-40.020999908447266 C69.8280029296875,-40.020999908447266 55.2599983215332,-70.29100036621094 55.224998474121094,-70.36499786376953 C54.68299865722656,-71.52799987792969 49.500999450683594,-82.2490005493164 40.9379997253418,-86.1969985961914 C40.9379997253418,-86.1969985961914 14.378999710083008,-97.47899627685547 14.378999710083008,-97.47899627685547 C14.12399959564209,-97.59700012207031 13.854999542236328,-97.68499755859375 13.579000473022461,-97.74199676513672 C13.579000473022461,-97.74199676513672 -1.4950000047683716,-100.8219985961914 -1.4950000047683716,-100.8219985961914z"></path></g><g opacity="0.3" transform="matrix(1,0,0,1,72.38899993896484,164.85400390625)"><path fill="rgb(252,252,252)" fill-opacity="1" d=" M16.797000885009766,5.006999969482422 C12.244999885559082,0.6140000224113464 6.252999782562256,-1.7430000305175781 -0.0729999989271164,-1.6299999952316284 C-6.401000022888184,-1.5160000324249268 -12.303999900817871,1.0549999475479126 -16.695999145507812,5.607999801635742 C-16.695999145507812,5.607999801635742 -19.555999755859375,2.8489999771118164 -19.555999755859375,2.8489999771118164 C-14.425999641418457,-2.4690001010894775 -7.5320000648498535,-5.4710001945495605 -0.14399999380111694,-5.603000164031982 C7.242000102996826,-5.735000133514404 14.23900032043457,-2.9820001125335693 19.555999755859375,2.1470000743865967 C19.555999755859375,2.1470000743865967 16.797000885009766,5.006999969482422 16.797000885009766,5.006999969482422z"></path></g><g opacity="0.3" transform="matrix(1,0,0,1,72.48300170898438,171.1179962158203)"><path fill="rgb(252,252,252)" fill-opacity="1" d=" M11.576000213623047,4.059999942779541 C5.109000205993652,-2.178999900817871 -5.23199987411499,-1.996000051498413 -11.475000381469727,4.4730000495910645 C-11.475000381469727,4.4730000495910645 -14.333999633789062,1.7139999866485596 -14.333999633789062,1.7139999866485596 C-6.572000026702881,-6.328999996185303 6.289999961853027,-6.563000202178955 14.335000038146973,1.2009999752044678 C14.335000038146973,1.2009999752044678 11.576000213623047,4.059999942779541 11.576000213623047,4.059999942779541z"></path><g opacity="1" transform="matrix(1,0,0,1,0,0)"></g></g><g opacity="0.3" transform="matrix(1,0,0,1,72.5770034790039,177.3719940185547)"><path fill="rgb(252,252,252)" fill-opacity="1" d=" M6.3520002365112305,3.122999906539917 C4.638999938964844,1.4700000286102295 2.384000062942505,0.5809999704360962 0.004000000189989805,0.6240000128746033 C-2.377000093460083,0.6669999957084656 -4.598999977111816,1.6360000371932983 -6.251999855041504,3.3489999771118164 C-6.251999855041504,3.3489999771118164 -9.111000061035156,0.5899999737739563 -9.111000061035156,0.5899999737739563 C-6.7210001945495605,-1.8880000114440918 -3.507999897003174,-3.2850000858306885 -0.06700000166893005,-3.3480000495910645 C3.372999906539917,-3.4089999198913574 6.632999897003174,-2.127000093460083 9.111000061035156,0.2639999985694885 C9.111000061035156,0.2639999985694885 6.3520002365112305,3.122999906539917 6.3520002365112305,3.122999906539917z"></path></g><g opacity="0.3" transform="matrix(1,0,0,1,72.66999816894531,183.38099670410156)"><path fill="rgb(252,252,252)" fill-opacity="1" d=" M-1.027999997138977,2.4690001010894775 C-1.027999997138977,2.4690001010894775 -3.888000011444092,-0.289000004529953 -3.888000011444092,-0.289000004529953 C-1.8489999771118164,-2.4030001163482666 1.7740000486373901,-2.4690001010894775 3.888000011444092,-0.4259999990463257 C3.888000011444092,-0.4259999990463257 1.128999948501587,2.428999900817871 1.128999948501587,2.428999900817871 C0.5400000214576721,1.8660000562667847 -0.46000000834465027,1.8799999952316284 -1.027999997138977,2.4690001010894775z"></path></g><g opacity="1" transform="matrix(1,0,0,1,71.06800079345703,100.84500122070312)"><path fill="rgb(255,208,156)" fill-opacity="1" d=" M-4.484000205993652,-29.645999908447266 C-4.484000205993652,-29.645999908447266 -1.8849999904632568,-18.79199981689453 -10.314000129699707,-1.9839999675750732 C-10.314000129699707,-1.9839999675750732 -17.298999786376953,6.928999900817871 -5.020999908447266,20.10700035095215 C-5.020999908447266,20.10700035095215 5.2170000076293945,29.64699935913086 12.342000007629395,18.53499984741211 C12.342000007629395,18.53499984741211 17.298999786376953,14.434000015258789 13.972999572753906,3.2149999141693115 C13.972999572753906,3.2149999141693115 11.928999900817871,-1.5440000295639038 13.54699993133545,-10.871000289916992 C13.54699993133545,-10.871000289916992 -4.484000205993652,-29.645999908447266 -4.484000205993652,-29.645999908447266z"></path></g><g opacity="1" transform="matrix(1,0,0,1,19.326000213623047,195.5189971923828)"><path fill="rgb(255,208,156)" fill-opacity="1" d=" M12.765999794006348,20.138999938964844 C-3.865000009536743,26.31100082397461 -6.697000026702881,18.916000366210938 -6.697000026702881,18.916000366210938 C-11.352999687194824,2.0859999656677246 -15.081000328063965,-26.312000274658203 -15.081000328063965,-26.312000274658203 C0.6620000004768372,-18.575000762939453 9.97700023651123,-23.132999420166016 9.97700023651123,-23.132999420166016 C13.439000129699707,-17.604000091552734 15.081000328063965,-2.437999963760376 15.081000328063965,-2.437999963760376"></path></g><g opacity="1" transform="matrix(1,0,0,1,52.22700119018555,573.2520141601562)"><path fill="rgb(73,82,123)" fill-opacity="1" d=" M-16.485000610351562,-6.644999980926514 C-16.485000610351562,-6.644999980926514 -16.365999221801758,-0.31200000643730164 -14.710000038146973,1.8380000591278076 C-14.710000038146973,1.8380000591278076 -3.318000078201294,10.918999671936035 10.032999992370605,4.116000175476074 C10.032999992370605,4.116000175476074 16.485000610351562,0.5210000276565552 12.925000190734863,-5.553999900817871 C12.925000190734863,-5.553999900817871 -16.485000610351562,-6.644999980926514 -16.485000610351562,-6.644999980926514z"></path></g><g opacity="1" transform="matrix(1,0,0,1,50.69499969482422,559.39501953125)"><path fill="rgb(251,249,247)" fill-opacity="1" d=" M6.491000175476074,-14.737000465393066 C8.050000190734863,-6.89900016784668 8.62600040435791,-3.3540000915527344 11.407999992370605,2.450000047683716 C12.21399974822998,4.13100004196167 13.204999923706055,6.002999782562256 14.460000038146973,8.225000381469727 C15.170000076293945,16.472000122070312 -15.170000076293945,15.234000205993652 -14.989999771118164,6.656000137329102 C-15.131999969482422,4.2779998779296875 -15.09000015258789,0.9129999876022339 -14.659000396728516,-2.5959999561309814 C-13.928000450134277,-8.550000190734863 -14.661999702453613,-13.777999877929688 -10.692999839782715,-16.472000122070312 C-10.814000129699707,-11.881999969482422 -9.331000328063965,-10.729999542236328 -9.109000205993652,-6.1579999923706055 C-9.092000007629395,-5.813000202178955 -8.63700008392334,-5.716000080108643 -8.486000061035156,-6.0269999504089355 C-6.951000213623047,-9.175000190734863 -4.7129998207092285,-11.244999885559082 -1.5850000381469727,-11.944999694824219 C1.4010000228881836,-12.204000473022461 3.746999979019165,-10.598999977111816 5.117000102996826,-6.144000053405762 C5.2270002365112305,-5.7870001792907715 5.748000144958496,-5.855000019073486 5.76200008392334,-6.229000091552734 C5.886000156402588,-9.46399974822998 6.118000030517578,-12.090999603271484 6.491000175476074,-14.737000465393066z"></path></g><g opacity="1" transform="matrix(1,0,0,1,84.81900024414062,56.020999908447266)"><path stroke-linecap="round" stroke-linejoin="round" fill-opacity="0" stroke="rgb(209,147,94)" stroke-opacity="1" stroke-width="2" d=" M-3.993000030517578,2.746999979019165 C-3.993000030517578,2.746999979019165 0.25200000405311584,-2.746999979019165 3.992000102996826,2.7049999237060547"></path></g><g opacity="1" transform="matrix(1,0,0,1,105.16899871826172,55.9640007019043)"><path stroke-linecap="round" stroke-linejoin="round" fill-opacity="0" stroke="rgb(209,147,94)" stroke-opacity="1" stroke-width="2" d=" M3.7230000495910645,2.5929999351501465 C3.7230000495910645,2.5929999351501465 -0.1550000011920929,-2.5929999351501465 -3.7230000495910645,2.436000108718872"></path></g><g opacity="1" transform="matrix(1,0,0,1,96.35800170898438,79.27899932861328)"><path fill="rgb(255,255,255)" fill-opacity="1" d=" M-6.294000148773193,-2.6110000610351562 C-6.788000106811523,-2.7249999046325684 -7.244999885559082,-2.2639999389648438 -7.145999908447266,-1.7300000190734863 C-6.460000038146973,2.000999927520752 -3.3480000495910645,3.5309998989105225 0.27900001406669617,3.3420000076293945 C3.927999973297119,3.1530001163482666 6.835000038146973,1.2769999504089355 7.1570000648498535,-2.5369999408721924 C7.202000141143799,-3.072000026702881 6.7170000076293945,-3.4739999771118164 6.23799991607666,-3.328000068664551 C0.2460000067949295,-1.5 -4.367000102996826,-2.1659998893737793 -6.294000148773193,-2.6110000610351562z"></path></g><g opacity="0.1" transform="matrix(1,0,0,1,75.72899627685547,86.80000305175781)"><path fill="rgb(41,47,75)" fill-opacity="1" d=" M8.800999641418457,3.680999994277954 C8.800999641418457,3.680999994277954 8.07800006866455,10.052000045776367 8.373000144958496,12.609000205993652 C8.373000144958496,12.609000205993652 -7.1020002365112305,3.4809999465942383 -8.802000045776367,-12.609999656677246 C-8.802000045776367,-12.609999656677246 -1.909000039100647,-0.3449999988079071 8.800999641418457,3.680999994277954z"></path></g></g><g transform="matrix(0.9998477101325989,0.017452405765652657,-0.017452405765652657,0.9998477101325989,72.6607666015625,188.03323364257812)" opacity="1" style="display: block;"><g opacity="1" transform="matrix(1,0,0,1,46.7859992980957,24.878999710083008)"><path fill="rgb(255,208,156)" fill-opacity="1" d=" M-25.006999969482422,-0.15800000727176666 C-11.770999908447266,-5.2129998207092285 15.973999977111816,-15.753999710083008 15.973999977111816,-15.753999710083008 C15.973999977111816,-15.753999710083008 23.170000076293945,-21.91699981689453 23.170000076293945,-21.91699981689453 C23.170000076293945,-21.91699981689453 29.357999801635742,-26.323999404907227 36.513999938964844,-24.38599967956543 C43.66899871826172,-22.447999954223633 48.513999938964844,-11.491999626159668 46.202999114990234,-4.038000106811523 C43.891998291015625,3.4149999618530273 31.892000198364258,5.2789998054504395 30.402000427246094,1.3279999494552612 C28.910999298095703,-2.621999979019165 25.441999435424805,-3.7320001125335693 25.441999435424805,-3.7320001125335693 C21.88599967956543,-4.557000160217285 18.084999084472656,-1.4880000352859497 18.084999084472656,-1.4880000352859497 C1.3250000476837158,16.402999877929688 -27.322999954223633,22.420000076293945 -27.322999954223633,22.420000076293945 C-43.95399856567383,28.591999053955078 -46.78499984741211,21.19700050354004 -46.78499984741211,21.19700050354004"></path></g></g><g transform="matrix(1,0,0,1,116.25,105.625)" opacity="1" style="display: block;"><g opacity="1" transform="matrix(1,0,0,1,61.22200012207031,33.65299987792969)"><path fill="url(#__lottie_element_79)" fill-opacity="1" d=" M-61.22100067138672,-33.65399932861328 C-61.22100067138672,-33.65399932861328 -20.457000732421875,33.65299987792969 -20.457000732421875,33.65299987792969 C-20.457000732421875,33.65299987792969 61.22100067138672,33.65299987792969 61.22100067138672,33.65299987792969 C61.22100067138672,33.65299987792969 56.92599868774414,-33.65399932861328 56.92599868774414,-33.65399932861328 C56.92599868774414,-33.65399932861328 -61.22100067138672,-33.65399932861328 -61.22100067138672,-33.65399932861328z"></path><g opacity="1" transform="matrix(1,0,0,1,0,0)"></g></g></g><g transform="matrix(0.11999999731779099,0,0,0.11999999731779099,162.84500122070312,152.69700622558594)" opacity="0.8" style="display: block;"><g opacity="1" transform="matrix(1,0,0,1,335.1210021972656,53.99800109863281)"><path fill="rgb(255,255,255)" fill-opacity="1" d=" M0,53.99800109863281 C5.5229997634887695,53.99800109863281 10,49.520999908447266 10,43.99800109863281 C10,43.99800109863281 10,-43.99800109863281 10,-43.99800109863281 C10,-49.520999908447266 5.5229997634887695,-53.99800109863281 0,-53.99800109863281 C-5.5229997634887695,-53.99800109863281 -10,-49.520999908447266 -10,-43.99800109863281 C-10,-43.99800109863281 -10,43.999000549316406 -10,43.999000549316406 C-10,49.520999908447266 -5.5229997634887695,53.99800109863281 0,53.99800109863281z"></path></g><g opacity="1" transform="matrix(1,0,0,1,239.95599365234375,53.99800109863281)"><path fill="rgb(255,255,255)" fill-opacity="1" d=" M0.0010000000474974513,53.99800109863281 C19.6200008392334,53.99800109863281 35.58100128173828,38.03799819946289 35.58100128173828,18.417999267578125 C35.58100128173828,18.417999267578125 35.58100128173828,-18.41699981689453 35.58100128173828,-18.41699981689453 C35.58100128173828,-38.0369987487793 19.618999481201172,-53.99800109863281 0.0010000000474974513,-53.99800109863281 C-19.617000579833984,-53.99800109863281 -35.58100128173828,-38.0369987487793 -35.58100128173828,-18.41699981689453 C-35.58100128173828,-18.41699981689453 -35.58100128173828,18.41900062561035 -35.58100128173828,18.41900062561035 C-35.58100128173828,38.0369987487793 -19.618000030517578,53.99800109863281 0.0010000000474974513,53.99800109863281z M-15.579999923706055,-18.41699981689453 C-15.579999923706055,-27.009000778198242 -8.59000015258789,-33.99800109863281 0.0010000000474974513,-33.99800109863281 C8.592000007629395,-33.99800109863281 15.581000328063965,-27.007999420166016 15.581000328063965,-18.41699981689453 C15.581000328063965,-18.41699981689453 15.581000328063965,18.41900062561035 15.581000328063965,18.41900062561035 C15.581000328063965,27.010000228881836 8.590999603271484,33.999000549316406 0.0010000000474974513,33.999000549316406 C-8.590999603271484,33.999000549316406 -15.579999923706055,27.009000778198242 -15.579999923706055,18.41900062561035 C-15.579999923706055,18.41900062561035 -15.579999923706055,-18.41699981689453 -15.579999923706055,-18.41699981689453z"></path></g><g opacity="1" transform="matrix(1,0,0,1,38.20399856567383,53.99800109863281)"><path fill="rgb(255,255,255)" fill-opacity="1" d=" M0,53.99800109863281 C5.5229997634887695,53.99800109863281 10,49.520999908447266 10,43.99800109863281 C10,43.99800109863281 10,-43.99800109863281 10,-43.99800109863281 C10,-49.520999908447266 5.5229997634887695,-53.99800109863281 0,-53.99800109863281 C-5.521999835968018,-53.99800109863281 -10,-49.520999908447266 -10,-43.99800109863281 C-10,-43.99800109863281 -10,43.999000549316406 -10,43.999000549316406 C-9.99899959564209,49.520999908447266 -5.520999908447266,53.99800109863281 0,53.99800109863281z"></path></g><g opacity="1" transform="matrix(1,0,0,1,132.53700256347656,53.99800109863281)"><path fill="rgb(255,255,255)" fill-opacity="1" d=" M0,53.99800109863281 C19.618999481201172,53.99800109863281 35.58100128173828,38.03799819946289 35.58100128173828,18.417999267578125 C35.58100128173828,18.417999267578125 35.58100128173828,-18.41699981689453 35.58100128173828,-18.41699981689453 C35.58000183105469,-38.0369987487793 19.618999481201172,-53.99800109863281 0,-53.99800109863281 C-19.618000030517578,-53.99800109863281 -35.58000183105469,-38.0369987487793 -35.58000183105469,-18.41699981689453 C-35.58000183105469,-18.41699981689453 -35.58000183105469,18.41900062561035 -35.58000183105469,18.41900062561035 C-35.57899856567383,38.0369987487793 -19.617000579833984,53.99800109863281 0,53.99800109863281z M-15.579999923706055,-18.41699981689453 C-15.579999923706055,-27.009000778198242 -8.590999603271484,-33.99800109863281 0,-33.99800109863281 C8.593000411987305,-33.99800109863281 15.581000328063965,-27.007999420166016 15.581000328063965,-18.41699981689453 C15.581000328063965,-18.41699981689453 15.581000328063965,18.41900062561035 15.581000328063965,18.41900062561035 C15.581000328063965,27.010000228881836 8.592000007629395,33.999000549316406 0,33.999000549316406 C-8.592000007629395,33.999000549316406 -15.579999923706055,27.009000778198242 -15.579999923706055,18.41900062561035 C-15.579999923706055,18.41900062561035 -15.579999923706055,-18.41699981689453 -15.579999923706055,-18.41699981689453z"></path></g><g opacity="1" transform="matrix(1,0,0,1,528.6409912109375,53.99800109863281)"><path fill="rgb(255,255,255)" fill-opacity="1" d=" M0,53.99800109863281 C5.521999835968018,53.99800109863281 10,49.520999908447266 10,43.99800109863281 C10,43.99800109863281 10,-43.99800109863281 10,-43.99800109863281 C10,-49.520999908447266 5.521999835968018,-53.99800109863281 0,-53.99800109863281 C-5.5229997634887695,-53.99800109863281 -10,-49.520999908447266 -10,-43.99800109863281 C-10,-43.99800109863281 -10,43.999000549316406 -10,43.999000549316406 C-9.99899959564209,49.520999908447266 -5.521999835968018,53.99800109863281 0,53.99800109863281z"></path></g><g opacity="1" transform="matrix(1,0,0,1,436.2019958496094,53.99800109863281)"><path fill="rgb(255,255,255)" fill-opacity="1" d=" M0,53.99800109863281 C19.618999481201172,53.99800109863281 35.58000183105469,38.03799819946289 35.58000183105469,18.417999267578125 C35.58000183105469,18.417999267578125 35.58000183105469,-18.41699981689453 35.58000183105469,-18.41699981689453 C35.58000183105469,-38.0359992980957 19.6200008392334,-53.99800109863281 0,-53.99800109863281 C-19.618999481201172,-53.99800109863281 -35.58000183105469,-38.0369987487793 -35.58000183105469,-18.41699981689453 C-35.58000183105469,-18.41699981689453 -35.58000183105469,18.41900062561035 -35.58000183105469,18.41900062561035 C-35.58000183105469,38.0369987487793 -19.618000030517578,53.99800109863281 0,53.99800109863281z M-15.581000328063965,-18.41699981689453 C-15.581000328063965,-27.009000778198242 -8.590999603271484,-33.99800109863281 0,-33.99800109863281 C8.590999603271484,-33.99800109863281 15.579999923706055,-27.007999420166016 15.579999923706055,-18.41699981689453 C15.579999923706055,-18.41699981689453 15.579999923706055,18.41900062561035 15.579999923706055,18.41900062561035 C15.579999923706055,27.010000228881836 8.59000015258789,33.999000549316406 -0.0010000000474974513,33.999000549316406 C-8.592000007629395,33.999000549316406 -15.581000328063965,27.009000778198242 -15.581000328063965,18.41900062561035 C-15.581000328063965,18.41900062561035 -15.581000328063965,-18.41699981689453 -15.581000328063965,-18.41699981689453z"></path></g></g><g transform="matrix(1,0,0,1,309.43798828125,314.625)" opacity="1" style="display: block;"><g opacity="1" transform="matrix(1,0,0,1,-124.14900207519531,-113.16300201416016)"><path fill="rgb(237,245,255)" fill-opacity="1" d=" M-28.31100082397461,-29.177000045776367 C-28.31100082397461,-29.177000045776367 -53.367000579833984,29.177000045776367 -53.367000579833984,29.177000045776367 C-53.367000579833984,29.177000045776367 23.020000457763672,29.177000045776367 23.020000457763672,29.177000045776367 C23.020000457763672,29.177000045776367 53.367000579833984,-29.177000045776367 53.367000579833984,-29.177000045776367 C53.367000579833984,-29.177000045776367 -28.31100082397461,-29.177000045776367 -28.31100082397461,-29.177000045776367z"></path></g><g opacity="1" transform="matrix(1,0,0,1,-90.99299621582031,-128.23800659179688)"><path fill="rgb(214,228,244)" fill-opacity="1" d=" M2.7790000438690186,0 C2.7790000438690186,1.534999966621399 1.534999966621399,2.7790000438690186 0,2.7790000438690186 C-1.534999966621399,2.7790000438690186 -2.7799999713897705,1.534999966621399 -2.7799999713897705,0 C-2.7799999713897705,-1.534999966621399 -1.534999966621399,-2.7790000438690186 0,-2.7790000438690186 C1.534999966621399,-2.7790000438690186 2.7790000438690186,-1.534999966621399 2.7790000438690186,0z"></path></g></g><g transform="matrix(1,0,0,1,302,300.06298828125)" opacity="1" style="display: block;"><g opacity="1" transform="matrix(1,0,0,1,-76.52200317382812,-99.64099884033203)"><path fill="rgb(255,208,156)" fill-opacity="1" d=" M1.6890000104904175,5.910999774932861 C1.6890000104904175,5.910999774932861 4.085999965667725,1.2510000467300415 7.045000076293945,-2.7739999294281006 C7.045000076293945,-2.7739999294281006 11.991999626159668,-10.020999908447266 5.926000118255615,-12.63599967956543 C5.926000118255615,-12.63599967956543 3.127000093460083,-14.595999717712402 -4.324999809265137,-8.449000358581543 C-4.324999809265137,-8.449000358581543 -11.991999626159668,-3.6679999828338623 -10.96500015258789,3.9130001068115234 C-10.96500015258789,3.9130001068115234 -11.156999588012695,11.220999717712402 -6.565000057220459,11.383000373840332 C-6.565000057220459,11.383000373840332 -3.6670000553131104,14.595000267028809 1.6890000104904175,5.910999774932861z"></path></g></g><g transform="matrix(1,0,0,1,134.875,553.375)" opacity="1" style="display: block;"><g opacity="1" transform="matrix(1,0,0,1,34.41600036621094,9.458999633789062)"><path fill="rgb(251,249,247)" fill-opacity="1" d=" M-5.229000091552734,-7.548999786376953 C-3.944000005722046,-8.255999565124512 -2.63100004196167,-8.895000457763672 -1.2879999876022339,-9.458000183105469 C7.139999866485596,-4.0269999504089355 15.630999565124512,1.0989999771118164 24.951000213623047,2.130000114440918 C29.326000213623047,2.749000072479248 31.25200080871582,4.705999851226807 31.586999893188477,7.533999919891357 C31.586999893188477,7.533999919891357 10.935999870300293,9.458000183105469 10.935999870300293,9.458000183105469 C10.935999870300293,9.458000183105469 -31.586999893188477,7.214000225067139 -31.586999893188477,7.214000225067139 C-30.775999069213867,1.0149999856948853 -29.72599983215332,-2.3469998836517334 -28.393999099731445,-2.36299991607666 C-28.111000061035156,-1.968999981880188 -27.81599998474121,-1.6059999465942383 -27.510000228881836,-1.2710000276565552 C-25.05900001525879,1.4179999828338623 -21.95400047302246,2.2730000019073486 -18.659000396728516,2.5980000495910645 C-14.416000366210938,-1.3700000047683716 -10.005000114440918,-4.921999931335449 -5.229000091552734,-7.548999786376953z"></path></g><g opacity="1" transform="matrix(1,0,0,1,34.41999816894531,21.371999740600586)"><path fill="rgb(73,82,123)" fill-opacity="1" d=" M-31.590999603271484,-4.699999809265137 C-31.590999603271484,-4.699999809265137 10.932000160217285,-2.4549999237060547 10.932000160217285,-2.4549999237060547 C10.932000160217285,-2.4549999237060547 31.584999084472656,-4.380000114440918 31.584999084472656,-4.380000114440918 C31.584999084472656,-4.380000114440918 34.41999816894531,-0.42899999022483826 34.41999816894531,-0.42899999022483826 C24.857999801635742,8.446000099182129 -20.46500015258789,3.250999927520752 -34.26599884033203,2.5829999446868896 C-34.185001373291016,-1.944000005722046 -35.513999938964844,-3.4860000610351562 -31.590999603271484,-4.699999809265137z"></path></g></g><g transform="matrix(1,0,0,1,385.625,16.625)" opacity="1" style="display: block;"><g opacity="1" transform="matrix(1,0,0,1,53.63399887084961,547.6110229492188)"><path fill="rgb(255,208,156)" fill-opacity="1" d=" M7.520999908447266,-12.342000007629395 C9.395999908447266,-6.703000068664551 10.866000175476074,-1.2389999628067017 13.906000137329102,3.5959999561309814 C13.906000137329102,3.5959999561309814 7.564000129699707,8.208000183105469 7.564000129699707,8.208000183105469 C-0.31700000166893005,12.342000007629395 -7.553999900817871,11.442000389099121 -13.906000137329102,3.4570000171661377 C-7.039999961853027,-0.6690000295639038 -8.128000259399414,-5.605999946594238 -8.694999694824219,-11.26099967956543 C-8.694999694824219,-11.26099967956543 7.520999908447266,-12.342000007629395 7.520999908447266,-12.342000007629395z"></path></g><g opacity="1" transform="matrix(1,0,0,1,35.222999572753906,577.47998046875)"><path fill="rgb(57,64,95)" fill-opacity="1" d=" M35.172000885009766,-0.0949999988079071 C35.222999572753906,1.2519999742507935 34.86800003051758,1.906999945640564 34.20000076293945,2.003999948501587 C34.20000076293945,2.003999948501587 18.719999313354492,2.003999948501587 18.719999313354492,2.003999948501587 C11.15999984741211,0.17599999904632568 -5.808000087738037,3.556999921798706 -14.126999855041504,4.633999824523926 C-22.22599983215332,5.250999927520752 -29.371999740600586,4.453000068664551 -34.49800109863281,0.6899999976158142 C-35.57899856567383,-0.7070000171661377 -35.52000045776367,-1.8389999866485596 -33.847999572753906,-2.5989999771118164 C-24.743000030517578,3.005000114440918 -10.663999557495117,2.253000020980835 5.59499979019165,-1.281999945640564 C15.154999732971191,-4.73199987411499 24.191999435424805,-5.070000171661377 33.20399856567383,-5.250999927520752 C33.20399856567383,-5.250999927520752 35.172000885009766,-5.22599983215332 35.172000885009766,-5.22599983215332 C35.172000885009766,-5.22599983215332 35.172000885009766,-0.0949999988079071 35.172000885009766,-0.0949999988079071z"></path></g><g opacity="1" transform="matrix(1,0,0,1,35.970001220703125,565.1929931640625)"><path fill="rgb(255,255,255)" fill-opacity="1" d=" M32.45800018310547,7.035999774932861 C23.445999145507812,7.2179999351501465 14.409000396728516,7.556000232696533 4.848999977111816,11.005999565124512 C-11.40999984741211,14.539999961853027 -25.48900032043457,15.291999816894531 -34.59400177001953,9.687999725341797 C-34.26499938964844,-0.2619999945163727 -30.60700035095215,-4.27400016784668 -22.761999130249023,-0.8270000219345093 C-20.700000762939453,0.4440000057220459 -18.007999420166016,-0.20600000023841858 -14.87399959564209,-2.1410000324249268 C-14.87399959564209,-2.1410000324249268 2.880000114440918,-15.291000366210938 2.880000114440918,-15.291000366210938 C3.1670000553131104,-14.88599967956543 3.4619998931884766,-14.491999626159668 3.757999897003174,-14.125 C10.109000205993652,-6.139999866485596 17.347999572753906,-5.239999771118164 25.22800064086914,-9.37399959564209 C25.22800064086914,-9.37399959564209 31.570999145507812,-13.984999656677246 31.570999145507812,-13.984999656677246 C31.570999145507812,-13.984999656677246 32.45800018310547,-14.631999969482422 32.45800018310547,-14.631999969482422 C33.902000427246094,-12.119000434875488 34.595001220703125,-7.127999782562256 32.45800018310547,7.035999774932861z"></path></g><g opacity="1" transform="matrix(1,0,0,1,140.70799255371094,553.6060180664062)"><path fill="rgb(255,208,156)" fill-opacity="1" d=" M-13.581999778747559,-7.556000232696533 C-13.581999778747559,-7.556000232696533 11.248000144958496,-12.317000389099121 11.248000144958496,-12.317000389099121 C11.248000144958496,-12.317000389099121 13.581999778747559,10.126999855041504 13.581999778747559,10.126999855041504 C8.194000244140625,5.413000106811523 -3.3580000400543213,8.190999984741211 -8.694000244140625,12.317000389099121 C-8.694000244140625,12.317000389099121 -13.581999778747559,-7.556000232696533 -13.581999778747559,-7.556000232696533z"></path></g><g opacity="1" transform="matrix(1,0,0,1,146.90699768066406,571.843017578125)"><path fill="rgb(255,255,255)" fill-opacity="1" d=" M-19.7810001373291,14.208999633789062 C-19.51300048828125,3.7279999256134033 -18.89900016784668,-0.6840000152587891 -12.447999954223633,-9.494999885559082 C-7.111999988555908,-13.621000289916992 -0.33899998664855957,-14.208999633789062 5.048999786376953,-9.494999885559082 C13.9399995803833,-4.894999980926514 17.799999237060547,4.172999858856201 19.7810001373291,14.208999633789062 C16.71500015258789,7.034999847412109 9.010000228881836,1.9459999799728394 -0.0020000000949949026,1.9459999799728394 C-9.013999938964844,1.9459999799728394 -16.711999893188477,7.034999847412109 -19.7810001373291,14.208999633789062z"></path></g><g opacity="1" transform="matrix(1,0,0,1,146.90699768066406,579.9210205078125)"><path fill="rgb(225,225,225)" fill-opacity="1" d=" M-19.7810001373291,6.131999969482422 C-16.711999893188477,-1.0420000553131104 -9.013999938964844,-6.13100004196167 -0.0020000000949949026,-6.13100004196167 C9.010000228881836,-6.13100004196167 16.71500015258789,-1.0420000553131104 19.7810001373291,6.131999969482422 C19.48699951171875,6.035999774932861 19.17099952697754,5.985000133514404 18.843000411987305,5.985000133514404 C18.843000411987305,5.985000133514404 -18.847000122070312,5.985000133514404 -18.847000122070312,5.985000133514404 C-19.167999267578125,5.985000133514404 -19.48699951171875,6.035999774932861 -19.7810001373291,6.131999969482422z"></path></g><g opacity="1" transform="matrix(1,0,0,1,146.9080047607422,588.9340209960938)"><path fill="rgb(57,64,95)" fill-opacity="1" d=" M-18.847999572753906,-3.0290000438690186 C-18.847999572753906,-3.0290000438690186 18.841999053955078,-3.0290000438690186 18.841999053955078,-3.0290000438690186 C19.17099952697754,-3.0290000438690186 19.486000061035156,-2.9769999980926514 19.780000686645508,-2.881999969482422 C20.990999221801758,-2.4839999675750732 21.874000549316406,-1.3420000076293945 21.874000549316406,-0.0020000000949949026 C21.874000549316406,1.6660000085830688 20.51099967956543,3.0299999713897705 18.841999053955078,3.0299999713897705 C18.841999053955078,3.0299999713897705 -18.847999572753906,3.0299999713897705 -18.847999572753906,3.0299999713897705 C-20.517000198364258,3.0299999713897705 -21.875,1.6660000085830688 -21.875,-0.0020000000949949026 C-21.875,-1.3420000076293945 -20.993000030517578,-2.4839999675750732 -19.781999588012695,-2.881999969482422 C-19.488000869750977,-2.9769999980926514 -19.167999267578125,-3.0290000438690186 -18.847999572753906,-3.0290000438690186z"></path></g><g opacity="1" transform="matrix(1,0,0,1,97.19400024414062,420.37200927734375)"><path fill="rgb(41,47,75)" fill-opacity="1" d=" M-49.57400131225586,-131.51300048828125 C-49.57400131225586,-131.51300048828125 -55.933998107910156,71.67500305175781 -55.933998107910156,71.67500305175781 C-55.933998107910156,71.67500305175781 -58.433998107910156,111.81900024414062 -58.433998107910156,111.81900024414062 C-58.433998107910156,111.81900024414062 -61.00600051879883,120.38700103759766 -56.292999267578125,122.95800018310547 C-56.292999267578125,122.95800018310547 -44.7239990234375,131.52699279785156 -31.44300079345703,122.95800018310547 C-31.44300079345703,122.95800018310547 -27.586999893188477,123.38600158691406 -27.586999893188477,113.53199768066406 C-27.586999893188477,113.53199768066406 -10.260000228881836,-68.94400024414062 -10.260000228881836,-68.94400024414062 C-10.260000228881836,-68.94400024414062 -9.097999572753906,-82.65499877929688 -5.179999828338623,-64.23200225830078 C-5.179999828338623,-64.23200225830078 23.586999893188477,122.09200286865234 23.586999893188477,122.09200286865234 C23.586999893188477,122.09200286865234 22.302000045776367,130.23300170898438 28.299999237060547,131.94700622558594 C28.299999237060547,131.94700622558594 43.012001037597656,140.08700561523438 57.29199981689453,125.09100341796875 C57.29199981689453,125.09100341796875 61.00600051879883,122.9489974975586 57.29199981689453,114.38099670410156 C57.29199981689453,114.38099670410156 49.7140007019043,86.29199981689453 49.7140007019043,86.29199981689453 C49.7140007019043,86.29199981689453 44.659000396728516,-109.21600341796875 44.659000396728516,-109.21600341796875 C44.659000396728516,-109.21600341796875 44.724998474121094,-140.08700561523438 44.724998474121094,-140.08700561523438 C44.724998474121094,-140.08700561523438 -49.57400131225586,-131.51300048828125 -49.57400131225586,-131.51300048828125z"></path></g><g opacity="1" transform="matrix(1,0,0,1,99.52899932861328,214.2949981689453)"><path fill="rgb(75,213,144)" fill-opacity="1" d=" M-11.616000175476074,-104.1989974975586 C-11.616000175476074,-104.1989974975586 -41.525001525878906,-94.13300323486328 -45.88100051879883,-91.22799682617188 C-45.88100051879883,-91.22799682617188 -51.979000091552734,-89.19599914550781 -55.17300033569336,-83.0979995727539 C-55.17300033569336,-83.0979995727539 -70.27300262451172,-54.349998474121094 -73.177001953125,-40.4119987487793 C-73.177001953125,-40.4119987487793 -59.43199920654297,27.246999740600586 -59.43199920654297,27.246999740600586 C-59.43199920654297,27.246999740600586 -55.4640007019043,63.69200134277344 -55.4640007019043,63.69200134277344 C-55.4640007019043,63.69200134277344 -54.882999420166016,76.03199768066406 -50.236000061035156,78.93599700927734 C-50.236000061035156,78.93599700927734 -2.0329999923706055,104.1989974975586 36.5880012512207,77.48500061035156 C36.5880012512207,77.48500061035156 43.266998291015625,73.70899963378906 42.97700119018555,65.28800201416016 C42.97700119018555,65.28800201416016 46.46099853515625,31.312999725341797 46.46099853515625,31.312999725341797 C46.46099853515625,31.312999725341797 62.141998291015625,28.118999481201172 62.141998291015625,28.118999481201172 C62.141998291015625,28.118999481201172 72.88600158691406,27.246999740600586 73.1760025024414,14.470999717712402 C73.1760025024414,14.470999717712402 71.71499633789062,-55.75699996948242 71.71499633789062,-55.75699996948242 C71.71499633789062,-55.75699996948242 74.03800201416016,-73.47000122070312 59.810001373291016,-79.85800170898438 C59.810001373291016,-79.85800170898438 14.307000160217285,-104.1989974975586 14.307000160217285,-104.1989974975586 C14.307000160217285,-104.1989974975586 -11.616000175476074,-104.1989974975586 -11.616000175476074,-104.1989974975586z"></path></g><g opacity="1" transform="matrix(1,0,0,1,66.55799865722656,44.66299819946289)"><path fill="rgb(41,47,75)" fill-opacity="1" d=" M-0.546999990940094,-12.741999626159668 C-0.546999990940094,-12.741999626159668 -13.029000282287598,-1.5670000314712524 1.847000002861023,12.741999626159668 C1.847000002861023,12.741999626159668 13.029000282287598,5.580999851226807 -0.546999990940094,-12.741999626159668z"></path></g><g opacity="1" transform="matrix(1,0,0,1,97.73400115966797,65.87300109863281)"><path fill="rgb(255,208,156)" fill-opacity="1" d=" M-31.56399917602539,-24.040000915527344 C-32.5629997253418,-9.70199966430664 -32.13100051879883,5.553999900817871 -28.559999465942383,19.510000228881836 C-27.101999282836914,25.209999084472656 -25.174999237060547,33.96500015258789 -18.98900032043457,36.35200119018555 C-11.914999961853027,39.08000183105469 -3.1489999294281006,36.67900085449219 3.068000078201294,33.047000885009766 C3.068000078201294,33.047000885009766 13.456000328063965,27.97100067138672 14.27299976348877,20.44300079345703 C14.27299976348877,20.44300079345703 16.174999237060547,11.64900016784668 18.586000442504883,10.58899974822998 C18.586000442504883,10.58899974822998 24.20400047302246,8.62399959564209 25.95599937438965,5.250999927520752 C25.95599937438965,5.250999927520752 32.5629997253418,-3.311000108718872 32.5629997253418,-3.311000108718872 C32.5629997253418,-3.311000108718872 28.06599998474121,-26.957000732421875 28.06599998474121,-26.957000732421875 C28.06599998474121,-26.957000732421875 6.583000183105469,-39.07899856567383 6.583000183105469,-39.07899856567383 C6.583000183105469,-39.07899856567383 -31.56399917602539,-24.040000915527344 -31.56399917602539,-24.040000915527344z"></path></g><g opacity="1" transform="matrix(1,0,0,1,106.3010025024414,35.5620002746582)"><path fill="rgb(41,47,75)" fill-opacity="1" d=" M-38.154998779296875,8.26099967956543 C-41.624000549316406,5.3520002365112305 -43.77199935913086,0.9589999914169312 -44.31100082397461,-3.9079999923706055 C-45.63999938964844,-15.895000457763672 -36.12699890136719,-24.79199981689453 -26.702999114990234,-30.302000045776367 C-22.767000198364258,-32.60200119018555 -18.36199951171875,-34.93199920654297 -13.770999908447266,-35.48899841308594 C-10.196000099182129,-35.92399978637695 -5.324999809265137,-34.4370002746582 -5.0370001792907715,-30.047000885009766 C-5.0370001792907715,-30.04599952697754 -4.2769999504089355,-18.468000411987305 11.38599967956543,-17.836999893188477 C11.38599967956543,-17.836999893188477 45.63999938964844,-14.880999565124512 35.073001861572266,9.927000045776367 C35.073001861572266,9.927000045776367 25.70800018310547,31.672000885009766 17.389999389648438,35.5620002746582 C17.389999389648438,35.5620002746582 22.03700065612793,28.590999603271484 19.874000549316406,23.385000228881836 C19.874000549316406,23.385000228881836 16.63800048828125,17.32900047302246 11.930999755859375,25.47599983215332 C11.930999755859375,25.47599983215332 9.390000343322754,30.447999954223633 9.390000343322754,30.447999954223633 C9.390000343322754,30.447999954223633 6.202000141143799,29.8439998626709 6.202000141143799,29.8439998626709 C6.202000141143799,29.8439998626709 8.595000267028809,25.27899932861328 9.477999687194824,17.770999908447266 C9.477999687194824,17.770999908447266 11.201000213623047,7.438000202178955 4.394000053405762,0.8230000138282776 C-1.847000002861023,-5.243000030517578 -5.561999797821045,3.1470000743865967 -10.532999992370605,6.563000202178955 C-16.13800048828125,10.413999557495117 -23.30500030517578,12.619999885559082 -30.121000289916992,11.739999771118164 C-33.27199935913086,11.331999778747559 -35.9739990234375,10.09000015258789 -38.154998779296875,8.26099967956543z"></path></g><g opacity="1" transform="matrix(1,0,0,1,100.87200164794922,112.10399627685547)"><path fill="rgb(255,208,156)" fill-opacity="1" d=" M10.085000038146973,-25.496999740600586 C10.085000038146973,-25.496999740600586 8.855999946594238,-12.96399974822998 11.22599983215332,-5.000999927520752 C11.22599983215332,-5.000999927520752 16.158000946044922,0.22699999809265137 12.33899974822998,8.505999565124512 C9.305999755859375,15.081000328063965 2.7130000591278076,19.864999771118164 -2.871999979019165,24.05900001525879 C-3.5840001106262207,24.5939998626709 -4.224999904632568,25.339000701904297 -5.113999843597412,25.364999771118164 C-9.510000228881836,25.496000289916992 -12.664999961853027,18.459999084472656 -14.277999877929688,15.08899974822998 C-15.435999870300293,12.668999671936035 -16.158000946044922,10.001999855041504 -16.04199981689453,7.302999973297119 C-15.982999801635742,5.954999923706055 -15.722000122070312,4.623000144958496 -15.256999969482422,3.3570001125335693 C-14.803999900817871,2.118000030517578 -13.352999687194824,0.7110000252723694 -13.102999687194824,-0.4690000116825104 C-13.102999687194824,-0.4699999988079071 -11.128999710083008,-10.08899974822998 -11.128999710083008,-10.08899974822998 C-11.128999710083008,-10.08899974822998 10.085000038146973,-25.496999740600586 10.085000038146973,-25.496999740600586z"></path></g><g opacity="1" transform="matrix(1,0,0,1,134.33900451660156,215.10400390625)"><path stroke-linecap="butt" stroke-linejoin="miter" fill-opacity="0" stroke-miterlimit="10" stroke="rgb(56,193,118)" stroke-opacity="1" stroke-width="1" d=" M11.652000427246094,30.503999710083008 C11.652000427246094,30.503999710083008 -4.318999767303467,32.53799819946289 -4.318999767303467,32.53799819946289 C-4.318999767303467,32.53799819946289 -12.15999984741211,22.954999923706055 -10.998000144958496,9.597999572753906 C-10.998000144958496,9.597999572753906 8.748000144958496,4.078999996185303 8.748000144958496,4.078999996185303 C8.748000144958496,4.078999996185303 12.15999984741211,3.7179999351501465 11.652000427246094,-0.5649999976158142 C11.652000427246094,-0.5649999976158142 9.428999900817871,-32.53799819946289 9.428999900817871,-32.53799819946289"></path></g><g opacity="1" transform="matrix(1,0,0,1,82.19599914550781,89.072998046875)"><path fill="rgb(255,255,255)" fill-opacity="1" d=" M6.985000133514404,-2.700000047683716 C7.5370001792907715,-2.802999973297119 8.020000457763672,-2.2699999809265137 7.885000228881836,-1.6829999685287476 C6.942999839782715,2.4130001068115234 3.0889999866485596,4.488999843597412 -0.9160000085830688,4.104000091552734 C-4.947000026702881,3.7170000076293945 -7.73799991607666,0.9620000123977661 -7.9079999923706055,-3.2739999294281006 C-7.931000232696533,-3.86899995803833 -7.375,-4.289999961853027 -6.8520002365112305,-4.105000019073486 C-0.30799999833106995,-1.7890000343322754 4.829999923706055,-2.302000045776367 6.985000133514404,-2.700000047683716z"></path></g><g opacity="1" transform="matrix(1,0,0,1,73.66400146484375,63.65599822998047)"><path stroke-linecap="round" stroke-linejoin="round" fill-opacity="0" stroke="rgb(209,147,94)" stroke-opacity="1" stroke-width="2" d=" M-3.632999897003174,1.7059999704360962 C-3.632999897003174,1.7059999704360962 0.8840000033378601,-2.3980000019073486 3.632999897003174,2.3970000743865967"></path></g><g opacity="1" transform="matrix(1,0,0,1,93.54000091552734,65.38500213623047)"><path stroke-linecap="round" stroke-linejoin="round" fill-opacity="0" stroke="rgb(209,147,94)" stroke-opacity="1" stroke-width="2" d=" M-4.127999782562256,1.2790000438690186 C-4.127999782562256,1.2790000438690186 0.8399999737739563,-2.513000011444092 4.127999782562256,2.513000011444092"></path></g><g opacity="0.1" transform="matrix(1,0,0,1,99.31999969482422,100.13800048828125)"><path fill="rgb(41,47,75)" fill-opacity="1" d=" M11.406000137329102,-9.967000007629395 C11.406000137329102,-9.967000007629395 4.316999912261963,0.9440000057220459 -9.906999588012695,3.26200008392334 C-9.906999588012695,3.26200008392334 -11.406000137329102,9.958999633789062 -11.406000137329102,9.958999633789062 C-11.406000137329102,9.958999633789062 5.566999912261963,10.984000205993652 11.406000137329102,-9.967000007629395z"></path></g><g opacity="0.4" transform="matrix(1,0,0,1,77.125,193.20399475097656)"><path fill="rgb(236,239,243)" fill-opacity="1" d=" M4.183000087738037,-15.793999671936035 C4.183000087738037,-15.793999671936035 -9.701000213623047,0 -9.701000213623047,0 C-9.701000213623047,0 4.183000087738037,15.793999671936035 4.183000087738037,15.793999671936035 C4.183000087738037,15.793999671936035 9.701000213623047,10.946000099182129 9.701000213623047,10.946000099182129 C9.701000213623047,10.946000099182129 0.07699999958276749,0 0.07699999958276749,0 C0.07699999958276749,0 9.701000213623047,-10.944999694824219 9.701000213623047,-10.944999694824219 C9.701000213623047,-10.944999694824219 4.183000087738037,-15.793999671936035 4.183000087738037,-15.793999671936035z"></path></g><g opacity="0.4" transform="matrix(1,0,0,1,103.58599853515625,193.20399475097656)"><path fill="rgb(236,239,243)" fill-opacity="1" d=" M-9.699999809265137,-10.944999694824219 C-9.699999809265137,-10.944999694824219 -0.07699999958276749,0 -0.07699999958276749,0 C-0.07699999958276749,0 -9.699999809265137,10.946999549865723 -9.699999809265137,10.946999549865723 C-9.699999809265137,10.946999549865723 -4.183000087738037,15.793999671936035 -4.183000087738037,15.793999671936035 C-4.183000087738037,15.793999671936035 9.701000213623047,0 9.701000213623047,0 C9.701000213623047,0 -4.183000087738037,-15.793999671936035 -4.183000087738037,-15.793999671936035 C-4.183000087738037,-15.793999671936035 -9.699999809265137,-10.944999694824219 -9.699999809265137,-10.944999694824219z"></path></g></g><g transform="matrix(1,0,0,1,461.375,242.75)" opacity="1" style="display: block;"><g opacity="1" transform="matrix(1,0,0,1,27.108999252319336,10.619000434875488)"><path fill="rgb(255,208,156)" fill-opacity="1" d=" M-23.12700080871582,-2.7850000858306885 C-23.12700080871582,-2.7850000858306885 -18.667999267578125,-0.7519999742507935 -18.667999267578125,-0.7519999742507935 C-18.667999267578125,-0.7519999742507935 20.2810001373291,-10.619000434875488 20.2810001373291,-10.619000434875488 C20.215999603271484,-7.8979997634887695 20.482999801635742,1.9420000314712524 27.108999252319336,9.991999626159668 C27.108999252319336,9.991999626159668 -27.107999801635742,10.618000030517578 -27.107999801635742,10.618000030517578"></path></g></g><g transform="matrix(0.9945219159126282,0.10452846437692642,-0.10452846437692642,0.9945219159126282,428.9485168457031,243.1207275390625)" opacity="1" style="display: block;"><g opacity="1" transform="matrix(1,0,0,1,21.138999938964844,8.45300006866455)"><path fill="rgb(255,208,156)" fill-opacity="1" d=" M21.139999389648438,-3.194000005722046 C21.139999389648438,-3.194000005722046 16.680999755859375,-5.22599983215332 16.680999755859375,-5.22599983215332 C5.065000057220459,-10.411999702453613 -0.17900000512599945,-8.189000129699707 -2.2279999256134033,-6.497000217437744 C-3.430999994277954,-5.502999782562256 -4.59499979019165,-4.934999942779541 -6.091000080108643,-3.8940000534057617 C-10.807999610900879,-0.6140000224113464 -21.735000610351562,4.388999938964844 -21.11400032043457,7.550000190734863 C-15.496000289916992,8.704000473022461 -12.937999725341797,8.420999526977539 -12.937999725341797,8.420999526977539 C-12.937999725341797,8.420999526977539 16.72800064086914,8.097999572753906 16.72800064086914,8.097999572753906"></path></g></g><g transform="matrix(0.44999998807907104,0,0,0.44999998807907104,327.17498779296875,191.72500610351562)" opacity="0.8" style="display: block;"><g opacity="1" transform="matrix(1,0,0,1,125.76799774169922,4.190000057220459)"><path fill="rgb(255,255,255)" fill-opacity="1" d=" M0.04399999976158142,4.190000057220459 C0.04399999976158142,4.190000057220459 -0.04500000178813934,4.190000057220459 -0.04500000178813934,4.190000057220459 C-2.325000047683716,4.190000057220459 -4.189000129699707,2.3239998817443848 -4.189000129699707,0.0430000014603138 C-4.189000129699707,0.0430000014603138 -4.189000129699707,-0.04399999976158142 -4.189000129699707,-0.04399999976158142 C-4.189000129699707,-2.325000047683716 -2.325000047683716,-4.190000057220459 -0.04500000178813934,-4.190000057220459 C-0.04500000178813934,-4.190000057220459 0.04399999976158142,-4.190000057220459 0.04399999976158142,-4.190000057220459 C2.3239998817443848,-4.190000057220459 4.189000129699707,-2.325000047683716 4.189000129699707,-0.04399999976158142 C4.189000129699707,-0.04399999976158142 4.189000129699707,0.0430000014603138 4.189000129699707,0.0430000014603138 C4.189000129699707,2.3239998817443848 2.3239998817443848,4.190000057220459 0.04399999976158142,4.190000057220459z"></path></g><g opacity="1" transform="matrix(1,0,0,1,151.66299438476562,4.190000057220459)"><path fill="rgb(255,255,255)" fill-opacity="1" d=" M4.494999885559082,4.190000057220459 C4.494999885559082,4.190000057220459 -4.494999885559082,4.190000057220459 -4.494999885559082,4.190000057220459 C-6.776000022888184,4.190000057220459 -8.642000198364258,2.325000047683716 -8.642000198364258,0.0430000014603138 C-8.642000198364258,0.0430000014603138 -8.642000198364258,-0.04399999976158142 -8.642000198364258,-0.04399999976158142 C-8.642000198364258,-2.3239998817443848 -6.776000022888184,-4.190000057220459 -4.494999885559082,-4.190000057220459 C-4.494999885559082,-4.190000057220459 4.494999885559082,-4.190000057220459 4.494999885559082,-4.190000057220459 C6.775000095367432,-4.190000057220459 8.640999794006348,-2.3239998817443848 8.640999794006348,-0.04399999976158142 C8.640999794006348,-0.04399999976158142 8.640999794006348,0.0430000014603138 8.640999794006348,0.0430000014603138 C8.640999794006348,2.325000047683716 6.775000095367432,4.190000057220459 4.494999885559082,4.190000057220459z"></path></g><g opacity="1" transform="matrix(1,0,0,1,96.66100311279297,4.190999984741211)"><path fill="rgb(255,255,255)" fill-opacity="1" d=" M10.298999786376953,4.145999908447266 C10.298999786376953,4.145999908447266 -10.29800033569336,4.145999908447266 -10.29800033569336,4.145999908447266 C-12.579000473022461,4.145999908447266 -14.444999694824219,2.2799999713897705 -14.444999694824219,0 C-14.444999694824219,-2.2799999713897705 -12.579000473022461,-4.145999908447266 -10.29800033569336,-4.145999908447266 C-10.29800033569336,-4.145999908447266 10.298999786376953,-4.145999908447266 10.298999786376953,-4.145999908447266 C12.579999923706055,-4.145999908447266 14.444999694824219,-2.2799999713897705 14.444999694824219,0 C14.444999694824219,2.2799999713897705 12.579999923706055,4.145999908447266 10.298999786376953,4.145999908447266z"></path></g><g opacity="1" transform="matrix(1,0,0,1,42.86600112915039,4.190000057220459)"><path fill="rgb(255,255,255)" fill-opacity="1" d=" M4.494999885559082,4.190999984741211 C4.494999885559082,4.190999984741211 -4.494999885559082,4.190999984741211 -4.494999885559082,4.190999984741211 C-6.775000095367432,4.190999984741211 -8.642000198364258,2.325000047683716 -8.642000198364258,0.04399999976158142 C-8.642000198364258,0.04399999976158142 -8.642000198364258,-0.04399999976158142 -8.642000198364258,-0.04399999976158142 C-8.642000198364258,-2.325000047683716 -6.775000095367432,-4.190999984741211 -4.494999885559082,-4.190999984741211 C-4.494999885559082,-4.190999984741211 4.494999885559082,-4.190999984741211 4.494999885559082,-4.190999984741211 C6.775000095367432,-4.190999984741211 8.640999794006348,-2.325000047683716 8.640999794006348,-0.04399999976158142 C8.640999794006348,-0.04399999976158142 8.640999794006348,0.04399999976158142 8.640999794006348,0.04399999976158142 C8.640999794006348,2.325000047683716 6.775000095367432,4.190999984741211 4.494999885559082,4.190999984741211z"></path></g><g opacity="1" transform="matrix(1,0,0,1,172.3979949951172,4.190000057220459)"><path fill="rgb(255,255,255)" fill-opacity="1" d=" M0.04399999976158142,4.190000057220459 C0.04399999976158142,4.190000057220459 -0.04399999976158142,4.190000057220459 -0.04399999976158142,4.190000057220459 C-2.3239998817443848,4.190000057220459 -4.190000057220459,2.3239998817443848 -4.190000057220459,0.0430000014603138 C-4.190000057220459,0.0430000014603138 -4.190000057220459,-0.04399999976158142 -4.190000057220459,-0.04399999976158142 C-4.190000057220459,-2.325000047683716 -2.3239998817443848,-4.190000057220459 -0.04399999976158142,-4.190000057220459 C-0.04399999976158142,-4.190000057220459 0.04399999976158142,-4.190000057220459 0.04399999976158142,-4.190000057220459 C2.3239998817443848,-4.190000057220459 4.190000057220459,-2.325000047683716 4.190000057220459,-0.04399999976158142 C4.190000057220459,-0.04399999976158142 4.190000057220459,0.0430000014603138 4.190000057220459,0.0430000014603138 C4.190000057220459,2.3239998817443848 2.3239998817443848,4.190000057220459 0.04399999976158142,4.190000057220459z"></path></g><g opacity="1" transform="matrix(1,0,0,1,68.95999908447266,4.190999984741211)"><path fill="rgb(255,255,255)" fill-opacity="1" d=" M0.04399999976158142,4.189000129699707 C0.04399999976158142,4.189000129699707 -0.04399999976158142,4.189000129699707 -0.04399999976158142,4.189000129699707 C-2.3239998817443848,4.189000129699707 -4.190000057220459,2.325000047683716 -4.190000057220459,0.04399999976158142 C-4.190000057220459,0.04399999976158142 -4.190000057220459,-0.04399999976158142 -4.190000057220459,-0.04399999976158142 C-4.190000057220459,-2.3239998817443848 -2.3239998817443848,-4.189000129699707 -0.04399999976158142,-4.189000129699707 C-0.04399999976158142,-4.189000129699707 0.04399999976158142,-4.189000129699707 0.04399999976158142,-4.189000129699707 C2.3239998817443848,-4.189000129699707 4.190000057220459,-2.3239998817443848 4.190000057220459,-0.04399999976158142 C4.190000057220459,-0.04399999976158142 4.190000057220459,0.04399999976158142 4.190000057220459,0.04399999976158142 C4.190000057220459,2.325000047683716 2.3239998817443848,4.189000129699707 0.04399999976158142,4.189000129699707z"></path></g><g opacity="1" transform="matrix(1,0,0,1,3.6480000019073486,4.190000057220459)"><path fill="rgb(255,255,255)" fill-opacity="1" d=" M-3.6480000019073486,-3.7990000247955322 C-3.6480000019073486,-3.7990000247955322 -3.6480000019073486,3.799999952316284 -3.6480000019073486,3.799999952316284 C-3.6480000019073486,4.1020002365112305 -3.319999933242798,4.289000034332275 -3.059000015258789,4.136000156402588 C-3.059000015258789,4.136000156402588 3.3919999599456787,0.3370000123977661 3.3919999599456787,0.3370000123977661 C3.6480000019073486,0.1860000044107437 3.6480000019073486,-0.1850000023841858 3.3919999599456787,-0.335999995470047 C3.3919999599456787,-0.335999995470047 -3.059000015258789,-4.135000228881836 -3.059000015258789,-4.135000228881836 C-3.319999933242798,-4.289000034332275 -3.6480000019073486,-4.10099983215332 -3.6480000019073486,-3.7990000247955322z"></path></g></g><g transform="matrix(0.44999998807907104,0,0,0.44999998807907104,323.3500061035156,176.30833435058594)" opacity="0.8" style="display: block;"><g opacity="1" transform="matrix(1,0,0,1,175.4040069580078,4.190000057220459)"><path fill="rgb(255,255,255)" fill-opacity="1" d=" M13.57699966430664,4.190000057220459 C13.57699966430664,4.190000057220459 -13.57699966430664,4.190000057220459 -13.57699966430664,4.190000057220459 C-15.857999801635742,4.190000057220459 -17.722999572753906,2.3239998817443848 -17.722999572753906,0.0430000014603138 C-17.722999572753906,0.0430000014603138 -17.722999572753906,-0.04399999976158142 -17.722999572753906,-0.04399999976158142 C-17.722999572753906,-2.3239998817443848 -15.857999801635742,-4.190999984741211 -13.57699966430664,-4.190999984741211 C-13.57699966430664,-4.190999984741211 13.57699966430664,-4.190999984741211 13.57699966430664,-4.190999984741211 C15.857999801635742,-4.190999984741211 17.724000930786133,-2.3239998817443848 17.724000930786133,-0.04399999976158142 C17.724000930786133,-0.04399999976158142 17.724000930786133,0.0430000014603138 17.724000930786133,0.0430000014603138 C17.724000930786133,2.3239998817443848 15.857999801635742,4.190000057220459 13.57699966430664,4.190000057220459z"></path></g><g opacity="1" transform="matrix(1,0,0,1,67.56800079345703,4.190000057220459)"><path fill="rgb(255,255,255)" fill-opacity="1" d=" M8.270999908447266,4.190000057220459 C8.270999908447266,4.190000057220459 -8.27299976348877,4.190000057220459 -8.27299976348877,4.190000057220459 C-10.553000450134277,4.190000057220459 -12.416999816894531,2.325000047683716 -12.416999816894531,0.0430000014603138 C-12.416999816894531,0.0430000014603138 -12.416999816894531,-0.04399999976158142 -12.416999816894531,-0.04399999976158142 C-12.416999816894531,-2.3239998817443848 -10.553000450134277,-4.190000057220459 -8.27299976348877,-4.190000057220459 C-8.27299976348877,-4.190000057220459 8.270999908447266,-4.190000057220459 8.270999908447266,-4.190000057220459 C10.550999641418457,-4.190000057220459 12.416999816894531,-2.3239998817443848 12.416999816894531,-0.04399999976158142 C12.416999816894531,-0.04399999976158142 12.416999816894531,0.0430000014603138 12.416999816894531,0.0430000014603138 C12.416999816894531,2.325000047683716 10.550999641418457,4.190000057220459 8.270999908447266,4.190000057220459z"></path></g><g opacity="1" transform="matrix(1,0,0,1,123.1780014038086,4.190000057220459)"><path fill="rgb(255,255,255)" fill-opacity="1" d=" M4.494999885559082,4.190000057220459 C4.494999885559082,4.190000057220459 -4.494999885559082,4.190000057220459 -4.494999885559082,4.190000057220459 C-6.776000022888184,4.190000057220459 -8.642000198364258,2.325000047683716 -8.642000198364258,0.0430000014603138 C-8.642000198364258,0.0430000014603138 -8.642000198364258,-0.04399999976158142 -8.642000198364258,-0.04399999976158142 C-8.642000198364258,-2.3239998817443848 -6.776000022888184,-4.190000057220459 -4.494999885559082,-4.190000057220459 C-4.494999885559082,-4.190000057220459 4.494999885559082,-4.190000057220459 4.494999885559082,-4.190000057220459 C6.775000095367432,-4.190000057220459 8.640999794006348,-2.3239998817443848 8.640999794006348,-0.04399999976158142 C8.640999794006348,-0.04399999976158142 8.640999794006348,0.0430000014603138 8.640999794006348,0.0430000014603138 C8.640999794006348,2.325000047683716 6.775000095367432,4.190000057220459 4.494999885559082,4.190000057220459z"></path></g><g opacity="1" transform="matrix(1,0,0,1,38.67599868774414,4.190999984741211)"><path fill="rgb(255,255,255)" fill-opacity="1" d=" M0.04399999976158142,4.189000129699707 C0.04399999976158142,4.189000129699707 -0.04399999976158142,4.189000129699707 -0.04399999976158142,4.189000129699707 C-2.3239998817443848,4.189000129699707 -4.189000129699707,2.325000047683716 -4.189000129699707,0.04399999976158142 C-4.189000129699707,0.04399999976158142 -4.189000129699707,-0.04399999976158142 -4.189000129699707,-0.04399999976158142 C-4.189000129699707,-2.3239998817443848 -2.3239998817443848,-4.189000129699707 -0.04399999976158142,-4.189000129699707 C-0.04399999976158142,-4.189000129699707 0.04399999976158142,-4.189000129699707 0.04399999976158142,-4.189000129699707 C2.325000047683716,-4.189000129699707 4.189000129699707,-2.3239998817443848 4.189000129699707,-0.04399999976158142 C4.189000129699707,-0.04399999976158142 4.189000129699707,0.04399999976158142 4.189000129699707,0.04399999976158142 C4.189000129699707,2.325000047683716 2.325000047683716,4.189000129699707 0.04399999976158142,4.189000129699707z"></path></g><g opacity="1" transform="matrix(1,0,0,1,94.30999755859375,4.190000057220459)"><path fill="rgb(255,255,255)" fill-opacity="1" d=" M0.04399999976158142,4.190000057220459 C0.04399999976158142,4.190000057220459 -0.04500000178813934,4.190000057220459 -0.04500000178813934,4.190000057220459 C-2.325000047683716,4.190000057220459 -4.189000129699707,2.325000047683716 -4.189000129699707,0.0430000014603138 C-4.189000129699707,0.0430000014603138 -4.189000129699707,-0.04399999976158142 -4.189000129699707,-0.04399999976158142 C-4.189000129699707,-2.3239998817443848 -2.325000047683716,-4.190000057220459 -0.04500000178813934,-4.190000057220459 C-0.04500000178813934,-4.190000057220459 0.04399999976158142,-4.190000057220459 0.04399999976158142,-4.190000057220459 C2.325000047683716,-4.190000057220459 4.189000129699707,-2.3239998817443848 4.189000129699707,-0.04399999976158142 C4.189000129699707,-0.04399999976158142 4.189000129699707,0.0430000014603138 4.189000129699707,0.0430000014603138 C4.189000129699707,2.325000047683716 2.325000047683716,4.190000057220459 0.04399999976158142,4.190000057220459z"></path></g><g opacity="1" transform="matrix(1,0,0,1,144.51300048828125,4.190000057220459)"><path fill="rgb(255,255,255)" fill-opacity="1" d=" M0.0430000014603138,4.190000057220459 C0.0430000014603138,4.190000057220459 -0.04399999976158142,4.190000057220459 -0.04399999976158142,4.190000057220459 C-2.3239998817443848,4.190000057220459 -4.189000129699707,2.325000047683716 -4.189000129699707,0.04399999976158142 C-4.189000129699707,0.04399999976158142 -4.189000129699707,-0.0430000014603138 -4.189000129699707,-0.0430000014603138 C-4.189000129699707,-2.3239998817443848 -2.3239998817443848,-4.190000057220459 -0.04399999976158142,-4.190000057220459 C-0.04399999976158142,-4.190000057220459 0.0430000014603138,-4.190000057220459 0.0430000014603138,-4.190000057220459 C2.325000047683716,-4.190000057220459 4.189000129699707,-2.3239998817443848 4.189000129699707,-0.0430000014603138 C4.189000129699707,-0.0430000014603138 4.189000129699707,0.04399999976158142 4.189000129699707,0.04399999976158142 C4.189000129699707,2.325000047683716 2.325000047683716,4.190000057220459 0.0430000014603138,4.190000057220459z"></path></g><g opacity="1" transform="matrix(1,0,0,1,3.6480000019073486,4.190000057220459)"><path fill="rgb(255,255,255)" fill-opacity="1" d=" M-3.6480000019073486,-3.7990000247955322 C-3.6480000019073486,-3.7990000247955322 -3.6480000019073486,3.799999952316284 -3.6480000019073486,3.799999952316284 C-3.6480000019073486,4.1020002365112305 -3.319999933242798,4.289000034332275 -3.059000015258789,4.136000156402588 C-3.059000015258789,4.136000156402588 3.3919999599456787,0.3370000123977661 3.3919999599456787,0.3370000123977661 C3.6480000019073486,0.1860000044107437 3.6480000019073486,-0.1850000023841858 3.3919999599456787,-0.335999995470047 C3.3919999599456787,-0.335999995470047 -3.059000015258789,-4.135000228881836 -3.059000015258789,-4.135000228881836 C-3.319999933242798,-4.289000034332275 -3.6480000019073486,-4.10099983215332 -3.6480000019073486,-3.7990000247955322z"></path></g></g><g transform="matrix(0.44999998807907104,0,0,0.44999998807907104,323.79998779296875,158.4250030517578)" opacity="0.8" style="display: block;"><g opacity="1" transform="matrix(1,0,0,1,187.58200073242188,4.190999984741211)"><path fill="rgb(255,255,255)" fill-opacity="1" d=" M0.04399999976158142,4.189000129699707 C0.04399999976158142,4.189000129699707 -0.04500000178813934,4.189000129699707 -0.04500000178813934,4.189000129699707 C-2.325000047683716,4.189000129699707 -4.190000057220459,2.325000047683716 -4.190000057220459,0.04399999976158142 C-4.190000057220459,0.04399999976158142 -4.190000057220459,-0.04399999976158142 -4.190000057220459,-0.04399999976158142 C-4.190000057220459,-2.3239998817443848 -2.325000047683716,-4.189000129699707 -0.04500000178813934,-4.189000129699707 C-0.04500000178813934,-4.189000129699707 0.04399999976158142,-4.189000129699707 0.04399999976158142,-4.189000129699707 C2.3239998817443848,-4.189000129699707 4.190000057220459,-2.3239998817443848 4.190000057220459,-0.04399999976158142 C4.190000057220459,-0.04399999976158142 4.190000057220459,0.04399999976158142 4.190000057220459,0.04399999976158142 C4.190000057220459,2.325000047683716 2.3239998817443848,4.189000129699707 0.04399999976158142,4.189000129699707z"></path></g><g opacity="1" transform="matrix(1,0,0,1,52.20899963378906,4.190000057220459)"><path fill="rgb(255,255,255)" fill-opacity="1" d=" M13.57699966430664,4.190999984741211 C13.57699966430664,4.190999984741211 -13.576000213623047,4.190999984741211 -13.576000213623047,4.190999984741211 C-15.857000350952148,4.190999984741211 -17.722999572753906,2.325000047683716 -17.722999572753906,0.04399999976158142 C-17.722999572753906,0.04399999976158142 -17.722999572753906,-0.04399999976158142 -17.722999572753906,-0.04399999976158142 C-17.722999572753906,-2.325000047683716 -15.857000350952148,-4.190999984741211 -13.576000213623047,-4.190999984741211 C-13.576000213623047,-4.190999984741211 13.57699966430664,-4.190999984741211 13.57699966430664,-4.190999984741211 C15.857000350952148,-4.190999984741211 17.722999572753906,-2.325000047683716 17.722999572753906,-0.04399999976158142 C17.722999572753906,-0.04399999976158142 17.722999572753906,0.04399999976158142 17.722999572753906,0.04399999976158142 C17.722999572753906,2.325000047683716 15.857000350952148,4.190999984741211 13.57699966430664,4.190999984741211z"></path></g><g opacity="1" transform="matrix(1,0,0,1,86.40699768066406,4.190000057220459)"><path fill="rgb(255,255,255)" fill-opacity="1" d=" M0.0430000014603138,4.190999984741211 C0.0430000014603138,4.190999984741211 -0.04399999976158142,4.190999984741211 -0.04399999976158142,4.190999984741211 C-2.3239998817443848,4.190999984741211 -4.190000057220459,2.325000047683716 -4.190000057220459,0.04399999976158142 C-4.190000057220459,0.04399999976158142 -4.190000057220459,-0.04399999976158142 -4.190000057220459,-0.04399999976158142 C-4.190000057220459,-2.325000047683716 -2.3239998817443848,-4.190999984741211 -0.04399999976158142,-4.190999984741211 C-0.04399999976158142,-4.190999984741211 0.0430000014603138,-4.190999984741211 0.0430000014603138,-4.190999984741211 C2.322999954223633,-4.190999984741211 4.190000057220459,-2.325000047683716 4.190000057220459,-0.04399999976158142 C4.190000057220459,-0.04399999976158142 4.190000057220459,0.04399999976158142 4.190000057220459,0.04399999976158142 C4.190000057220459,2.325000047683716 2.322999954223633,4.190999984741211 0.0430000014603138,4.190999984741211z"></path></g><g opacity="1" transform="matrix(1,0,0,1,166.10899353027344,4.190000057220459)"><path fill="rgb(255,255,255)" fill-opacity="1" d=" M4.495999813079834,4.190000057220459 C4.495999813079834,4.190000057220459 -4.49399995803833,4.190000057220459 -4.49399995803833,4.190000057220459 C-6.775000095367432,4.190000057220459 -8.640999794006348,2.325000047683716 -8.640999794006348,0.0430000014603138 C-8.640999794006348,0.0430000014603138 -8.640999794006348,-0.04399999976158142 -8.640999794006348,-0.04399999976158142 C-8.640999794006348,-2.3239998817443848 -6.775000095367432,-4.190000057220459 -4.49399995803833,-4.190000057220459 C-4.49399995803833,-4.190000057220459 4.495999813079834,-4.190000057220459 4.495999813079834,-4.190000057220459 C6.776000022888184,-4.190000057220459 8.642000198364258,-2.3239998817443848 8.642000198364258,-0.04399999976158142 C8.642000198364258,-0.04399999976158142 8.642000198364258,0.0430000014603138 8.642000198364258,0.0430000014603138 C8.642000198364258,2.325000047683716 6.776000022888184,4.190000057220459 4.495999813079834,4.190000057220459z"></path></g><g opacity="1" transform="matrix(1,0,0,1,114.53700256347656,4.190999984741211)"><path fill="rgb(255,255,255)" fill-opacity="1" d=" M10.29800033569336,4.145999908447266 C10.29800033569336,4.145999908447266 -10.29800033569336,4.145999908447266 -10.29800033569336,4.145999908447266 C-12.57800006866455,4.145999908447266 -14.444999694824219,2.2809998989105225 -14.444999694824219,0 C-14.444999694824219,-2.2799999713897705 -12.57800006866455,-4.145999908447266 -10.29800033569336,-4.145999908447266 C-10.29800033569336,-4.145999908447266 10.29800033569336,-4.145999908447266 10.29800033569336,-4.145999908447266 C12.579999923706055,-4.145999908447266 14.444999694824219,-2.2799999713897705 14.444999694824219,0 C14.444999694824219,2.2809998989105225 12.579999923706055,4.145999908447266 10.29800033569336,4.145999908447266z"></path></g><g opacity="1" transform="matrix(1,0,0,1,144.51300048828125,4.190000057220459)"><path fill="rgb(255,255,255)" fill-opacity="1" d=" M0.0430000014603138,4.190000057220459 C0.0430000014603138,4.190000057220459 -0.04399999976158142,4.190000057220459 -0.04399999976158142,4.190000057220459 C-2.3239998817443848,4.190000057220459 -4.189000129699707,2.325000047683716 -4.189000129699707,0.04399999976158142 C-4.189000129699707,0.04399999976158142 -4.189000129699707,-0.0430000014603138 -4.189000129699707,-0.0430000014603138 C-4.189000129699707,-2.3239998817443848 -2.3239998817443848,-4.190000057220459 -0.04399999976158142,-4.190000057220459 C-0.04399999976158142,-4.190000057220459 0.0430000014603138,-4.190000057220459 0.0430000014603138,-4.190000057220459 C2.325000047683716,-4.190000057220459 4.189000129699707,-2.3239998817443848 4.189000129699707,-0.0430000014603138 C4.189000129699707,-0.0430000014603138 4.189000129699707,0.04399999976158142 4.189000129699707,0.04399999976158142 C4.189000129699707,2.325000047683716 2.325000047683716,4.190000057220459 0.0430000014603138,4.190000057220459z"></path></g><g opacity="1" transform="matrix(1,0,0,1,3.6480000019073486,4.190000057220459)"><path fill="rgb(255,255,255)" fill-opacity="1" d=" M-3.6480000019073486,-3.7990000247955322 C-3.6480000019073486,-3.7990000247955322 -3.6480000019073486,3.799999952316284 -3.6480000019073486,3.799999952316284 C-3.6480000019073486,4.1020002365112305 -3.319999933242798,4.289000034332275 -3.059000015258789,4.136000156402588 C-3.059000015258789,4.136000156402588 3.3919999599456787,0.3370000123977661 3.3919999599456787,0.3370000123977661 C3.6480000019073486,0.1860000044107437 3.6480000019073486,-0.1850000023841858 3.3919999599456787,-0.335999995470047 C3.3919999599456787,-0.335999995470047 -3.059000015258789,-4.135000228881836 -3.059000015258789,-4.135000228881836 C-3.319999933242798,-4.289000034332275 -3.6480000019073486,-4.10099983215332 -3.6480000019073486,-3.7990000247955322z"></path></g></g><g transform="matrix(1,0,0,1,313.125,186.75)" opacity="1" style="display: block;"><g opacity="1" transform="matrix(1,0,0,1,80.43599700927734,42.68600082397461)"><path fill="rgb(251,249,247)" fill-opacity="1" d=" M-80.43599700927734,-42.6870002746582 C-80.43599700927734,-42.6870002746582 -56.04399871826172,42.6870002746582 -56.04399871826172,42.6870002746582 C-56.04399871826172,42.6870002746582 80.43599700927734,42.6870002746582 80.43599700927734,42.6870002746582 C80.43599700927734,42.6870002746582 80.43599700927734,33.974998474121094 80.43599700927734,33.974998474121094 C80.43599700927734,33.974998474121094 43.266998291015625,33.974998474121094 43.266998291015625,33.974998474121094 C43.266998291015625,33.974998474121094 25.8439998626709,-42.6870002746582 25.8439998626709,-42.6870002746582 C25.8439998626709,-42.6870002746582 -80.43599700927734,-42.6870002746582 -80.43599700927734,-42.6870002746582z"></path></g><g opacity="1" transform="matrix(1,0,0,1,62.56100082397461,39.862998962402344)"><path fill="rgb(236,239,243)" fill-opacity="1" d=" M7.775000095367432,0 C7.775000095367432,4.294000148773193 4.294000148773193,7.775000095367432 -0.0010000000474974513,7.775000095367432 C-4.295000076293945,7.775000095367432 -7.775000095367432,4.294000148773193 -7.775000095367432,0 C-7.775000095367432,-4.295000076293945 -4.295000076293945,-7.775000095367432 -0.0010000000474974513,-7.775000095367432 C4.294000148773193,-7.775000095367432 7.775000095367432,-4.295000076293945 7.775000095367432,0z"></path></g></g><g transform="matrix(0.9753400087356567,0,0,0.9753400087356567,313.0697326660156,137.9285888671875)" opacity="1" style="display: block;"><g opacity="1" transform="matrix(1,0,0,1,88.56300354003906,62.63999938964844)"><path fill="url(#__lottie_element_42)" fill-opacity="1" d=" M-62.54199981689453,-62.63999938964844 C-62.54199981689453,-62.63999938964844 -88.56300354003906,-14.020999908447266 -88.56300354003906,-14.020999908447266 C-88.56300354003906,-14.020999908447266 35.14099884033203,62.63999938964844 35.14099884033203,62.63999938964844 C35.14099884033203,62.63999938964844 88.56300354003906,-58.64799880981445 88.56300354003906,-58.64799880981445 C88.56300354003906,-58.64799880981445 -62.507999420166016,-62.63999938964844 -62.507999420166016,-62.63999938964844 C-62.507999420166016,-62.63999938964844 -62.54199981689453,-62.63999938964844 -62.54199981689453,-62.63999938964844z"></path></g></g></g></svg>