<svg xmlns="http://www.w3.org/2000/svg" viewBox="0 0 450 475" width="450" height="475" preserveAspectRatio="xMidYMid slice" style="width: 100%; height: 100%; transform: translate3d(0px, 0px, 0px);"><defs><clipPath id="__lottie_element_132"><rect width="450" height="475" x="0" y="0"></rect></clipPath><linearGradient id="__lottie_element_149" spreadMethod="pad" gradientUnits="userSpaceOnUse" x1="4.709899425506592" y1="-15.419798851013184" x2="5.25" y2="34.75"><stop offset="0%" stop-color="rgb(255,255,255)" stop-opacity="0"></stop><stop offset="50%" stop-color="rgb(255,255,255)" stop-opacity="0.10000000149011612"></stop><stop offset="100%" stop-color="rgb(255,255,255)" stop-opacity="0.20000000298023224"></stop></linearGradient></defs><g clip-path="url(#__lottie_element_132)"><g transform="matrix(1,0,0,1,10,14)" opacity="1" style="display: block;"><g opacity="1" transform="matrix(1,0,0,1,223.47900390625,124.18699645996094)"><path fill="rgb(236,239,243)" fill-opacity="1" d=" M137.7790069580078,28.334999084472656 C137.7790069580078,28.334999084472656 -137.7790069580078,28.334999084472656 -137.7790069580078,28.334999084472656 C-137.7790069580078,28.334999084472656 -137.7790069580078,-28.334999084472656 -137.7790069580078,-28.334999084472656 C-137.7790069580078,-28.334999084472656 137.7790069580078,-28.334999084472656 137.7790069580078,-28.334999084472656 C137.7790069580078,-28.334999084472656 137.7790069580078,28.334999084472656 137.7790069580078,28.334999084472656z"></path></g><g opacity="1" transform="matrix(1,0,0,1,30.809999465942383,316.02301025390625)"><path fill="rgb(236,239,243)" fill-opacity="1" d=" M-30.80900001525879,28.334999084472656 C-30.80900001525879,28.334999084472656 30.80900001525879,28.334999084472656 30.80900001525879,28.334999084472656 C30.80900001525879,28.334999084472656 30.80900001525879,-28.336000442504883 30.80900001525879,-28.336000442504883 C30.80900001525879,-28.336000442504883 -30.80900001525879,-28.336000442504883 -30.80900001525879,-28.336000442504883 C-30.80900001525879,-28.336000442504883 -30.80900001525879,28.334999084472656 -30.80900001525879,28.334999084472656z"></path></g><g opacity="1" transform="matrix(1,0,0,1,193.33599853515625,315.88800048828125)"><path fill="rgb(236,239,243)" fill-opacity="1" d=" M109.0999984741211,28.336000442504883 C109.0999984741211,28.336000442504883 -109.10099792480469,28.336000442504883 -109.10099792480469,28.336000442504883 C-109.10099792480469,28.336000442504883 -109.10099792480469,-28.334999084472656 -109.10099792480469,-28.334999084472656 C-109.10099792480469,-28.334999084472656 109.0999984741211,-28.334999084472656 109.0999984741211,-28.334999084472656 C109.0999984741211,-28.334999084472656 109.0999984741211,28.336000442504883 109.0999984741211,28.336000442504883z"></path></g><g opacity="1" transform="matrix(1,0,0,1,91.41200256347656,28.336000442504883)"><path fill="rgb(236,239,243)" fill-opacity="1" d=" M-91.41100311279297,28.334999084472656 C-91.41100311279297,28.334999084472656 91.41100311279297,28.334999084472656 91.41100311279297,28.334999084472656 C91.41100311279297,28.334999084472656 91.41100311279297,-28.334999084472656 91.41100311279297,-28.334999084472656 C91.41100311279297,-28.334999084472656 -91.41100311279297,-28.334999084472656 -91.41100311279297,-28.334999084472656 C-91.41100311279297,-28.334999084472656 -91.41100311279297,28.334999084472656 -91.41100311279297,28.334999084472656z"></path></g><g opacity="1" transform="matrix(1,0,0,1,342.44000244140625,411.73699951171875)"><path fill="rgb(236,239,243)" fill-opacity="1" d=" M-55.41899871826172,28.336000442504883 C-55.41899871826172,28.336000442504883 55.417999267578125,28.336000442504883 55.417999267578125,28.336000442504883 C55.417999267578125,28.336000442504883 55.417999267578125,-28.334999084472656 55.417999267578125,-28.334999084472656 C55.417999267578125,-28.334999084472656 -55.41899871826172,-28.334999084472656 -55.41899871826172,-28.334999084472656 C-55.41899871826172,-28.334999084472656 -55.41899871826172,28.336000442504883 -55.41899871826172,28.336000442504883z"></path></g><g opacity="1" transform="matrix(1,0,0,1,127.56500244140625,411.739990234375)"><path fill="rgb(236,239,243)" fill-opacity="1" d=" M-127.56400299072266,28.336000442504883 C-127.56400299072266,28.336000442504883 127.56400299072266,28.336000442504883 127.56400299072266,28.336000442504883 C127.56400299072266,28.336000442504883 127.56400299072266,-28.334999084472656 127.56400299072266,-28.334999084472656 C127.56400299072266,-28.334999084472656 -127.56400299072266,-28.334999084472656 -127.56400299072266,-28.334999084472656 C-127.56400299072266,-28.334999084472656 -127.56400299072266,28.336000442504883 -127.56400299072266,28.336000442504883z"></path></g><g opacity="1" transform="matrix(1,0,0,1,399.1789855957031,220.03599548339844)"><path fill="rgb(236,239,243)" fill-opacity="1" d=" M-32.82099914550781,28.336000442504883 C-32.82099914550781,28.336000442504883 32.82099914550781,28.336000442504883 32.82099914550781,28.336000442504883 C32.82099914550781,28.336000442504883 32.82099914550781,-28.334999084472656 32.82099914550781,-28.334999084472656 C32.82099914550781,-28.334999084472656 -32.82099914550781,-28.334999084472656 -32.82099914550781,-28.334999084472656 C-32.82099914550781,-28.334999084472656 -32.82099914550781,28.336000442504883 -32.82099914550781,28.336000442504883z"></path></g><g opacity="1" transform="matrix(1,0,0,1,181.12399291992188,220.03599548339844)"><path fill="rgb(236,239,243)" fill-opacity="1" d=" M150.31399536132812,28.336000442504883 C150.31399536132812,28.336000442504883 -150.31399536132812,28.336000442504883 -150.31399536132812,28.336000442504883 C-150.31399536132812,28.336000442504883 -150.31399536132812,-28.334999084472656 -150.31399536132812,-28.334999084472656 C-150.31399536132812,-28.334999084472656 150.31399536132812,-28.334999084472656 150.31399536132812,-28.334999084472656 C150.31399536132812,-28.334999084472656 150.31399536132812,28.336000442504883 150.31399536132812,28.336000442504883z"></path></g></g><g transform="matrix(0.8100000023841858,0,0,0.8100000023841858,273.88800048828125,101.17999267578125)" opacity="1" style="display: block;"><g opacity="1" transform="matrix(1,0,0,1,13.944999694824219,9.397000312805176)"><path fill="rgb(105,144,214)" fill-opacity="1" d=" M2.2190001010894775,-6.770999908447266 C2.2190001010894775,-6.770999908447266 2.2170000076293945,-4.890999794006348 2.2170000076293945,-4.890999794006348 C2.2170000076293945,-4.64900016784668 2.0339999198913574,-4.446000099182129 1.7940000295639038,-4.422999858856201 C-0.4569999873638153,-4.210000038146973 -2.2190001010894775,-2.315000057220459 -2.2190001010894775,-0.00800000037997961 C-2.2200000286102295,2.299999952316284 -0.460999995470047,4.197000026702881 1.7899999618530273,4.410999774932861 C2.0320000648498535,4.434000015258789 2.2139999866485596,4.636000156402588 2.2139999866485596,4.877999782562256 C2.2139999866485596,4.877999782562256 2.2149999141693115,6.770999908447266 2.2149999141693115,6.770999908447266"></path></g><g opacity="1" transform="matrix(1,0,0,1,25.503000259399414,9.397000312805176)"><path fill="rgb(105,144,214)" fill-opacity="1" d=" M-9.437000274658203,6.770999908447266 C-9.437999725341797,8.208999633789062 -8.159000396728516,9.385000228881836 -6.7210001945495605,9.385000228881836 C-6.7210001945495605,9.385000228881836 -4.921000003814697,9.378999710083008 -4.921000003814697,9.378999710083008 C-4.629000186920166,9.378999710083008 -4.389999866485596,9.156999588012695 -4.35699987411499,8.868000030517578 C-4.104000091552734,6.6570000648498535 -2.2260000705718994,4.940999984741211 0.050999999046325684,4.941999912261963 C2.328000068664551,4.941999912261963 4.204999923706055,6.658999919891357 4.456999778747559,8.869999885559082 C4.489999771118164,9.159000396728516 4.729000091552734,9.380999565124512 5.019999980926514,9.381999969482422 C5.019999980926514,9.381999969482422 6.821000099182129,9.387999534606934 6.821000099182129,9.387999534606934 C8.258999824523926,9.388999938964844 9.4350004196167,8.211000442504883 9.435999870300293,6.7729997634887695 C9.435999870300293,6.7729997634887695 9.435999870300293,4.9679999351501465 9.435999870300293,4.9679999351501465 C9.4350004196167,4.676000118255615 9.213000297546387,4.435999870300293 8.923999786376953,4.4019999504089355 C6.714000225067139,4.1479997634887695 5,2.2720000743865967 5.000999927520752,-0.006000000052154064 C5.000999927520752,-2.2829999923706055 6.716000080108643,-4.158999919891357 8.925999641418457,-4.413000106811523 C9.215999603271484,-4.446000099182129 9.437999725341797,-4.685999870300293 9.437999725341797,-4.978000164031982 C9.437999725341797,-4.978000164031982 9.439000129699707,-6.769999980926514 9.439000129699707,-6.769999980926514 C9.439000129699707,-8.208000183105469 8.262999534606934,-9.385000228881836 6.826000213623047,-9.385000228881836 C6.826000213623047,-9.385000228881836 5.026000022888184,-9.38599967956543 5.026000022888184,-9.38599967956543 C4.735000133514404,-9.38599967956543 4.494999885559082,-9.164999961853027 4.460000038146973,-8.875 C4.203999996185303,-6.668000221252441 2.328000068664551,-4.955999851226807 0.05299999937415123,-4.956999778747559 C-2.2209999561309814,-4.956999778747559 -4.0960001945495605,-6.670000076293945 -4.3520002365112305,-8.876999855041504 C-4.385000228881836,-9.166999816894531 -4.625,-9.387999534606934 -4.916999816894531,-9.387999534606934 C-4.916999816894531,-9.387999534606934 -6.716000080108643,-9.388999938964844 -6.716000080108643,-9.388999938964844 C-8.154000282287598,-9.388999938964844 -9.331999778747559,-8.211999893188477 -9.331999778747559,-6.77400016784668"></path></g></g><g transform="matrix(0.8100000023841858,0,0,0.8100000023841858,260.468017578125,97.71699523925781)" opacity="1" style="display: block;"><g opacity="1" transform="matrix(1,0,0,1,11.604000091552734,11.609000205993652)"><path fill="rgb(30,213,135)" fill-opacity="1" d=" M7.165999889373779,2.2149999141693115 C7.165999889373779,-0.09300000220537186 8.928000450134277,-1.9880000352859497 11.178999900817871,-2.2009999752044678 C11.418999671936035,-2.2230000495910645 11.60200023651123,-2.427000045776367 11.60200023651123,-2.6679999828338623 C11.60200023651123,-2.6679999828338623 11.604000091552734,-4.548999786376953 11.604000091552734,-4.548999786376953 C11.604000091552734,-5.986999988555908 10.428000450134277,-7.164000034332275 8.98900032043457,-7.164999961853027 C8.98900032043457,-7.164999961853027 7.1020002365112305,-7.170000076293945 7.1020002365112305,-7.170000076293945 C6.860000133514404,-7.170000076293945 6.6579999923706055,-7.353000164031982 6.635000228881836,-7.5929999351501465 C6.422999858856201,-9.845999717712402 4.5269999504089355,-11.607999801635742 2.2209999561309814,-11.607999801635742 C-0.08699999749660492,-11.609000205993652 -1.9830000400543213,-9.847999572753906 -2.197000026702881,-7.5960001945495605 C-2.2200000286102295,-7.355000019073486 -2.421999931335449,-7.172999858856201 -2.6630001068115234,-7.171999931335449 C-2.6630001068115234,-7.171999931335449 -4.552000045776367,-7.168000221252441 -4.552000045776367,-7.168000221252441 C-5.988999843597412,-7.168000221252441 -7.165999889373779,-5.992000102996826 -7.166999816894531,-4.553999900817871 C-7.166999816894531,-4.553999900817871 -7.166999816894531,-2.6730000972747803 -7.166999816894531,-2.6730000972747803 C-7.166999816894531,-2.430999994277954 -7.35099983215332,-2.2279999256134033 -7.591000080108643,-2.2049999237060547 C-9.842000007629395,-1.9919999837875366 -11.602999687194824,-0.09700000286102295 -11.604000091552734,2.2109999656677246 C-11.604999542236328,4.51800012588501 -9.843999862670898,6.414000034332275 -7.5929999351501465,6.627999782562256 C-7.353000164031982,6.651000022888184 -7.169000148773193,6.854000091552734 -7.169000148773193,7.0960001945495605 C-7.169000148773193,7.0960001945495605 -7.170000076293945,8.98900032043457 -7.170000076293945,8.98900032043457 C-7.170000076293945,10.427000045776367 -5.99399995803833,11.605999946594238 -4.556000232696533,11.605999946594238 C-4.556000232696533,11.605999946594238 -2.2209999561309814,11.597999572753906 -2.2209999561309814,11.597999572753906 C-2.2209999561309814,9.14799976348877 -0.23399999737739563,7.1620001792907715 2.2160000801086426,7.163000106811523 C4.521999835968018,7.163000106811523 6.418000221252441,8.925999641418457 6.630000114440918,11.178000450134277 C6.6519999504089355,11.418000221252441 6.854000091552734,11.60099983215332 7.0960001945495605,11.60200023651123 C7.0960001945495605,11.60200023651123 8.984000205993652,11.609000205993652 8.984000205993652,11.609000205993652 C10.423999786376953,11.609999656677246 11.60099983215332,10.432000160217285 11.60099983215332,8.994000434875488 C11.60099983215332,8.994000434875488 11.600000381469727,7.099999904632568 11.600000381469727,7.099999904632568 C11.600000381469727,6.859000205993652 11.416999816894531,6.65500020980835 11.175999641418457,6.631999969482422 C8.925999641418457,6.419000148773193 7.164999961853027,4.5229997634887695 7.165999889373779,2.2149999141693115z"></path></g></g><g transform="matrix(1,0,0,1,66.5,32)" opacity="1" style="display: block;"><g opacity="1" transform="matrix(1,0,0,1,122.35099792480469,163.2259979248047)"><path fill="rgb(255,208,156)" fill-opacity="1" d=" M-14.840999603271484,-18.016000747680664 C-10.416000366210938,-13.954000473022461 -5.991000175476074,-9.890999794006348 -1.5670000314712524,-5.828999996185303 C-0.1720000058412552,-4.548999786376953 1.2230000495910645,-3.2679998874664307 2.61899995803833,-1.9869999885559082 C4.083000183105469,-0.6430000066757202 5.500999927520752,0.9139999747276306 7.511000156402588,1.38100004196167 C9.581999778747559,1.8619999885559082 11.734999656677246,1.878999948501587 13.847999572753906,1.777999997138977 C15.739999771118164,1.6890000104904175 17.941999435424805,1.121999979019165 19.81100082397461,1.4880000352859497 C21.400999069213867,1.7990000247955322 22.677000045776367,2.7990000247955322 23.461999893188477,4.205999851226807 C23.461999893188477,4.205999851226807 16.52899932861328,18.016000747680664 16.52899932861328,18.016000747680664 C16.52899932861328,18.016000747680664 4.263999938964844,17.79800033569336 4.263999938964844,17.79800033569336 C4.263999938964844,17.79800033569336 -2.3420000076293945,9.20199966430664 -2.3420000076293945,9.20199966430664 C-2.3420000076293945,9.20199966430664 -8.942000389099121,2.8889999389648438 -23.461999893188477,-1.1180000305175781 C-23.461999893188477,-1.1180000305175781 -20.895000457763672,-17.5049991607666 -20.895000457763672,-17.5049991607666 C-20.895000457763672,-17.5049991607666 -14.840999603271484,-18.016000747680664 -14.840999603271484,-18.016000747680664z"></path></g><g opacity="1" transform="matrix(1,0,0,1,106.2699966430664,222.7169952392578)"><path fill="rgb(57,64,95)" fill-opacity="1" d=" M-20.10300064086914,-1.5420000553131104 C-20.10300064086914,-1.5420000553131104 -1.8739999532699585,-13.340999603271484 -1.8739999532699585,-13.340999603271484 C-1.8739999532699585,-13.340999603271484 17.993999481201172,7.252999782562256 21.275999069213867,13.340999603271484 C21.275999069213867,13.340999603271484 -21.275999069213867,1.4170000553131104 -21.275999069213867,1.4170000553131104 C-21.275999069213867,1.4170000553131104 -20.10300064086914,-1.5420000553131104 -20.10300064086914,-1.5420000553131104z"></path></g><g opacity="1" transform="matrix(1,0,0,1,209.76300048828125,387.0530090332031)"><path fill="rgb(251,135,85)" fill-opacity="1" d=" M-24.55699920654297,-8.708999633789062 C-24.55699920654297,-8.708999633789062 -29.840999603271484,-5.318999767303467 -27.22599983215332,-0.04800000041723251 C-27.22599983215332,-0.04800000041723251 -21.3700008392334,7.989999771118164 -21.3700008392334,7.989999771118164 C-21.3700008392334,7.989999771118164 -18.709999084472656,10.746999740600586 -12.890999794006348,9.881999969482422 C-12.890999794006348,9.881999969482422 16.392000198364258,6.144999980926514 23.211000442504883,3.555999994277954 C23.211000442504883,3.555999994277954 29.840999603271484,0.578000009059906 28.56999969482422,-4.089000225067139 C28.56999969482422,-4.089000225067139 27.01799964904785,-9.916000366210938 7.640999794006348,-10.746999740600586 C7.640999794006348,-10.746999740600586 -24.55699920654297,-8.708999633789062 -24.55699920654297,-8.708999633789062z"></path></g><g opacity="1" transform="matrix(1,0,0,1,203.06399536132812,373.3479919433594)"><path fill="rgb(255,208,156)" fill-opacity="1" d=" M-7.257999897003174,-12.982999801635742 C-7.257999897003174,-12.982999801635742 -2.6579999923706055,-1.121000051498413 -2.6579999923706055,-1.121000051498413 C-2.6579999923706055,-1.121000051498413 19.113000869750977,4.103000164031982 19.113000869750977,4.103000164031982 C19.113000869750977,4.103000164031982 23.7450008392334,4.765999794006348 24.097000122070312,6.706999778747559 C24.097000122070312,6.706999778747559 24.39900016784668,11.550999641418457 14.340999603271484,11.371999740600586 C14.340999603271484,11.371999740600586 -7.703999996185303,12.142000198364258 -7.703999996185303,12.142000198364258 C-7.703999996185303,12.142000198364258 -14.904999732971191,12.982000350952148 -17.858999252319336,4.995999813079834 C-17.858999252319336,4.995999813079834 -24.399999618530273,-7.208000183105469 -24.399999618530273,-7.208000183105469 C-24.399999618530273,-7.208000183105469 -7.257999897003174,-12.982999801635742 -7.257999897003174,-12.982999801635742z"></path></g><g opacity="1" transform="matrix(1,0,0,1,103.84100341796875,290.56201171875)"><path fill="rgb(73,82,123)" fill-opacity="1" d=" M-70.98600006103516,-82.21099853515625 C-70.98600006103516,-82.21099853515625 -93.05799865722656,-13.993000030517578 -21.326000213623047,-11.59000015258789 C-21.326000213623047,-11.59000015258789 21.21500015258789,-9.704999923706055 43.75299835205078,-16.464000701904297 C43.75299835205078,-16.464000701904297 55.33000183105469,53.08000183105469 73.74199676513672,77.14600372314453 C73.74199676513672,77.14600372314453 83.07099914550781,82.20999908447266 93.05799865722656,71.45899963378906 C93.05799865722656,71.45899963378906 79.17400360107422,4.513000011444092 79.72000122070312,-15.637999534606934 C79.72000122070312,-15.637999534606934 82.79399871826172,-40.26599884033203 64.62000274658203,-45.86399841308594 C64.62000274658203,-45.86399841308594 -6.863999843597412,-63.37200164794922 -17.67300033569336,-69.38700103759766 C-17.67300033569336,-69.38700103759766 -70.98600006103516,-82.21099853515625 -70.98600006103516,-82.21099853515625z"></path></g><g opacity="1" transform="matrix(1,0,0,1,58.70899963378906,407.59100341796875)"><path fill="rgb(251,135,85)" fill-opacity="1" d=" M-11.243000030517578,-22.459999084472656 C-11.243000030517578,-22.459999084472656 -13.802000045776367,-22.27199935913086 -18.128000259399414,-18.9689998626709 C-18.128000259399414,-18.9689998626709 -22.85099983215332,-13.317999839782715 -22.85099983215332,-13.317999839782715 C-22.85099983215332,-13.317999839782715 -25.208999633789062,-10.734999656677246 -19.798999786376953,-4.947999954223633 C-19.798999786376953,-4.947999954223633 7.696000099182129,18.836999893188477 15.121000289916992,21.2810001373291 C15.121000289916992,21.2810001373291 24.11400032043457,25.5310001373291 24.42799949645996,17.888999938964844 C24.42799949645996,17.888999938964844 25.208999633789062,10.857000350952148 13.748000144958496,-3.0739998817443848 C13.748000144958496,-3.0739998817443848 -11.243000030517578,-22.459999084472656 -11.243000030517578,-22.459999084472656z"></path></g><g opacity="1" transform="matrix(1,0,0,1,61.755001068115234,395.2959899902344)"><path fill="rgb(255,208,156)" fill-opacity="1" d=" M10.369999885559082,-11.878000259399414 C10.369999885559082,-11.878000259399414 3.8480000495910645,-3.740000009536743 3.8480000495910645,-3.740000009536743 C3.8480000495910645,-3.740000009536743 15.718999862670898,18.702999114990234 15.718999862670898,18.702999114990234 C15.718999862670898,18.702999114990234 16.900999069213867,22.101999282836914 14.225000381469727,22.589000701904297 C14.225000381469727,22.589000701904297 12.78600025177002,23.6299991607666 7.354000091552734,19.08799934387207 C7.354000091552734,19.08799934387207 -14.817999839782715,-4.070000171661377 -14.817999839782715,-4.070000171661377 C-14.817999839782715,-4.070000171661377 -16.902000427246094,-6.953000068664551 -13.07699966430664,-12.041999816894531 C-13.07699966430664,-12.041999816894531 -3.058000087738037,-23.628999710083008 -3.058000087738037,-23.628999710083008 C-3.058000087738037,-23.628999710083008 10.369999885559082,-11.878000259399414 10.369999885559082,-11.878000259399414z"></path></g><g opacity="1" transform="matrix(1,0,0,1,114.08899688720703,330.0660095214844)"><path fill="rgb(57,64,95)" fill-opacity="1" d=" M-13.109000205993652,-50.88399887084961 C-13.109000205993652,-50.88399887084961 0.125,-43.37200164794922 7.202000141143799,-38.7239990234375 C7.202000141143799,-38.7239990234375 -49.40599822998047,30.173999786376953 -56.56399917602539,40.7869987487793 C-56.56399917602539,40.7869987487793 -52.84299850463867,54.04199981689453 -39.880001068115234,55.96799850463867 C-39.880001068115234,55.96799850463867 32.68600082397461,-9.821000099182129 43.13600158691406,-25.46299934387207 C43.13600158691406,-25.46299934387207 56.56399917602539,-38.979000091552734 33.505001068115234,-55.96799850463867 C33.505001068115234,-55.96799850463867 19.500999450683594,-51.55400085449219 -13.109000205993652,-50.88399887084961z"></path></g><g opacity="1" transform="matrix(1,0,0,1,81.39900207519531,80.73600006103516)"><path fill="rgb(41,47,75)" fill-opacity="1" d=" M3.6459999084472656,-12.211000442504883 C3.6459999084472656,-12.211000442504883 11.381999969482422,1.1859999895095825 7.330999851226807,12.211000442504883 C7.330999851226807,12.211000442504883 -11.381999969482422,10.727999687194824 -11.381999969482422,10.727999687194824 C-11.381999969482422,10.727999687194824 -11.017999649047852,-9.802000045776367 -11.017999649047852,-9.802000045776367 C-11.017999649047852,-9.802000045776367 3.6459999084472656,-12.211000442504883 3.6459999084472656,-12.211000442504883z"></path></g><g opacity="1" transform="matrix(1,0,0,1,55.941001892089844,156.63800048828125)"><path fill="rgb(255,182,84)" fill-opacity="1" d=" M-32.21099853515625,-62.917999267578125 C-34.10599899291992,-62.53099822998047 -35.893001556396484,-61.85200119018555 -37.19499969482422,-60.465999603271484 C-38.63600158691406,-58.93299865722656 -39.20899963378906,-56.803001403808594 -39.733001708984375,-54.76599884033203 C-42.888999938964844,-42.50299835205078 -46.042999267578125,-30.239999771118164 -49.198001861572266,-17.976999282836914 C-50.775001525878906,-11.845999717712402 -52.35300064086914,-5.714000225067139 -53.930999755859375,0.4169999957084656 C-55.30699920654297,5.767000198364258 -56.959999084472656,11.482000350952148 -55.13199996948242,16.941999435424805 C-53.81800079345703,20.863000869750977 -50.268001556396484,24.280000686645508 -46.13399887084961,24.277999877929688 C-47.37300109863281,19.965999603271484 -46.5099983215332,15.10099983215332 -43.86399841308594,11.47700023651123 C-41.21900177001953,7.853000164031982 -36.847999572753906,5.550000190734863 -32.362998962402344,5.416999816894531 C-32.362998962402344,5.416999816894531 -28.659000396728516,-4.24399995803833 -28.659000396728516,-4.24399995803833 C-28.451000213623047,-4.788000106811523 -27.68000030517578,-4.7820000648498535 -27.479999542236328,-4.235000133514404 C-27.479999542236328,-4.235000133514404 -19.966999053955078,16.277000427246094 -19.966999053955078,16.277000427246094 C-19.142000198364258,18.530000686645508 -18.30900001525879,20.81599998474121 -18.104999542236328,23.207000732421875 C-17.461999893188477,30.760000228881836 -22.996000289916992,37.20899963378906 -26.584999084472656,43.8849983215332 C-27.486000061035156,45.5620002746582 -28.297000885009766,47.40599822998047 -28.101999282836914,49.29999923706055 C-27.826000213623047,51.9640007019043 -25.663999557495117,54.00400161743164 -23.53700065612793,55.63199996948242 C-13.267999649047852,63.4900016784668 -0.34200000762939453,67.80899810791016 12.588000297546387,67.7040023803711 C25.51799964904785,67.5989990234375 38.369998931884766,63.06999969482422 48.51100158691406,55.047000885009766 C49.20199966430664,54.5 49.89799880981445,53.91600036621094 50.308998107910156,53.13600158691406 C51.16600036621094,51.5 50.551998138427734,49.513999938964844 49.92300033569336,47.777000427246094 C47.33399963378906,40.632999420166016 44.69200134277344,33.45600128173828 43.395999908447266,25.9689998626709 C42.10100173950195,18.48200035095215 42.215999603271484,10.579999923706055 45.03099822998047,3.5220000743865967 C48.47600173950195,-5.111999988555908 55.941001892089844,-12.979000091552734 54.573001861572266,-22.17300033569336 C53.902000427246094,-26.67799949645996 51.15299987792969,-30.54800033569336 49.22100067138672,-34.672000885009766 C45.37900161743164,-42.869998931884766 44.486000061035156,-52.70000076293945 38.34199905395508,-59.3489990234375 C34.19300079345703,-63.8390007019043 28.139999389648438,-66.19499969482422 22.07900047302246,-67.00199890136719 C16.018999099731445,-67.80899810791016 9.871000289916992,-67.20800018310547 3.7869999408721924,-66.60600280761719 C-7.103000164031982,-65.52999877929688 -17.992000579833984,-64.4540023803711 -28.881999969482422,-63.37699890136719 C-29.979000091552734,-63.26900100708008 -31.113000869750977,-63.143001556396484 -32.21099853515625,-62.917999267578125z"></path></g><g opacity="0.1" transform="matrix(1,0,0,1,68.48899841308594,100.31700134277344)"><path fill="rgb(57,64,95)" fill-opacity="1" d=" M12.770000457763672,10.215999603271484 C16.799999237060547,0.7390000224113464 14.38599967956543,-6.267000198364258 11.722000122070312,-10.428000450134277 C11.01200008392334,-10.565999984741211 10.298999786376953,-10.687000274658203 9.586000442504883,-10.781999588012695 C8.520000457763672,-10.923999786376953 7.451000213623047,-11.008999824523926 6.379000186920166,-11.071999549865723 C8.53600025177002,-9.178999900817871 14.131999969482422,-3.071000099182129 10.718000411987305,7.034999847412109 C10.718000411987305,7.034999847412109 5.443999767303467,9.83899974822998 -8.854999542236328,-3.263000011444092 C-8.854999542236328,-3.263000011444092 -10.14799976348877,-10.244000434875488 -10.14799976348877,-10.244000434875488 C-11.737000465393066,-10.086999893188477 -13.324999809265137,-9.930000305175781 -14.913999557495117,-9.77299976348877 C-14.913999557495117,-9.77299976348877 -13.625,-2.494999885559082 -13.625,-2.494999885559082 C5.571000099182129,15.993000030517578 12.770000457763672,10.215999603271484 12.770000457763672,10.215999603271484z"></path></g><g opacity="1" transform="matrix(1,0,0,1,67.80699920654297,45.23500061035156)"><path fill="rgb(255,208,156)" fill-opacity="1" d=" M23.128000259399414,-12.210000038146973 C23.690000534057617,-6.781000137329102 23.452999114990234,-1.1759999990463257 22.82699966430664,4.230000019073486 C22.299999237060547,8.793999671936035 21.391000747680664,13.331000328063965 19.923999786376953,17.690000534057617 C18.617000579833984,21.57200050354004 16.905000686645508,26.926000595092773 13.67300033569336,29.655000686645508 C10.642000198364258,32.2130012512207 6.315999984741211,31.77400016784668 2.6559998989105225,31.350000381469727 C2.433000087738037,31.273000717163086 -3.9200000762939453,29.06399917602539 -9.41100025177002,23.027000427246094 C-9.41100025177002,23.027000427246094 -23.663000106811523,-0.6959999799728394 -23.663000106811523,-0.6959999799728394 C-23.68899917602539,-0.7409999966621399 -23.687999725341797,-0.7979999780654907 -23.658000946044922,-0.8399999737739563 C-23.658000946044922,-0.8399999737739563 -1.340000033378601,-32.154998779296875 -1.340000033378601,-32.154998779296875 C-1.312000036239624,-32.19200134277344 -1.2690000534057617,-32.2130012512207 -1.225000023841858,-32.209999084472656 C-1.225000023841858,-32.209999084472656 19.325000762939453,-30.722999572753906 19.325000762939453,-30.722999572753906 C19.371000289916992,-30.7189998626709 19.410999298095703,-30.691999435424805 19.43199920654297,-30.650999069213867 C19.43199920654297,-30.650999069213867 23.391000747680664,-22.951000213623047 23.391000747680664,-22.951000213623047 C23.399999618530273,-22.930999755859375 23.40399932861328,-22.909000396728516 23.40399932861328,-22.886999130249023 C23.40399932861328,-22.886999130249023 23.128000259399414,-12.220000267028809 23.128000259399414,-12.210000038146973z"></path></g><g opacity="1" transform="matrix(1,0,0,1,68.17500305175781,86.01300048828125)"><path fill="rgb(255,208,156)" fill-opacity="1" d=" M5.114999771118164,-9.190999984741211 C5.114999771118164,-9.190999984741211 3.6670000553131104,-1.8650000095367432 5.8460001945495605,2.694999933242798 C5.8460001945495605,2.694999933242798 15.152000427246094,9.07800006866455 10.97700023651123,21.43899917602539 C10.97700023651123,21.43899917602539 5.703000068664551,24.243000030517578 -8.595999717712402,11.142000198364258 C-8.595999717712402,11.142000198364258 -15.152000427246094,-24.243000030517578 -15.152000427246094,-24.243000030517578 C-15.152000427246094,-24.243000030517578 5.114999771118164,-9.190999984741211 5.114999771118164,-9.190999984741211z"></path></g><g opacity="1" transform="matrix(1,0,0,1,56.54499816894531,51.03799819946289)"><path fill="rgb(41,47,75)" fill-opacity="1" d=" M30.39299964904785,-32.00199890136719 C30.39299964904785,-32.00199890136719 27.687000274658203,-17.542999267578125 7.361999988555908,-18.6560001373291 C1.2070000171661377,-18.993999481201172 -4.630000114440918,-14.309000015258789 -4.863999843597412,-7.986999988555908 C-5.135000228881836,-0.6240000128746033 2.0899999141693115,4.7769999504089355 2.256999969482422,12.17300033569336 C2.3380000591278076,15.730999946594238 1.2200000286102295,19.04800033569336 1.7920000553131104,22.576000213623047 C2.5260000228881836,27.104999542236328 4.914999961853027,30.125 6.835999965667725,34.08300018310547 C7.564000129699707,35.582000732421875 7.982999801635742,37.29800033569336 7.840000152587891,38.96799850463867 C7.294000148773193,45.38199996948242 -0.0989999994635582,48.21900177001953 -5.4720001220703125,49.38999938964844 C-13.041999816894531,51.03799819946289 -21.076000213623047,50.72700119018555 -27.89699935913086,46.68600082397461 C-33.04199981689453,43.638999938964844 -38.27899932861328,36.941001892089844 -37.02399826049805,30.601999282836914 C-35.79399871826172,24.381000518798828 -29.40999984741211,20.764999389648438 -24.489999771118164,17.702999114990234 C-17.79199981689453,13.534000396728516 -18.16699981689453,6.816999912261963 -23.131000518798828,1.1519999504089355 C-30.309999465942383,-7.039999961853027 -32.994998931884766,-18.73699951171875 -29.452999114990234,-29.12299919128418 C-25.49799919128418,-40.71900177001953 -14.326000213623047,-48.143001556396484 -2.632999897003174,-50.349998474121094 C8.595999717712402,-52.470001220703125 23.201000213623047,-49.81399917602539 30.895000457763672,-40.67300033569336 C36.49800109863281,-34.016998291015625 38.27899932861328,-25.41200065612793 34.44499969482422,-17.381999969482422 C34.44499969482422,-17.381999969482422 34.270999908447266,-27.600000381469727 30.39299964904785,-32.00199890136719z"></path></g><g opacity="1" transform="matrix(0.5215309262275696,-0.8532323837280273,0.8532323837280273,0.5215309262275696,118.72200012207031,151.1529998779297)"><path fill="url(#__lottie_element_149)" fill-opacity="1" d=" M-61.22100067138672,-33.65399932861328 C-61.22100067138672,-33.65399932861328 -20.457000732421875,33.65299987792969 -20.457000732421875,33.65299987792969 C-20.457000732421875,33.65299987792969 61.22100067138672,33.65299987792969 61.22100067138672,33.65299987792969 C61.22100067138672,33.65299987792969 56.92599868774414,-33.65399932861328 56.92599868774414,-33.65399932861328 C56.92599868774414,-33.65399932861328 -61.22100067138672,-33.65399932861328 -61.22100067138672,-33.65399932861328z"></path><g opacity="1" transform="matrix(1,0,0,1,0,0)"></g></g><g opacity="1" transform="matrix(1,0,0,1,168.427001953125,153.06199645996094)"><path fill="rgb(199,211,232)" fill-opacity="1" d=" M-93.70700073242188,36.358001708984375 C-93.70700073242188,36.358001708984375 58.297000885009766,36.358001708984375 58.297000885009766,36.358001708984375 C58.297000885009766,36.358001708984375 93.70700073242188,-36.358001708984375 93.70700073242188,-36.358001708984375 C93.70700073242188,-36.358001708984375 -0.0949999988079071,-36.358001708984375 -0.0949999988079071,-36.358001708984375 C-0.0949999988079071,-36.358001708984375 -29.854000091552734,27.31599998474121 -29.854000091552734,27.31599998474121 C-29.854000091552734,27.31599998474121 -93.70700073242188,27.31599998474121 -93.70700073242188,27.31599998474121 C-93.70700073242188,27.31599998474121 -93.70700073242188,36.358001708984375 -93.70700073242188,36.358001708984375z"></path></g><g opacity="1" transform="matrix(1,0,0,1,202.87600708007812,154.09500122070312)"><path fill="rgb(237,245,255)" fill-opacity="1" d=" M5.880000114440918,2.509999990463257 C4.318999767303467,6.166999816894531 0.42100000381469727,8.008999824523926 -2.8269999027252197,6.622000217437744 C-6.073999881744385,5.236000061035156 -7.440999984741211,1.1469999551773071 -5.88100004196167,-2.509999990463257 C-4.320000171661377,-6.166999816894531 -0.4230000078678131,-8.008999824523926 2.8239998817443848,-6.622000217437744 C6.072000026702881,-5.236000061035156 7.440999984741211,-1.1480000019073486 5.880000114440918,2.509999990463257z"></path></g><g opacity="0.1" transform="matrix(1,0,0,1,65.73300170898438,77.58599853515625)"><path fill="rgb(57,64,95)" fill-opacity="1" d=" M7.558000087738037,-0.7630000114440918 C7.558000087738037,-0.7630000114440918 6.703000068664551,2.9019999504089355 7.129000186920166,5.941999912261963 C7.129000186920166,5.941999912261963 -3.303999900817871,7.182000160217285 -7.557000160217285,-5.9730000495910645 C-7.557000160217285,-5.9730000495910645 -0.4440000057220459,-1.062999963760376 7.558000087738037,-0.7630000114440918z"></path></g><g opacity="1" transform="matrix(1,0,0,1,70.33000183105469,45.617000579833984)"><path stroke-linecap="round" stroke-linejoin="round" fill-opacity="0" stroke="rgb(209,147,94)" stroke-opacity="1" stroke-width="2" d=" M-3.7039999961853027,2.2660000324249268 C-3.7039999961853027,2.2660000324249268 0.593999981880188,-2.2669999599456787 3.7039999961853027,1.9129999876022339"></path></g><g opacity="1" transform="matrix(1,0,0,1,85.29299926757812,44.86899948120117)"><path stroke-linecap="round" stroke-linejoin="round" fill-opacity="0" stroke="rgb(209,147,94)" stroke-opacity="1" stroke-width="2" d=" M-2.8239998817443848,1.9520000219345093 C-2.8239998817443848,1.9520000219345093 -0.4650000035762787,-1.9520000219345093 2.8239998817443848,1.5720000267028809"></path></g><g opacity="1" transform="matrix(1,0,0,1,78.23699951171875,66.46399688720703)"><path fill="rgb(255,255,255)" fill-opacity="1" d=" M4.942999839782715,-4.927000045776367 C3.009000062942505,-4.070000171661377 -0.12700000405311584,-3.440000057220459 -4.708000183105469,-4.658999919891357 C-5.501999855041504,-4.870999813079834 -5.986999988555908,-4.218999862670898 -5.789999961853027,-3.509000062942505 C-4.923999786376953,-0.3790000081062317 0.8619999885559082,5.269000053405762 5.630000114440918,-3.750999927520752 C5.986000061035156,-4.423999786376953 5.714000225067139,-5.269000053405762 4.942999839782715,-4.927000045776367z"></path></g><g opacity="0.1" transform="matrix(1,0,0,1,106.64600372314453,182.23300170898438)"><path fill="rgb(57,64,95)" fill-opacity="1" d=" M31.926000595092773,-1.8539999723434448 C31.926000595092773,-1.8539999723434448 -31.927000045776367,-1.8539999723434448 -31.927000045776367,-1.8539999723434448 C-31.927000045776367,-1.8539999723434448 -31.927000045776367,1.8550000190734863 -31.927000045776367,1.8550000190734863 C-31.927000045776367,1.8550000190734863 31.926000595092773,-1.8539999723434448 31.926000595092773,-1.8539999723434448z"></path></g></g><g transform="matrix(1,0,0,1,75.31199645996094,193.81199645996094)" opacity="1" style="display: block;"><g opacity="1" transform="matrix(1,0,0,1,35.86199951171875,10.786999702453613)"><path fill="rgb(255,208,156)" fill-opacity="1" d=" M35.86199951171875,7.823999881744385 C34.224998474121094,7.795000076293945 32.50199890136719,7.916999816894531 30.874000549316406,7.735000133514404 C28.077999114990234,7.422999858856201 26.429000854492188,6.658999919891357 23.59000015258789,7.310999870300293 C22.025999069213867,7.670000076293945 20.434999465942383,7.940000057220459 18.856000900268555,8.215999603271484 C14.116000175476074,9.043000221252441 9.33899974822998,9.661999702453613 4.546000003814697,10.090999603271484 C-8.805000305175781,11.284000396728516 -22.374000549316406,11.032999992370605 -35.582000732421875,8.628999710083008 C-35.582000732421875,8.628999710083008 -39.0369987487793,-8.954999923706055 -21.68199920654297,-10.343000411987305 C-21.68199920654297,-10.343000411987305 4.379000186920166,-13.272000312805176 33.316001892089844,-4.0920000076293945"></path></g></g><g transform="matrix(0.9999998807907104,-0.0004303166351746768,0.0004303166351746768,0.9999998807907104,142.37118530273438,197.81280517578125)" opacity="1" style="display: block;"><g opacity="1" transform="matrix(1,0,0,1,19.788999557495117,7.415999889373779)"><path fill="rgb(255,208,156)" fill-opacity="1" d=" M-17.347000122070312,-4.642000198364258 C-13.9399995803833,-3.999000072479248 -10.579000473022461,-4.992000102996826 -7.275000095367432,-5.724999904632568 C-4.822000026702881,-6.269000053405762 -2.3529999256134033,-6.751999855041504 0.1080000028014183,-7.263000011444092 C0.1080000028014183,-7.263000011444092 6.164999961853027,-8.85099983215332 11.880000114440918,-1.777999997138977 C11.880000114440918,-1.777999997138977 19.788999557495117,7.415999889373779 19.788999557495117,7.415999889373779 C7.872000217437744,7.204999923706055 -2.884999990463257,7.485000133514404 -14.800999641418457,7.27400016784668 C-16.437999725341797,7.24399995803833 -19.336000442504883,6.798999786376953 -19.788999557495117,5.173999786376953"></path></g></g><g style="display: none;" transform="matrix(1,0,0,1,252.43800354003906,87.75)" opacity="0.006163831852288268"><g opacity="1" transform="matrix(1,0,0,1,0,0)"><g opacity="1" transform="matrix(1,0,0,1,28.167999267578125,37.47100067138672)"><path fill="rgb(255,193,79)" fill-opacity="1" d=" M0.0010000000474974513,-2.1019999980926514 C-0.5090000033378601,-2.1019999980926514 -0.921999990940094,-1.6890000104904175 -0.921999990940094,-1.1799999475479126 C-0.921999990940094,-1.1799999475479126 -0.9229999780654907,1.1779999732971191 -0.9229999780654907,1.1779999732971191 C-0.9229999780654907,1.687999963760376 -0.5099999904632568,2.1019999980926514 0,2.1019999980926514 C0.5090000033378601,2.1019999980926514 0.921999990940094,1.690000057220459 0.921999990940094,1.1799999475479126 C0.921999990940094,1.1799999475479126 0.9229999780654907,-1.1799999475479126 0.9229999780654907,-1.1799999475479126 C0.9229999780654907,-1.6890000104904175 0.5099999904632568,-2.1019999980926514 0.0010000000474974513,-2.1019999980926514z"></path></g><g opacity="1" transform="matrix(1,0,0,1,28.176000595092773,2.1019999980926514)"><path fill="rgb(255,193,79)" fill-opacity="1" d=" M0.0010000000474974513,-2.1019999980926514 C-0.5090000033378601,-2.1019999980926514 -0.9229999780654907,-1.6890000104904175 -0.9229999780654907,-1.1799999475479126 C-0.9229999780654907,-1.1799999475479126 -0.9229999780654907,1.1779999732971191 -0.9229999780654907,1.1779999732971191 C-0.9229999780654907,1.687999963760376 -0.5109999775886536,2.1010000705718994 -0.0010000000474974513,2.1010000705718994 C0.5090000033378601,2.1019999980926514 0.9229999780654907,1.6890000104904175 0.9229999780654907,1.1790000200271606 C0.9229999780654907,1.1790000200271606 0.9229999780654907,-1.1790000200271606 0.9229999780654907,-1.1790000200271606 C0.9229999780654907,-1.687999963760376 0.5109999775886536,-2.1019999980926514 0.0010000000474974513,-2.1019999980926514z"></path></g><g opacity="1" transform="matrix(1,0,0,1,2.1010000705718994,16.608999252319336)"><path fill="rgb(255,193,79)" fill-opacity="1" d=" M2.1010000705718994,0.0010000000474974513 C2.1010000705718994,-0.5090000033378601 1.687999963760376,-0.921999990940094 1.1790000200271606,-0.921999990940094 C1.1790000200271606,-0.921999990940094 -1.1790000200271606,-0.921999990940094 -1.1790000200271606,-0.921999990940094 C-1.687999963760376,-0.9229999780654907 -2.1010000705718994,-0.5099999904632568 -2.1010000705718994,0 C-2.1010000705718994,0.5090000033378601 -1.6890000104904175,0.921999990940094 -1.1790000200271606,0.921999990940094 C-1.1790000200271606,0.921999990940094 1.1790000200271606,0.9229999780654907 1.1790000200271606,0.9229999780654907 C1.687999963760376,0.9229999780654907 2.1010000705718994,0.5099999904632568 2.1010000705718994,0.0010000000474974513z"></path></g><g opacity="1" transform="matrix(1,0,0,1,9.770999908447266,4.636000156402588)"><path fill="rgb(255,193,79)" fill-opacity="1" d=" M1.496000051498413,0.05000000074505806 C1.496000051498413,0.05000000074505806 -0.3100000023841858,-1.465000033378601 -0.3100000023841858,-1.465000033378601 C-0.6990000009536743,-1.7929999828338623 -1.281000018119812,-1.7430000305175781 -1.6080000400543213,-1.3530000448226929 C-1.937000036239624,-0.9629999995231628 -1.8860000371932983,-0.38100001215934753 -1.496000051498413,-0.05299999937415123 C-1.496000051498413,-0.05299999937415123 0.3100000023841858,1.4639999866485596 0.3100000023841858,1.4639999866485596 C0.7020000219345093,1.7940000295639038 1.284000039100647,1.7380000352859497 1.6089999675750732,1.350000023841858 C1.937000036239624,0.9599999785423279 1.8860000371932983,0.3779999911785126 1.496000051498413,0.05000000074505806z"></path></g><g opacity="1" transform="matrix(1,0,0,1,4.3379998207092285,30.388999938964844)"><path fill="rgb(255,193,79)" fill-opacity="1" d=" M0.9629999995231628,-1.4270000457763672 C0.9629999995231628,-1.4270000457763672 -1.2280000448226929,-0.5559999942779541 -1.2280000448226929,-0.5559999942779541 C-2.3489999771118164,-0.11100000143051147 -1.6929999589920044,1.6139999628067017 -0.546999990940094,1.1579999923706055 C-0.546999990940094,1.1579999923706055 1.6449999809265137,0.2879999876022339 1.6449999809265137,0.2879999876022339 C2.117000102996826,0.10000000149011612 2.3489999771118164,-0.43700000643730164 2.1600000858306885,-0.9100000262260437 C1.9730000495910645,-1.3839999437332153 1.437000036239624,-1.6139999628067017 0.9629999995231628,-1.4270000457763672z"></path></g><g opacity="1" transform="matrix(1,0,0,1,55.85599899291992,17.84600067138672)"><path fill="rgb(255,193,79)" fill-opacity="1" d=" M1.1790000200271606,-0.9229999780654907 C1.1790000200271606,-0.9229999780654907 -1.1779999732971191,-0.9229999780654907 -1.1779999732971191,-0.9229999780654907 C-1.687000036239624,-0.9229999780654907 -2.0999999046325684,-0.5099999904632568 -2.1010000705718994,-0.0010000000474974513 C-2.1010000705718994,0.5090000033378601 -1.687999963760376,0.921999990940094 -1.1779999732971191,0.9229999780654907 C-1.1779999732971191,0.9229999780654907 1.1790000200271606,0.9229999780654907 1.1790000200271606,0.9229999780654907 C1.6890000104904175,0.9229999780654907 2.1019999980926514,0.5090000033378601 2.1019999980926514,-0.0010000000474974513 C2.1019999980926514,-0.5099999904632568 1.6890000104904175,-0.9229999780654907 1.1790000200271606,-0.9229999780654907z"></path></g><g opacity="1" transform="matrix(1,0,0,1,51.87300109863281,35.417999267578125)"><path fill="rgb(255,193,79)" fill-opacity="1" d=" M1.496999979019165,0.050999999046325684 C1.496999979019165,0.050999999046325684 -0.3100000023841858,-1.465000033378601 -0.3100000023841858,-1.465000033378601 C-0.6990000009536743,-1.7929999828338623 -1.281000018119812,-1.7419999837875366 -1.6080000400543213,-1.3519999980926514 C-1.937000036239624,-0.9620000123977661 -1.8849999904632568,-0.3790000081062317 -1.4950000047683716,-0.052000001072883606 C-1.4950000047683716,-0.052000001072883606 0.3100000023841858,1.465000033378601 0.3100000023841858,1.465000033378601 C0.703000009059906,1.7929999828338623 1.284000039100647,1.7389999628067017 1.6100000143051147,1.3509999513626099 C1.937000036239624,0.9610000252723694 1.8869999647140503,0.3779999911785126 1.496999979019165,0.050999999046325684z"></path></g><g opacity="1" transform="matrix(1,0,0,1,45.29399871826172,4.074999809265137)"><path fill="rgb(255,193,79)" fill-opacity="1" d=" M0.3610000014305115,-1.4529999494552612 C0.3610000014305115,-1.4529999494552612 -1.496999979019165,-0.0010000000474974513 -1.496999979019165,-0.0010000000474974513 C-1.8990000486373901,0.31299999356269836 -1.9700000286102295,0.8920000195503235 -1.656999945640564,1.2940000295639038 C-1.340999960899353,1.6959999799728394 -0.7620000243186951,1.7660000324249268 -0.3619999885559082,1.4529999494552612 C-0.3619999885559082,1.4529999494552612 1.496999979019165,0.0010000000474974513 1.496999979019165,0.0010000000474974513 C1.8990000486373901,-0.31200000643730164 1.9700000286102295,-0.8920000195503235 1.656000018119812,-1.2940000295639038 C1.3420000076293945,-1.6950000524520874 0.7620000243186951,-1.7660000324249268 0.3610000014305115,-1.4529999494552612z"></path></g></g></g><g transform="matrix(1,0,0,1,133.375,159.75)" opacity="0.4" style="display: block;"><g opacity="1" transform="matrix(1,0,0,1,10.17199993133545,10.460000038146973)"><path fill="rgb(251,249,247)" fill-opacity="1" d=" M5.281000137329102,1.9600000381469727 C4.583000183105469,3.6440000534057617 3.013000011444092,4.920000076293945 1.0579999685287476,5.165999889373779 C-0.8840000033378601,5.409999847412109 -2.7100000381469727,4.574999809265137 -3.806999921798706,3.132999897003174 C-4.35699987411499,2.4130001068115234 -4.705999851226807,1.559000015258789 -4.818999767303467,0.6620000004768372 C-4.818999767303467,0.6620000004768372 -4.820000171661377,0.6589999794960022 -4.820000171661377,0.6570000052452087 C-5.178999900817871,-2.196000099182129 -3.13100004196167,-4.802999973297119 -0.24400000274181366,-5.165999889373779 C0.7210000157356262,-5.288000106811523 1.656999945640564,-5.14300012588501 2.490000009536743,-4.789000034332275 C3.322999954223633,-4.434999942779541 4.052000045776367,-3.872999906539917 4.60099983215332,-3.1610000133514404 C4.60099983215332,-3.1610000133514404 8.842000007629395,-6.335000038146973 8.842000007629395,-6.335000038146973 C6.636000156402588,-9.206000328063965 2.9820001125335693,-10.86299991607666 -0.9010000228881836,-10.375 C-6.697999954223633,-9.645999908447266 -10.812000274658203,-4.409999847412109 -10.08899974822998,1.3200000524520874 C-9.852999687194824,3.200000047683716 -9.12399959564209,4.89900016784668 -8.04800033569336,6.308000087738037 C-5.843999862670898,9.194999694824219 -2.180000066757202,10.864999771118164 1.715999960899353,10.375 C5.618000030517578,9.883999824523926 8.758000373840332,7.349999904632568 10.17300033569336,3.999000072479248 C10.17300033569336,3.999000072479248 5.281000137329102,1.9600000381469727 5.281000137329102,1.9600000381469727z"></path></g></g></g></svg>