<svg xmlns="http://www.w3.org/2000/svg" viewBox="0 0 450 475" width="450" height="475" preserveAspectRatio="xMidYMid slice" style="width: 100%; height: 100%; transform: translate3d(0px, 0px, 0px);"><defs><clipPath id="__lottie_element_101"><rect width="450" height="475" x="0" y="0"></rect></clipPath><linearGradient id="__lottie_element_112" spreadMethod="pad" gradientUnits="userSpaceOnUse" x1="-3.609516143798828" y1="-33.437767028808594" x2="-26.108999252319336" y2="26.145000457763672"><stop offset="0%" stop-color="rgb(255,255,255)" stop-opacity="0"></stop><stop offset="50%" stop-color="rgb(255,255,255)" stop-opacity="0.10000000149011612"></stop><stop offset="100%" stop-color="rgb(255,255,255)" stop-opacity="0.20000000298023224"></stop></linearGradient></defs><g clip-path="url(#__lottie_element_101)"><g transform="matrix(1,0,0,1,12.5,11)" opacity="1" style="display: block;"><g opacity="1" transform="matrix(1,0,0,1,72.31900024414062,124.11499786376953)"><path fill="rgb(236,239,243)" fill-opacity="1" d=" M29.236000061035156,28.319000244140625 C29.236000061035156,28.319000244140625 -29.236000061035156,28.319000244140625 -29.236000061035156,28.319000244140625 C-29.236000061035156,28.319000244140625 -29.236000061035156,-28.319000244140625 -29.236000061035156,-28.319000244140625 C-29.236000061035156,-28.319000244140625 29.236000061035156,-28.319000244140625 29.236000061035156,-28.319000244140625 C29.236000061035156,-28.319000244140625 29.236000061035156,28.319000244140625 29.236000061035156,28.319000244140625z"></path></g><g opacity="1" transform="matrix(1,0,0,1,391.7850036621094,315.7049865722656)"><path fill="rgb(236,239,243)" fill-opacity="1" d=" M-40.21500015258789,28.319000244140625 C-40.21500015258789,28.319000244140625 40.21500015258789,28.319000244140625 40.21500015258789,28.319000244140625 C40.21500015258789,28.319000244140625 40.21500015258789,-28.319000244140625 40.21500015258789,-28.319000244140625 C40.21500015258789,-28.319000244140625 -40.21500015258789,-28.319000244140625 -40.21500015258789,-28.319000244140625 C-40.21500015258789,-28.319000244140625 -40.21500015258789,28.319000244140625 -40.21500015258789,28.319000244140625z"></path></g><g opacity="1" transform="matrix(1,0,0,1,177.89599609375,315.70599365234375)"><path fill="rgb(236,239,243)" fill-opacity="1" d=" M133.6719970703125,28.31999969482422 C133.6719970703125,28.31999969482422 -133.6719970703125,28.31999969482422 -133.6719970703125,28.31999969482422 C-133.6719970703125,28.31999969482422 -133.6719970703125,-28.319000244140625 -133.6719970703125,-28.319000244140625 C-133.6719970703125,-28.319000244140625 133.6719970703125,-28.319000244140625 133.6719970703125,-28.319000244140625 C133.6719970703125,-28.319000244140625 133.6719970703125,28.31999969482422 133.6719970703125,28.31999969482422z"></path></g><g opacity="1" transform="matrix(1,0,0,1,61.691001892089844,28.319000244140625)"><path fill="rgb(236,239,243)" fill-opacity="1" d=" M-61.691001892089844,28.319000244140625 C-61.691001892089844,28.319000244140625 61.691001892089844,28.319000244140625 61.691001892089844,28.319000244140625 C61.691001892089844,28.319000244140625 61.691001892089844,-28.319000244140625 61.691001892089844,-28.319000244140625 C61.691001892089844,-28.319000244140625 -61.691001892089844,-28.319000244140625 -61.691001892089844,-28.319000244140625 C-61.691001892089844,-28.319000244140625 -61.691001892089844,28.319000244140625 -61.691001892089844,28.319000244140625z"></path></g><g opacity="1" transform="matrix(1,0,0,1,51.60900115966797,411.5)"><path fill="rgb(236,239,243)" fill-opacity="1" d=" M-51.60900115966797,28.31800079345703 C-51.60900115966797,28.31800079345703 51.60900115966797,28.31800079345703 51.60900115966797,28.31800079345703 C51.60900115966797,28.31800079345703 51.60900115966797,-28.319000244140625 51.60900115966797,-28.319000244140625 C51.60900115966797,-28.319000244140625 -51.60900115966797,-28.319000244140625 -51.60900115966797,-28.319000244140625 C-51.60900115966797,-28.319000244140625 -51.60900115966797,28.31800079345703 -51.60900115966797,28.31800079345703z"></path></g><g opacity="1" transform="matrix(1,0,0,1,283.9219970703125,411.5)"><path fill="rgb(236,239,243)" fill-opacity="1" d=" M-148.0780029296875,28.319000244140625 C-148.0780029296875,28.319000244140625 148.07899475097656,28.319000244140625 148.07899475097656,28.319000244140625 C148.07899475097656,28.319000244140625 148.07899475097656,-28.31800079345703 148.07899475097656,-28.31800079345703 C148.07899475097656,-28.31800079345703 -148.0780029296875,-28.31800079345703 -148.0780029296875,-28.31800079345703 C-148.0780029296875,-28.31800079345703 -148.0780029296875,28.319000244140625 -148.0780029296875,28.319000244140625z"></path></g><g opacity="1" transform="matrix(1,0,0,1,232.26800537109375,219.91099548339844)"><path fill="rgb(236,239,243)" fill-opacity="1" d=" M142.26199340820312,28.31999969482422 C142.26199340820312,28.31999969482422 -142.26199340820312,28.31999969482422 -142.26199340820312,28.31999969482422 C-142.26199340820312,28.31999969482422 -142.26199340820312,-28.31999969482422 -142.26199340820312,-28.31999969482422 C-142.26199340820312,-28.31999969482422 142.26199340820312,-28.31999969482422 142.26199340820312,-28.31999969482422 C142.26199340820312,-28.31999969482422 142.26199340820312,28.31999969482422 142.26199340820312,28.31999969482422z"></path></g><g opacity="1" transform="matrix(1,0,0,1,286.77801513671875,124.11499786376953)"><path fill="rgb(236,239,243)" fill-opacity="1" d=" M-145.2209930419922,-28.31999969482422 C-145.2209930419922,-28.31999969482422 -145.2209930419922,28.31999969482422 -145.2209930419922,28.31999969482422 C-145.2209930419922,28.31999969482422 145.2220001220703,28.31800079345703 145.2220001220703,28.31800079345703 C145.2220001220703,28.31800079345703 145.2220001220703,-28.31999969482422 145.2220001220703,-28.31999969482422 C145.2220001220703,-28.31999969482422 -145.2209930419922,-28.31999969482422 -145.2209930419922,-28.31999969482422z"></path></g></g><g transform="matrix(1,0,0,1,131,25.5)" opacity="1" style="display: block;"><g opacity="1" transform="matrix(1,0,0,1,139.11900329589844,407.91900634765625)"><path fill="rgb(255,208,156)" fill-opacity="1" d=" M-9.678999900817871,-8.918999671936035 C-9.678999900817871,-8.918999671936035 9.678999900817871,-8.236000061035156 9.678999900817871,-8.236000061035156 C9.678999900817871,-8.236000061035156 7.3420000076293945,20.981000900268555 7.3420000076293945,20.981000900268555 C4.122000217437744,16.54199981689453 -4.980999946594238,16.645000457763672 -9.670000076293945,18.815000534057617 C-9.670000076293945,18.815000534057617 -9.678999900817871,-8.918999671936035 -9.678999900817871,-8.918999671936035z"></path></g><g opacity="1" transform="matrix(1,0,0,1,68.60399627685547,408.7650146484375)"><path fill="rgb(255,208,156)" fill-opacity="1" d=" M8.336000442504883,-10.211999893188477 C8.336000442504883,-10.211999893188477 -10.64900016784668,-6.367000102996826 -10.64900016784668,-6.367000102996826 C-10.64900016784668,-6.367000102996826 -5.7769999504089355,10.211999893188477 -5.7769999504089355,10.211999893188477 C-3.328000068664551,5.306000232696533 5.668000221252441,3.9179999828338623 10.64900016784668,5.289999961853027 C10.64900016784668,5.289999961853027 8.336000442504883,-10.211999893188477 8.336000442504883,-10.211999893188477z"></path></g><g opacity="1" transform="matrix(1,0,0,1,70.74400329589844,419.93701171875)"><path fill="rgb(133,124,248)" fill-opacity="1" d=" M15.135000228881836,9.708000183105469 C14.519000053405762,1.7020000219345093 13.87600040435791,-1.6460000276565552 8.593999862670898,-8.133999824523926 C4.349999904632568,-11.079000473022461 -0.8569999933242798,-11.26200008392334 -4.795000076293945,-7.445000171661377 C-11.416000366210938,-3.578000068664551 -14.012999534606934,3.507999897003174 -15.135000228881836,11.26200008392334 C-13.071000099182129,5.6539998054504395 -7.375999927520752,1.4600000381469727 -0.48100000619888306,1.1050000190734863 C6.414999961853027,0.7519999742507935 12.503999710083008,4.3429999351501465 15.135000228881836,9.708000183105469z"></path></g><g opacity="1" transform="matrix(1,0,0,1,70.74400329589844,425.94500732421875)"><path fill="rgb(166,163,255)" fill-opacity="1" d=" M15.135000228881836,3.7009999752044678 C12.503999710083008,-1.6640000343322754 6.414999961853027,-5.255000114440918 -0.48100000619888306,-4.9019999504089355 C-7.375999927520752,-4.546999931335449 -13.071000099182129,-0.3529999852180481 -15.135000228881836,5.255000114440918 C-14.913999557495117,5.170000076293945 -14.675000190734863,5.118000030517578 -14.423999786376953,5.105000019073486 C-14.423999786376953,5.105000019073486 14.414999961853027,3.625999927520752 14.414999961853027,3.625999927520752 C14.659000396728516,3.61299991607666 14.906000137329102,3.640000104904175 15.135000228881836,3.7009999752044678z"></path></g><g opacity="1" transform="matrix(1,0,0,1,70.86299896240234,432.62200927734375)"><path fill="rgb(57,64,95)" fill-opacity="1" d=" M14.295999526977539,-3.0510001182556152 C14.295999526977539,-3.0510001182556152 -14.543000221252441,-1.5720000267028809 -14.543000221252441,-1.5720000267028809 C-14.793999671936035,-1.559000015258789 -15.034000396728516,-1.5069999694824219 -15.255000114440918,-1.4220000505447388 C-16.166000366210938,-1.0709999799728394 -16.79599952697754,-0.16300000250339508 -16.743000030517578,0.8619999885559082 C-16.67799949645996,2.138000011444092 -15.581999778747559,3.127000093460083 -14.305000305175781,3.061000108718872 C-14.305000305175781,3.061000108718872 14.532999992370605,1.5820000171661377 14.532999992370605,1.5820000171661377 C15.810999870300293,1.5160000324249268 16.79599952697754,0.421999990940094 16.731000900268555,-0.8550000190734863 C16.67799949645996,-1.8799999952316284 15.958000183105469,-2.7190001010894775 15.015999794006348,-2.9760000705718994 C14.786999702453613,-3.0360000133514404 14.539999961853027,-3.063999891281128 14.295999526977539,-3.0510001182556152z"></path></g><g opacity="1" transform="matrix(1,0,0,1,95.0479965209961,160.32400512695312)"><path fill="rgb(82,169,255)" fill-opacity="1" d=" M-18.618000030517578,-71.95999908447266 C-18.618000030517578,-71.95999908447266 -38.53900146484375,-62.847999572753906 -51.558998107910156,-52.957000732421875 C-51.558998107910156,-52.957000732421875 -59.37200164794922,-49.05400085449219 -62.236000061035156,-34.47700119018555 C-62.236000061035156,-34.47700119018555 -67.70500183105469,-2.9800000190734863 -67.70500183105469,13.680000305175781 C-67.70500183105469,13.680000305175781 -52.340999603271484,73.48600006103516 -52.340999603271484,73.48600006103516 C-52.340999603271484,73.48600006103516 49.18600082397461,65.677001953125 49.18600082397461,65.677001953125 C49.18600082397461,65.677001953125 46.612998962402344,1.4450000524520874 46.612998962402344,1.4450000524520874 C46.612998962402344,1.4450000524520874 56.507999420166016,1.7059999704360962 66.92500305175781,-1.937999963760376 C66.92500305175781,-1.937999963760376 67.70600128173828,-14.17300033569336 60.15399932861328,-40.20199966430664 C60.15399932861328,-40.20199966430664 58.59199905395508,-52.69599914550781 46.87300109863281,-57.38199996948242 C46.87300109863281,-57.38199996948242 5.835000038146973,-73.48600006103516 5.835000038146973,-73.48600006103516 C5.835000038146973,-73.48600006103516 -18.618000030517578,-71.95999908447266 -18.618000030517578,-71.95999908447266z"></path></g><g opacity="1" transform="matrix(1,0,0,1,91.9219970703125,312.97900390625)"><path fill="rgb(57,64,95)" fill-opacity="1" d=" M59.547000885009766,-97.75299835205078 C59.547000885009766,-97.75299835205078 -55.84600067138672,-90.40599822998047 -55.84600067138672,-90.40599822998047 C-55.84600067138672,-90.40599822998047 -83.54100036621094,-92.2239990234375 -79.33599853515625,-60.83000183105469 C-79.33599853515625,-60.83000183105469 -45.308998107910156,57.8650016784668 -45.308998107910156,57.8650016784668 C-45.308998107910156,57.8650016784668 -37.80500030517578,86.02100372314453 -37.80500030517578,86.02100372314453 C-37.80500030517578,86.02100372314453 -37.45800018310547,92.26799774169922 -33.29100036621094,92.96299743652344 C-33.29100036621094,92.96299743652344 -24.1299991607666,97.66000366210938 -14.234000205993652,90.37200164794922 C-14.234000205993652,90.37200164794922 -11.282999992370605,89.6780014038086 -13.366000175476074,83.08399963378906 C-13.366000175476074,83.08399963378906 -24.89900016784668,-12.64799976348877 -30.466999053955078,-40.95199966430664 C-23.371999740600586,-39.779998779296875 1.9129999876022339,-36.5 40.9010009765625,-41.09299850463867 C40.06800079345703,-22.656999588012695 34.926998138427734,73.15299987792969 35.242000579833984,81.98600006103516 C35.242000579833984,81.98600006103516 35.242000579833984,85.63200378417969 35.242000579833984,85.63200378417969 C35.242000579833984,85.63200378417969 34.20100021362305,90.14299774169922 39.409000396728516,91.18399810791016 C39.409000396728516,91.18399810791016 48.4370002746582,98.25499725341797 58.85300064086914,90.96700286865234 C58.85300064086914,90.96700286865234 60.67599868774414,91.35700225830078 60.28499984741211,82.76799774169922 C60.28499984741211,82.76799774169922 80.03199768066406,-43.130001068115234 82.80999755859375,-64.64800262451172 C82.80999755859375,-64.64800262451172 89.95800018310547,-98.25499725341797 59.547000885009766,-97.75299835205078z"></path></g><g opacity="0.4" transform="matrix(1,0,0,1,87.76300048828125,149.05599975585938)"><path fill="rgb(251,249,247)" fill-opacity="1" d=" M18.618000030517578,-15.666000366210938 C18.618000030517578,-15.666000366210938 19.572999954223633,-24.25200080871582 19.572999954223633,-24.25200080871582 C19.572999954223633,-24.25200080871582 -19.57200050354004,-24.25200080871582 -19.57200050354004,-24.25200080871582 C-19.57200050354004,-24.25200080871582 -17.253999710083008,1.9579999446868896 -17.253999710083008,1.9579999446868896 C-17.253999710083008,1.9579999446868896 9.616000175476074,1.9579999446868896 9.616000175476074,1.9579999446868896 C9.616000175476074,1.9579999446868896 8.66100025177002,12.652999877929688 8.66100025177002,12.652999877929688 C8.66100025177002,12.652999877929688 -0.0689999982714653,15.515999794006348 -0.0689999982714653,15.515999794006348 C-0.0689999982714653,15.515999794006348 -8.79699993133545,12.652999877929688 -8.79699993133545,12.652999877929688 C-8.79699993133545,12.652999877929688 -9.069999694824219,6.025000095367432 -9.069999694824219,6.025000095367432 C-9.069999694824219,6.025000095367432 -16.981000900268555,6.025000095367432 -16.981000900268555,6.025000095367432 C-16.981000900268555,6.025000095367432 -15.890000343322754,19.732999801635742 -15.890000343322754,19.732999801635742 C-15.890000343322754,19.732999801635742 0.06800000369548798,24.25200080871582 0.06800000369548798,24.25200080871582 C0.06800000369548798,24.25200080871582 16.025999069213867,19.43199920654297 16.025999069213867,19.43199920654297 C16.025999069213867,19.43199920654297 18.208999633789062,-6.928999900817871 18.208999633789062,-6.928999900817871 C18.208999633789062,-6.928999900817871 -10.16100025177002,-6.928999900817871 -10.16100025177002,-6.928999900817871 C-10.16100025177002,-6.928999900817871 -10.843000411987305,-15.666000366210938 -10.843000411987305,-15.666000366210938 C-10.843000411987305,-15.666000366210938 18.618000030517578,-15.666000366210938 18.618000030517578,-15.666000366210938z"></path></g><g opacity="1" transform="matrix(1,0,0,1,83.86399841308594,32.0890007019043)"><path fill="rgb(57,64,95)" fill-opacity="1" d=" M34.49100112915039,-12.312999725341797 C32.49800109863281,-18.642000198364258 27.893999099731445,-23.591999053955078 22.233999252319336,-26.89900016784668 C18.457000732421875,-29.104999542236328 14.019000053405762,-30.913999557495117 9.718999862670898,-31.774999618530273 C8.178000450134277,-32.08399963378906 6.510000228881836,-32.22800064086914 4.955999851226807,-31.91200065612793 C3.4089999198913574,-31.59600067138672 2.009000062942505,-30.80900001525879 0.38600000739097595,-30.79400062561035 C-1.1139999628067017,-30.7810001373291 -2.5820000171661377,-31.19099998474121 -4.071000099182129,-31.382999420166016 C-6.492000102996826,-31.69700050354004 -8.664999961853027,-31.733999252319336 -10.949000358581543,-31.63800048828125 C-14.116999626159668,-31.503999710083008 -7.915999889373779,-25.583999633789062 -10.776000022888184,-26.952999114990234 C-14.267999649047852,-28.624000549316406 -18.416000366210938,-31.239999771118164 -22.174999237060547,-29.489999771118164 C-24.606000900268555,-28.357999801635742 -26.608999252319336,-26.465999603271484 -27.534000396728516,-23.91699981689453 C-28.667999267578125,-20.795000076293945 -36.95899963378906,-21.486000061035156 -35.768001556396484,-18.46299934387207 C-34.52199935913086,-15.303000450134277 -33.03799819946289,-9.3149995803833 -32.196998596191406,-6.020999908447266 C-31.30699920654297,-2.5390000343322754 -31.665000915527344,1.1410000324249268 -30.79800033569336,4.63700008392334 C-29.691999435424805,9.10099983215332 -28.06599998474121,13.595999717712402 -25.854999542236328,17.645000457763672 C-25.854999542236328,17.645000457763672 14.699999809265137,32.0890007019043 14.699999809265137,32.0890007019043 C18.469999313354492,30.72599983215332 22.871000289916992,26.52400016784668 25.906999588012695,23.961999893188477 C31.02899932861328,19.639999389648438 34.308998107910156,13.256999969482422 35.66400146484375,6.758999824523926 C36.95899963378906,0.5429999828338623 36.38199996948242,-6.514999866485596 34.49100112915039,-12.312999725341797z"></path></g><g opacity="1" transform="matrix(1,0,0,1,84.50700378417969,52.869998931884766)"><path fill="rgb(255,208,156)" fill-opacity="1" d=" M-27.47800064086914,-18.908000946044922 C-27.41900062561035,-15.666999816894531 -27.229999542236328,-12.42300033569336 -27.003000259399414,-9.189000129699707 C-26.52899932861328,-2.434999942779541 -25.81100082397461,4.322000026702881 -24.549999237060547,10.977999687194824 C-24.093000411987305,13.394000053405762 -23.48200035095215,15.800999641418457 -22.92300033569336,18.20400047302246 C-22.33099937438965,20.756000518798828 -20.36199951171875,24.363000869750977 -18.104000091552734,25.974000930786133 C-16.084999084472656,27.413999557495117 -14.645999908447266,27.216999053955078 -12.291000366210938,27.334999084472656 C-9.034000396728516,27.49799919128418 -5.72599983215332,26.55900001525879 -2.740000009536743,25.341999053955078 C0.28600001335144043,24.110000610351562 3.1029999256134033,22.31100082397461 5.658999919891357,20.29199981689453 C8.324999809265137,18.187999725341797 10.729999542236328,15.751999855041504 12.78499984741211,13.04800033569336 C15.277000427246094,9.767000198364258 16.538999557495117,5.498000144958496 19.409000396728516,2.6110000610351562 C21.29800033569336,0.7089999914169312 23.459999084472656,-0.9369999766349792 25.084999084472656,-3.0889999866485596 C26.73200035095215,-5.264999866485596 27.47800064086914,-8.067999839782715 27.395000457763672,-10.777999877929688 C27.368999481201172,-11.630000114440918 27.256000518798828,-12.494999885559082 26.892000198364258,-13.265000343322754 C25.42300033569336,-16.37299919128418 22.507999420166016,-14.36400032043457 20.97100067138672,-12.526000022888184 C19.764999389648438,-11.083999633789062 19.094999313354492,-9.32699966430664 18.643999099731445,-7.519999980926514 C18.402000427246094,-6.552999973297119 18.253999710083008,-5.559000015258789 18,-4.5960001945495605 C17.72800064086914,-3.5759999752044678 17.391000747680664,-3.385999917984009 16.444000244140625,-3.115999937057495 C16.444000244140625,-3.115999937057495 13.447999954223633,-2.1619999408721924 14.338000297546387,-5.804999828338623 C14.338000297546387,-5.804999828338623 15.138999938964844,-14.029000282287598 15.140999794006348,-14.048999786376953 C15.312999725341797,-15.810999870300293 14.6899995803833,-18.04400062561035 13.666999816894531,-19.458999633789062 C9.718999862670898,-24.922000885009766 -0.6589999794960022,-20.509000778198242 -5.256999969482422,-19.2549991607666 C-9.904999732971191,-17.98699951171875 -13.090999603271484,-17.333999633789062 -17.062000274658203,-20.208999633789062 C-17.062000274658203,-20.208999633789062 -27.131000518798828,-27.49799919128418 -27.47800064086914,-18.908000946044922z"></path></g><g opacity="1" transform="matrix(1,0,0,1,89.77999877929688,79.83999633789062)"><path fill="rgb(255,208,156)" fill-opacity="1" d=" M9.065999984741211,-17.570999145507812 C9.065999984741211,-17.570999145507812 7.818999767303467,-2.4070000648498535 12.116000175476074,8.265000343322754 C12.116000175476074,8.265000343322754 14.350000381469727,10.998000144958496 8.218999862670898,14.121000289916992 C8.218999862670898,14.121000289916992 -1.6330000162124634,17.570999145507812 -11.529000282287598,13.862000465393066 C-11.529000282287598,13.862000465393066 -14.348999977111816,13.123000144958496 -13.350000381469727,8.265000343322754 C-13.350000381469727,8.265000343322754 -12.701000213623047,2.447999954223633 -12.569999694824219,-0.3050000071525574 C-12.569999694824219,-0.3050000071525574 9.065999984741211,-17.570999145507812 9.065999984741211,-17.570999145507812z"></path></g><g opacity="1" transform="matrix(1,0,0,1,99.41100311279297,124.12899780273438)"><path fill="rgb(237,245,255)" fill-opacity="1" d=" M-13.215999603271484,-20.472000122070312 C-13.215999603271484,-20.472000122070312 -9.357000350952148,16.177000045776367 -9.357000350952148,16.177000045776367 C-9.246000289916992,17.22100067138672 -8.51099967956543,18.094999313354492 -7.497000217437744,18.368000030517578 C-4.48799991607666,19.17799949645996 2.055000066757202,20.472000122070312 7.984000205993652,18.475000381469727 C8.937999725341797,18.15399932861328 9.612000465393066,17.29400062561035 9.708000183105469,16.29199981689453 C9.708000183105469,16.29199981689453 13.215999603271484,-20.472000122070312 13.215999603271484,-20.472000122070312 C13.215999603271484,-20.472000122070312 -13.215999603271484,-20.472000122070312 -13.215999603271484,-20.472000122070312z"></path></g><g opacity="1" transform="matrix(0.789900004863739,0,0,0.789900004863739,70.81300354003906,172.38999938964844)"><path fill="url(#__lottie_element_112)" fill-opacity="1" d=" M-62.54199981689453,-62.63999938964844 C-62.54199981689453,-62.63999938964844 -88.56300354003906,-14.020999908447266 -88.56300354003906,-14.020999908447266 C-88.56300354003906,-14.020999908447266 35.14099884033203,62.63999938964844 35.14099884033203,62.63999938964844 C35.14099884033203,62.63999938964844 88.56300354003906,-58.64799880981445 88.56300354003906,-58.64799880981445 C88.56300354003906,-58.64799880981445 -62.507999420166016,-62.63999938964844 -62.507999420166016,-62.63999938964844 C-62.507999420166016,-62.63999938964844 -62.54199981689453,-62.63999938964844 -62.54199981689453,-62.63999938964844z"></path></g><g opacity="1" transform="matrix(1,0,0,1,99.41000366210938,103.65699768066406)"><path fill="rgb(220,232,247)" fill-opacity="1" d=" M13.215999603271484,0 C13.215999603271484,1.2580000162124634 7.298999786376953,2.2769999504089355 0,2.2769999504089355 C-7.298999786376953,2.2769999504089355 -13.215999603271484,1.2580000162124634 -13.215999603271484,0 C-13.215999603271484,-1.2580000162124634 -7.298999786376953,-2.2769999504089355 0,-2.2769999504089355 C7.298999786376953,-2.2769999504089355 13.215999603271484,-1.2580000162124634 13.215999603271484,0z"></path></g><g opacity="1" transform="matrix(1,0,0,1,52.731998443603516,191.572998046875)"><path fill="rgb(199,211,232)" fill-opacity="1" d=" M52.731998443603516,30.844999313354492 C52.731998443603516,30.844999313354492 -32.41999816894531,30.844999313354492 -32.41999816894531,30.844999313354492 C-32.41999816894531,30.844999313354492 -52.731998443603516,-30.844999313354492 -52.731998443603516,-30.844999313354492 C-52.731998443603516,-30.844999313354492 33.20199966430664,-30.844999313354492 33.20199966430664,-30.844999313354492 C33.20199966430664,-30.844999313354492 52.731998443603516,30.844999313354492 52.731998443603516,30.844999313354492z"></path></g><g opacity="1" transform="matrix(1,0,0,1,118.13700103759766,209.27000427246094)"><path fill="rgb(185,199,221)" fill-opacity="1" d=" M-12.67300033569336,13.14799976348877 C-12.67300033569336,13.14799976348877 14.013999938964844,-8.449000358581543 14.013999938964844,-8.449000358581543 C14.013999938964844,-8.449000358581543 14.013999938964844,-13.14799976348877 14.013999938964844,-13.14799976348877 C14.013999938964844,-13.14799976348877 -14.013999938964844,8.914999961853027 -14.013999938964844,8.914999961853027 C-14.013999938964844,8.914999961853027 -12.67300033569336,13.14799976348877 -12.67300033569336,13.14799976348877z"></path></g><g opacity="1" transform="matrix(1,0,0,1,114.64399719238281,207.1529998779297)"><path fill="rgb(237,245,255)" fill-opacity="1" d=" M-10.520999908447266,11.031000137329102 C-10.520999908447266,11.031000137329102 17.5049991607666,-11.031000137329102 17.5049991607666,-11.031000137329102 C17.5049991607666,-11.031000137329102 -17.5049991607666,-11.031000137329102 -17.5049991607666,-11.031000137329102 C-17.5049991607666,-11.031000137329102 -10.520999908447266,11.031000137329102 -10.520999908447266,11.031000137329102z"></path></g><g opacity="1" transform="matrix(1,0,0,1,130.17799377441406,149.99000549316406)"><path fill="rgb(255,208,156)" fill-opacity="1" d=" M36.87200164794922,11.64799976348877 C36.87200164794922,11.64799976348877 -8.04800033569336,-22.451000213623047 -8.04800033569336,-22.451000213623047 C-8.04800033569336,-22.451000213623047 -12.083999633789062,-24.663000106811523 -13.255999565124512,-27.525999069213867 C-13.255999565124512,-27.525999069213867 -20.025999069213867,-37.808998107910156 -24.974000930786133,-36.50699996948242 C-24.974000930786133,-36.50699996948242 -28.099000930786133,-37.41699981689453 -36.821998596191406,-29.347999572753906 C-36.821998596191406,-29.347999572753906 -42.029998779296875,-24.79199981689453 -44.50400161743164,-21.409000396728516 C-44.50400161743164,-21.409000396728516 -45.28499984741211,-19.976999282836914 -44.50400161743164,-18.1560001373291 C-44.50400161743164,-18.1560001373291 -42.13800048828125,-11.777999877929688 -35.50899887084961,-13.208999633789062 C-35.50899887084961,-13.208999633789062 -28.996999740600586,-14.25 -27.051000595092773,-14.902000427246094 C-27.051000595092773,-14.902000427246094 -21.327999114990234,-15.795999526977539 -18.724000930786133,-12.486000061035156 C-18.724000930786133,-12.486000061035156 15.258999824523926,24.534000396728516 15.258999824523926,24.534000396728516 C15.258999824523926,24.534000396728516 25.15399932861328,37.808998107910156 36.87200164794922,30.7810001373291 C36.87200164794922,30.7810001373291 46.507999420166016,23.492000579833984 36.87200164794922,11.64799976348877z"></path></g><g opacity="0.1" transform="matrix(1,0,0,1,23.972000122070312,204.39599609375)"><path fill="rgb(57,64,95)" fill-opacity="1" d=" M-5.2230000495910645,9.95199966430664 C-5.2230000495910645,9.95199966430664 -10.170999526977539,3.184000015258789 -11.342000007629395,-3.453000068664551 C-11.342000007629395,-3.453000068664551 -11.994000434875488,-7.0970001220703125 -5.2230000495910645,-9.180000305175781 C-5.2230000495910645,-9.180000305175781 5.063000202178955,-12.303000450134277 8.447999954223633,-10.480999946594238 C8.447999954223633,-10.480999946594238 13.656000137329102,-6.9670000076293945 10.140000343322754,2.7939999103546143 C10.140000343322754,2.7939999103546143 9.229000091552734,7.479000091552734 1.5479999780654907,9.95199966430664 C1.5479999780654907,9.95199966430664 -2.489000082015991,12.425000190734863 -5.2230000495910645,9.95199966430664z"></path></g><g opacity="1" transform="matrix(1,0,0,1,21.93899917602539,203.156005859375)"><path fill="rgb(255,208,156)" fill-opacity="1" d=" M-6.053999900817871,9.890999794006348 C-6.053999900817871,9.890999794006348 -11.001999855041504,3.121999979019165 -12.173999786376953,-3.5139999389648438 C-12.173999786376953,-3.5139999389648438 -12.824999809265137,-7.1579999923706055 -6.053999900817871,-9.239999771118164 C-6.053999900817871,-9.239999771118164 4.23199987411499,-12.36400032043457 7.617000102996826,-10.541999816894531 C7.617000102996826,-10.541999816894531 12.824999809265137,-7.0279998779296875 9.309000015258789,2.7339999675750732 C9.309000015258789,2.7339999675750732 8.39799976348877,7.416999816894531 0.7170000076293945,9.890999794006348 C0.7170000076293945,9.890999794006348 -3.319999933242798,12.36400032043457 -6.053999900817871,9.890999794006348z"></path></g><g opacity="0.1" transform="matrix(1,0,0,1,87.57099914550781,76.56500244140625)"><path fill="rgb(57,64,95)" fill-opacity="1" d=" M11.140999794006348,-11.538999557495117 C11.140999794006348,-11.538999557495117 6.175000190734863,0.12600000202655792 -10.359999656677246,2.9700000286102295 C-10.359999656677246,2.9700000286102295 -11.140999794006348,11.539999961853027 -11.140999794006348,11.539999961853027 C-11.140999794006348,11.539999961853027 8.727999687194824,11.541000366210938 11.140999794006348,-11.538999557495117z"></path></g><g opacity="1" transform="matrix(1,0,0,1,51.89899826049805,189.8719940185547)"><path fill="rgb(237,245,255)" fill-opacity="1" d=" M5.894000053405762,-1.1679999828338623 C6.539000034332275,2.0859999656677246 4.421999931335449,5.245999813079834 1.1670000553131104,5.890999794006348 C-2.0869998931884766,6.534999847412109 -5.249000072479248,4.421000003814697 -5.894000053405762,1.1670000553131104 C-6.539000034332275,-2.0869998931884766 -4.421999931335449,-5.248000144958496 -1.1670000553131104,-5.89300012588501 C2.0880000591278076,-6.535999774932861 5.249000072479248,-4.421000003814697 5.894000053405762,-1.1679999828338623z"></path></g><g opacity="1" transform="matrix(1,0,0,1,114.49700164794922,97.4219970703125)"><path fill="rgb(199,211,232)" fill-opacity="1" d=" M9.267000198364258,-7.452000141143799 C9.074999809265137,-7.994999885559082 8.482999801635742,-8.27400016784668 7.938000202178955,-8.086999893188477 C7.938000202178955,-8.086999893188477 -0.17299999296665192,-5.2230000495910645 -0.17299999296665192,-5.2230000495910645 C-0.38499999046325684,-5.1479997634887695 -0.5669999718666077,-5.007999897003174 -0.6919999718666077,-4.820000171661377 C-0.6919999718666077,-4.820000171661377 -9.458000183105469,8.27400016784668 -9.458000183105469,8.27400016784668 C-9.458000183105469,8.27400016784668 -6.757999897003174,7.986000061035156 -6.757999897003174,7.986000061035156 C-6.757999897003174,7.986000061035156 0.847000002861023,-3.375 0.847000002861023,-3.375 C0.847000002861023,-3.375 8.630999565124512,-6.123000144958496 8.630999565124512,-6.123000144958496 C9.17300033569336,-6.314000129699707 9.458000183105469,-6.909999847412109 9.267000198364258,-7.452000141143799z"></path></g><g opacity="1" transform="matrix(1,0,0,1,64.67400360107422,46.18199920654297)"><path stroke-linecap="round" stroke-linejoin="round" fill-opacity="0" stroke="rgb(209,147,94)" stroke-opacity="1" stroke-width="2" d=" M-3.5160000324249268,2.134000062942505 C-3.5160000324249268,2.134000062942505 0.0010000000474974513,-2.134000062942505 3.5160000324249268,2.134000062942505"></path></g><g opacity="1" transform="matrix(1,0,0,1,81.47799682617188,46.86899948120117)"><path stroke-linecap="round" stroke-linejoin="round" fill-opacity="0" stroke="rgb(209,147,94)" stroke-opacity="1" stroke-width="2" d=" M-3.8480000495910645,2.3350000381469727 C-3.8480000495910645,2.3350000381469727 0.0010000000474974513,-2.3359999656677246 3.8480000495910645,2.3350000381469727"></path></g><g opacity="1" transform="matrix(1,0,0,1,72.64900207519531,70.66200256347656)"><path fill="rgb(255,255,255)" fill-opacity="1" d=" M-5.839000225067139,-6.145999908447266 C-3.4670000076293945,-5.427000045776367 1.1399999856948853,-4.436999797821045 5.599999904632568,-5.770999908447266 C6.521999835968018,-6.046999931335449 7.25,-4.9770002365112305 6.635000228881836,-4.236999988555908 C3.0399999618530273,0.09000000357627869 -3.9049999713897705,6.364999771118164 -7.047999858856201,-4.966000080108643 C-7.25,-5.692999839782715 -6.561999797821045,-6.364999771118164 -5.839000225067139,-6.145999908447266z"></path></g></g><g transform="matrix(1,0,0,1,253.5,436)" opacity="1" style="display: block;"><g opacity="1" transform="matrix(1,0,0,1,16.716999053955078,10.461000442504883)"><path fill="rgb(133,124,248)" fill-opacity="1" d=" M-15.152999877929688,10.461000442504883 C-15.095000267028809,2.430999994277954 -12.700901985168457,2.9564716815948486 -7.883901596069336,-3.881528377532959 C-4.699156761169434,-6.390573978424072 4.4597039222717285,-7.493943214416504 7.38482141494751,-3.5248374938964844 C11.611418724060059,2.5716254711151123 13.494000434875488,2.249000072479248 15.152999877929688,9.906000137329102 C12.70300006866455,4.455999851226807 6.850337982177734,6.383543968200684 -0.05366183817386627,6.510544300079346 C-6.9576616287231445,6.636544227600098 -12.902000427246094,4.925000190734863 -15.152999877929688,10.461000442504883z"></path></g><g opacity="1" transform="matrix(1,0,0,1,16.716999053955078,16.025999069213867)"><path fill="rgb(166,163,255)" fill-opacity="1" d=" M-15.152999877929688,4.896999835968018 C-12.902000427246094,-0.6389999985694885 -6.776673316955566,1.0715813636779785 0.12732675671577454,0.9455813765525818 C7.031326770782471,0.8185814023017883 12.70300006866455,-1.1080000400543213 15.152999877929688,4.3420000076293945 C14.925999641418457,4.2729997634887695 14.682999610900879,4.23799991607666 14.430999755859375,4.243000030517578 C14.430999755859375,4.243000030517578 -14.4399995803833,4.770999908447266 -14.4399995803833,4.770999908447266 C-14.6850004196167,4.776000022888184 -14.928999900817871,4.820000171661377 -15.152999877929688,4.896999835968018z"></path></g><g opacity="1" transform="matrix(1,0,0,1,16.756000518798828,22.850000381469727)"><path fill="rgb(57,64,95)" fill-opacity="1" d=" M-2.6555774211883545,-11.92581844329834 C-2.6555774211883545,-11.92581844329834 1.7060348987579346,-11.879817962646484 1.7060348987579346,-11.879817962646484 C1.958034873008728,-11.884818077087402 8.916388511657715,-8.23406982421875 9.143388748168945,-8.165070533752441 C10.07538890838623,-7.878069877624512 15.127041816711426,-4.161595821380615 14.976137161254883,-0.9958013296127319 C14.909215927124023,0.5044519305229187 15.755000114440918,2.0339999198913574 14.47599983215332,2.056999921798706 C14.47599983215332,2.056999921798706 -14.395000457763672,2.5859999656677246 -14.395000457763672,2.5859999656677246 C-15.67300033569336,2.6089999675750732 -14.749252319335938,1.5914287567138672 -15.090937614440918,0.36394089460372925 C-16.12660789489746,-3.13531494140625 -10.375988960266113,-7.690411567687988 -9.452988624572754,-8.011411666870117 C-9.228988647460938,-8.088411331176758 -2.9005773067474365,-11.920819282531738 -2.6555774211883545,-11.92581844329834z"></path></g></g><g transform="matrix(1,0,0,1,89.75,139.05332946777344)" opacity="1" style="display: block;"><g opacity="0.1" transform="matrix(1,0,0,1,17.400999069213867,16.35099983215332)"><path fill="rgb(127,127,127)" fill-opacity="1" d=" M-4.130000114440918,8.027000427246094 C-4.130000114440918,8.027000427246094 -4.130000114440918,8.008999824523926 -4.130000114440918,8.008999824523926 C-4.130000114440918,8.008999824523926 -3.743000030517578,9.218999862670898 -3.743000030517578,9.218999862670898 C-3.743000030517578,9.218999862670898 -4.130000114440918,8.027000427246094 -4.130000114440918,8.027000427246094z M14.324000358581543,7.456999778747559 C14.324000358581543,7.456999778747559 14.343999862670898,7.4629998207092285 14.343999862670898,7.4629998207092285 C14.343999862670898,7.4629998207092285 14.324000358581543,7.482999801635742 14.324000358581543,7.482999801635742 C14.324000358581543,7.482999801635742 14.324000358581543,7.456999778747559 14.324000358581543,7.456999778747559z M-4.1579999923706055,-7.2179999351501465 C-4.1579999923706055,-7.2179999351501465 -8.960000038146973,-5.5320000648498535 -8.960000038146973,-5.5320000648498535 C-8.960000038146973,-5.5320000648498535 -14.333000183105469,-6.761000156402588 -14.333000183105469,-6.761000156402588 C-14.333000183105469,-6.761000156402588 -17.391000747680664,-3.505000114440918 -17.391000747680664,-3.505000114440918 C-17.391000747680664,-3.505000114440918 -17.38599967956543,-3.500999927520752 -17.38599967956543,-3.500999927520752 C-17.38599967956543,-3.500999927520752 -17.391000747680664,4.294000148773193 -17.391000747680664,4.294000148773193 C-17.391000747680664,4.294000148773193 -17.400999069213867,9.28499984741211 -17.400999069213867,9.28499984741211 C-17.400999069213867,9.28499984741211 -14.29800033569336,12.404999732971191 -14.29800033569336,12.404999732971191 C-14.29800033569336,12.404999732971191 -14.29699993133545,12.432000160217285 -14.29699993133545,12.432000160217285 C-14.29699993133545,12.432000160217285 -8.92300033569336,11.263999938964844 -8.92300033569336,11.263999938964844 C-8.92300033569336,11.263999938964844 -8.92300033569336,11.26099967956543 -8.92300033569336,11.26099967956543 C-8.92300033569336,11.26099967956543 -4.188000202178955,12.944999694824219 -4.188000202178955,12.944999694824219 C-4.188000202178955,12.944999694824219 -3.072999954223633,16.35099983215332 -3.072999954223633,16.35099983215332 C-3.072999954223633,16.35099983215332 3.0820000171661377,16.35099983215332 3.0820000171661377,16.35099983215332 C3.0820000171661377,16.35099983215332 3.0820000171661377,16.341999053955078 3.0820000171661377,16.341999053955078 C3.0820000171661377,16.341999053955078 4.2230000495910645,13.062999725341797 4.2230000495910645,13.062999725341797 C4.2230000495910645,13.062999725341797 8.932000160217285,11.359000205993652 8.932000160217285,11.359000205993652 C8.932000160217285,11.359000205993652 8.932000160217285,11.343999862670898 8.932000160217285,11.343999862670898 C8.932000160217285,11.343999862670898 14.324000358581543,12.473999977111816 14.324000358581543,12.473999977111816 C14.324000358581543,12.473999977111816 17.400999069213867,9.333000183105469 17.400999069213867,9.333000183105469 C17.400999069213867,9.333000183105469 17.400999069213867,4.245999813079834 17.400999069213867,4.245999813079834 C17.400999069213867,4.245999813079834 15.993000030517578,5.7270002365112305 15.993000030517578,5.7270002365112305 C15.993000030517578,5.7270002365112305 17.363000869750977,4.265999794006348 17.363000869750977,4.265999794006348 C17.363000869750977,4.265999794006348 17.357999801635742,4.263000011444092 17.357999801635742,4.263000011444092 C17.357999801635742,4.263000011444092 17.391000747680664,-3.5329999923706055 17.391000747680664,-3.5329999923706055 C17.391000747680664,-3.5329999923706055 14.276000022888184,-6.761000156402588 14.276000022888184,-6.761000156402588 C14.276000022888184,-6.761000156402588 8.87399959564209,-5.590000152587891 8.87399959564209,-5.590000152587891 C8.87399959564209,-5.590000152587891 4.186999797821045,-7.247000217437744 4.186999797821045,-7.247000217437744 C4.186999797821045,-7.247000217437744 3.0429999828338623,-10.675000190734863 3.0429999828338623,-10.675000190734863 C3.0429999828338623,-10.675000190734863 -3.0439999103546143,-10.704000473022461 -3.0439999103546143,-10.704000473022461 C-3.0439999103546143,-10.704000473022461 -4.1579999923706055,-7.2179999351501465 -4.1579999923706055,-7.2179999351501465z"></path></g><g opacity="1" transform="matrix(1,0,0,1,17.399999618530273,11.038999557495117)"><path fill="rgb(255,208,156)" fill-opacity="1" d=" M-3.0439999103546143,-11.038999557495117 C-3.0439999103546143,-11.038999557495117 -4.1579999923706055,-7.552999973297119 -4.1579999923706055,-7.552999973297119 C-4.1579999923706055,-7.552999973297119 -8.960000038146973,-5.868000030517578 -8.960000038146973,-5.868000030517578 C-8.960000038146973,-5.868000030517578 -14.333000183105469,-7.0960001945495605 -14.333000183105469,-7.0960001945495605 C-14.333000183105469,-7.0960001945495605 -17.391000747680664,-3.8389999866485596 -17.391000747680664,-3.8389999866485596 C-17.391000747680664,-3.8389999866485596 -13.104000091552734,-1.6390000581741333 -13.104000091552734,-1.6390000581741333 C-13.104000091552734,-1.6390000581741333 -13.074000358581543,1.6460000276565552 -13.074000358581543,1.6460000276565552 C-13.074000358581543,1.6460000276565552 -17.391000747680664,3.9600000381469727 -17.391000747680664,3.9600000381469727 C-17.391000747680664,3.9600000381469727 -14.333000183105469,7.103000164031982 -14.333000183105469,7.103000164031982 C-14.333000183105469,7.103000164031982 -8.87399959564209,6.046000003814697 -8.87399959564209,6.046000003814697 C-8.87399959564209,6.046000003814697 -4.130000114440918,7.675000190734863 -4.130000114440918,7.675000190734863 C-4.130000114440918,7.675000190734863 -3.052999973297119,11.038999557495117 -3.052999973297119,11.038999557495117 C-3.052999973297119,11.038999557495117 3.072000026702881,10.996000289916992 3.072000026702881,10.996000289916992 C3.072000026702881,10.996000289916992 4.215000152587891,7.617000102996826 4.215000152587891,7.617000102996826 C4.215000152587891,7.617000102996826 8.932000160217285,5.988999843597412 8.932000160217285,5.988999843597412 C8.932000160217285,5.988999843597412 14.36299991607666,7.13100004196167 14.36299991607666,7.13100004196167 C14.36299991607666,7.13100004196167 17.364999771118164,3.931999921798706 17.364999771118164,3.931999921798706 C17.364999771118164,3.931999921798706 13.048999786376953,1.6460000276565552 13.048999786376953,1.6460000276565552 C13.048999786376953,1.6460000276565552 13.104999542236328,-1.6109999418258667 13.104999542236328,-1.6109999418258667 C13.104999542236328,-1.6109999418258667 17.391000747680664,-3.868000030517578 17.391000747680664,-3.868000030517578 C17.391000747680664,-3.868000030517578 14.277000427246094,-7.0960001945495605 14.277000427246094,-7.0960001945495605 C14.277000427246094,-7.0960001945495605 8.87600040435791,-5.923999786376953 8.87600040435791,-5.923999786376953 C8.87600040435791,-5.923999786376953 4.189000129699707,-7.580999851226807 4.189000129699707,-7.580999851226807 C4.189000129699707,-7.580999851226807 3.0439999103546143,-11.010000228881836 3.0439999103546143,-11.010000228881836 C3.0439999103546143,-11.010000228881836 -3.0439999103546143,-11.038999557495117 -3.0439999103546143,-11.038999557495117z"></path></g><g opacity="1" transform="matrix(1,0,0,1,17.452999114990234,11.208000183105469)"><path fill="rgb(255,182,84)" fill-opacity="1" d=" M5.564000129699707,0.0010000000474974513 C5.564000129699707,1.8519999980926514 3.072999954223633,3.3519999980926514 0.0010000000474974513,3.3519999980926514 C-3.072999954223633,3.3519999980926514 -5.564000129699707,1.8519999980926514 -5.564000129699707,0.0010000000474974513 C-5.564000129699707,-1.8509999513626099 -3.072999954223633,-3.3519999980926514 0.0010000000474974513,-3.3519999980926514 C3.072999954223633,-3.3519999980926514 5.564000129699707,-1.8509999513626099 5.564000129699707,0.0010000000474974513z"></path></g><g opacity="1" transform="matrix(1,0,0,1,2.1670000553131104,11.100000381469727)"><path fill="rgb(248,149,43)" fill-opacity="1" d=" M-2.1579999923706055,3.9000000953674316 C-2.1579999923706055,3.9000000953674316 -2.1519999504089355,-3.9000000953674316 -2.1519999504089355,-3.9000000953674316 C-2.1519999504089355,-3.9000000953674316 2.128999948501587,-1.7009999752044678 2.128999948501587,-1.7009999752044678 C2.128999948501587,-1.7009999752044678 2.1579999923706055,1.5850000381469727 2.1579999923706055,1.5850000381469727 C2.1579999923706055,1.5850000381469727 -2.1579999923706055,3.9000000953674316 -2.1579999923706055,3.9000000953674316z"></path></g><g opacity="1" transform="matrix(1,0,0,1,1.5529999732971191,19.05500030517578)"><path fill="rgb(255,182,84)" fill-opacity="1" d=" M1.5140000581741333,-0.9129999876022339 C1.5140000581741333,-0.9129999876022339 -1.5440000295639038,-4.058000087738037 -1.5440000295639038,-4.058000087738037 C-1.5440000295639038,-4.058000087738037 -1.5529999732971191,0.9350000023841858 -1.5529999732971191,0.9350000023841858 C-1.5529999732971191,0.9350000023841858 1.5529999732971191,4.058000087738037 1.5529999732971191,4.058000087738037 C1.5529999732971191,4.058000087738037 1.5140000581741333,-0.9129999876022339 1.5140000581741333,-0.9129999876022339z"></path></g><g opacity="1" transform="matrix(1,0,0,1,5.800000190734863,20.10700035095215)"><path fill="rgb(248,149,43)" fill-opacity="1" d=" M2.744999885559082,-3.0280001163482666 C2.744999885559082,-3.0280001163482666 2.677999973297119,1.8609999418258667 2.677999973297119,1.8609999418258667 C2.677999973297119,1.8609999418258667 -2.697000026702881,3.0280001163482666 -2.697000026702881,3.0280001163482666 C-2.697000026702881,3.0280001163482666 -2.744999885559082,-1.968000054359436 -2.744999885559082,-1.968000054359436 C-2.744999885559082,-1.968000054359436 2.744999885559082,-3.0280001163482666 2.744999885559082,-3.0280001163482666z"></path></g><g opacity="1" transform="matrix(1,0,0,1,17.405000686645508,24.5310001373291)"><path fill="rgb(255,182,84)" fill-opacity="1" d=" M-3.0769999027252197,-2.4760000705718994 C-3.0769999027252197,-2.4760000705718994 -3.0769999027252197,2.5230000019073486 -3.0769999027252197,2.5230000019073486 C-3.0769999027252197,2.5230000019073486 3.0769999027252197,2.5230000019073486 3.0769999027252197,2.5230000019073486 C3.0769999027252197,2.5230000019073486 3.0769999027252197,-2.5230000019073486 3.0769999027252197,-2.5230000019073486 C3.0769999027252197,-2.5230000019073486 -3.053999900817871,-2.453000068664551 -3.0769999027252197,-2.4760000705718994z"></path></g><g opacity="1" transform="matrix(1,0,0,1,10.871999740600586,20.363000869750977)"><path fill="rgb(255,182,84)" fill-opacity="1" d=" M-2.3369998931884766,-3.2869999408721924 C-2.3369998931884766,-3.2869999408721924 -2.3989999294281006,1.5989999771118164 -2.3989999294281006,1.5989999771118164 C-2.3989999294281006,1.5989999771118164 2.3459999561309814,3.2869999408721924 2.3459999561309814,3.2869999408721924 C2.3459999561309814,3.2869999408721924 2.3989999294281006,-1.649999976158142 2.3989999294281006,-1.649999976158142 C2.3989999294281006,-1.649999976158142 -2.3369998931884766,-3.2869999408721924 -2.3369998931884766,-3.2869999408721924z"></path></g><g opacity="1" transform="matrix(1,0,0,1,32.60200119018555,11.071000099182129)"><path fill="rgb(248,149,43)" fill-opacity="1" d=" M2.190999984741211,-3.9000000953674316 C2.190999984741211,-3.9000000953674316 2.1579999923706055,3.9000000953674316 2.1579999923706055,3.9000000953674316 C2.1579999923706055,3.9000000953674316 -2.190999984741211,1.6299999952316284 -2.190999984741211,1.6299999952316284 C-2.190999984741211,1.6299999952316284 -2.1480000019073486,-1.6740000247955322 -2.1480000019073486,-1.6740000247955322 C-2.1480000019073486,-1.6740000247955322 2.190999984741211,-3.9000000953674316 2.190999984741211,-3.9000000953674316z"></path></g><g opacity="1" transform="matrix(1,0,0,1,33.26300048828125,19.070999145507812)"><path fill="rgb(255,182,84)" fill-opacity="1" d=" M1.5390000343322754,0.9670000076293945 C1.5390000343322754,0.9670000076293945 1.496000051498413,-4.10699987411499 1.496000051498413,-4.10699987411499 C1.496000051498413,-4.10699987411499 -1.5379999876022339,-0.8830000162124634 -1.5379999876022339,-0.8830000162124634 C-1.5379999876022339,-0.8830000162124634 -1.5379999876022339,4.10699987411499 -1.5379999876022339,4.10699987411499 C-1.5379999876022339,4.10699987411499 1.5390000343322754,0.9670000076293945 1.5390000343322754,0.9670000076293945z"></path></g><g opacity="1" transform="matrix(1,0,0,1,29.041000366210938,20.094999313354492)"><path fill="rgb(248,149,43)" fill-opacity="1" d=" M-2.7119998931884766,-3.0829999446868896 C-2.7119998931884766,-3.0829999446868896 -2.7079999446868896,1.9529999494552612 -2.7079999446868896,1.9529999494552612 C-2.7079999446868896,1.9529999494552612 2.684999942779541,3.0829999446868896 2.684999942779541,3.0829999446868896 C2.684999942779541,3.0829999446868896 2.7119998931884766,-1.937000036239624 2.7119998931884766,-1.937000036239624 C2.7119998931884766,-1.937000036239624 -2.7119998931884766,-3.0829999446868896 -2.7119998931884766,-3.0829999446868896z"></path></g><g opacity="1" transform="matrix(1,0,0,1,23.975000381469727,20.385000228881836)"><path fill="rgb(255,182,84)" fill-opacity="1" d=" M2.3589999675750732,1.6670000553131104 C2.3589999675750732,1.6670000553131104 2.3589999675750732,-3.374000072479248 2.3589999675750732,-3.374000072479248 C2.3589999675750732,-3.374000072479248 -2.3589999675750732,-1.7400000095367432 -2.3589999675750732,-1.7400000095367432 C-2.3589999675750732,-1.7400000095367432 -2.3589999675750732,3.374000072479248 -2.3589999675750732,3.374000072479248 C-2.3589999675750732,3.374000072479248 2.3589999675750732,1.6670000553131104 2.3589999675750732,1.6670000553131104z"></path></g><g opacity="1" transform="matrix(1,0,0,1,21.054000854492188,22.854000091552734)"><path fill="rgb(248,149,43)" fill-opacity="1" d=" M-0.5740000009536743,4.198999881744385 C-0.5740000009536743,4.198999881744385 -0.5740000009536743,-0.8629999756813049 -0.5740000009536743,-0.8629999756813049 C-0.5740000009536743,-0.8629999756813049 0.5630000233650208,-4.198999881744385 0.5630000233650208,-4.198999881744385 C0.5630000233650208,-4.198999881744385 0.5740000009536743,0.8999999761581421 0.5740000009536743,0.8999999761581421 C0.5740000009536743,0.8999999761581421 -0.5740000009536743,4.198999881744385 -0.5740000009536743,4.198999881744385z"></path></g><g opacity="1" transform="matrix(1,0,0,1,13.78600025177002,22.88800048828125)"><path fill="rgb(248,149,43)" fill-opacity="1" d=" M0.5799999833106995,-0.7850000262260437 C0.5799999833106995,-0.7850000262260437 -0.5189999938011169,-4.166999816894531 -0.5189999938011169,-4.166999816894531 C-0.5189999938011169,-4.166999816894531 -0.5799999833106995,0.7400000095367432 -0.5799999833106995,0.7400000095367432 C-0.5799999833106995,0.7400000095367432 0.5419999957084656,4.166999816894531 0.5419999957084656,4.166999816894531 C0.5419999957084656,4.166999816894531 0.5799999833106995,-0.7850000262260437 0.5799999833106995,-0.7850000262260437z"></path></g></g></g></svg>