<svg xmlns="http://www.w3.org/2000/svg" viewBox="0 0 450 475" width="450" height="475" preserveAspectRatio="xMidYMid slice" style="width: 100%; height: 100%; transform: translate3d(0px, 0px, 0px);"><defs><clipPath id="__lottie_element_184"><rect width="450" height="475" x="0" y="0"></rect></clipPath><linearGradient id="__lottie_element_188" spreadMethod="pad" gradientUnits="userSpaceOnUse" x1="28.5" y1="-23.625" x2="39.4379997253418" y2="-23.5"><stop offset="0%" stop-color="rgb(65,135,247)"></stop><stop offset="50%" stop-color="rgb(56,69,251)"></stop><stop offset="100%" stop-color="rgb(47,3,255)"></stop></linearGradient></defs><g clip-path="url(#__lottie_element_184)"><g transform="matrix(1,0,0,1,9,17.5)" opacity="1" style="display: block;"><g opacity="1" transform="matrix(1,0,0,1,127.05999755859375,123.97799682617188)"><path fill="rgb(236,239,243)" fill-opacity="1" d=" M62.000999450683594,28.288000106811523 C62.000999450683594,28.288000106811523 -62.00199890136719,28.288000106811523 -62.00199890136719,28.288000106811523 C-62.00199890136719,28.288000106811523 -62.00199890136719,-28.288000106811523 -62.00199890136719,-28.288000106811523 C-62.00199890136719,-28.288000106811523 62.000999450683594,-28.288000106811523 62.000999450683594,-28.288000106811523 C62.000999450683594,-28.288000106811523 62.000999450683594,28.288000106811523 62.000999450683594,28.288000106811523z"></path></g><g opacity="1" transform="matrix(1,0,0,1,329.36199951171875,315.35400390625)"><path fill="rgb(236,239,243)" fill-opacity="1" d=" M30.857999801635742,28.288000106811523 C30.857999801635742,28.288000106811523 -30.858999252319336,28.288000106811523 -30.858999252319336,28.288000106811523 C-30.858999252319336,28.288000106811523 -30.858999252319336,-28.288000106811523 -30.858999252319336,-28.288000106811523 C-30.858999252319336,-28.288000106811523 30.857999801635742,-28.288000106811523 30.857999801635742,-28.288000106811523 C30.857999801635742,-28.288000106811523 30.857999801635742,28.288000106811523 30.857999801635742,28.288000106811523z"></path></g><g opacity="1" transform="matrix(1,0,0,1,155.031005859375,315.3559875488281)"><path fill="rgb(236,239,243)" fill-opacity="1" d=" M110.80699920654297,28.288000106811523 C110.80699920654297,28.288000106811523 -110.80699920654297,28.288000106811523 -110.80699920654297,28.288000106811523 C-110.80699920654297,28.288000106811523 -110.80699920654297,-28.288000106811523 -110.80699920654297,-28.288000106811523 C-110.80699920654297,-28.288000106811523 110.80699920654297,-28.288000106811523 110.80699920654297,-28.288000106811523 C110.80699920654297,-28.288000106811523 110.80699920654297,28.288000106811523 110.80699920654297,28.288000106811523z"></path></g><g opacity="1" transform="matrix(1,0,0,1,46.689998626708984,28.288000106811523)"><path fill="rgb(236,239,243)" fill-opacity="1" d=" M-46.689998626708984,28.288000106811523 C-46.689998626708984,28.288000106811523 46.689998626708984,28.288000106811523 46.689998626708984,28.288000106811523 C46.689998626708984,28.288000106811523 46.689998626708984,-28.288000106811523 46.689998626708984,-28.288000106811523 C46.689998626708984,-28.288000106811523 -46.689998626708984,-28.288000106811523 -46.689998626708984,-28.288000106811523 C-46.689998626708984,-28.288000106811523 -46.689998626708984,28.288000106811523 -46.689998626708984,28.288000106811523z"></path></g><g opacity="1" transform="matrix(1,0,0,1,38.47800064086914,411.04400634765625)"><path fill="rgb(236,239,243)" fill-opacity="1" d=" M-38.47700119018555,28.288000106811523 C-38.47700119018555,28.288000106811523 38.47700119018555,28.288000106811523 38.47700119018555,28.288000106811523 C38.47700119018555,28.288000106811523 38.47700119018555,-28.288000106811523 38.47700119018555,-28.288000106811523 C38.47700119018555,-28.288000106811523 -38.47700119018555,-28.288000106811523 -38.47700119018555,-28.288000106811523 C-38.47700119018555,-28.288000106811523 -38.47700119018555,28.288000106811523 -38.47700119018555,28.288000106811523z"></path></g><g opacity="1" transform="matrix(1,0,0,1,270.81500244140625,411.0459899902344)"><path fill="rgb(236,239,243)" fill-opacity="1" d=" M-161.1840057373047,28.288000106811523 C-161.1840057373047,28.288000106811523 161.18499755859375,28.288000106811523 161.18499755859375,28.288000106811523 C161.18499755859375,28.288000106811523 161.18499755859375,-28.288000106811523 161.18499755859375,-28.288000106811523 C161.18499755859375,-28.288000106811523 -161.1840057373047,-28.288000106811523 -161.1840057373047,-28.288000106811523 C-161.1840057373047,-28.288000106811523 -161.1840057373047,28.288000106811523 -161.1840057373047,28.288000106811523z"></path></g><g opacity="1" transform="matrix(1,0,0,1,35.875999450683594,219.66600036621094)"><path fill="rgb(236,239,243)" fill-opacity="1" d=" M-35.875999450683594,28.28700065612793 C-35.875999450683594,28.28700065612793 35.875999450683594,28.28700065612793 35.875999450683594,28.28700065612793 C35.875999450683594,28.28700065612793 35.875999450683594,-28.288000106811523 35.875999450683594,-28.288000106811523 C35.875999450683594,-28.288000106811523 -35.875999450683594,-28.288000106811523 -35.875999450683594,-28.288000106811523 C-35.875999450683594,-28.288000106811523 -35.875999450683594,28.28700065612793 -35.875999450683594,28.28700065612793z"></path></g><g opacity="1" transform="matrix(1,0,0,1,203.125,219.66600036621094)"><path fill="rgb(236,239,243)" fill-opacity="1" d=" M98.86699676513672,28.288000106811523 C98.86699676513672,28.288000106811523 -98.86699676513672,28.288000106811523 -98.86699676513672,28.288000106811523 C-98.86699676513672,28.288000106811523 -98.86699676513672,-28.288000106811523 -98.86699676513672,-28.288000106811523 C-98.86699676513672,-28.288000106811523 98.86699676513672,-28.288000106811523 98.86699676513672,-28.288000106811523 C98.86699676513672,-28.288000106811523 98.86699676513672,28.288000106811523 98.86699676513672,28.288000106811523z"></path></g><g opacity="1" transform="matrix(1,0,0,1,326.781005859375,123.97799682617188)"><path fill="rgb(236,239,243)" fill-opacity="1" d=" M105.21900177001953,28.28700065612793 C105.21900177001953,28.28700065612793 -105.21900177001953,28.28700065612793 -105.21900177001953,28.28700065612793 C-105.21900177001953,28.28700065612793 -105.21900177001953,-28.28700065612793 -105.21900177001953,-28.28700065612793 C-105.21900177001953,-28.28700065612793 105.21900177001953,-28.28700065612793 105.21900177001953,-28.28700065612793 C105.21900177001953,-28.28700065612793 105.21900177001953,28.28700065612793 105.21900177001953,28.28700065612793z"></path></g></g><g transform="matrix(0.9877707362174988,0.15591339766979218,-0.15591339766979218,0.9877707362174988,254.0588836669922,234.63446044921875)" opacity="1" style="display: block;"><g opacity="1" transform="matrix(1,0,0,1,38.891998291015625,186.61300659179688)"><path fill="rgb(255,208,156)" fill-opacity="1" d=" M-5.372000217437744,-9.494999885559082 C-5.372000217437744,-9.494999885559082 -11.298999786376953,-1.003999948501587 -11.298999786376953,-1.003999948501587 C-11.298999786376953,-1.003999948501587 -7.502999782562256,8.545999526977539 -7.502999782562256,8.545999526977539 C-7.502999782562256,8.545999526977539 -6.2820000648498535,9.494000434875488 -6.2820000648498535,9.494000434875488 C2.765000104904175,7.445000171661377 8.451000213623047,4.190999984741211 11.298999786376953,-4.510000228881836 C7.48199987411499,-5.499000072479248 -0.527999997138977,-8.102999687194824 -5.372000217437744,-9.494999885559082z"></path></g><g opacity="1" transform="matrix(1,0,0,1,59.34199905395508,190.5709991455078)"><path fill="rgb(155,170,190)" fill-opacity="1" d=" M-9.151000022888184,-8.468000411987305 C-11.99899959564209,0.23199999332427979 -17.684999465942383,3.486999988555908 -26.73200035095215,5.535999774932861 C-26.73200035095215,5.535999774932861 -27.952999114990234,4.585999965667725 -27.952999114990234,4.585999965667725 C-28.12700080871582,5.192999839782715 -28.19300079345703,5.8429999351501465 -27.947999954223633,6.616000175476074 C-27.947999954223633,6.616000175476074 -24.207000732421875,15.473999977111816 -24.207000732421875,15.473999977111816 C-13.822999954223633,14.553000450134277 -3.7709999084472656,10.506999969482422 6.209000110626221,5.7210001945495605 C14.618000030517578,0.8640000224113464 22.20400047302246,-4.964000225067139 28.19300079345703,-12.701000213623047 C27.167999267578125,-14.281999588012695 25.33799934387207,-15.154000282287598 22.8700008392334,-15.473999977111816 C13.717000007629395,-14.045999526977539 4.077000141143799,-12.029999732971191 -4.105000019073486,-11.795999526977539 C-5.5229997634887695,-11.697999954223633 -8.039999961853027,-11.21500015258789 -9.151000022888184,-8.468000411987305z"></path></g><g opacity="1" transform="matrix(1,0,0,1,61.88600158691406,193.74600219726562)"><path fill="rgb(235,233,255)" fill-opacity="1" d=" M3.6649999618530273,2.546999931335449 C-6.315000057220459,7.333000183105469 -16.367000579833984,11.378999710083008 -26.750999450683594,12.298999786376953 C-26.750999450683594,12.298999786376953 -24.493000030517578,15.87600040435791 -24.493000030517578,15.87600040435791 C-13.670000076293945,14.609999656677246 -2.73799991607666,10.232999801635742 8.223999977111816,4.665999889373779 C15.270000457763672,0.625 21.143999099731445,-4.960999965667725 26.69300079345703,-10.963000297546387 C26.88800048828125,-12.656999588012695 26.60300064086914,-14.307000160217285 25.648000717163086,-15.87600040435791 C19.65999984741211,-8.138999938964844 12.072999954223633,-2.311000108718872 3.6649999618530273,2.546999931335449z"></path></g></g><g transform="matrix(1,0,0,1,70,29.5)" opacity="1" style="display: block;"><g opacity="1" transform="matrix(1,0,0,1,89.18099975585938,401.8320007324219)"><path fill="rgb(255,208,156)" fill-opacity="1" d=" M11.97700023651123,-4.130000114440918 C11.97700023651123,-4.130000114440918 -7.215000152587891,-11.112000465393066 -7.215000152587891,-11.112000465393066 C-7.235000133514404,-11.119000434875488 -7.25600004196167,-11.109000205993652 -7.261000156402588,-11.088000297546387 C-7.261000156402588,-11.088000297546387 -11.996999740600586,6.433000087738037 -11.996999740600586,6.433000087738037 C-12.005000114440918,6.464000225067139 -11.973999977111816,6.486000061035156 -11.947999954223633,6.46999979019165 C-7.0269999504089355,3.4860000610351562 1.7549999952316284,7.1479997634887695 5.497000217437744,11.10099983215332 C5.513000011444092,11.119000434875488 5.540999889373779,11.11299991607666 5.551000118255615,11.09000015258789 C5.551000118255615,11.09000015258789 11.998000144958496,-4.084000110626221 11.998000144958496,-4.084000110626221 C12.005000114440918,-4.1020002365112305 11.996000289916992,-4.123000144958496 11.97700023651123,-4.130000114440918z"></path></g><g opacity="1" transform="matrix(1,0,0,1,81.03099822998047,416.5509948730469)"><path fill="rgb(155,170,190)" fill-opacity="1" d=" M15.592000007629395,12.154999732971191 C16.25,3.816999912261963 16.101999282836914,0.20999999344348907 11.680999755859375,-7.377999782562256 C11.678999900817871,-7.38100004196167 11.675999641418457,-7.383999824523926 11.673999786376953,-7.38700008392334 C7.7220001220703125,-11.156999588012695 2.312999963760376,-12.20300006866455 -2.430000066757202,-8.868000030517578 C-2.431999921798706,-8.866999626159668 -2.434000015258789,-8.866000175476074 -2.436000108718872,-8.864999771118164 C-9.902000427246094,-5.949999809265137 -13.781999588012695,0.8899999856948853 -16.236000061035156,8.682999610900879 C-16.249000549316406,8.722000122070312 -16.19700050354004,8.746000289916992 -16.176000595092773,8.710000038146973 C-13.031999588012695,3.3469998836517334 -6.48199987411499,0.023000000044703484 0.6679999828338623,0.7749999761581421 C7.872000217437744,1.5329999923706055 13.609000205993652,6.205999851226807 15.527999877929688,12.166000366210938 C15.538999557495117,12.20199966430664 15.58899974822998,12.192999839782715 15.592000007629395,12.154999732971191z"></path></g><g opacity="1" transform="matrix(1,0,0,1,80.65699768066406,422.72100830078125)"><path fill="rgb(199,211,232)" fill-opacity="1" d=" M15.95199966430664,6.1579999923706055 C14.086000442504883,0.12099999934434891 8.3100004196167,-4.630000114440918 1.0420000553131104,-5.394000053405762 C-6.224999904632568,-6.1579999923706055 -12.871000289916992,-2.7139999866485596 -15.95199966430664,2.802999973297119 C-15.706999778747559,2.750999927520752 -15.447999954223633,2.736999988555908 -15.184000015258789,2.7639999389648438 C-15.184000015258789,2.7639999389648438 15.211999893188477,5.960999965667725 15.211999893188477,5.960999965667725 C15.470000267028809,5.98799991607666 15.722999572753906,6.056000232696533 15.95199966430664,6.1579999923706055z"></path></g><g opacity="1" transform="matrix(1,0,0,1,80.51100158691406,429.5069885253906)"><path fill="rgb(235,233,255)" fill-opacity="1" d=" M15.359000205993652,-0.824999988079071 C15.359000205993652,-0.824999988079071 -15.038000106811523,-4.020999908447266 -15.038000106811523,-4.020999908447266 C-15.302000045776367,-4.048999786376953 -15.560999870300293,-4.033999919891357 -15.805999755859375,-3.9830000400543213 C-16.898000717163086,-3.747999906539917 -17.753000259399414,-2.7820000648498535 -17.75200080871582,-1.5779999494552612 C-17.75200080871582,-0.28999999165534973 -16.659000396728516,0.7400000095367432 -15.37600040435791,0.875 C-15.37600040435791,0.875 14.664999961853027,4.033999919891357 14.664999961853027,4.033999919891357 C15.947999954223633,4.169000148773193 17.231000900268555,3.3889999389648438 17.500999450683594,2.128999948501587 C17.75200080871582,0.9520000219345093 17.117000579833984,-0.17100000381469727 16.097999572753906,-0.628000020980835 C15.869999885559082,-0.7289999723434448 15.616999626159668,-0.7979999780654907 15.359000205993652,-0.824999988079071z"></path></g><g opacity="1" transform="matrix(1,0,0,1,138.3699951171875,311.8819885253906)"><path fill="rgb(57,64,95)" fill-opacity="1" d=" M-17.040000915527344,-84.55799865722656 C-17.040000915527344,-84.55799865722656 5.422999858856201,-79.18599700927734 5.422999858856201,-79.18599700927734 C5.422999858856201,-79.18599700927734 18.4689998626709,-78.12999725341797 23.160999298095703,-63.707000732421875 C23.160999298095703,-63.707000732421875 57.17300033569336,74.50399780273438 57.17300033569336,74.50399780273438 C57.17300033569336,74.50399780273438 53.22700119018555,84.55799865722656 39.53099822998047,82.01300048828125 C39.53099822998047,82.01300048828125 -3.7300000190734863,-37.150001525878906 -3.7300000190734863,-37.150001525878906 C-3.7300000190734863,-37.150001525878906 -57.17399978637695,-79.29900360107422 -57.17399978637695,-79.29900360107422 C-57.17399978637695,-79.29900360107422 -17.040000915527344,-84.55799865722656 -17.040000915527344,-84.55799865722656z"></path></g><g opacity="1" transform="matrix(1,0,0,1,83.11799621582031,319.1809997558594)"><path fill="rgb(73,82,123)" fill-opacity="1" d=" M-41.81800079345703,-88.71499633789062 C-41.81800079345703,-88.71499633789062 -62.23699951171875,-39.604000091552734 -9.227999687194824,-37.15399932861328 C-9.227999687194824,-37.15399932861328 12.38599967956543,-37.439998626708984 12.38599967956543,-37.439998626708984 C12.38599967956543,-37.439998626708984 -3.9590001106262207,78.01699829101562 -3.9590001106262207,78.01699829101562 C-3.9619998931884766,78.0270004272461 -3.9639999866485596,78.02899932861328 -3.9600000381469727,78.03700256347656 C-3.7799999713897705,78.30799865722656 3.2060000896453857,88.71499633789062 17.350000381469727,82.66300201416016 C17.360000610351562,82.66000366210938 17.367000579833984,82.6520004272461 17.3700008392334,82.64199829101562 C17.3700008392334,82.64199829101562 52.52299880981445,-47.965999603271484 52.52299880981445,-47.965999603271484 C52.52299880981445,-47.965999603271484 62.23699951171875,-66.3489990234375 45.007999420166016,-70.89800262451172 C45.007999420166016,-70.89800262451172 7.681000232696533,-81.31500244140625 7.681000232696533,-81.31500244140625 C7.681000232696533,-81.31500244140625 -41.81800079345703,-88.71499633789062 -41.81800079345703,-88.71499633789062z"></path></g><g opacity="1" transform="matrix(1,0,0,1,11.487000465393066,251.93499755859375)"><path fill="rgb(255,208,156)" fill-opacity="1" d=" M-9.114999771118164,-11.312000274658203 C-9.114999771118164,-11.312000274658203 -11.487000465393066,-2.2149999141693115 -11.487000465393066,-2.2149999141693115 C-11.487000465393066,-2.2149999141693115 -11.574000358581543,-0.5839999914169312 -8.63599967956543,5.75 C-8.63599967956543,5.75 -6.565000057220459,11.312000274658203 -1.8179999589920044,11.017999649047852 C-1.8179999589920044,11.017999649047852 6.539000034332275,11.279999732971191 8.652999877929688,5.758999824523926 C8.652999877929688,5.758999824523926 11.46500015258789,-2.631999969482422 11.487000465393066,-6.447000026702881 C11.487000465393066,-6.447000026702881 9.57699966430664,-8.184000015258789 7.8379998207092285,-6.2779998779296875 C7.8379998207092285,-6.2779998779296875 6.7779998779296875,-10.125 6.7779998779296875,-10.125 C6.7779998779296875,-10.125 -9.114999771118164,-11.312000274658203 -9.114999771118164,-11.312000274658203z"></path></g><g opacity="1" transform="matrix(1,0,0,1,105.61900329589844,174.1739959716797)"><path fill="rgb(62,143,238)" fill-opacity="1" d=" M-45.737998962402344,-71.59200286865234 C-45.737998962402344,-71.59200286865234 -65.38400268554688,-68.03700256347656 -72.99700164794922,-64.44400024414062 C-72.99700164794922,-64.44400024414062 -78.60099792480469,-64.37799835205078 -82.09300231933594,-53.47800064086914 C-82.09300231933594,-53.47800064086914 -97.72000122070312,-6.494999885559082 -97.72000122070312,-6.494999885559082 C-97.72000122070312,-6.494999885559082 -100.79000091552734,-0.11699999868869781 -101.3280029296875,6.577000141143799 C-101.3280029296875,6.577000141143799 -105.06900024414062,65.21700286865234 -105.06900024414062,65.21700286865234 C-105.06900024414062,65.21700286865234 -97.9469985961914,71.59200286865234 -85.88200378417969,67.14299774169922 C-85.88200378417969,67.14299774169922 -77.16500091552734,10.767999649047852 -77.16500091552734,10.767999649047852 C-77.16500091552734,10.767999649047852 -70.55500030517578,-2.5940001010894775 -70.55500030517578,-2.5940001010894775 C-70.43900299072266,-2.884999990463257 -70.00900268554688,-2.825000047683716 -69.97699737548828,-2.513000011444092 C-69.97699737548828,-2.513000011444092 -66.75900268554688,22.9689998626709 -66.75900268554688,22.9689998626709 C-66.75900268554688,22.9689998626709 -66.1969985961914,26.089000701904297 -67.29000091552734,32.93600082397461 C-67.29000091552734,32.93600082397461 -70.65499877929688,48.499000549316406 -70.66999816894531,48.56700134277344 C-72.39199829101562,56.54600143432617 -52.229000091552734,62.30500030517578 -46.29999923706055,63.909000396728516 C-32.9370002746582,67.52300262451172 -16.292999267578125,67.56199645996094 -3.0789999961853027,63.49700164794922 C4.416999816894531,61.191001892089844 9.086000442504883,57.327999114990234 15.711000442504883,53.150001525878906 C15.713000297546387,53.14899826049805 20.229999542236328,50.29999923706055 18.10300064086914,45.82699966430664 C16.437999725341797,42.32400131225586 13.569999694824219,39.60499954223633 12.937000274658203,35.68000030517578 C10.416999816894531,20.054000854492188 11.190999984741211,9.342000007629395 12.057999610900879,-6.414000034332275 C12.288999557495117,-10.618000030517578 15.602999687194824,-6.644000053405762 17.014999389648438,-5.491000175476074 C19.150999069213867,-3.746000051498413 21.360000610351562,-2.0840001106262207 23.530000686645508,-0.382999986410141 C26.55299949645996,1.9880000352859497 29.575000762939453,4.357999801635742 32.5989990234375,6.728000164031982 C32.5989990234375,6.728000164031982 37.849998474121094,10.640999794006348 46.391998291015625,4.006999969482422 C46.391998291015625,4.006999969482422 99.24800109863281,-24.638999938964844 105.06900024414062,-31.41699981689453 C105.06900024414062,-31.41699981689453 104.99700164794922,-40.32500076293945 96.91899871826172,-45.84199905395508 C96.91899871826172,-45.84199905395508 45.433998107910156,-23.687999725341797 45.433998107910156,-23.687999725341797 C45.433998107910156,-23.687999725341797 41.861000061035156,-21.513999938964844 38.242000579833984,-25.34000015258789 C38.242000579833984,-25.34000015258789 11.260000228881836,-58.25400161743164 11.260000228881836,-58.25400161743164 C11.260000228881836,-58.25400161743164 6.230000019073486,-66.33499908447266 -2.049999952316284,-68.0459976196289 C-2.049999952316284,-68.0459976196289 -45.737998962402344,-71.59200286865234 -45.737998962402344,-71.59200286865234z"></path></g><g opacity="1" transform="matrix(1,0,0,1,78.14800262451172,74.8030014038086)"><path fill="rgb(255,208,156)" fill-opacity="1" d=" M27.790000915527344,-17.02400016784668 C27.790000915527344,-17.02400016784668 23.757999420166016,11.923999786376953 17.405000686645508,20.424999237060547 C16.187000274658203,22.054000854492188 13.053999900817871,22.81599998474121 11.213000297546387,23.041000366210938 C5.690999984741211,23.718000411987305 0.8569999933242798,20.44300079345703 -3.7230000495910645,17.868999481201172 C-5.61299991607666,16.805999755859375 -7.4730000495910645,15.720000267028809 -9.22700023651123,14.437999725341797 C-9.871000289916992,13.967000007629395 -14.196000099182129,9.458000183105469 -14.46399974822998,9.503000259399414 C-14.46399974822998,9.503000259399414 -21.211000442504883,10.619000434875488 -23.834999084472656,0.8080000281333923 C-23.834999084472656,0.8080000281333923 -27.790000915527344,-7.8429999351501465 -19.95599937438965,-8.23900032043457 C-19.95599937438965,-8.23900032043457 -9.015000343322754,-18.97599983215332 -9.015000343322754,-18.97599983215332 C-9.015000343322754,-18.97599983215332 6.184999942779541,-23.718000411987305 6.184999942779541,-23.718000411987305 C6.184999942779541,-23.718000411987305 27.790000915527344,-17.02400016784668 27.790000915527344,-17.02400016784668z"></path></g><g opacity="1" transform="matrix(1,0,0,1,73.2239990234375,122.9000015258789)"><path fill="rgb(237,245,255)" fill-opacity="1" d=" M-23.77899932861328,-18.350000381469727 C-23.77899932861328,-18.350000381469727 -15.657999992370605,7.708000183105469 7.255000114440918,20.55299949645996 C7.255000114440918,20.55299949645996 17.270000457763672,4.656000137329102 23.77899932861328,-17.690000534057617 C23.77899932861328,-17.690000534057617 -13.256999969482422,-20.55299949645996 -13.256999969482422,-20.55299949645996 C-13.256999969482422,-20.55299949645996 -23.77899932861328,-18.350000381469727 -23.77899932861328,-18.350000381469727z"></path></g><g opacity="1" transform="matrix(1,0,0,1,82.5530014038086,52.005001068115234)"><path fill="rgb(41,47,75)" fill-opacity="1" d=" M10.281000137329102,-22.114999771118164 C6.372000217437744,-23.652999877929688 2.0420000553131104,-24.326000213623047 -2.0290000438690186,-24.503000259399414 C-9.581999778747559,-24.83099937438965 -17.222999572753906,-22.802000045776367 -22.714000701904297,-17.391000747680664 C-25.716999053955078,-14.430999755859375 -27.993000030517578,-10.949000358581543 -29.17799949645996,-6.863999843597412 C-30.246999740600586,-3.1740000247955322 -30.3799991607666,0.7860000133514404 -29.621999740600586,4.548999786376953 C-29.250999450683594,6.388999938964844 -28.700000762939453,8.321000099182129 -27.80500030517578,9.980999946594238 C-26.902000427246094,11.654999732971191 -25.523000717163086,13.065999984741211 -24.361000061035156,14.557999610900879 C-22.457000732421875,17.003000259399414 -21.010000228881836,19.858999252319336 -20.510000228881836,22.93400001525879 C-20.510000228881836,22.93400001525879 -20.33099937438965,23.7549991607666 -20.33099937438965,23.7549991607666 C-20.33099937438965,23.7549991607666 -20.65999984741211,24.39900016784668 -18.972999572753906,24.562000274658203 C-18.972999572753906,24.562000274658203 -15.300999641418457,24.832000732421875 -15.116999626159668,21.381000518798828 C-14.927000045776367,17.80299949645996 -13.730999946594238,14.498000144958496 -11.006999969482422,12.074000358581543 C-8.175000190734863,9.555000305175781 -5.3520002365112305,6.789000034332275 -4.690999984741211,2.859999895095825 C-4.802000045776367,3.5250000953674316 -1.906000018119812,5.341000080108643 -1.4910000562667847,5.613999843597412 C1.5049999952316284,7.586999893188477 5.02400016784668,8.66100025177002 8.588000297546387,8.932999610900879 C15.807999610900879,9.484999656677246 24.80699920654297,7.230000019073486 28.656999588012695,0.5320000052452087 C29.72100067138672,-1.3200000524520874 30.378999710083008,-3.5420000553131104 30.341999053955078,-5.686999797821045 C30.32200050354004,-6.855999946594238 29.96299934387207,-8.267999649047852 28.652000427246094,-8.545999526977539 C26.726999282836914,-8.954000473022461 25.08799934387207,-8.76099967956543 23.398000717163086,-10.050000190734863 C20.795000076293945,-12.03600025177002 19.74799919128418,-15.487000465393066 17.361000061035156,-17.725000381469727 C15.321999549865723,-19.63800048828125 12.878999710083008,-21.093000411987305 10.281000137329102,-22.114999771118164z"></path></g><g opacity="1" transform="matrix(1,0,0,1,66.97699737548828,23.20400047302246)"><path fill="rgb(155,170,190)" fill-opacity="1" d=" M-10.895999908447266,23.20400047302246 C-10.895999908447266,23.20400047302246 -43.41699981689453,19.829999923706055 -43.41699981689453,19.829999923706055 C-43.41699981689453,19.829999923706055 -6.541999816894531,-23.20400047302246 -6.541999816894531,-23.20400047302246 C-6.541999816894531,-23.20400047302246 43.41600036621094,-9.331000328063965 43.41600036621094,-9.331000328063965 C43.41600036621094,-9.331000328063965 26.2189998626709,9.430999755859375 26.2189998626709,9.430999755859375 C26.2189998626709,9.430999755859375 -10.895999908447266,23.20400047302246 -10.895999908447266,23.20400047302246z"></path></g><g opacity="1" transform="matrix(1,0,0,1,73.8010025024414,36.22100067138672)"><path fill="rgb(199,211,232)" fill-opacity="1" d=" M-20.868999481201172,20.33300018310547 C-20.868999481201172,20.33300018310547 0.11599999666213989,3.3340001106262207 28.23900032043457,0.7250000238418579 C28.23900032043457,0.7250000238418579 21.761999130249023,-14.477999687194824 21.761999130249023,-14.477999687194824 C21.761999130249023,-14.477999687194824 -8.772000312805176,-20.333999633789062 -28.238000869750977,2.9579999446868896 C-28.238000869750977,2.9579999446868896 -20.868999481201172,20.33300018310547 -20.868999481201172,20.33300018310547z"></path></g><g opacity="1" transform="matrix(0.9850901365280151,-0.17203909158706665,0.17203909158706665,0.9850901365280151,-6.818775177001953,6.570880889892578)"><g opacity="1" transform="matrix(1,0,0,1,31.722000122070312,50.46099853515625)"><path stroke-linecap="butt" stroke-linejoin="miter" fill-opacity="0" stroke-miterlimit="10" stroke="rgb(155,170,190)" stroke-opacity="1" stroke-width="1" d=" M2.2820000648498535,-14.755000114440918 C2.2820000648498535,-14.755000114440918 5.651000022888184,-5.422999858856201 -1.378000020980835,3.9210000038146973 C-1.378000020980835,3.9210000038146973 -5.650000095367432,8.840999603271484 -1.9429999589920044,14.755000114440918"></path></g><g opacity="1" transform="matrix(1,0,0,1,31.615999221801758,68.7040023803711)"><path fill="rgb(255,109,109)" fill-opacity="1" d=" M-2.4730000495910645,-3.302000045776367 C-2.1619999408721924,-3.4600000381469727 -1.8309999704360962,-3.628000020980835 -1.524999976158142,-3.7829999923706055 C-0.8299999833106995,-4.135000228881836 0.014999999664723873,-3.934999942779541 0.47999998927116394,-3.309999942779541 C0.47999998927116394,-3.309999942779541 3.124000072479248,0.24899999797344208 3.124000072479248,0.24899999797344208 C3.4149999618530273,0.640999972820282 3.5220000743865967,1.1469999551773071 3.382999897003174,1.6150000095367432 C3.0920000076293945,2.6040000915527344 2.239000082015991,4.135000228881836 -0.2529999911785126,4.085999965667725 C-0.8930000066757202,4.073999881744385 -1.4490000009536743,3.634999990463257 -1.6649999618530273,3.0339999198913574 C-1.6649999618530273,3.0339999198913574 -3.249000072479248,-1.340000033378601 -3.249000072479248,-1.340000033378601 C-3.5230000019073486,-2.0959999561309814 -3.190000057220459,-2.936000108718872 -2.4730000495910645,-3.302000045776367z"></path></g></g><g opacity="1" transform="matrix(1,0,0,1,75.35099792480469,115.3479995727539)"><path fill="rgb(75,213,144)" fill-opacity="1" d=" M-1.0809999704360962,4.85099983215332 C-1.0809999704360962,4.85099983215332 -3.9639999866485596,-1.2289999723434448 -3.9639999866485596,-1.2289999723434448 C-3.9639999866485596,-1.2289999723434448 -5.235000133514404,-3.453000068664551 -2.3389999866485596,-4.307000160217285 C-2.3389999866485596,-4.307000160217285 5.235000133514404,-6.716000080108643 5.126999855041504,-3.247999906539917 C5.126999855041504,-3.247999906539917 4.4070000648498535,3.38100004196167 4.429999828338623,3.928999900817871 C4.429999828338623,3.928999900817871 1.7890000343322754,6.716000080108643 -1.0809999704360962,4.85099983215332z"></path></g><g opacity="1" transform="matrix(1,0,0,1,217.61300659179688,127.40499877929688)"><path fill="rgb(255,208,156)" fill-opacity="1" d=" M-15.074000358581543,0.9259999990463257 C-15.074000358581543,0.9259999990463257 -7.820000171661377,-8.866000175476074 -7.820000171661377,-8.866000175476074 C-7.820000171661377,-8.866000175476074 -5.1519999504089355,-14.538999557495117 1.2269999980926514,-11.293000221252441 C1.2269999980926514,-11.293000221252441 7.386000156402588,-9.293999671936035 11.779000282287598,-9.788000106811523 C11.779000282287598,-9.788000106811523 15.074000358581543,-6.788000106811523 6.163000106811523,-4.895999908447266 C6.163000106811523,-4.895999908447266 5.314000129699707,11.093999862670898 5.314000129699707,11.093999862670898 C5.314000129699707,11.093999862670898 0.9210000038146973,14.538999557495117 -7.11299991607666,13.545999526977539 C-7.11299991607666,13.545999526977539 -15.074000358581543,0.9259999990463257 -15.074000358581543,0.9259999990463257z"></path></g><g opacity="1" transform="matrix(1,0,0,1,71.70700073242188,97.41400146484375)"><path fill="rgb(255,208,156)" fill-opacity="1" d=" M11.854999542236328,6.567999839782715 C11.788999557495117,6.507999897003174 11.722999572753906,6.445000171661377 11.657999992370605,6.369999885559082 C11.657999992370605,6.369999885559082 11.656000137329102,6.36899995803833 11.656000137329102,6.36899995803833 C10.927000045776367,5.5279998779296875 10.309000015258789,3.678999900817871 11.24899959564209,-0.3919999897480011 C11.24899959564209,-0.3919999897480011 4.189000129699707,-13.442000389099121 4.189000129699707,-13.442000389099121 C4.189000129699707,-13.442000389099121 -8.02299976348877,-13.107999801635742 -8.02299976348877,-13.107999801635742 C-8.02299976348877,-13.107999801635742 -7.5920000076293945,-6.408999919891357 -8.77299976348877,0.9909999966621399 C-8.77299976348877,0.9909999966621399 -8.913000106811523,3.7209999561309814 -12.12399959564209,4.925000190734863 C-12.538000106811523,5.079999923706055 -11.711000442504883,7.546999931335449 -11.616999626159668,7.763000011444092 C-10.583999633789062,10.116999626159668 -8.270000457763672,11.529000282287598 -5.9039998054504395,12.288000106811523 C-4.408999919891357,12.767000198364258 -2.8469998836517334,13.02400016784668 -1.2869999408721924,13.16100025177002 C0.25600001215934753,13.295999526977539 1.8240000009536743,13.442000389099121 3.367000102996826,13.230999946594238 C4.480999946594238,13.079000473022461 5.574999809265137,12.692000389099121 6.617000102996826,12.27400016784668 C8.652000427246094,11.458000183105469 10.718999862670898,10.276000022888184 11.98799991607666,8.435999870300293 C12.017999649047852,8.392999649047852 12.083999633789062,8.291000366210938 12.166999816894531,8.163000106811523 C12.538999557495117,7.485000133514404 12.12600040435791,6.869999885559082 11.854999542236328,6.567999839782715z"></path></g><g opacity="1" transform="matrix(1,0,0,1,78.85099792480469,131.36500549316406)"><path fill="rgb(75,213,144)" fill-opacity="1" d=" M0.9309999942779541,-12.08899974822998 C0.9309999942779541,-12.08899974822998 7.741000175476074,0.7519999742507935 7.741000175476074,0.7519999742507935 C7.741000175476074,0.7519999742507935 5.171000003814697,8.284000396728516 1.628999948501587,12.08899974822998 C1.628999948501587,12.08899974822998 -3.3499999046325684,9.411999702453613 -7.741000175476074,5.519000053405762 C-7.741000175476074,5.519000053405762 -4.455999851226807,-12.08899974822998 -4.455999851226807,-12.08899974822998 C-4.455999851226807,-12.08899974822998 0.9309999942779541,-12.08899974822998 0.9309999942779541,-12.08899974822998z"></path></g><g opacity="1" transform="matrix(1,0,0,1,82.67400360107422,70.02300262451172)"><path stroke-linecap="round" stroke-linejoin="round" fill-opacity="0" stroke="rgb(209,147,94)" stroke-opacity="1" stroke-width="2" d=" M-3.552000045776367,2.0910000801086426 C-3.552000045776367,2.0910000801086426 0.0010000000474974513,-2.0920000076293945 3.552000045776367,2.0910000801086426"></path></g><g opacity="1" transform="matrix(1,0,0,1,96.95600128173828,70.02300262451172)"><path stroke-linecap="round" stroke-linejoin="round" fill-opacity="0" stroke="rgb(209,147,94)" stroke-opacity="1" stroke-width="2" d=" M3.1559998989105225,2.0910000801086426 C3.1559998989105225,2.0910000801086426 0,-2.0920000076293945 -3.1559998989105225,2.0910000801086426"></path></g><g opacity="1" transform="matrix(1,0,0,1,107.23799896240234,64.57599639892578)"><path fill="rgb(41,47,75)" fill-opacity="1" d=" M1.878999948501587,-9.28499984741211 C-0.6150000095367432,-8.91100025177002 -3.109999895095825,-8.538000106811523 -5.605000019073486,-8.17199993133545 C-4.434000015258789,-3.8459999561309814 -3.821000099182129,0.5699999928474426 -3.999000072479248,5.0370001792907715 C-3.999000072479248,5.0370001792907715 -3.989000082015991,5.046000003814697 -3.989000082015991,5.046000003814697 C-3.989000082015991,5.046000003814697 -4.01800012588501,5.564000129699707 -4.01800012588501,5.564000129699707 C-4.0229997634887695,5.651000022888184 -4.0229997634887695,5.738999843597412 -4.0279998779296875,5.827000141143799 C-4.0329999923706055,5.8979997634887695 -4.039999961853027,5.980999946594238 -4.046999931335449,6.060999870300293 C-4.046999931335449,6.060999870300293 -4.230000019073486,9.28499984741211 -4.230000019073486,9.28499984741211 C-4.230000019073486,9.28499984741211 -0.9160000085830688,6.706999778747559 0.3240000009536743,4.580999851226807 C5.605000019073486,-3.2880001068115234 1.878999948501587,-9.28499984741211 1.878999948501587,-9.28499984741211z"></path></g><g opacity="1" transform="matrix(1,0,0,1,90.375,89.93199920654297)"><path fill="rgb(255,255,255)" fill-opacity="1" d=" M5.5329999923706055,-5.046000003814697 C3.377000093460083,-4.550000190734863 -0.8410000205039978,-3.946000099182129 -5.480999946594238,-5.255000114440918 C-6.074999809265137,-5.422999858856201 -6.572000026702881,-4.789000034332275 -6.254000186920166,-4.260000228881836 C-4.315000057220459,-1.0420000553131104 0.7850000262260437,5.422999858856201 6.27400016784668,-4.038000106811523 C6.572000026702881,-4.552000045776367 6.113999843597412,-5.178999900817871 5.5329999923706055,-5.046000003814697z"></path></g><g opacity="0.1" transform="matrix(1,0,0,1,73.31900024414062,93.4469985961914)"><path fill="rgb(41,47,75)" fill-opacity="1" d=" M9.63599967956543,3.575000047683716 C9.63599967956543,3.575000047683716 -2.8450000286102295,1.694000005722046 -9.635000228881836,-9.140999794006348 C-9.635000228881836,-9.140999794006348 -9.99899959564209,9.503999710083008 9.355999946594238,9.135000228881836 C9.355999946594238,9.135000228881836 9.032999992370605,6.558000087738037 9.63599967956543,3.575000047683716z"></path></g><g opacity="1" transform="matrix(1,0,0,1,77.71399688720703,130.01400756835938)"><path fill="rgb(90,231,154)" fill-opacity="1" d=" M-6.308000087738037,5.2820000648498535 C-6.308000087738037,5.2820000648498535 6.307000160217285,-2.743000030517578 6.307000160217285,-2.743000030517578 C6.307000160217285,-2.743000030517578 4.961999893188477,-5.2820000648498535 4.961999893188477,-5.2820000648498535 C4.961999893188477,-5.2820000648498535 -5.525000095367432,1.0800000429153442 -5.525000095367432,1.0800000429153442 C-5.525000095367432,1.0800000429153442 -6.308000087738037,5.2820000648498535 -6.308000087738037,5.2820000648498535z"></path></g><g opacity="1" transform="matrix(1,0,0,1,100.10900115966797,160.21299743652344)"><path fill="rgb(234,78,78)" fill-opacity="1" d=" M-5.984000205993652,-3.196000099182129 C-5.984000205993652,-3.196000099182129 -2.056999921798706,0.10199999809265137 -2.056999921798706,0.10199999809265137 C-2.056999921798706,0.10199999809265137 -5.3460001945495605,4.006999969482422 -5.3460001945495605,4.006999969482422 C-5.482999801635742,4.171000003814697 -5.751999855041504,4.103000164031982 -5.794000148773193,3.8919999599456787 C-5.794000148773193,3.8919999599456787 -6.291999816894531,1.3990000486373901 -6.291999816894531,1.3990000486373901 C-6.315999984741211,1.281000018119812 -6.415999889373779,1.1959999799728394 -6.535999774932861,1.1929999589920044 C-6.535999774932861,1.1929999589920044 -9.081000328063965,1.1299999952316284 -9.081000328063965,1.1299999952316284 C-9.29699993133545,1.125 -9.41100025177002,0.8730000257492065 -9.27299976348877,0.7089999914169312 C-9.27299976348877,0.7089999914169312 -5.984000205993652,-3.196000099182129 -5.984000205993652,-3.196000099182129z M9.246000289916992,-0.8859999775886536 C9.246000289916992,-0.8859999775886536 5.335999965667725,-4.171000003814697 5.335999965667725,-4.171000003814697 C5.335999965667725,-4.171000003814697 2.0329999923706055,-0.25 2.0329999923706055,-0.25 C2.0329999923706055,-0.25 5.942999839782715,3.0339999198913574 5.942999839782715,3.0339999198913574 C6.107999801635742,3.1730000972747803 6.359000205993652,3.059999942779541 6.364999771118164,2.8450000286102295 C6.364999771118164,2.8450000286102295 6.427999973297119,0.30300000309944153 6.427999973297119,0.30300000309944153 C6.431000232696533,0.18299999833106995 6.515999794006348,0.0820000022649765 6.632999897003174,0.057999998331069946 C6.632999897003174,0.057999998331069946 9.130999565124512,-0.4390000104904175 9.130999565124512,-0.4390000104904175 C9.342000007629395,-0.48100000619888306 9.41100025177002,-0.7480000257492065 9.246000289916992,-0.8859999775886536z"></path></g><g opacity="1" transform="matrix(1,0,0,1,99.49800109863281,153.20199584960938)"><path fill="rgb(248,149,43)" fill-opacity="1" d=" M8.291000366210938,-0.7139999866485596 C8.685999870300293,3.8580000400543213 5.293000221252441,7.883999824523926 0.7149999737739563,8.277999877929688 C-3.86299991607666,8.67199993133545 -7.895999908447266,5.285999774932861 -8.289999961853027,0.7139999866485596 C-8.685999870300293,-3.8580000400543213 -5.294000148773193,-7.883999824523926 -0.7149999737739563,-8.277999877929688 C3.86299991607666,-8.67199993133545 7.895999908447266,-5.285999774932861 8.291000366210938,-0.7139999866485596z"></path></g><g opacity="1" transform="matrix(1,0,0,1,99.49800109863281,153.20199584960938)"><path fill="rgb(255,182,84)" fill-opacity="1" d=" M6.916999816894531,-0.5960000157356262 C7.247000217437744,3.2190001010894775 4.416999816894531,6.578000068664551 0.597000002861023,6.9070000648498535 C-3.2239999771118164,7.236999988555908 -6.5879998207092285,4.409999847412109 -6.918000221252441,0.5950000286102295 C-7.247000217437744,-3.2200000286102295 -4.416999816894531,-6.578000068664551 -0.597000002861023,-6.9079999923706055 C3.2239999771118164,-7.236999988555908 6.5879998207092285,-4.410999774932861 6.916999816894531,-0.5960000157356262z"></path></g><g opacity="1" transform="matrix(1,0,0,1,99.427001953125,153.31500244140625)"><path fill="rgb(243,248,255)" fill-opacity="1" d=" M0.04800000041723251,-3.9549999237060547 C0.04800000041723251,-3.9549999237060547 1.2619999647140503,-1.9529999494552612 1.2619999647140503,-1.9529999494552612 C1.3200000524520874,-1.8569999933242798 1.4229999780654907,-1.7949999570846558 1.534999966621399,-1.7879999876022339 C1.534999966621399,-1.7879999876022339 3.875,-1.6519999504089355 3.875,-1.6519999504089355 C4.1579999923706055,-1.6360000371932983 4.300000190734863,-1.3020000457763672 4.113999843597412,-1.0870000123977661 C4.113999843597412,-1.0870000123977661 2.5829999446868896,0.6850000023841858 2.5829999446868896,0.6850000023841858 C2.509000062942505,0.7699999809265137 2.4830000400543213,0.8859999775886536 2.510999917984009,0.9950000047683716 C2.510999917984009,0.9950000047683716 3.1040000915527344,3.259000062942505 3.1040000915527344,3.259000062942505 C3.1760001182556152,3.5329999923706055 2.9019999504089355,3.7709999084472656 2.640000104904175,3.6610000133514404 C2.640000104904175,3.6610000133514404 0.4790000021457672,2.753999948501587 0.4790000021457672,2.753999948501587 C0.375,2.7109999656677246 0.25600001215934753,2.7209999561309814 0.16099999845027924,2.7809998989105225 C0.16099999845027924,2.7809998989105225 -1.812000036239624,4.045000076293945 -1.812000036239624,4.045000076293945 C-2.052000045776367,4.197999954223633 -2.361999988555908,4.010000228881836 -2.3389999866485596,3.7279999256134033 C-2.3389999866485596,3.7279999256134033 -2.1419999599456787,1.3960000276565552 -2.1419999599456787,1.3960000276565552 C-2.132999897003174,1.2829999923706055 -2.180000066757202,1.1729999780654907 -2.2660000324249268,1.1019999980926514 C-2.2660000324249268,1.1019999980926514 -4.079999923706055,-0.38100001215934753 -4.079999923706055,-0.38100001215934753 C-4.300000190734863,-0.5609999895095825 -4.2170000076293945,-0.9139999747276306 -3.940000057220459,-0.9789999723434448 C-3.940000057220459,-0.9789999723434448 -1.6579999923706055,-1.5140000581741333 -1.6579999923706055,-1.5140000581741333 C-1.5490000247955322,-1.5390000343322754 -1.4589999914169312,-1.6180000305175781 -1.4179999828338623,-1.7230000495910645 C-1.4179999828338623,-1.7230000495910645 -0.5640000104904175,-3.9019999504089355 -0.5640000104904175,-3.9019999504089355 C-0.460999995470047,-4.165999889373779 -0.0989999994635582,-4.197999954223633 0.04800000041723251,-3.9549999237060547z"></path></g></g><g transform="matrix(1,0,0,1,292.68798828125,150.875)" opacity="1" style="display: block;"><g opacity="1" transform="matrix(1,0,0,1,57.930999755859375,44.95000076293945)"><path fill="rgb(62,143,238)" fill-opacity="1" d=" M-57.930999755859375,44.95000076293945 C-57.930999755859375,44.95000076293945 57.930999755859375,44.95000076293945 57.930999755859375,44.95000076293945 C57.930999755859375,44.95000076293945 57.930999755859375,-44.95000076293945 57.930999755859375,-44.95000076293945 C57.930999755859375,-44.95000076293945 -57.930999755859375,-44.95000076293945 -57.930999755859375,-44.95000076293945 C-57.930999755859375,-44.95000076293945 -57.930999755859375,44.95000076293945 -57.930999755859375,44.95000076293945z"></path></g><g opacity="1" transform="matrix(1,0,0,1,57.93199920654297,44.952999114990234)"><path fill="rgb(255,255,255)" fill-opacity="1" d=" M-56.7130012512207,-43.70399856567383 C-56.7130012512207,-43.70399856567383 56.7130012512207,-43.70399856567383 56.7130012512207,-43.70399856567383 C56.7130012512207,-43.70399856567383 56.7130012512207,43.70399856567383 56.7130012512207,43.70399856567383 C56.7130012512207,43.70399856567383 -56.7130012512207,43.70399856567383 -56.7130012512207,43.70399856567383 C-56.7130012512207,43.70399856567383 -56.7130012512207,-43.70399856567383 -56.7130012512207,-43.70399856567383z"></path></g><g opacity="1" transform="matrix(1,0,0,1,107.12799835205078,61.888999938964844)"><path fill="rgb(236,239,243)" fill-opacity="1" d=" M-5.416999816894531,1.774999976158142 C-5.416999816894531,1.774999976158142 5.416999816894531,1.774999976158142 5.416999816894531,1.774999976158142 C5.416999816894531,1.774999976158142 5.416999816894531,-1.774999976158142 5.416999816894531,-1.774999976158142 C5.416999816894531,-1.774999976158142 -5.416999816894531,-1.774999976158142 -5.416999816894531,-1.774999976158142 C-5.416999816894531,-1.774999976158142 -5.416999816894531,1.774999976158142 -5.416999816894531,1.774999976158142z"></path></g><g opacity="1" transform="matrix(1,0,0,1,97.44100189208984,75.06400299072266)"><path fill="rgb(236,239,243)" fill-opacity="1" d=" M-6.564000129699707,1.7760000228881836 C-6.564000129699707,1.7760000228881836 6.564000129699707,1.7760000228881836 6.564000129699707,1.7760000228881836 C6.564000129699707,1.7760000228881836 6.564000129699707,-1.774999976158142 6.564000129699707,-1.774999976158142 C6.564000129699707,-1.774999976158142 -6.564000129699707,-1.774999976158142 -6.564000129699707,-1.774999976158142 C-6.564000129699707,-1.774999976158142 -6.564000129699707,1.7760000228881836 -6.564000129699707,1.7760000228881836z"></path></g><g opacity="1" transform="matrix(1,0,0,1,109.30699920654297,75.06400299072266)"><path fill="rgb(236,239,243)" fill-opacity="1" d=" M-3.23799991607666,1.7760000228881836 C-3.23799991607666,1.7760000228881836 3.239000082015991,1.7760000228881836 3.239000082015991,1.7760000228881836 C3.239000082015991,1.7760000228881836 3.239000082015991,-1.774999976158142 3.239000082015991,-1.774999976158142 C3.239000082015991,-1.774999976158142 -3.23799991607666,-1.774999976158142 -3.23799991607666,-1.774999976158142 C-3.23799991607666,-1.774999976158142 -3.23799991607666,1.7760000228881836 -3.23799991607666,1.7760000228881836z"></path></g><g opacity="1" transform="matrix(1,0,0,1,109.70800018310547,55.301998138427734)"><path fill="rgb(236,239,243)" fill-opacity="1" d=" M-2.8380000591278076,1.774999976158142 C-2.8380000591278076,1.774999976158142 2.8380000591278076,1.774999976158142 2.8380000591278076,1.774999976158142 C2.8380000591278076,1.774999976158142 2.8380000591278076,-1.774999976158142 2.8380000591278076,-1.774999976158142 C2.8380000591278076,-1.774999976158142 -2.8380000591278076,-1.774999976158142 -2.8380000591278076,-1.774999976158142 C-2.8380000591278076,-1.774999976158142 -2.8380000591278076,1.774999976158142 -2.8380000591278076,1.774999976158142z"></path></g><g opacity="1" transform="matrix(1,0,0,1,107.61499786376953,81.6510009765625)"><path fill="rgb(236,239,243)" fill-opacity="1" d=" M-4.929999828338623,1.774999976158142 C-4.929999828338623,1.774999976158142 4.929999828338623,1.774999976158142 4.929999828338623,1.774999976158142 C4.929999828338623,1.774999976158142 4.929999828338623,-1.7760000228881836 4.929999828338623,-1.7760000228881836 C4.929999828338623,-1.7760000228881836 -4.929999828338623,-1.7760000228881836 -4.929999828338623,-1.7760000228881836 C-4.929999828338623,-1.7760000228881836 -4.929999828338623,1.774999976158142 -4.929999828338623,1.774999976158142z"></path></g><g opacity="1" transform="matrix(1,0,0,1,90.33399963378906,81.6510009765625)"><path fill="rgb(236,239,243)" fill-opacity="1" d=" M-4.040999889373779,1.774999976158142 C-4.040999889373779,1.774999976158142 4.040999889373779,1.774999976158142 4.040999889373779,1.774999976158142 C4.040999889373779,1.774999976158142 4.040999889373779,-1.7760000228881836 4.040999889373779,-1.7760000228881836 C4.040999889373779,-1.7760000228881836 -4.040999889373779,-1.7760000228881836 -4.040999889373779,-1.7760000228881836 C-4.040999889373779,-1.7760000228881836 -4.040999889373779,1.774999976158142 -4.040999889373779,1.774999976158142z"></path></g><g opacity="1" transform="matrix(1,0,0,1,98.55899810791016,81.6510009765625)"><path fill="rgb(236,239,243)" fill-opacity="1" d=" M-2.177999973297119,1.774999976158142 C-2.177999973297119,1.774999976158142 2.177999973297119,1.774999976158142 2.177999973297119,1.774999976158142 C2.177999973297119,1.774999976158142 2.177999973297119,-1.7760000228881836 2.177999973297119,-1.7760000228881836 C2.177999973297119,-1.7760000228881836 -2.177999973297119,-1.7760000228881836 -2.177999973297119,-1.7760000228881836 C-2.177999973297119,-1.7760000228881836 -2.177999973297119,1.774999976158142 -2.177999973297119,1.774999976158142z"></path></g><g opacity="1" transform="matrix(1,0,0,1,106.89900207519531,68.47599792480469)"><path fill="rgb(236,239,243)" fill-opacity="1" d=" M-5.645999908447266,1.7760000228881836 C-5.645999908447266,1.7760000228881836 5.645999908447266,1.7760000228881836 5.645999908447266,1.7760000228881836 C5.645999908447266,1.7760000228881836 5.645999908447266,-1.7760000228881836 5.645999908447266,-1.7760000228881836 C5.645999908447266,-1.7760000228881836 -5.645999908447266,-1.7760000228881836 -5.645999908447266,-1.7760000228881836 C-5.645999908447266,-1.7760000228881836 -5.645999908447266,1.7760000228881836 -5.645999908447266,1.7760000228881836z"></path></g><g opacity="1" transform="matrix(1,0,0,1,97.2979965209961,68.47599792480469)"><path fill="rgb(236,239,243)" fill-opacity="1" d=" M-1.9490000009536743,1.774999976158142 C-1.9490000009536743,1.774999976158142 1.9490000009536743,1.774999976158142 1.9490000009536743,1.774999976158142 C1.9490000009536743,1.774999976158142 1.9490000009536743,-1.774999976158142 1.9490000009536743,-1.774999976158142 C1.9490000009536743,-1.774999976158142 -1.9490000009536743,-1.774999976158142 -1.9490000009536743,-1.774999976158142 C-1.9490000009536743,-1.774999976158142 -1.9490000009536743,1.774999976158142 -1.9490000009536743,1.774999976158142z"></path></g><g opacity="1" transform="matrix(1,0,0,1,57.93199920654297,44.95000076293945)"><path fill="rgb(62,143,238)" fill-opacity="1" d=" M52.62799835205078,41.972999572753906 C52.62799835205078,41.972999572753906 -52.62799835205078,41.972999572753906 -52.62799835205078,41.972999572753906 C-52.62799835205078,41.972999572753906 -52.62799835205078,39.762001037597656 -52.62799835205078,39.762001037597656 C-52.62799835205078,39.762001037597656 -54.861000061035156,39.762001037597656 -54.861000061035156,39.762001037597656 C-54.861000061035156,39.762001037597656 -54.861000061035156,-39.29899978637695 -54.861000061035156,-39.29899978637695 C-54.861000061035156,-39.29899978637695 -52.62799835205078,-39.29899978637695 -52.62799835205078,-39.29899978637695 C-52.62799835205078,-39.29899978637695 -52.62799835205078,-41.972999572753906 -52.62799835205078,-41.972999572753906 C-52.62799835205078,-41.972999572753906 52.62799835205078,-41.972999572753906 52.62799835205078,-41.972999572753906 C52.62799835205078,-41.972999572753906 52.62799835205078,-39.29899978637695 52.62799835205078,-39.29899978637695 C52.62799835205078,-39.29899978637695 54.861000061035156,-39.29899978637695 54.861000061035156,-39.29899978637695 C54.861000061035156,-39.29899978637695 54.861000061035156,39.762001037597656 54.861000061035156,39.762001037597656 C54.861000061035156,39.762001037597656 52.62799835205078,39.762001037597656 52.62799835205078,39.762001037597656 C52.62799835205078,39.762001037597656 52.62799835205078,41.972999572753906 52.62799835205078,41.972999572753906z M-52.334999084472656,41.68000030517578 C-52.334999084472656,41.68000030517578 52.33599853515625,41.68000030517578 52.33599853515625,41.68000030517578 C52.33599853515625,41.68000030517578 52.33599853515625,39.4640007019043 52.33599853515625,39.4640007019043 C52.33599853515625,39.4640007019043 54.56800079345703,39.4640007019043 54.56800079345703,39.4640007019043 C54.56800079345703,39.4640007019043 54.56800079345703,-39.00699996948242 54.56800079345703,-39.00699996948242 C54.56800079345703,-39.00699996948242 52.33599853515625,-39.00699996948242 52.33599853515625,-39.00699996948242 C52.33599853515625,-39.00699996948242 52.33599853515625,-41.678001403808594 52.33599853515625,-41.678001403808594 C52.33599853515625,-41.678001403808594 -52.334999084472656,-41.678001403808594 -52.334999084472656,-41.678001403808594 C-52.334999084472656,-41.678001403808594 -52.334999084472656,-39.00699996948242 -52.334999084472656,-39.00699996948242 C-52.334999084472656,-39.00699996948242 -54.56800079345703,-39.00699996948242 -54.56800079345703,-39.00699996948242 C-54.56800079345703,-39.00699996948242 -54.56800079345703,39.4640007019043 -54.56800079345703,39.4640007019043 C-54.56800079345703,39.4640007019043 -52.334999084472656,39.4640007019043 -52.334999084472656,39.4640007019043 C-52.334999084472656,39.4640007019043 -52.334999084472656,41.68000030517578 -52.334999084472656,41.68000030517578z"></path></g><g opacity="1" transform="matrix(1,0,0,1,3.5739998817443848,3.992000102996826)"><path fill="rgb(62,143,238)" fill-opacity="1" d=" M0.8790000081062317,0.8790000081062317 C0.8790000081062317,0.8790000081062317 -0.8790000081062317,0.8790000081062317 -0.8790000081062317,0.8790000081062317 C-0.8790000081062317,0.8790000081062317 -0.8790000081062317,-0.8790000081062317 -0.8790000081062317,-0.8790000081062317 C-0.8790000081062317,-0.8790000081062317 0.8790000081062317,-0.8790000081062317 0.8790000081062317,-0.8790000081062317 C0.8790000081062317,-0.8790000081062317 0.8790000081062317,0.8790000081062317 0.8790000081062317,0.8790000081062317z M-0.6029999852180481,0.5860000252723694 C-0.6029999852180481,0.5860000252723694 0.5690000057220459,0.5860000252723694 0.5690000057220459,0.5860000252723694 C0.5690000057220459,0.5860000252723694 0.5690000057220459,-0.5860000252723694 0.5690000057220459,-0.5860000252723694 C0.5690000057220459,-0.5860000252723694 -0.6029999852180481,-0.5860000252723694 -0.6029999852180481,-0.5860000252723694 C-0.6029999852180481,-0.5860000252723694 -0.6029999852180481,0.5860000252723694 -0.6029999852180481,0.5860000252723694z"></path></g><g opacity="1" transform="matrix(1,0,0,1,112.30000305175781,3.992000102996826)"><path fill="rgb(62,143,238)" fill-opacity="1" d=" M0.8790000081062317,0.8790000081062317 C0.8790000081062317,0.8790000081062317 -0.8790000081062317,0.8790000081062317 -0.8790000081062317,0.8790000081062317 C-0.8790000081062317,0.8790000081062317 -0.8790000081062317,-0.8790000081062317 -0.8790000081062317,-0.8790000081062317 C-0.8790000081062317,-0.8790000081062317 0.8790000081062317,-0.8790000081062317 0.8790000081062317,-0.8790000081062317 C0.8790000081062317,-0.8790000081062317 0.8790000081062317,0.8790000081062317 0.8790000081062317,0.8790000081062317z M-0.6029999852180481,0.5860000252723694 C-0.6029999852180481,0.5860000252723694 0.5690000057220459,0.5860000252723694 0.5690000057220459,0.5860000252723694 C0.5690000057220459,0.5860000252723694 0.5690000057220459,-0.5860000252723694 0.5690000057220459,-0.5860000252723694 C0.5690000057220459,-0.5860000252723694 -0.6029999852180481,-0.5860000252723694 -0.6029999852180481,-0.5860000252723694 C-0.6029999852180481,-0.5860000252723694 -0.6029999852180481,0.5860000252723694 -0.6029999852180481,0.5860000252723694z"></path></g><g opacity="1" transform="matrix(1,0,0,1,3.5739998817443848,86.51799774169922)"><path fill="rgb(62,143,238)" fill-opacity="1" d=" M0.8790000081062317,0.8790000081062317 C0.8790000081062317,0.8790000081062317 -0.8790000081062317,0.8790000081062317 -0.8790000081062317,0.8790000081062317 C-0.8790000081062317,0.8790000081062317 -0.8790000081062317,-0.8790000081062317 -0.8790000081062317,-0.8790000081062317 C-0.8790000081062317,-0.8790000081062317 0.8790000081062317,-0.8790000081062317 0.8790000081062317,-0.8790000081062317 C0.8790000081062317,-0.8790000081062317 0.8790000081062317,0.8790000081062317 0.8790000081062317,0.8790000081062317z M-0.6029999852180481,0.5860000252723694 C-0.6029999852180481,0.5860000252723694 0.5690000057220459,0.5860000252723694 0.5690000057220459,0.5860000252723694 C0.5690000057220459,0.5860000252723694 0.5690000057220459,-0.5860000252723694 0.5690000057220459,-0.5860000252723694 C0.5690000057220459,-0.5860000252723694 -0.6029999852180481,-0.5860000252723694 -0.6029999852180481,-0.5860000252723694 C-0.6029999852180481,-0.5860000252723694 -0.6029999852180481,0.5860000252723694 -0.6029999852180481,0.5860000252723694z"></path></g><g opacity="1" transform="matrix(1,0,0,1,112.30000305175781,86.51799774169922)"><path fill="rgb(62,143,238)" fill-opacity="1" d=" M0.8790000081062317,0.8790000081062317 C0.8790000081062317,0.8790000081062317 -0.8790000081062317,0.8790000081062317 -0.8790000081062317,0.8790000081062317 C-0.8790000081062317,0.8790000081062317 -0.8790000081062317,-0.8790000081062317 -0.8790000081062317,-0.8790000081062317 C-0.8790000081062317,-0.8790000081062317 0.8790000081062317,-0.8790000081062317 0.8790000081062317,-0.8790000081062317 C0.8790000081062317,-0.8790000081062317 0.8790000081062317,0.8790000081062317 0.8790000081062317,0.8790000081062317z M-0.6029999852180481,0.5860000252723694 C-0.6029999852180481,0.5860000252723694 0.5690000057220459,0.5860000252723694 0.5690000057220459,0.5860000252723694 C0.5690000057220459,0.5860000252723694 0.5690000057220459,-0.5860000252723694 0.5690000057220459,-0.5860000252723694 C0.5690000057220459,-0.5860000252723694 -0.6029999852180481,-0.5860000252723694 -0.6029999852180481,-0.5860000252723694 C-0.6029999852180481,-0.5860000252723694 -0.6029999852180481,0.5860000252723694 -0.6029999852180481,0.5860000252723694z"></path></g><g opacity="1" transform="matrix(1,0,0,1,91.01899719238281,18.384000778198242)"><path fill="rgb(233,236,243)" fill-opacity="1" d=" M-0.012000000104308128,14.789999961853027 C-6.304999828338623,14.789999961853027 -11.425999641418457,10.100000381469727 -11.425999641418457,4.2789998054504395 C-11.425999641418457,4.2789998054504395 -11.425999641418457,-14.789999961853027 -11.425999641418457,-14.789999961853027 C-11.425999641418457,-14.789999961853027 -11.133000373840332,-14.789999961853027 -11.133000373840332,-14.789999961853027 C-11.133000373840332,-14.789999961853027 -11.133000373840332,4.2789998054504395 -11.133000373840332,4.2789998054504395 C-11.133000373840332,9.913000106811523 -6.146999835968018,14.496999740600586 0,14.496999740600586 C6.145999908447266,14.496999740600586 11.133000373840332,9.913000106811523 11.133000373840332,4.2789998054504395 C11.133000373840332,4.2789998054504395 11.133000373840332,-14.789999961853027 11.133000373840332,-14.789999961853027 C11.133000373840332,-14.789999961853027 11.425999641418457,-14.789999961853027 11.425999641418457,-14.789999961853027 C11.425999641418457,-14.789999961853027 11.425999641418457,4.2789998054504395 11.425999641418457,4.2789998054504395 C11.395999908447266,10.07699966430664 6.281000137329102,14.789999961853027 -0.012000000104308128,14.789999961853027z"></path></g><g opacity="1" transform="matrix(1,0,0,1,91.00700378417969,21.513999938964844)"><path fill="rgb(233,236,243)" fill-opacity="1" d=" M0,9.461999893188477 C-5.2230000495910645,9.461999893188477 -9.456999778747559,5.22599983215332 -9.456999778747559,0 C-9.456999778747559,-5.224999904632568 -5.2230000495910645,-9.461999893188477 0,-9.461999893188477 C5.223999977111816,-9.461999893188477 9.456999778747559,-5.224999904632568 9.456999778747559,0 C9.451000213623047,5.2230000495910645 5.2210001945495605,9.454999923706055 0,9.461999893188477z M0,-9.168999671936035 C-5.058000087738037,-9.156000137329102 -9.14900016784668,-5.044000148773193 -9.140999794006348,0.01600000075995922 C-9.131999969482422,5.076000213623047 -5.026000022888184,9.17199993133545 0.03099999949336052,9.166999816894531 C5.090000152587891,9.163000106811523 9.187999725341797,5.060999870300293 9.187999725341797,0 C9.1850004196167,-2.434999942779541 8.21500015258789,-4.76800012588501 6.492000102996826,-6.486999988555908 C4.769000053405762,-8.206999778747559 2.434000015258789,-9.17199993133545 0,-9.168999671936035z"></path></g><g opacity="1" transform="matrix(1,0,0,1,12.753999710083008,78.6240005493164)"><path fill="rgb(225,234,244)" fill-opacity="1" d=" M-0.9980000257492065,-0.5989999771118164 C-0.9980000257492065,-0.5989999771118164 0.9980000257492065,-0.5989999771118164 0.9980000257492065,-0.5989999771118164 C1.3289999961853027,-0.5989999771118164 1.5980000495910645,-0.3310000002384186 1.5980000495910645,0 C1.5980000495910645,0.3310000002384186 1.3289999961853027,0.5989999771118164 0.9980000257492065,0.5989999771118164 C0.9980000257492065,0.5989999771118164 -0.9980000257492065,0.5989999771118164 -0.9980000257492065,0.5989999771118164 C-1.3289999961853027,0.5989999771118164 -1.5980000495910645,0.3310000002384186 -1.5980000495910645,0 C-1.5980000495910645,-0.3310000002384186 -1.3289999961853027,-0.5989999771118164 -0.9980000257492065,-0.5989999771118164z"></path></g><g opacity="1" transform="matrix(1,0,0,1,29.533000946044922,78.6240005493164)"><path fill="rgb(225,234,244)" fill-opacity="1" d=" M-0.996999979019165,-0.5989999771118164 C-0.996999979019165,-0.5989999771118164 0.9990000128746033,-0.5989999771118164 0.9990000128746033,-0.5989999771118164 C1.3300000429153442,-0.5989999771118164 1.5980000495910645,-0.3310000002384186 1.5980000495910645,0 C1.5980000495910645,0.3310000002384186 1.3300000429153442,0.5989999771118164 0.9990000128746033,0.5989999771118164 C0.9990000128746033,0.5989999771118164 -0.996999979019165,0.5989999771118164 -0.996999979019165,0.5989999771118164 C-1.3279999494552612,0.5989999771118164 -1.5980000495910645,0.3310000002384186 -1.5980000495910645,0 C-1.5980000495910645,-0.3310000002384186 -1.3279999494552612,-0.5989999771118164 -0.996999979019165,-0.5989999771118164z"></path></g><g opacity="1" transform="matrix(1,0,0,1,21.143999099731445,78.6240005493164)"><path fill="rgb(225,234,244)" fill-opacity="1" d=" M-5.39300012588501,-0.5989999771118164 C-5.39300012588501,-0.5989999771118164 5.39300012588501,-0.5989999771118164 5.39300012588501,-0.5989999771118164 C5.723999977111816,-0.5989999771118164 5.993000030517578,-0.3310000002384186 5.993000030517578,0 C5.993000030517578,0.3310000002384186 5.723999977111816,0.5989999771118164 5.39300012588501,0.5989999771118164 C5.39300012588501,0.5989999771118164 -5.39300012588501,0.5989999771118164 -5.39300012588501,0.5989999771118164 C-5.723999977111816,0.5989999771118164 -5.992000102996826,0.3310000002384186 -5.992000102996826,0 C-5.992000102996826,-0.3310000002384186 -5.723999977111816,-0.5989999771118164 -5.39300012588501,-0.5989999771118164z"></path></g><g opacity="1" transform="matrix(1,0,0,1,12.753999710083008,69.83599853515625)"><path fill="rgb(225,234,244)" fill-opacity="1" d=" M-0.9980000257492065,-0.5989999771118164 C-0.9980000257492065,-0.5989999771118164 0.9980000257492065,-0.5989999771118164 0.9980000257492065,-0.5989999771118164 C1.3289999961853027,-0.5989999771118164 1.5980000495910645,-0.33000001311302185 1.5980000495910645,0 C1.5980000495910645,0.3310000002384186 1.3289999961853027,0.5989999771118164 0.9980000257492065,0.5989999771118164 C0.9980000257492065,0.5989999771118164 -0.9980000257492065,0.5989999771118164 -0.9980000257492065,0.5989999771118164 C-1.3289999961853027,0.5989999771118164 -1.5980000495910645,0.3310000002384186 -1.5980000495910645,0 C-1.5980000495910645,-0.33000001311302185 -1.3289999961853027,-0.5989999771118164 -0.9980000257492065,-0.5989999771118164z"></path></g><g opacity="1" transform="matrix(1,0,0,1,23.940000534057617,69.83599853515625)"><path fill="rgb(225,234,244)" fill-opacity="1" d=" M-0.996999979019165,-0.5989999771118164 C-0.996999979019165,-0.5989999771118164 0.996999979019165,-0.5989999771118164 0.996999979019165,-0.5989999771118164 C1.3289999961853027,-0.5989999771118164 1.5980000495910645,-0.33000001311302185 1.5980000495910645,0 C1.5980000495910645,0.3310000002384186 1.3289999961853027,0.5989999771118164 0.996999979019165,0.5989999771118164 C0.996999979019165,0.5989999771118164 -0.996999979019165,0.5989999771118164 -0.996999979019165,0.5989999771118164 C-1.3289999961853027,0.5989999771118164 -1.5980000495910645,0.3310000002384186 -1.5980000495910645,0 C-1.5980000495910645,-0.33000001311302185 -1.3289999961853027,-0.5989999771118164 -0.996999979019165,-0.5989999771118164z"></path></g><g opacity="1" transform="matrix(1,0,0,1,18.347000122070312,69.83599853515625)"><path fill="rgb(225,234,244)" fill-opacity="1" d=" M-2.5959999561309814,-0.5989999771118164 C-2.5959999561309814,-0.5989999771118164 2.5959999561309814,-0.5989999771118164 2.5959999561309814,-0.5989999771118164 C2.927000045776367,-0.5989999771118164 3.196000099182129,-0.33000001311302185 3.196000099182129,0 C3.196000099182129,0.3310000002384186 2.927000045776367,0.5989999771118164 2.5959999561309814,0.5989999771118164 C2.5959999561309814,0.5989999771118164 -2.5959999561309814,0.5989999771118164 -2.5959999561309814,0.5989999771118164 C-2.927000045776367,0.5989999771118164 -3.196000099182129,0.3310000002384186 -3.196000099182129,0 C-3.196000099182129,-0.33000001311302185 -2.927000045776367,-0.5989999771118164 -2.5959999561309814,-0.5989999771118164z"></path></g><g opacity="0.5199999999995997" transform="matrix(1,0,0,1,57.93199920654297,44.95000076293945)"><path fill="url(#__lottie_element_188)" fill-opacity="1" d=" M27.89299964904785,-22.040000915527344 C27.89299964904785,-22.040000915527344 28.698999404907227,-22.040000915527344 28.698999404907227,-22.040000915527344 C28.698999404907227,-22.040000915527344 28.698999404907227,-22.77400016784668 28.698999404907227,-22.77400016784668 C28.698999404907227,-22.77400016784668 27.89299964904785,-22.77400016784668 27.89299964904785,-22.77400016784668 C27.89299964904785,-22.77400016784668 27.89299964904785,-22.040000915527344 27.89299964904785,-22.040000915527344z M28.44499969482422,-24.239999771118164 M28.44499969482422,-23.506000518798828 C28.44499969482422,-23.506000518798828 29.250999450683594,-23.506000518798828 29.250999450683594,-23.506000518798828 C29.250999450683594,-23.506000518798828 29.250999450683594,-24.239999771118164 29.250999450683594,-24.239999771118164 C29.250999450683594,-24.239999771118164 28.44499969482422,-24.239999771118164 28.44499969482422,-24.239999771118164 C28.44499969482422,-24.239999771118164 28.44499969482422,-23.506000518798828 28.44499969482422,-23.506000518798828z M29.81100082397461,-24.239999771118164 M29.81100082397461,-23.506000518798828 C29.81100082397461,-23.506000518798828 32.972999572753906,-23.506000518798828 32.972999572753906,-23.506000518798828 C32.972999572753906,-23.506000518798828 32.972999572753906,-24.239999771118164 32.972999572753906,-24.239999771118164 C32.972999572753906,-24.239999771118164 29.81100082397461,-24.239999771118164 29.81100082397461,-24.239999771118164 C29.81100082397461,-24.239999771118164 29.81100082397461,-23.506000518798828 29.81100082397461,-23.506000518798828z M27.266000747680664,-25.704999923706055 C27.266000747680664,-25.704999923706055 27.266000747680664,-24.972000122070312 27.266000747680664,-24.972000122070312 C27.266000747680664,-24.972000122070312 28.07200050354004,-24.972000122070312 28.07200050354004,-24.972000122070312 C28.07200050354004,-24.972000122070312 28.06999969482422,-25.704999923706055 28.06999969482422,-25.704999923706055 C28.06999969482422,-25.704999923706055 27.266000747680664,-25.704999923706055 27.266000747680664,-25.704999923706055z M28.6299991607666,-25.704999923706055 C28.6299991607666,-25.704999923706055 28.6299991607666,-24.972000122070312 28.6299991607666,-24.972000122070312 C28.6299991607666,-24.972000122070312 32.96699905395508,-24.972000122070312 32.96699905395508,-24.972000122070312 C32.96699905395508,-24.972000122070312 32.972999572753906,-25.704999923706055 32.972999572753906,-25.704999923706055 C32.972999572753906,-25.704999923706055 28.6299991607666,-25.704999923706055 28.6299991607666,-25.704999923706055z M27.841999053955078,-27.163000106811523 M27.841999053955078,-26.429000854492188 C27.841999053955078,-26.429000854492188 28.648000717163086,-26.429000854492188 28.648000717163086,-26.429000854492188 C28.648000717163086,-26.429000854492188 28.648000717163086,-27.163000106811523 28.648000717163086,-27.163000106811523 C28.648000717163086,-27.163000106811523 27.841999053955078,-27.163000106811523 27.841999053955078,-27.163000106811523 C27.841999053955078,-27.163000106811523 27.841999053955078,-26.429000854492188 27.841999053955078,-26.429000854492188z M34.847999572753906,-28.666000366210938 C34.847999572753906,-28.666000366210938 34.84199905395508,-28.663999557495117 34.84199905395508,-28.663999557495117 C34.84199905395508,-28.663999557495117 30.097999572753906,-28.663999557495117 30.097999572753906,-28.663999557495117 C30.097999572753906,-28.663999557495117 30.097999572753906,-27.160999298095703 30.097999572753906,-27.160999298095703 C30.097999572753906,-27.160999298095703 29.20599937438965,-27.160999298095703 29.20599937438965,-27.160999298095703 C29.20599937438965,-27.160999298095703 29.20599937438965,-26.427000045776367 29.20599937438965,-26.427000045776367 C29.20599937438965,-26.427000045776367 32.96699905395508,-26.427000045776367 32.96699905395508,-26.427000045776367 C32.96699905395508,-26.427000045776367 32.96699905395508,-27.163000106811523 32.96699905395508,-27.163000106811523 C32.96699905395508,-27.163000106811523 36.97700119018555,-24.67099952697754 36.97700119018555,-24.67099952697754 C36.97700119018555,-24.67099952697754 32.96699905395508,-22.040000915527344 32.96699905395508,-22.040000915527344 C32.96699905395508,-22.040000915527344 32.96699905395508,-22.77400016784668 32.96699905395508,-22.77400016784668 C32.96699905395508,-22.77400016784668 29.257999420166016,-22.77400016784668 29.257999420166016,-22.77400016784668 C29.257999420166016,-22.77400016784668 29.257999420166016,-22.040000915527344 29.257999420166016,-22.040000915527344 C29.257999420166016,-22.040000915527344 30.097999572753906,-22.040000915527344 30.097999572753906,-22.040000915527344 C30.097999572753906,-22.040000915527344 30.097999572753906,-18.01300048828125 30.097999572753906,-18.01300048828125 C30.097999572753906,-18.01300048828125 31.749000549316406,-18.01300048828125 31.749000549316406,-18.01300048828125 C32.41699981689453,-18.01099967956543 32.96200180053711,-18.52199935913086 32.96699905395508,-19.155000686645508 C32.96699905395508,-19.155000686645508 32.96699905395508,-20.520999908447266 32.96699905395508,-20.520999908447266 C32.96699905395508,-20.520999908447266 34.847999572753906,-20.520999908447266 34.847999572753906,-20.520999908447266 C36.40599822998047,-20.488000869750977 37.862998962402344,-21.257999420166016 38.652000427246094,-22.5310001373291 C39.44300079345703,-23.80500030517578 39.44300079345703,-25.382999420166016 38.652000427246094,-26.656999588012695 C37.87900161743164,-27.902999877929688 36.46500015258789,-28.666000366210938 34.94300079345703,-28.666000366210938 C34.9109992980957,-28.666000366210938 34.880001068115234,-28.666000366210938 34.847999572753906,-28.666000366210938z"></path></g><g opacity="1" transform="matrix(1,0,0,1,93.1969985961914,20.52899932861328)"><path fill="rgb(127,127,127)" fill-opacity="1" d="M0 0"></path></g><g opacity="1" transform="matrix(1,0,0,1,15.748000144958496,63.75299835205078)"><path stroke-linecap="round" stroke-linejoin="round" fill-opacity="0" stroke="rgb(73,82,123)" stroke-opacity="1" stroke-width="0.994" d=" M-0.6420000195503235,-1.8320000171661377 C-0.6420000195503235,-1.8320000171661377 0.1080000028014183,-2.2829999923706055 0.03799999877810478,-2.88700008392334 C-0.48399999737739563,-2.2660000324249268 -0.9819999933242798,-1.621000051498413 -1.468000054359436,-0.9700000286102295 C-2.305000066757202,0.06499999761581421 -3.0239999294281006,1.1890000104904175 -3.61299991607666,2.382999897003174 C-3.6989998817443848,2.5409998893737793 -3.759999990463257,2.7109999656677246 -3.7939999103546143,2.88700008392334 C-3.5829999446868896,2.7090001106262207 -3.38700008392334,2.51200008392334 -3.2079999446868896,2.3010001182556152 C-3.2079999446868896,2.3010001182556152 -2.11899995803833,1.128000020980835 -2.11899995803833,1.128000020980835 C-1.2869999408721924,0.20200000703334808 -0.46000000834465027,-0.7360000014305115 0.3009999990463257,-1.7200000286102295 C0.6000000238418579,-2.0480000972747803 0.8420000076293945,-2.424999952316284 1.0160000324249268,-2.8340001106262207 C1.0160000324249268,-2.8340001106262207 -0.3720000088214874,-0.6299999952316284 -0.3720000088214874,-0.6299999952316284 C-0.3720000088214874,-0.6299999952316284 -1.309999942779541,0.8529999852180481 -1.309999942779541,0.8529999852180481 C-1.309999942779541,0.8529999852180481 -1.7790000438690186,1.5980000495910645 -1.7790000438690186,1.5980000495910645 C-1.8550000190734863,1.715000033378601 -1.9429999589920044,1.8320000171661377 -2.000999927520752,1.9550000429153442 C-2.059999942779541,2.078000068664551 -2.000999927520752,2.171999931335449 -1.871999979019165,2.072000026702881 C-1.819000005722046,2.0290000438690186 -1.7730000019073486,1.975000023841858 -1.7380000352859497,1.9140000343322754 C-1.649999976158142,1.784999966621399 -1.3919999599456787,1.3630000352859497 -1.2569999694824219,1.5980000495910645 C-1.1749999523162842,1.7380000352859497 -1.2569999694824219,1.9789999723434448 -1.1399999856948853,2.1019999980926514 C-0.996999979019165,2.236999988555908 -0.781000018119812,2.259000062942505 -0.6129999756813049,2.1540000438690186 C-0.6129999756813049,2.1540000438690186 -0.2669999897480011,1.937999963760376 -0.2669999897480011,1.937999963760376 C-0.2669999897480011,1.937999963760376 -0.23199999332427979,1.937999963760376 -0.23199999332427979,1.937999963760376 C-0.19699999690055847,1.937999963760376 -0.19099999964237213,1.996000051498413 -0.23199999332427979,2.0309998989105225 C-0.27300000190734863,2.065999984741211 -0.3720000088214874,2.2130000591278076 -0.38999998569488525,2.3239998817443848 C-0.39800000190734863,2.3429999351501465 -0.39800000190734863,2.364000082015991 -0.38999998569488525,2.382999897003174 C-0.38999998569488525,2.4240000247955322 -0.3019999861717224,2.382999897003174 -0.26100000739097595,2.382999897003174 C-0.2199999988079071,2.382999897003174 0.14900000393390656,2.0309998989105225 0.26600000262260437,2.072000026702881 C0.289000004529953,2.0840001106262207 0.30799999833106995,2.0999999046325684 0.32499998807907104,2.11899995803833 C0.6759999990463257,2.5 1.2100000381469727,1.8380000591278076 1.4620000123977661,1.5980000495910645 C1.7020000219345093,1.4170000553131104 1.9299999475479126,1.2209999561309814 2.1470000743865967,1.0110000371932983 C2.194000005722046,0.953000009059906 2.4519999027252197,0.5479999780654907 2.246999979019165,0.578000009059906 C2.1530001163482666,0.578000009059906 2.046999931335449,0.8240000009536743 2.01200008392334,0.8820000290870667 C1.8320000171661377,1.2029999494552612 1.6699999570846558,1.534000039100647 1.5260000228881836,1.8730000257492065 C1.5260000228881836,1.8730000257492065 1.2860000133514404,2.7230000495910645 1.8480000495910645,2.2249999046325684 C1.8480000495910645,2.2249999046325684 2.3289999961853027,1.7029999494552612 2.3289999961853027,1.7029999494552612 C2.4749999046325684,1.5449999570846558 2.4170000553131104,1.9730000495910645 2.486999988555908,2.0250000953674316 C2.7330000400543213,2.2070000171661377 3.114000082015991,1.9839999675750732 3.319000005722046,1.843999981880188 C3.4070000648498535,1.784999966621399 3.6410000324249268,1.715000033378601 3.7170000076293945,1.843999981880188 C3.7939999103546143,1.9730000495910645 3.4769999980926514,2.2190001010894775 3.359999895095825,2.2829999923706055"></path></g><g opacity="1" transform="matrix(1,0,0,1,12.753999710083008,15.90999984741211)"><path fill="rgb(225,234,244)" fill-opacity="1" d=" M-0.5979999899864197,-0.9990000128746033 C-0.5979999899864197,-0.9990000128746033 0.5979999899864197,-0.9990000128746033 0.5979999899864197,-0.9990000128746033 C1.1510000228881836,-0.9990000128746033 1.5980000495910645,-0.5519999861717224 1.5980000495910645,0 C1.5980000495910645,0.5509999990463257 1.1510000228881836,0.9990000128746033 0.5979999899864197,0.9990000128746033 C0.5979999899864197,0.9990000128746033 -0.5979999899864197,0.9990000128746033 -0.5979999899864197,0.9990000128746033 C-1.1510000228881836,0.9990000128746033 -1.5980000495910645,0.5509999990463257 -1.5980000495910645,0 C-1.5980000495910645,-0.5519999861717224 -1.1510000228881836,-0.9990000128746033 -0.5979999899864197,-0.9990000128746033z"></path></g><g opacity="1" transform="matrix(1,0,0,1,29.799999237060547,15.90999984741211)"><path fill="rgb(225,234,244)" fill-opacity="1" d=" M-13.64799976348877,-0.9990000128746033 C-13.64799976348877,-0.9990000128746033 13.64799976348877,-0.9990000128746033 13.64799976348877,-0.9990000128746033 C14.201000213623047,-0.9990000128746033 14.64799976348877,-0.5519999861717224 14.64799976348877,0 C14.64799976348877,0.5509999990463257 14.201000213623047,0.9990000128746033 13.64799976348877,0.9990000128746033 C13.64799976348877,0.9990000128746033 -13.64799976348877,0.9990000128746033 -13.64799976348877,0.9990000128746033 C-14.201000213623047,0.9990000128746033 -14.64799976348877,0.5509999990463257 -14.64799976348877,0 C-14.64799976348877,-0.5519999861717224 -14.201000213623047,-0.9990000128746033 -13.64799976348877,-0.9990000128746033z"></path></g><g opacity="1" transform="matrix(1,0,0,1,12.753999710083008,25.097000122070312)"><path fill="rgb(225,234,244)" fill-opacity="1" d=" M-0.9980000257492065,-0.5989999771118164 C-0.9980000257492065,-0.5989999771118164 0.9980000257492065,-0.5989999771118164 0.9980000257492065,-0.5989999771118164 C1.3289999961853027,-0.5989999771118164 1.5980000495910645,-0.3310000002384186 1.5980000495910645,0 C1.5980000495910645,0.3310000002384186 1.3289999961853027,0.5989999771118164 0.9980000257492065,0.5989999771118164 C0.9980000257492065,0.5989999771118164 -0.9980000257492065,0.5989999771118164 -0.9980000257492065,0.5989999771118164 C-1.3289999961853027,0.5989999771118164 -1.5980000495910645,0.3310000002384186 -1.5980000495910645,0 C-1.5980000495910645,-0.3310000002384186 -1.3289999961853027,-0.5989999771118164 -0.9980000257492065,-0.5989999771118164z"></path></g><g opacity="1" transform="matrix(1,0,0,1,47.11199951171875,25.097000122070312)"><path fill="rgb(225,234,244)" fill-opacity="1" d=" M-0.9980000257492065,-0.5989999771118164 C-0.9980000257492065,-0.5989999771118164 0.9980000257492065,-0.5989999771118164 0.9980000257492065,-0.5989999771118164 C1.3289999961853027,-0.5989999771118164 1.5980000495910645,-0.3310000002384186 1.5980000495910645,0 C1.5980000495910645,0.3310000002384186 1.3289999961853027,0.5989999771118164 0.9980000257492065,0.5989999771118164 C0.9980000257492065,0.5989999771118164 -0.9980000257492065,0.5989999771118164 -0.9980000257492065,0.5989999771118164 C-1.3289999961853027,0.5989999771118164 -1.5980000495910645,0.3310000002384186 -1.5980000495910645,0 C-1.5980000495910645,-0.3310000002384186 -1.3289999961853027,-0.5989999771118164 -0.9980000257492065,-0.5989999771118164z"></path></g><g opacity="1" transform="matrix(1,0,0,1,29.798999786376953,25.097000122070312)"><path fill="rgb(225,234,244)" fill-opacity="1" d=" M-14.04800033569336,-0.5989999771118164 C-14.04800033569336,-0.5989999771118164 14.048999786376953,-0.5989999771118164 14.048999786376953,-0.5989999771118164 C14.380000114440918,-0.5989999771118164 14.64799976348877,-0.3310000002384186 14.64799976348877,0 C14.64799976348877,0.3310000002384186 14.380000114440918,0.5989999771118164 14.048999786376953,0.5989999771118164 C14.048999786376953,0.5989999771118164 -14.04800033569336,0.5989999771118164 -14.04800033569336,0.5989999771118164 C-14.378999710083008,0.5989999771118164 -14.64799976348877,0.3310000002384186 -14.64799976348877,0 C-14.64799976348877,-0.3310000002384186 -14.378999710083008,-0.5989999771118164 -14.04800033569336,-0.5989999771118164z"></path></g><g opacity="1" transform="matrix(1,0,0,1,12.753999710083008,29.091999053955078)"><path fill="rgb(44,223,223)" fill-opacity="1" d=" M-0.9980000257492065,-0.5989999771118164 C-0.9980000257492065,-0.5989999771118164 0.9980000257492065,-0.5989999771118164 0.9980000257492065,-0.5989999771118164 C1.3289999961853027,-0.5989999771118164 1.5980000495910645,-0.3310000002384186 1.5980000495910645,0 C1.5980000495910645,0.3310000002384186 1.3289999961853027,0.5989999771118164 0.9980000257492065,0.5989999771118164 C0.9980000257492065,0.5989999771118164 -0.9980000257492065,0.5989999771118164 -0.9980000257492065,0.5989999771118164 C-1.3289999961853027,0.5989999771118164 -1.5980000495910645,0.3310000002384186 -1.5980000495910645,0 C-1.5980000495910645,-0.3310000002384186 -1.3289999961853027,-0.5989999771118164 -0.9980000257492065,-0.5989999771118164z"></path></g><g opacity="1" transform="matrix(1,0,0,1,33.52799987792969,29.091999053955078)"><path fill="rgb(44,223,223)" fill-opacity="1" d=" M-0.996999979019165,-0.5989999771118164 C-0.996999979019165,-0.5989999771118164 0.9990000128746033,-0.5989999771118164 0.9990000128746033,-0.5989999771118164 C1.3300000429153442,-0.5989999771118164 1.5980000495910645,-0.3310000002384186 1.5980000495910645,0 C1.5980000495910645,0.3310000002384186 1.3300000429153442,0.5989999771118164 0.9990000128746033,0.5989999771118164 C0.9990000128746033,0.5989999771118164 -0.996999979019165,0.5989999771118164 -0.996999979019165,0.5989999771118164 C-1.3289999961853027,0.5989999771118164 -1.5980000495910645,0.3310000002384186 -1.5980000495910645,0 C-1.5980000495910645,-0.3310000002384186 -1.3289999961853027,-0.5989999771118164 -0.996999979019165,-0.5989999771118164z"></path></g><g opacity="1" transform="matrix(1,0,0,1,23.141000747680664,29.091999053955078)"><path fill="rgb(44,223,223)" fill-opacity="1" d=" M-7.389999866485596,-0.5989999771118164 C-7.389999866485596,-0.5989999771118164 7.389999866485596,-0.5989999771118164 7.389999866485596,-0.5989999771118164 C7.7210001945495605,-0.5989999771118164 7.989999771118164,-0.3310000002384186 7.989999771118164,0 C7.989999771118164,0.3310000002384186 7.7210001945495605,0.5989999771118164 7.389999866485596,0.5989999771118164 C7.389999866485596,0.5989999771118164 -7.389999866485596,0.5989999771118164 -7.389999866485596,0.5989999771118164 C-7.7210001945495605,0.5989999771118164 -7.989999771118164,0.3310000002384186 -7.989999771118164,0 C-7.989999771118164,-0.3310000002384186 -7.7210001945495605,-0.5989999771118164 -7.389999866485596,-0.5989999771118164z"></path></g><g opacity="1" transform="matrix(1,0,0,1,12.753999710083008,40.277000427246094)"><path fill="rgb(225,234,244)" fill-opacity="1" d=" M-0.9980000257492065,-0.5989999771118164 C-0.9980000257492065,-0.5989999771118164 0.9980000257492065,-0.5989999771118164 0.9980000257492065,-0.5989999771118164 C1.3289999961853027,-0.5989999771118164 1.5980000495910645,-0.3310000002384186 1.5980000495910645,0 C1.5980000495910645,0.3310000002384186 1.3289999961853027,0.5989999771118164 0.9980000257492065,0.5989999771118164 C0.9980000257492065,0.5989999771118164 -0.9980000257492065,0.5989999771118164 -0.9980000257492065,0.5989999771118164 C-1.3289999961853027,0.5989999771118164 -1.5980000495910645,0.3310000002384186 -1.5980000495910645,0 C-1.5980000495910645,-0.3310000002384186 -1.3289999961853027,-0.5989999771118164 -0.9980000257492065,-0.5989999771118164z"></path></g><g opacity="1" transform="matrix(1,0,0,1,33.52799987792969,40.277000427246094)"><path fill="rgb(225,234,244)" fill-opacity="1" d=" M-0.996999979019165,-0.5989999771118164 C-0.996999979019165,-0.5989999771118164 0.9990000128746033,-0.5989999771118164 0.9990000128746033,-0.5989999771118164 C1.3300000429153442,-0.5989999771118164 1.5980000495910645,-0.3310000002384186 1.5980000495910645,0 C1.5980000495910645,0.3310000002384186 1.3300000429153442,0.5989999771118164 0.9990000128746033,0.5989999771118164 C0.9990000128746033,0.5989999771118164 -0.996999979019165,0.5989999771118164 -0.996999979019165,0.5989999771118164 C-1.3289999961853027,0.5989999771118164 -1.5980000495910645,0.3310000002384186 -1.5980000495910645,0 C-1.5980000495910645,-0.3310000002384186 -1.3289999961853027,-0.5989999771118164 -0.996999979019165,-0.5989999771118164z"></path></g><g opacity="1" transform="matrix(1,0,0,1,23.141000747680664,40.277000427246094)"><path fill="rgb(225,234,244)" fill-opacity="1" d=" M-7.389999866485596,-0.5989999771118164 C-7.389999866485596,-0.5989999771118164 7.389999866485596,-0.5989999771118164 7.389999866485596,-0.5989999771118164 C7.7210001945495605,-0.5989999771118164 7.989999771118164,-0.3310000002384186 7.989999771118164,0 C7.989999771118164,0.3310000002384186 7.7210001945495605,0.5989999771118164 7.389999866485596,0.5989999771118164 C7.389999866485596,0.5989999771118164 -7.389999866485596,0.5989999771118164 -7.389999866485596,0.5989999771118164 C-7.7210001945495605,0.5989999771118164 -7.989999771118164,0.3310000002384186 -7.989999771118164,0 C-7.989999771118164,-0.3310000002384186 -7.7210001945495605,-0.5989999771118164 -7.389999866485596,-0.5989999771118164z"></path></g><g opacity="0.38108094176728347" transform="matrix(1,0,0,1,12.753999710083008,52.2599983215332)"><path fill="rgb(225,234,244)" fill-opacity="1" d=" M-0.9980000257492065,-0.5989999771118164 C-0.9980000257492065,-0.5989999771118164 0.9980000257492065,-0.5989999771118164 0.9980000257492065,-0.5989999771118164 C1.3289999961853027,-0.5989999771118164 1.5980000495910645,-0.3310000002384186 1.5980000495910645,0 C1.5980000495910645,0.3310000002384186 1.3289999961853027,0.5989999771118164 0.9980000257492065,0.5989999771118164 C0.9980000257492065,0.5989999771118164 -0.9980000257492065,0.5989999771118164 -0.9980000257492065,0.5989999771118164 C-1.3289999961853027,0.5989999771118164 -1.5980000495910645,0.3310000002384186 -1.5980000495910645,0 C-1.5980000495910645,-0.3310000002384186 -1.3289999961853027,-0.5989999771118164 -0.9980000257492065,-0.5989999771118164z"></path></g><g opacity="0.38108094176728347" transform="matrix(1,0,0,1,29.533000946044922,52.2599983215332)"><path fill="rgb(225,234,244)" fill-opacity="1" d=" M-0.996999979019165,-0.5989999771118164 C-0.996999979019165,-0.5989999771118164 0.9990000128746033,-0.5989999771118164 0.9990000128746033,-0.5989999771118164 C1.3300000429153442,-0.5989999771118164 1.5980000495910645,-0.3310000002384186 1.5980000495910645,0 C1.5980000495910645,0.3310000002384186 1.3300000429153442,0.5989999771118164 0.9990000128746033,0.5989999771118164 C0.9990000128746033,0.5989999771118164 -0.996999979019165,0.5989999771118164 -0.996999979019165,0.5989999771118164 C-1.3279999494552612,0.5989999771118164 -1.5980000495910645,0.3310000002384186 -1.5980000495910645,0 C-1.5980000495910645,-0.3310000002384186 -1.3279999494552612,-0.5989999771118164 -0.996999979019165,-0.5989999771118164z"></path></g><g opacity="0.38108094176728347" transform="matrix(1,0,0,1,21.143999099731445,52.2599983215332)"><path fill="rgb(225,234,244)" fill-opacity="1" d=" M-5.39300012588501,-0.5989999771118164 C-5.39300012588501,-0.5989999771118164 5.39300012588501,-0.5989999771118164 5.39300012588501,-0.5989999771118164 C5.723999977111816,-0.5989999771118164 5.993000030517578,-0.3310000002384186 5.993000030517578,0 C5.993000030517578,0.3310000002384186 5.723999977111816,0.5989999771118164 5.39300012588501,0.5989999771118164 C5.39300012588501,0.5989999771118164 -5.39300012588501,0.5989999771118164 -5.39300012588501,0.5989999771118164 C-5.723999977111816,0.5989999771118164 -5.992000102996826,0.3310000002384186 -5.992000102996826,0 C-5.992000102996826,-0.3310000002384186 -5.723999977111816,-0.5989999771118164 -5.39300012588501,-0.5989999771118164z"></path></g><g opacity="0.9817966736306543" transform="matrix(1,0,0,1,12.753999710083008,44.270999908447266)"><path fill="rgb(225,234,244)" fill-opacity="1" d=" M-0.9980000257492065,-0.5989999771118164 C-0.9980000257492065,-0.5989999771118164 0.9980000257492065,-0.5989999771118164 0.9980000257492065,-0.5989999771118164 C1.3289999961853027,-0.5989999771118164 1.5980000495910645,-0.3310000002384186 1.5980000495910645,0 C1.5980000495910645,0.3310000002384186 1.3289999961853027,0.5989999771118164 0.9980000257492065,0.5989999771118164 C0.9980000257492065,0.5989999771118164 -0.9980000257492065,0.5989999771118164 -0.9980000257492065,0.5989999771118164 C-1.3289999961853027,0.5989999771118164 -1.5980000495910645,0.3310000002384186 -1.5980000495910645,0 C-1.5980000495910645,-0.3310000002384186 -1.3289999961853027,-0.5989999771118164 -0.9980000257492065,-0.5989999771118164z"></path></g><g opacity="0.9817966736306543" transform="matrix(1,0,0,1,41.518001556396484,44.270999908447266)"><path fill="rgb(225,234,244)" fill-opacity="1" d=" M-0.996999979019165,-0.5989999771118164 C-0.996999979019165,-0.5989999771118164 0.996999979019165,-0.5989999771118164 0.996999979019165,-0.5989999771118164 C1.3289999961853027,-0.5989999771118164 1.5980000495910645,-0.3310000002384186 1.5980000495910645,0 C1.5980000495910645,0.3310000002384186 1.3289999961853027,0.5989999771118164 0.996999979019165,0.5989999771118164 C0.996999979019165,0.5989999771118164 -0.996999979019165,0.5989999771118164 -0.996999979019165,0.5989999771118164 C-1.3289999961853027,0.5989999771118164 -1.5980000495910645,0.3310000002384186 -1.5980000495910645,0 C-1.5980000495910645,-0.3310000002384186 -1.3289999961853027,-0.5989999771118164 -0.996999979019165,-0.5989999771118164z"></path></g><g opacity="0.9817966736306543" transform="matrix(1,0,0,1,27.13599967956543,44.270999908447266)"><path fill="rgb(225,234,244)" fill-opacity="1" d=" M-11.385000228881836,-0.5989999771118164 C-11.385000228881836,-0.5989999771118164 11.38599967956543,-0.5989999771118164 11.38599967956543,-0.5989999771118164 C11.717000007629395,-0.5989999771118164 11.984999656677246,-0.3310000002384186 11.984999656677246,0 C11.984999656677246,0.3310000002384186 11.717000007629395,0.5989999771118164 11.38599967956543,0.5989999771118164 C11.38599967956543,0.5989999771118164 -11.385000228881836,0.5989999771118164 -11.385000228881836,0.5989999771118164 C-11.715999603271484,0.5989999771118164 -11.984999656677246,0.3310000002384186 -11.984999656677246,0 C-11.984999656677246,-0.3310000002384186 -11.715999603271484,-0.5989999771118164 -11.385000228881836,-0.5989999771118164z"></path></g><g opacity="0.7450743009816441" transform="matrix(1,0,0,1,12.753999710083008,48.26499938964844)"><path fill="rgb(225,234,244)" fill-opacity="1" d=" M-0.9980000257492065,-0.5989999771118164 C-0.9980000257492065,-0.5989999771118164 0.9980000257492065,-0.5989999771118164 0.9980000257492065,-0.5989999771118164 C1.3289999961853027,-0.5989999771118164 1.5980000495910645,-0.33000001311302185 1.5980000495910645,0 C1.5980000495910645,0.3310000002384186 1.3289999961853027,0.5989999771118164 0.9980000257492065,0.5989999771118164 C0.9980000257492065,0.5989999771118164 -0.9980000257492065,0.5989999771118164 -0.9980000257492065,0.5989999771118164 C-1.3289999961853027,0.5989999771118164 -1.5980000495910645,0.3310000002384186 -1.5980000495910645,0 C-1.5980000495910645,-0.33000001311302185 -1.3289999961853027,-0.5989999771118164 -0.9980000257492065,-0.5989999771118164z"></path></g><g opacity="0.7450743009816441" transform="matrix(1,0,0,1,48.709999084472656,48.26499938964844)"><path fill="rgb(225,234,244)" fill-opacity="1" d=" M-0.9990000128746033,-0.5989999771118164 C-0.9990000128746033,-0.5989999771118164 0.996999979019165,-0.5989999771118164 0.996999979019165,-0.5989999771118164 C1.3289999961853027,-0.5989999771118164 1.5980000495910645,-0.33000001311302185 1.5980000495910645,0 C1.5980000495910645,0.3310000002384186 1.3289999961853027,0.5989999771118164 0.996999979019165,0.5989999771118164 C0.996999979019165,0.5989999771118164 -0.9990000128746033,0.5989999771118164 -0.9990000128746033,0.5989999771118164 C-1.3300000429153442,0.5989999771118164 -1.5980000495910645,0.3310000002384186 -1.5980000495910645,0 C-1.5980000495910645,-0.33000001311302185 -1.3300000429153442,-0.5989999771118164 -0.9990000128746033,-0.5989999771118164z"></path></g><g opacity="0.7450743009816441" transform="matrix(1,0,0,1,30.73200035095215,48.26499938964844)"><path fill="rgb(225,234,244)" fill-opacity="1" d=" M-14.980999946594238,-0.5989999771118164 C-14.980999946594238,-0.5989999771118164 14.979999542236328,-0.5989999771118164 14.979999542236328,-0.5989999771118164 C15.312000274658203,-0.5989999771118164 15.581000328063965,-0.33000001311302185 15.581000328063965,0 C15.581000328063965,0.3310000002384186 15.312000274658203,0.5989999771118164 14.979999542236328,0.5989999771118164 C14.979999542236328,0.5989999771118164 -14.980999946594238,0.5989999771118164 -14.980999946594238,0.5989999771118164 C-15.312000274658203,0.5989999771118164 -15.581000328063965,0.3310000002384186 -15.581000328063965,0 C-15.581000328063965,-0.33000001311302185 -15.312000274658203,-0.5989999771118164 -14.980999946594238,-0.5989999771118164z"></path></g></g></g></svg>