<svg xmlns="http://www.w3.org/2000/svg" viewBox="0 0 450 475" width="450" height="475" preserveAspectRatio="xMidYMid slice" style="width: 100%; height: 100%; transform: translate3d(0px, 0px, 0px);"><defs><clipPath id="__lottie_element_117"><rect width="450" height="475" x="0" y="0"></rect></clipPath></defs><g clip-path="url(#__lottie_element_117)"><g transform="matrix(1,0,0,1,9,-0.5)" opacity="1" style="display: block;"><g opacity="1" transform="matrix(1,0,0,1,181.07699584960938,124.16000366210938)"><path fill="rgb(236,239,243)" fill-opacity="1" d=" M137.9929962158203,28.32900047302246 C137.9929962158203,28.32900047302246 -137.9929962158203,28.32900047302246 -137.9929962158203,28.32900047302246 C-137.9929962158203,28.32900047302246 -137.9929962158203,-28.32900047302246 -137.9929962158203,-28.32900047302246 C-137.9929962158203,-28.32900047302246 137.9929962158203,-28.32900047302246 137.9929962158203,-28.32900047302246 C137.9929962158203,-28.32900047302246 137.9929962158203,28.32900047302246 137.9929962158203,28.32900047302246z"></path></g><g opacity="1" transform="matrix(1,0,0,1,372.364990234375,315.8169860839844)"><path fill="rgb(236,239,243)" fill-opacity="1" d=" M30.857999801635742,28.32900047302246 C30.857999801635742,28.32900047302246 -30.858999252319336,28.32900047302246 -30.858999252319336,28.32900047302246 C-30.858999252319336,28.32900047302246 -30.858999252319336,-28.32900047302246 -30.858999252319336,-28.32900047302246 C-30.858999252319336,-28.32900047302246 30.857999801635742,-28.32900047302246 30.857999801635742,-28.32900047302246 C30.857999801635742,-28.32900047302246 30.857999801635742,28.32900047302246 30.857999801635742,28.32900047302246z"></path></g><g opacity="1" transform="matrix(1,0,0,1,176.53199768066406,315.8190002441406)"><path fill="rgb(236,239,243)" fill-opacity="1" d=" M132.30799865722656,28.32900047302246 C132.30799865722656,28.32900047302246 -132.30799865722656,28.32900047302246 -132.30799865722656,28.32900047302246 C-132.30799865722656,28.32900047302246 -132.30799865722656,-28.32900047302246 -132.30799865722656,-28.32900047302246 C-132.30799865722656,-28.32900047302246 132.30799865722656,-28.32900047302246 132.30799865722656,-28.32900047302246 C132.30799865722656,-28.32900047302246 132.30799865722656,28.32900047302246 132.30799865722656,28.32900047302246z"></path></g><g opacity="1" transform="matrix(1,0,0,1,46.689998626708984,28.32900047302246)"><path fill="rgb(236,239,243)" fill-opacity="1" d=" M-46.689998626708984,28.32900047302246 C-46.689998626708984,28.32900047302246 46.689998626708984,28.32900047302246 46.689998626708984,28.32900047302246 C46.689998626708984,28.32900047302246 46.689998626708984,-28.32900047302246 46.689998626708984,-28.32900047302246 C46.689998626708984,-28.32900047302246 -46.689998626708984,-28.32900047302246 -46.689998626708984,-28.32900047302246 C-46.689998626708984,-28.32900047302246 -46.689998626708984,28.32900047302246 -46.689998626708984,28.32900047302246z"></path></g><g opacity="1" transform="matrix(1,0,0,1,38.47700119018555,411.64599609375)"><path fill="rgb(236,239,243)" fill-opacity="1" d=" M-38.47700119018555,28.32900047302246 C-38.47700119018555,28.32900047302246 38.47700119018555,28.32900047302246 38.47700119018555,28.32900047302246 C38.47700119018555,28.32900047302246 38.47700119018555,-28.32900047302246 38.47700119018555,-28.32900047302246 C38.47700119018555,-28.32900047302246 -38.47700119018555,-28.32900047302246 -38.47700119018555,-28.32900047302246 C-38.47700119018555,-28.32900047302246 -38.47700119018555,28.32900047302246 -38.47700119018555,28.32900047302246z"></path></g><g opacity="1" transform="matrix(1,0,0,1,270.81500244140625,411.64898681640625)"><path fill="rgb(236,239,243)" fill-opacity="1" d=" M-161.1840057373047,28.32900047302246 C-161.1840057373047,28.32900047302246 161.18499755859375,28.32900047302246 161.18499755859375,28.32900047302246 C161.18499755859375,28.32900047302246 161.18499755859375,-28.32900047302246 161.18499755859375,-28.32900047302246 C161.18499755859375,-28.32900047302246 -161.1840057373047,-28.32900047302246 -161.1840057373047,-28.32900047302246 C-161.1840057373047,-28.32900047302246 -161.1840057373047,28.32900047302246 -161.1840057373047,28.32900047302246z"></path></g><g opacity="1" transform="matrix(1,0,0,1,35.875999450683594,219.98800659179688)"><path fill="rgb(236,239,243)" fill-opacity="1" d=" M-35.875999450683594,28.32900047302246 C-35.875999450683594,28.32900047302246 35.875999450683594,28.32900047302246 35.875999450683594,28.32900047302246 C35.875999450683594,28.32900047302246 35.875999450683594,-28.32900047302246 35.875999450683594,-28.32900047302246 C35.875999450683594,-28.32900047302246 -35.875999450683594,-28.32900047302246 -35.875999450683594,-28.32900047302246 C-35.875999450683594,-28.32900047302246 -35.875999450683594,28.32900047302246 -35.875999450683594,28.32900047302246z"></path></g><g opacity="1" transform="matrix(1,0,0,1,268.1289978027344,219.98899841308594)"><path fill="rgb(236,239,243)" fill-opacity="1" d=" M163.87100219726562,28.32900047302246 C163.87100219726562,28.32900047302246 -163.87100219726562,28.32900047302246 -163.87100219726562,28.32900047302246 C-163.87100219726562,28.32900047302246 -163.87100219726562,-28.32900047302246 -163.87100219726562,-28.32900047302246 C-163.87100219726562,-28.32900047302246 163.87100219726562,-28.32900047302246 163.87100219726562,-28.32900047302246 C163.87100219726562,-28.32900047302246 163.87100219726562,28.32900047302246 163.87100219726562,28.32900047302246z"></path></g><g opacity="1" transform="matrix(1,0,0,1,391.7850036621094,124.16000366210938)"><path fill="rgb(236,239,243)" fill-opacity="1" d=" M40.21500015258789,28.32900047302246 C40.21500015258789,28.32900047302246 -40.21500015258789,28.32900047302246 -40.21500015258789,28.32900047302246 C-40.21500015258789,28.32900047302246 -40.21500015258789,-28.32900047302246 -40.21500015258789,-28.32900047302246 C-40.21500015258789,-28.32900047302246 40.21500015258789,-28.32900047302246 40.21500015258789,-28.32900047302246 C40.21500015258789,-28.32900047302246 40.21500015258789,28.32900047302246 40.21500015258789,28.32900047302246z"></path></g></g><g transform="matrix(1,0,0,1,74.5,26.5)" opacity="1" style="display: block;"><g opacity="1" transform="matrix(1,0,0,1,164.97300720214844,389.1960144042969)"><path fill="rgb(255,208,156)" fill-opacity="1" d=" M-12.210000038146973,-4.197000026702881 C-12.210000038146973,-4.197000026702881 7.364999771118164,-11.329000473022461 7.364999771118164,-11.329000473022461 C7.364999771118164,-11.329000473022461 12.210000038146973,6.623000144958496 12.210000038146973,6.623000144958496 C7.208000183105469,3.494999885559082 -1.8259999752044678,7.271999835968018 -5.625999927520752,11.32800006866455 C-5.625999927520752,11.32800006866455 -12.210000038146973,-4.197000026702881 -12.210000038146973,-4.197000026702881z"></path></g><g opacity="1" transform="matrix(1,0,0,1,173.2899932861328,404.2330017089844)"><path fill="rgb(82,169,255)" fill-opacity="1" d=" M-15.869999885559082,12.482999801635742 C-16.55500030517578,3.869999885559082 -16.43199920654297,0.2029999941587448 -11.904999732971191,-7.576000213623047 C-7.888999938964844,-11.416999816894531 -2.388000011444092,-12.484000205993652 2.434999942779541,-9.086000442504883 C10.118000030517578,-6.083000183105469 14.0649995803833,1.0149999856948853 16.55500030517578,9.067999839782715 C13.42300033569336,3.4539999961853027 6.668000221252441,-0.052000001072883606 -0.7179999947547913,0.7260000109672546 C-8.104000091552734,1.503999948501587 -13.973999977111816,6.339000225067139 -15.869999885559082,12.482999801635742z"></path></g><g opacity="1" transform="matrix(1,0,0,1,173.63299560546875,410.4490051269531)"><path fill="rgb(115,192,255)" fill-opacity="1" d=" M-16.211999893188477,6.267000198364258 C-14.315999984741211,0.12300000339746475 -8.446999549865723,-4.711999893188477 -1.0609999895095825,-5.489999771118164 C6.324999809265137,-6.26800012588501 13.079999923706055,-2.76200008392334 16.211999893188477,2.8519999980926514 C15.961999893188477,2.799999952316284 15.699000358581543,2.7850000858306885 15.430000305175781,2.812999963760376 C15.430000305175781,2.812999963760376 -15.460000038146973,6.065999984741211 -15.460000038146973,6.065999984741211 C-15.722999572753906,6.093999862670898 -15.979000091552734,6.163000106811523 -16.211999893188477,6.267000198364258z"></path></g><g opacity="1" transform="matrix(1,0,0,1,173.89500427246094,417.364013671875)"><path fill="rgb(235,233,255)" fill-opacity="1" d=" M-15.722000122070312,-0.8489999771118164 C-15.722000122070312,-0.8489999771118164 15.168000221252441,-4.1020002365112305 15.168000221252441,-4.1020002365112305 C15.437000274658203,-4.130000114440918 15.699999809265137,-4.114999771118164 15.949999809265137,-4.061999797821045 C16.97599983215332,-3.8410000801086426 17.79800033569336,-2.9809999465942383 17.913999557495117,-1.8830000162124634 C18.05699920654297,-0.5149999856948853 17.058000564575195,0.718999981880188 15.690999984741211,0.8629999756813049 C15.690999984741211,0.8629999756813049 -15.199999809265137,4.116000175476074 -15.199999809265137,4.116000175476074 C-16.56800079345703,4.260000228881836 -17.797000885009766,3.259999990463257 -17.941999435424805,1.8930000066757202 C-18.05699920654297,0.7950000166893005 -17.433000564575195,-0.21799999475479126 -16.475000381469727,-0.6480000019073486 C-16.242000579833984,-0.7509999871253967 -15.984999656677246,-0.8209999799728394 -15.722000122070312,-0.8489999771118164z"></path></g><g opacity="1" transform="matrix(1,0,0,1,65.4729995727539,296.9670104980469)"><path fill="rgb(255,208,156)" fill-opacity="1" d=" M-5.546999931335449,11.539999961853027 C-5.546999931335449,11.539999961853027 8.390000343322754,4.333000183105469 8.390000343322754,4.333000183105469 C8.390000343322754,4.333000183105469 -2.803999900817871,-11.539999961853027 -2.803999900817871,-11.539999961853027 C-2.803999900817871,-11.539999961853027 -8.390000343322754,3.750999927520752 -8.390000343322754,3.750999927520752 C-8.390000343322754,3.750999927520752 -5.546999931335449,11.539999961853027 -5.546999931335449,11.539999961853027z"></path></g><g opacity="1" transform="matrix(1,0,0,1,58.492000579833984,294.43499755859375)"><path fill="rgb(255,208,156)" fill-opacity="1" d=" M9.381999969482422,-3.996999979019165 C9.381999969482422,-3.996999979019165 2.0989999771118164,-11.607999801635742 2.0989999771118164,-11.607999801635742 C2.0989999771118164,-11.607999801635742 -8.189000129699707,-9.746000289916992 -8.189000129699707,-9.746000289916992 C-8.189000129699707,-9.746000289916992 -9.381999969482422,-8.720000267028809 -9.381999969482422,-8.720000267028809 C-9.152999877929688,0.7049999833106995 -7.046999931335449,7.0229997634887695 1.062000036239624,11.607999801635742 C2.815999984741211,8.005000114440918 7.020999908447266,0.5490000247955322 9.381999969482422,-3.996999979019165z"></path></g><g opacity="1" transform="matrix(1,0,0,1,49.79800033569336,314.14801025390625)"><path fill="rgb(82,169,255)" fill-opacity="1" d=" M9.756999969482422,-8.104999542236328 C1.6490000486373901,-12.6899995803833 -0.45899999141693115,-19.009000778198242 -0.6869999766349792,-28.433000564575195 C-0.6869999766349792,-28.433000564575195 0.5049999952316284,-29.458999633789062 0.5049999952316284,-29.458999633789062 C-0.06499999761581421,-29.753000259399414 -0.699999988079071,-29.950000762939453 -1.5210000276565552,-29.86199951171875 C-1.5210000276565552,-29.86199951171875 -11.109000205993652,-27.915000915527344 -11.109000205993652,-27.915000915527344 C-12.27400016784668,-17.38599967956543 -10.253999710083008,-6.559000015258789 -7.48199987411499,4.3460001945495605 C-4.322999954223633,13.697999954223633 -0.03099999949336052,22.427000045776367 6.486000061035156,29.948999404907227 C8.270000457763672,29.246000289916992 9.505999565124512,27.597000122070312 10.319999694824219,25.202999114990234 C10.732000350952148,15.79800033569336 10.654999732971191,5.789000034332275 12.064000129699707,-2.4100000858306885 C12.25100040435791,-3.8410000801086426 12.274999618530273,-6.446000099182129 9.756999969482422,-8.104999542236328z"></path></g><g opacity="1" transform="matrix(1,0,0,1,45.02000045776367,315.48199462890625)"><path fill="rgb(235,233,255)" fill-opacity="1" d=" M-2.7060000896453857,3.010999917984009 C-5.4770002365112305,-7.89300012588501 -7.498000144958496,-18.719999313354492 -6.333000183105469,-29.25 C-6.333000183105469,-29.25 -10.354000091552734,-27.716999053955078 -10.354000091552734,-27.716999053955078 C-11.263999938964844,-16.680999755859375 -9.08899974822998,-4.910999774932861 -5.734000205993652,7.127999782562256 C-3.115999937057495,14.960000038146973 1.2769999504089355,21.933000564575195 6.1519999504089355,28.66699981689453 C7.802999973297119,29.201000213623047 9.505999565124512,29.25 11.263999938964844,28.614999771118164 C4.745999813079834,21.0939998626709 0.453000009059906,12.36400032043457 -2.7060000896453857,3.010999917984009z"></path></g><g opacity="1" transform="matrix(1,0,0,1,320.8840026855469,89.4020004272461)"><path fill="rgb(255,208,156)" fill-opacity="1" d=" M-19.499000549316406,8.46399974822998 C-19.499000549316406,8.46399974822998 -11.664999961853027,-3.51200008392334 -11.664999961853027,-3.51200008392334 C-11.664999961853027,-3.51200008392334 -10.444999694824219,-5.3420000076293945 -5.360000133514404,-8.189000129699707 C-5.360000133514404,-8.189000129699707 -1.902999997138977,-10.019000053405762 -1.902999997138977,-10.019000053405762 C-1.902999997138977,-10.019000053405762 0.12999999523162842,-11.442999839782715 -0.2759999930858612,-7.578999996185303 C-0.2759999930858612,-7.578999996185303 0.12999999523162842,-4.1539998054504395 -4.140999794006348,-0.17299999296665192 C-4.140999794006348,-0.17299999296665192 -6.377999782562256,2.5889999866485596 -1.496999979019165,0.7590000033378601 C-1.496999979019165,0.7590000033378601 8.67199993133545,-5.697999954223633 8.67199993133545,-5.697999954223633 C8.67199993133545,-5.697999954223633 15.178999900817871,-13.47599983215332 15.178999900817871,-13.47599983215332 C15.178999900817871,-13.47599983215332 16.805999755859375,-17.33300018310547 19.450000762939453,-15.201000213623047 C19.450000762939453,-15.201000213623047 20.059999465942383,-14.086000442504883 17.010000228881836,-7.7820000648498535 C17.010000228881836,-7.7820000648498535 10.501999855041504,3.6059999465942383 10.501999855041504,3.6059999465942383 C10.501999855041504,3.6059999465942383 7.451000213623047,7.672999858856201 1.7569999694824219,10.722999572753906 C1.7569999694824219,10.722999572753906 -11.062999725341797,17.33300018310547 -11.062999725341797,17.33300018310547 C-11.062999725341797,17.33300018310547 -19.499000549316406,8.46399974822998 -19.499000549316406,8.46399974822998z"></path></g><g opacity="1" transform="matrix(1,0,0,1,19.499000549316406,91.00599670410156)"><path fill="rgb(255,208,156)" fill-opacity="1" d=" M19.499000549316406,8.46399974822998 C19.499000549316406,8.46399974822998 11.664999961853027,-3.51200008392334 11.664999961853027,-3.51200008392334 C11.664999961853027,-3.51200008392334 10.444999694824219,-5.3420000076293945 5.361000061035156,-8.189000129699707 C5.361000061035156,-8.189000129699707 1.9040000438690186,-10.019000053405762 1.9040000438690186,-10.019000053405762 C1.9040000438690186,-10.019000053405762 -0.12999999523162842,-11.442000389099121 0.2770000100135803,-7.578000068664551 C0.2770000100135803,-7.578000068664551 -0.12999999523162842,-4.1539998054504395 4.140999794006348,-0.17299999296665192 C4.140999794006348,-0.17299999296665192 6.377999782562256,2.5889999866485596 1.496999979019165,0.7590000033378601 C1.496999979019165,0.7590000033378601 -8.670999526977539,-5.697999954223633 -8.670999526977539,-5.697999954223633 C-8.670999526977539,-5.697999954223633 -15.178999900817871,-13.47599983215332 -15.178999900817871,-13.47599983215332 C-15.178999900817871,-13.47599983215332 -16.805999755859375,-17.33300018310547 -19.448999404907227,-15.201000213623047 C-19.448999404907227,-15.201000213623047 -20.059999465942383,-14.086000442504883 -17.009000778198242,-7.7820000648498535 C-17.009000778198242,-7.7820000648498535 -10.50100040435791,3.6059999465942383 -10.50100040435791,3.6059999465942383 C-10.50100040435791,3.6059999465942383 -7.451000213623047,7.672999858856201 -1.7569999694824219,10.722999572753906 C-1.7569999694824219,10.722999572753906 11.064000129699707,17.33300018310547 11.064000129699707,17.33300018310547 C11.064000129699707,17.33300018310547 19.499000549316406,8.46399974822998 19.499000549316406,8.46399974822998z"></path></g><g opacity="1" transform="matrix(1,0,0,1,166.46600341796875,301.97698974609375)"><path fill="rgb(41,47,75)" fill-opacity="1" d=" M-30.80699920654297,-93.51499938964844 C-30.80699920654297,-93.51499938964844 -59.361000061035156,-61.055999755859375 -59.361000061035156,-61.055999755859375 C-59.361000061035156,-61.055999755859375 -71.15599822998047,-51.29499816894531 -64.64800262451172,-32.58599853515625 C-64.64800262451172,-32.58599853515625 -13.666999816894531,88.63400268554688 -13.666999816894531,88.63400268554688 C-13.666999816894531,88.63400268554688 -3.9059998989105225,93.51499938964844 9.92199993133545,82.53299713134766 C9.92199993133545,82.53299713134766 -21.94300079345703,-15.505000114440918 -21.94300079345703,-15.505000114440918 C-3.25,-19.5310001373291 15.461999893188477,-23.476999282836914 34.1349983215332,-27.583999633789062 C42.92499923706055,-29.517000198364258 51.71900177001953,-29.548999786376953 59.78499984741211,-34.17399978637695 C64.83200073242188,-37.06700134277344 68.54100036621094,-41.742000579833984 69.41500091552734,-47.57099914550781 C71.15599822998047,-59.18299865722656 61.13100051879883,-67.94300079345703 54.409000396728516,-76.11499786376953 C49.63800048828125,-81.91500091552734 44.86600112915039,-87.71499633789062 40.09400177001953,-93.51499938964844 C40.09400177001953,-93.51499938964844 -30.80699920654297,-93.51499938964844 -30.80699920654297,-93.51499938964844z"></path></g><g opacity="1" transform="matrix(1,0,0,1,98.76699829101562,280.98199462890625)"><path fill="rgb(41,47,75)" fill-opacity="1" d=" M2.0889999866485596,-14.805000305175781 C2.0889999866485596,-14.805000305175781 -39.25,-1.0160000324249268 -39.25,-1.0160000324249268 C-39.25,-1.0160000324249268 -45.75699996948242,15.25100040435791 -31.929000854492188,25.41900062561035 C-31.929000854492188,25.41900062561035 45.75699996948242,5.491000175476074 45.75699996948242,5.491000175476074 C45.75699996948242,5.491000175476074 35.5890007019043,-25.41900062561035 35.5890007019043,-25.41900062561035 C35.5890007019043,-25.41900062561035 2.0889999866485596,-14.805000305175781 2.0889999866485596,-14.805000305175781z"></path></g><g opacity="1" transform="matrix(1,0,0,1,169.7050018310547,153.8679962158203)"><path fill="rgb(255,109,109)" fill-opacity="1" d=" M-12.859000205993652,-70.16400146484375 C-12.859000205993652,-70.16400146484375 -34.84400177001953,-64.67400360107422 -34.986000061035156,-64.63899993896484 C-43.93000030517578,-62.40599822998047 -50.44300079345703,-53.551998138427734 -57.1150016784668,-47.34600067138672 C-64.75,-40.24300003051758 -72.38300323486328,-33.13999938964844 -80.01799774169922,-26.03700065612793 C-81.0009994506836,-25.12299919128418 -81.98500061035156,-24.208999633789062 -82.96700286865234,-23.295000076293945 C-82.96700286865234,-23.295000076293945 -130.97000122070312,-56.6619987487793 -130.97000122070312,-56.6619987487793 C-130.97000122070312,-56.6619987487793 -140.5800018310547,-47.20600128173828 -141.03700256347656,-43.698001861572266 C-141.03700256347656,-43.698001861572266 -88.0009994506836,4.005000114440918 -88.0009994506836,4.005000114440918 C-88.0009994506836,4.005000114440918 -80.5270004272461,9.496000289916992 -76.40899658203125,4.920000076293945 C-76.40899658203125,4.920000076293945 -45.20199966430664,-18.131999969482422 -45.20199966430664,-18.131999969482422 C-44.46500015258789,-18.676000595092773 -43.41899871826172,-18.20199966430664 -43.34199905395508,-17.290000915527344 C-43.34199905395508,-17.290000915527344 -37.6510009765625,38.61000061035156 -37.60900115966797,39.020999908447266 C-37.12200164794922,43.81100082397461 -41.361000061035156,54.59400177001953 -34.8120002746582,55.2859992980957 C-34.8120002746582,55.2859992980957 -1.684999942779541,70.16400146484375 36.750999450683594,56.742000579833984 C36.750999450683594,56.742000579833984 42.547000885009766,55.21699905395508 41.02199935913086,50.183998107910156 C41.02199935913086,50.183998107910156 38.2760009765625,41.18600082397461 38.73400115966797,37.983001708984375 C38.73400115966797,37.983001708984375 42.52199935913086,-18.82900047302246 42.52199935913086,-18.82900047302246 C42.60100173950195,-19.746999740600586 43.57899856567383,-20.298999786376953 44.40599822998047,-19.893999099731445 C44.40599822998047,-19.893999099731445 78.80699920654297,-3.056999921798706 78.80699920654297,-3.056999921798706 C78.80699920654297,-3.056999921798706 88.26399993896484,3.196000099182129 95.12699890136719,-2.9049999713897705 C95.12699890136719,-2.9049999713897705 141.03700256347656,-44.236000061035156 141.03700256347656,-44.236000061035156 C141.03700256347656,-44.236000061035156 140.1219940185547,-52.16699981689453 129.13999938964844,-57.35300064086914 C129.13999938964844,-57.35300064086914 92.27100372314453,-28.95800018310547 91.33300018310547,-28.236000061035156 C90.44999694824219,-27.555999755859375 75.38800048828125,-38.91600036621094 74.09600067138672,-39.784000396728516 C66.32099914550781,-45.00400161743164 58.34000015258789,-50.01300048828125 50.72999954223633,-55.47200012207031 C45.44499969482422,-59.263999938964844 41.12799835205078,-63.80099868774414 33.50699996948242,-64.82599639892578 C33.50699996948242,-64.82599639892578 10.696999549865723,-70.16400146484375 10.696999549865723,-70.16400146484375 C10.696999549865723,-70.16400146484375 -12.859000205993652,-70.16400146484375 -12.859000205993652,-70.16400146484375z"></path></g><g opacity="1" transform="matrix(1,0,0,1,166.94700622558594,49.220001220703125)"><path fill="rgb(255,208,156)" fill-opacity="1" d=" M-21.350000381469727,5.460999965667725 C-21.350000381469727,5.460999965667725 -14.079000473022461,30.641000747680664 2.01200008392334,29.878000259399414 C2.01200008392334,29.878000259399414 18.731000900268555,29.857999801635742 22.160999298095703,2.125 C22.160999298095703,2.125 21.472000122070312,-30.641000747680664 21.472000122070312,-30.641000747680664 C21.472000122070312,-30.641000747680664 -21.350000381469727,-20.575000762939453 -21.350000381469727,-20.575000762939453 C-21.350000381469727,-20.575000762939453 -22.16200065612793,4.861000061035156 -21.350000381469727,5.460999965667725z"></path></g><g opacity="1" transform="matrix(1,0,0,1,143.2050018310547,55.45600128173828)"><path fill="rgb(255,208,156)" fill-opacity="1" d=" M-2.5999999046325684,-7.796000003814697 C-2.5999999046325684,-7.796000003814697 -5.863999843597412,-5 -2.5999999046325684,1.7100000381469727 C-2.5999999046325684,1.7100000381469727 0.38999998569488525,7.796000003814697 5.864999771118164,6.2789998054504395 C5.864999771118164,6.2789998054504395 2.937999963760376,-6.218999862670898 2.937999963760376,-6.218999862670898 C2.937999963760376,-6.218999862670898 -2.5999999046325684,-7.796000003814697 -2.5999999046325684,-7.796000003814697z"></path></g><g opacity="1" transform="matrix(1,0,0,1,190.93499755859375,53.92100143432617)"><path fill="rgb(255,208,156)" fill-opacity="1" d=" M2.2230000495910645,-7.965000152587891 C2.2230000495910645,-7.965000152587891 5.863999843597412,-4.831999778747559 2.6010000705718994,1.878000020980835 C2.6010000705718994,1.878000020980835 -0.3889999985694885,7.965000152587891 -5.863999843597412,6.447000026702881 C-5.863999843597412,6.447000026702881 -2.937999963760376,-6.051000118255615 -2.937999963760376,-6.051000118255615 C-2.937999963760376,-6.051000118255615 2.2230000495910645,-7.965000152587891 2.2230000495910645,-7.965000152587891z"></path></g><g opacity="1" transform="matrix(1,0,0,1,167.75,29.04599952697754)"><path fill="rgb(41,47,75)" fill-opacity="1" d=" M11.670999526977539,-5.127999782562256 C11.670999526977539,-5.127999782562256 9.381999969482422,6.920000076293945 -15.020000457763672,9.817999839782715 C-18.632999420166016,10.246999740600586 -20.628000259399414,13.527000427246094 -20.290000915527344,17.246999740600586 C-20.106000900268555,19.27199935913086 -17.586999893188477,25.350000381469727 -18.757999420166016,26.621999740600586 C-20.98699951171875,29.04599952697754 -27.66200065612793,19.309999465942383 -28.665000915527344,17.652000427246094 C-31.576000213623047,12.845999717712402 -33.176998138427734,7.2129998207092285 -33.02000045776367,1.5829999446868896 C-32.9379997253418,-1.347000002861023 -31.30299949645996,-3.5899999141693115 -29.46500015258789,-5.7230000495910645 C-27.57200050354004,-7.918000221252441 -24.950000762939453,-10.508999824523926 -26.461999893188477,-13.668999671936035 C-30.058000564575195,-21.187999725341797 -19.888999938964844,-25.941999435424805 -14.25100040435791,-27.597999572753906 C-6.070000171661377,-30.000999450683594 2.5850000381469727,-29.55900001525879 10.043999671936035,-25.17099952697754 C11.831999778747559,-24.118999481201172 14.17199993133545,-22.780000686645508 15.482999801635742,-21.142000198364258 C15.482999801635742,-21.142000198364258 16.093000411987305,-20.3799991607666 17.465999603271484,-20.836999893188477 C17.465999603271484,-20.836999893188477 29.209999084472656,-20.075000762939453 31.954999923706055,-7.415999889373779 C31.954999923706055,-7.415999889373779 33.176998138427734,-1.1629999876022339 28.9060001373291,-1.7730000019073486 C29.461000442504883,-1.6929999589920044 28.402999877929688,6.806000232696533 28.312999725341797,7.363999843597412 C27.875,10.052000045776367 27.202999114990234,12.722999572753906 26.145999908447266,15.23799991607666 C25.27400016784668,17.305999755859375 23.514999389648438,21.281999588012695 21.357999801635742,22.298999786376953 C19.511999130249023,23.16900062561035 19.448999404907227,17.836999893188477 19.448999404907227,16.98699951171875 C19.448999404907227,16.98699951171875 19.448999404907227,2.0399999618530273 11.670999526977539,-5.127999782562256z"></path></g><g opacity="1" transform="matrix(1,0,0,1,168.30099487304688,91.08599853515625)"><path fill="rgb(255,208,156)" fill-opacity="1" d=" M-10.569000244140625,-16.885000228881836 C-10.569000244140625,-16.885000228881836 -10.996999740600586,-9.821999549865723 -11.454999923706055,-7.381999969482422 C-11.454999923706055,-7.381999969482422 -12.581999778747559,-3.2639999389648438 -10.569000244140625,0.8539999723434448 C-10.569000244140625,0.8539999723434448 -5.966000080108643,9.392999649047852 -1.0080000162124634,12.74899959564209 C5.10099983215332,16.885000228881836 10.718999862670898,1.4919999837875366 11.881999969482422,-1.8569999933242798 C11.881999969482422,-1.8569999933242798 12.581999778747559,-3.875 11.881999969482422,-9.670000076293945 C11.881999969482422,-9.670000076293945 10.755999565124512,-16.885000228881836 10.755999565124512,-16.885000228881836 C10.755999565124512,-16.885000228881836 -10.569000244140625,-16.885000228881836 -10.569000244140625,-16.885000228881836z"></path></g><g opacity="1" transform="matrix(1,0,0,1,138.95899963378906,253.95599365234375)"><path stroke-linecap="butt" stroke-linejoin="miter" fill-opacity="0" stroke-miterlimit="10" stroke="rgb(33,41,62)" stroke-opacity="1" stroke-width="1" d=" M-38.104000091552734,12.220999717712402 C-38.104000091552734,12.220999717712402 38.104000091552734,-12.220999717712402 38.104000091552734,-12.220999717712402"></path></g><g opacity="0.1" transform="matrix(1,0,0,1,168.39500427246094,79.45600128173828)"><path fill="rgb(41,47,75)" fill-opacity="1" d=" M10.710000038146973,-4.953999996185303 C5.65500020980835,-0.6830000281333923 0.7720000147819519,-0.6830000281333923 0.7720000147819519,-0.6830000281333923 C-3.6489999294281006,-0.4729999899864197 -7.578999996185303,-1.9739999771118164 -10.710000038146973,-4.525000095367432 C-10.710000038146973,-4.525000095367432 -0.6869999766349792,17.086000442504883 10.710000038146973,-4.953999996185303z"></path></g><g opacity="1" transform="matrix(1,0,0,1,128.34500122070312,294.3559875488281)"><path fill="rgb(33,41,62)" fill-opacity="1" d=" M16.179000854492188,-7.882999897003174 C16.179000854492188,-7.882999897003174 -16.179000854492188,0.4180000126361847 -16.179000854492188,0.4180000126361847 C-16.179000854492188,0.4180000126361847 -13.13599967956543,7.883999824523926 -13.13599967956543,7.883999824523926 C-13.13599967956543,7.883999824523926 16.179000854492188,-7.882999897003174 16.179000854492188,-7.882999897003174z"></path></g><g opacity="0.4" transform="matrix(1,0,0,1,168.51199340820312,143.3560028076172)"><path fill="rgb(255,255,255)" fill-opacity="1" d=" M-17.160999298095703,4.888999938964844 C-16.224000930786133,5.357999801635742 -15.286999702453613,5.86299991607666 -14.319999694824219,6.303999900817871 C-12.093000411987305,7.322000026702881 -9.767000198364258,8.029999732971191 -7.335000038146973,8.338000297546387 C-4.190000057220459,8.736000061035156 -1.149999976158142,8.388999938964844 1.7170000076293945,6.949999809265137 C1.815999984741211,6.900000095367432 1.9119999408721924,6.8460001945495605 2.066999912261963,6.763999938964844 C-3.8959999084472656,1.6699999570846558 -9.430000305175781,-3.7660000324249268 -13.635000228881836,-10.425999641418457 C-12.267000198364258,-9.29800033569336 -10.911999702453613,-8.156999588012695 -9.531999588012695,-7.046999931335449 C-8.140000343322754,-5.925000190734863 -6.75,-4.796999931335449 -5.307000160217285,-3.742000102996826 C-3.86899995803833,-2.691999912261963 -2.365000009536743,-1.7300000190734863 -0.8460000157356262,-0.7829999923706055 C-4.197999954223633,-4.354000091552734 -7.006999969482422,-8.322999954223633 -9.746000289916992,-12.347000122070312 C-4.309999942779541,-7.771999835968018 1.0670000314712524,-3.130000114440918 7.01800012588501,0.9679999947547913 C7.307000160217285,0.2199999988079071 7.609000205993652,-0.44200000166893005 7.821000099182129,-1.1319999694824219 C8.70300006866455,-4.002999782562256 8.456000328063965,-6.855000019073486 7.5970001220703125,-9.682999610900879 C6.9730000495910645,-11.73900032043457 6.026000022888184,-13.645000457763672 4.841000080108643,-15.508000373840332 C4.938000202178955,-15.467000007629395 4.986000061035156,-15.456000328063965 5.02400016784668,-15.428000450134277 C8.805000305175781,-12.619999885559082 11.800999641418457,-9.166999816894531 13.6850004196167,-4.814000129699707 C14.727999687194824,-2.4030001163482666 15.293999671936035,0.10999999940395355 15.211999893188477,2.749000072479248 C15.17300033569336,4 14.97700023651123,5.228000164031982 14.569999694824219,6.414999961853027 C14.498000144958496,6.626999855041504 14.550000190734863,6.85699987411499 14.70300006866455,7.019000053405762 C16.340999603271484,8.753999710083008 17.143999099731445,10.831000328063965 17.160999298095703,13.204000473022461 C17.165000915527344,13.815999984741211 17.055999755859375,14.428000450134277 16.989999771118164,15.119999885559082 C16.827999114990234,14.98900032043457 16.743000030517578,14.925999641418457 16.65999984741211,14.85099983215332 C15.892999649047852,14.15999984741211 15.0649995803833,13.531000137329102 14.15999984741211,13.031000137329102 C13.079000473022461,12.432999610900879 11.940999984741211,12.008999824523926 10.732000350952148,12.378999710083008 C10.406000137329102,12.479000091552734 10.060999870300293,12.62600040435791 9.814000129699707,12.848999977111816 C8.381999969482422,14.140999794006348 6.677000045776367,14.845999717712402 4.817999839782715,15.204999923706055 C1.0870000123977661,15.927000045776367 -2.4809999465942383,15.319000244140625 -5.932000160217285,13.824999809265137 C-8.605999946594238,12.666000366210938 -10.920000076293945,10.940999984741211 -13.184000015258789,9.140000343322754 C-14.593000411987305,8.019000053405762 -15.854000091552734,6.7210001945495605 -16.913000106811523,5.263999938964844 C-16.9950008392334,5.151000022888184 -17.076000213623047,5.0370001792907715 -17.152999877929688,4.921000003814697 C-17.163000106811523,4.906000137329102 -17.16200065612793,4.882999897003174 -17.160999298095703,4.888999938964844z"></path></g><g opacity="1" transform="matrix(1,0,0,1,160.29100036621094,48.63199996948242)"><path stroke-linecap="round" stroke-linejoin="round" fill-opacity="0" stroke="rgb(209,147,94)" stroke-opacity="1" stroke-width="2" d=" M-3.4059998989105225,2.0360000133514404 C-3.4059998989105225,2.0360000133514404 0,-2.0360000133514404 3.4059998989105225,2.0360000133514404"></path></g><g opacity="1" transform="matrix(1,0,0,1,176.7169952392578,48.47999954223633)"><path stroke-linecap="round" stroke-linejoin="round" fill-opacity="0" stroke="rgb(209,147,94)" stroke-opacity="1" stroke-width="2" d=" M3.390000104904175,2.187999963760376 C3.390000104904175,2.187999963760376 0.1940000057220459,-2.187000036239624 -3.3889999389648438,2.187999963760376"></path></g><g opacity="1" transform="matrix(1,0,0,1,168.52000427246094,68.13500213623047)"><path fill="rgb(255,255,255)" fill-opacity="1" d=" M-6.341000080108643,-3.7279999256134033 C-6.96999979019165,-4.0289998054504395 -7.6529998779296875,-3.430999994277954 -7.505000114440918,-2.7249999046325684 C-6.741000175476074,0.8939999938011169 -3.680999994277954,4.0289998054504395 -0.007000000216066837,4.0289998054504395 C3.634000062942505,4.0289998054504395 6.695000171661377,0.9419999718666077 7.489999771118164,-2.628000020980835 C7.6539998054504395,-3.365999937057495 6.910999774932861,-3.9509999752044678 6.26200008392334,-3.614000082015991 C1.0260000228881836,-0.902999997138977 -4.01200008392334,-2.61299991607666 -6.341000080108643,-3.7279999256134033z"></path></g></g><g transform="matrix(1,0,0,1,69.25,29.416351318359375)" opacity="1" style="display: block;"><g opacity="1" transform="matrix(1,0,0,1,19.7810001373291,19.7810001373291)"><path fill="rgb(51,107,162)" fill-opacity="1" d=" M15.529000282287598,19.7810001373291 C15.529000282287598,19.7810001373291 -15.529999732971191,19.7810001373291 -15.529999732971191,19.7810001373291 C-17.878000259399414,19.7810001373291 -19.781999588012695,17.878000259399414 -19.781999588012695,15.529999732971191 C-19.781999588012695,15.529999732971191 -19.781999588012695,-15.529999732971191 -19.781999588012695,-15.529999732971191 C-19.781999588012695,-17.878000259399414 -17.878000259399414,-19.7810001373291 -15.529999732971191,-19.7810001373291 C-15.529999732971191,-19.7810001373291 15.529000282287598,-19.7810001373291 15.529000282287598,-19.7810001373291 C17.878000259399414,-19.7810001373291 19.7810001373291,-17.878000259399414 19.7810001373291,-15.529999732971191 C19.7810001373291,-15.529999732971191 19.7810001373291,15.529999732971191 19.7810001373291,15.529999732971191 C19.7810001373291,17.878000259399414 17.878000259399414,19.7810001373291 15.529000282287598,19.7810001373291z"></path></g><g opacity="1" transform="matrix(0.20517084002494812,-0.9787261486053467,0.9787261486053467,0.20517084002494812,11.903104782104492,11.47148323059082)"><path fill="rgb(255,182,84)" fill-opacity="1" d=" M4.230999946594238,20.937999725341797 C4.230999946594238,23.274999618530273 2.3359999656677246,25.16900062561035 0.0010000000474974513,25.16900062561035 C-2.3359999656677246,25.16900062561035 -4.230999946594238,23.274999618530273 -4.230999946594238,20.937999725341797 C-4.230999946594238,18.601999282836914 -2.3359999656677246,16.70599937438965 0.0010000000474974513,16.70599937438965 C2.3359999656677246,16.70599937438965 4.230999946594238,18.601999282836914 4.230999946594238,20.937999725341797z"></path></g><g opacity="1" transform="matrix(1,0,0,1,27.82900047302246,30.481000900268555)"><path fill="rgb(87,228,153)" fill-opacity="1" d=" M7.48199987411499,9.081000328063965 C9.831000328063965,9.081000328063965 11.734000205993652,7.178999900817871 11.734000205993652,4.830999851226807 C11.734000205993652,4.830999851226807 11.734000205993652,3.313999891281128 11.734000205993652,3.313999891281128 C11.734000205993652,3.313999891281128 0.13500000536441803,-7.942999839782715 0.13500000536441803,-7.942999839782715 C-1.0360000133514404,-9.079000473022461 -2.8959999084472656,-9.081000328063965 -4.067999839782715,-7.947000026702881 C-4.067999839782715,-7.947000026702881 -11.734000205993652,-0.5350000262260437 -11.734000205993652,-0.5350000262260437 C-11.734000205993652,-0.5350000262260437 -11.734000205993652,9.081000328063965 -11.734000205993652,9.081000328063965 C-11.734000205993652,9.081000328063965 7.48199987411499,9.081000328063965 7.48199987411499,9.081000328063965z"></path></g><g opacity="0.1" transform="matrix(1,0,0,1,27.770000457763672,32.00400161743164)"><path fill="rgb(41,47,75)" fill-opacity="1" d=" M11.673999786376953,4.309999942779541 C9.180000305175781,4.328000068664551 5.806000232696533,3.9760000705718994 2.7690000534057617,2.3940000534057617 C-1.1720000505447388,0.3409999907016754 -4.376999855041504,-4.6539998054504395 -5.986000061035156,-7.559000015258789 C-5.986000061035156,-7.559000015258789 -11.673999786376953,-2.059000015258789 -11.673999786376953,-2.059000015258789 C-11.673999786376953,-2.059000015258789 -11.673999786376953,7.558000087738037 -11.673999786376953,7.558000087738037 C-11.673999786376953,7.558000087738037 7.540999889373779,7.558000087738037 7.540999889373779,7.558000087738037 C9.543000221252441,7.558000087738037 11.222999572753906,6.173999786376953 11.673999786376953,4.309999942779541z"></path></g><g opacity="1" transform="matrix(1,0,0,1,12.932999610900879,28.61199951171875)"><path fill="rgb(90,231,154)" fill-opacity="1" d=" M12.932000160217285,10.949999809265137 C12.932000160217285,10.949999809265137 0.23999999463558197,-8.133000373840332 0.23999999463558197,-8.133000373840332 C-1.375,-10.5600004196167 -4.784999847412109,-10.949999809265137 -6.906000137329102,-8.951000213623047 C-6.906000137329102,-8.951000213623047 -12.932000160217285,-3.2720000743865967 -12.932000160217285,-3.2720000743865967 C-12.932000160217285,-3.2720000743865967 -12.932000160217285,6.698999881744385 -12.932000160217285,6.698999881744385 C-12.932000160217285,9.04699993133545 -11.029000282287598,10.949999809265137 -8.680000305175781,10.949999809265137 C-8.680000305175781,10.949999809265137 12.932000160217285,10.949999809265137 12.932000160217285,10.949999809265137z"></path></g></g><g transform="matrix(1,0,0,1,379.25,28.629348754882812)" opacity="1" style="display: block;"><g opacity="1" transform="matrix(1,0,0,1,20.97599983215332,17.398000717163086)"><path fill="rgb(45,95,144)" fill-opacity="1" d=" M20.976999282836914,-12.522000312805176 C20.976999282836914,-15.21500015258789 18.792999267578125,-17.398000717163086 16.100000381469727,-17.398000717163086 C16.100000381469727,-17.398000717163086 -1.6039999723434448,-17.398000717163086 -1.6039999723434448,-17.398000717163086 C-1.6039999723434448,-17.398000717163086 -16.753999710083008,-17.398000717163086 -16.753999710083008,-17.398000717163086 C-19.086000442504883,-17.398000717163086 -20.97599983215332,-15.508999824523926 -20.97599983215332,-13.178000450134277 C-20.97599983215332,-13.178000450134277 -20.97599983215332,2.5910000801086426 -20.97599983215332,2.5910000801086426 C-20.97599983215332,2.5910000801086426 -7.895999908447266,12.175999641418457 -7.895999908447266,12.175999641418457 C-7.895999908447266,12.175999641418457 -9.006999969482422,17.398000717163086 -9.006999969482422,17.398000717163086 C-9.006999969482422,17.398000717163086 -3.2160000801086426,14.684000015258789 -3.2160000801086426,14.684000015258789 C-3.2160000801086426,14.684000015258789 -1.6039999723434448,15.54699993133545 -1.6039999723434448,15.54699993133545 C-1.6039999723434448,15.54699993133545 -1.6039999723434448,13.928000450134277 -1.6039999723434448,13.928000450134277 C-1.6039999723434448,13.928000450134277 20.976999282836914,2.5910000801086426 20.976999282836914,2.5910000801086426 C20.976999282836914,2.5910000801086426 20.976999282836914,-12.522000312805176 20.976999282836914,-12.522000312805176z"></path></g><g opacity="1" transform="matrix(0.03064609132707119,-0.9995303153991699,0.9995303153991699,0.03064609132707119,10.095446586608887,10.428030967712402)"><path fill="rgb(237,245,255)" fill-opacity="1" d=" M1.0369999408721924,-3.746000051498413 C1.3450000286102295,-3.191999912261963 1.5219999551773071,-2.555000066757202 1.5219999551773071,-1.875 C1.5219999551773071,0.2540000081062317 -0.20399999618530273,1.9809999465942383 -2.3350000381469727,1.9809999465942383 C-2.7829999923706055,1.9809999465942383 -3.2130000591278076,1.899999976158142 -3.614000082015991,1.7589999437332153 C-2.9549999237060547,2.943000078201294 -1.6929999589920044,3.746000051498413 -0.24199999868869781,3.746000051498413 C1.8880000114440918,3.746000051498413 3.614000082015991,2.0190000534057617 3.614000082015991,-0.11100000143051147 C3.614000082015991,-1.7920000553131104 2.5369999408721924,-3.2179999351501465 1.0369999408721924,-3.746000051498413z"></path></g><g opacity="1" transform="matrix(1,0,0,1,28.194000244140625,28.319000244140625)"><path fill="rgb(248,149,43)" fill-opacity="1" d=" M11.906999588012695,-8.329000473022461 C0.7400000095367432,-8.329000473022461 -3.239000082015991,-5.552999973297119 -8.821999549865723,-2.7760000228881836 C-8.821999549865723,-2.7760000228881836 -13.758000373840332,8.329000473022461 -13.758000373840332,8.329000473022461 C-13.758000373840332,8.329000473022461 13.758999824523926,2.7760000228881836 13.758999824523926,2.7760000228881836 C13.758999824523926,2.7760000228881836 13.758999824523926,-8.329000473022461 13.758999824523926,-8.329000473022461 C13.758999824523926,-8.329000473022461 11.906999588012695,-8.329000473022461 11.906999588012695,-8.329000473022461z"></path></g><g opacity="1" transform="matrix(1,0,0,1,26.959999084472656,32.94599914550781)"><path fill="rgb(255,182,84)" fill-opacity="1" d=" M13.140999794006348,-1.850000023841858 C1.9739999771118164,-1.850000023841858 -2.005000114440918,-4.626999855041504 -7.5879998207092285,-7.4039998054504395 C-7.5879998207092285,-7.4039998054504395 -14.991999626159668,0.0010000000474974513 -14.991999626159668,0.0010000000474974513 C-14.991999626159668,0.0010000000474974513 -7.5879998207092285,7.4039998054504395 -7.5879998207092285,7.4039998054504395 C-7.5879998207092285,7.4039998054504395 9.852999687194824,7.4039998054504395 9.852999687194824,7.4039998054504395 C13.57800006866455,7.4039998054504395 14.993000030517578,4.385000228881836 14.993000030517578,0.6610000133514404 C14.993000030517578,0.6610000133514404 14.993000030517578,-1.850000023841858 14.993000030517578,-1.850000023841858 C14.993000030517578,-1.850000023841858 13.140999794006348,-1.850000023841858 13.140999794006348,-1.850000023841858z"></path></g><g opacity="1" transform="matrix(1,0,0,1,9.685999870300293,30.16900062561035)"><path fill="rgb(255,182,84)" fill-opacity="1" d=" M-7.835000038146973,-10.180000305175781 C-7.835000038146973,-10.180000305175781 -9.687000274658203,-10.180000305175781 -9.687000274658203,-10.180000305175781 C-9.687000274658203,-10.180000305175781 -9.687000274658203,4.236999988555908 -9.687000274658203,4.236999988555908 C-9.687000274658203,7.519000053405762 -7.025000095367432,10.180000305175781 -3.742000102996826,10.180000305175781 C-3.742000102996826,10.180000305175781 9.685999870300293,10.180000305175781 9.685999870300293,10.180000305175781 C9.685999870300293,10.180000305175781 9.685999870300293,-4.626999855041504 9.685999870300293,-4.626999855041504 C4.103000164031982,-7.4039998054504395 3.3320000171661377,-10.180000305175781 -7.835000038146973,-10.180000305175781z"></path></g></g></g></svg>