<svg xmlns="http://www.w3.org/2000/svg" viewBox="0 0 450 475" width="450" height="475" preserveAspectRatio="xMidYMid slice" style="width: 100%; height: 100%; transform: translate3d(0px, 0px, 0px);"><defs><clipPath id="__lottie_element_160"><rect width="450" height="475" x="0" y="0"></rect></clipPath></defs><g clip-path="url(#__lottie_element_160)"><g transform="matrix(1,0,0,1,9,17.5)" opacity="1" style="display: block;"><g opacity="1" transform="matrix(1,0,0,1,139.86500549316406,124.16400146484375)"><path fill="rgb(236,239,243)" fill-opacity="1" d=" M58.527000427246094,28.33099937438965 C58.527000427246094,28.33099937438965 -58.527000427246094,28.33099937438965 -58.527000427246094,28.33099937438965 C-58.527000427246094,28.33099937438965 -58.527000427246094,-28.33099937438965 -58.527000427246094,-28.33099937438965 C-58.527000427246094,-28.33099937438965 58.527000427246094,-28.33099937438965 58.527000427246094,-28.33099937438965 C58.527000427246094,-28.33099937438965 58.527000427246094,28.33099937438965 58.527000427246094,28.33099937438965z"></path></g><g opacity="1" transform="matrix(1,0,0,1,310.11199951171875,122.572998046875)"><path fill="rgb(236,239,243)" fill-opacity="1" d=" M77.84500122070312,28.33099937438965 C77.84500122070312,28.33099937438965 -77.84500122070312,28.33099937438965 -77.84500122070312,28.33099937438965 C-77.84500122070312,28.33099937438965 -77.84500122070312,-28.33099937438965 -77.84500122070312,-28.33099937438965 C-77.84500122070312,-28.33099937438965 77.84500122070312,-28.33099937438965 77.84500122070312,-28.33099937438965 C77.84500122070312,-28.33099937438965 77.84500122070312,28.33099937438965 77.84500122070312,28.33099937438965z"></path></g><g opacity="1" transform="matrix(1,0,0,1,183.60400390625,315.8330078125)"><path fill="rgb(236,239,243)" fill-opacity="1" d=" M109.09200286865234,28.33099937438965 C109.09200286865234,28.33099937438965 -109.09200286865234,28.33099937438965 -109.09200286865234,28.33099937438965 C-109.09200286865234,28.33099937438965 -109.09200286865234,-28.33099937438965 -109.09200286865234,-28.33099937438965 C-109.09200286865234,-28.33099937438965 109.09200286865234,-28.33099937438965 109.09200286865234,-28.33099937438965 C109.09200286865234,-28.33099937438965 109.09200286865234,28.33099937438965 109.09200286865234,28.33099937438965z"></path></g><g opacity="1" transform="matrix(1,0,0,1,66.40499877929688,28.33099937438965)"><path fill="rgb(236,239,243)" fill-opacity="1" d=" M-66.40499877929688,28.33099937438965 C-66.40499877929688,28.33099937438965 66.40499877929688,28.33099937438965 66.40499877929688,28.33099937438965 C66.40499877929688,28.33099937438965 66.40499877929688,-28.33099937438965 66.40499877929688,-28.33099937438965 C66.40499877929688,-28.33099937438965 -66.40499877929688,-28.33099937438965 -66.40499877929688,-28.33099937438965 C-66.40499877929688,-28.33099937438965 -66.40499877929688,28.33099937438965 -66.40499877929688,28.33099937438965z"></path></g><g opacity="1" transform="matrix(1,0,0,1,312.9119873046875,411.6669921875)"><path fill="rgb(236,239,243)" fill-opacity="1" d=" M-84.91300201416016,28.33099937438965 C-84.91300201416016,28.33099937438965 84.91400146484375,28.33099937438965 84.91400146484375,28.33099937438965 C84.91400146484375,28.33099937438965 84.91400146484375,-28.33099937438965 84.91400146484375,-28.33099937438965 C84.91400146484375,-28.33099937438965 -84.91300201416016,-28.33099937438965 -84.91300201416016,-28.33099937438965 C-84.91300201416016,-28.33099937438965 -84.91300201416016,28.33099937438965 -84.91300201416016,28.33099937438965z"></path></g><g opacity="1" transform="matrix(1,0,0,1,98.05400085449219,411.66900634765625)"><path fill="rgb(236,239,243)" fill-opacity="1" d=" M-98.05500030517578,28.33099937438965 C-98.05500030517578,28.33099937438965 98.05500030517578,28.33099937438965 98.05500030517578,28.33099937438965 C98.05500030517578,28.33099937438965 98.05500030517578,-28.33099937438965 98.05500030517578,-28.33099937438965 C98.05500030517578,-28.33099937438965 -98.05500030517578,-28.33099937438965 -98.05500030517578,-28.33099937438965 C-98.05500030517578,-28.33099937438965 -98.05500030517578,28.33099937438965 -98.05500030517578,28.33099937438965z"></path></g><g opacity="1" transform="matrix(1,0,0,1,42.176998138427734,220)"><path fill="rgb(236,239,243)" fill-opacity="1" d=" M-42.176998138427734,28.33099937438965 C-42.176998138427734,28.33099937438965 42.176998138427734,28.33099937438965 42.176998138427734,28.33099937438965 C42.176998138427734,28.33099937438965 42.176998138427734,-28.329999923706055 42.176998138427734,-28.329999923706055 C42.176998138427734,-28.329999923706055 -42.176998138427734,-28.329999923706055 -42.176998138427734,-28.329999923706055 C-42.176998138427734,-28.329999923706055 -42.176998138427734,28.33099937438965 -42.176998138427734,28.33099937438965z"></path></g><g opacity="1" transform="matrix(1,0,0,1,279.78900146484375,220)"><path fill="rgb(236,239,243)" fill-opacity="1" d=" M-152.21099853515625,28.329999923706055 C-152.21099853515625,28.329999923706055 152.21099853515625,28.329999923706055 152.21099853515625,28.329999923706055 C152.21099853515625,28.329999923706055 152.21099853515625,-28.33099937438965 152.21099853515625,-28.33099937438965 C152.21099853515625,-28.33099937438965 -152.21099853515625,-28.33099937438965 -152.21099853515625,-28.33099937438965 C-152.21099853515625,-28.33099937438965 -152.21099853515625,28.329999923706055 -152.21099853515625,28.329999923706055z"></path></g></g><g transform="matrix(1,0,0,1,83.5,110)" opacity="1" style="display: block;"><g opacity="1" transform="matrix(1,0,0,1,122.4229965209961,294.7349853515625)"><path fill="rgb(255,208,156)" fill-opacity="1" d=" M-13.267999649047852,-3.437000036239624 C-13.267999649047852,-3.437000036239624 0.13500000536441803,-11.262999534606934 0.13500000536441803,-11.262999534606934 C0.13500000536441803,-11.262999534606934 13.192000389099121,-1.3380000591278076 13.192000389099121,-1.3380000591278076 C13.192000389099121,-1.3380000591278076 13.628000259399414,0.04600000008940697 13.628000259399414,0.04600000008940697 C8.859999656677246,7.329999923706055 4.130000114440918,11.26200008392334 -4.464000225067139,10.911999702453613 C-4.085000038146973,7.230999946594238 -13.628000259399414,1.2799999713897705 -13.267999649047852,-3.437000036239624z"></path></g><g opacity="1" transform="matrix(1,0,0,1,122.4010009765625,315.7669982910156)"><path fill="rgb(255,182,84)" fill-opacity="1" d=" M-5.560999870300293,-9.456000328063965 C3.0250000953674316,-9.989999771118164 7.326000213623047,-14.38700008392334 11.319999694824219,-22.121000289916992 C11.319999694824219,-22.121000289916992 10.744000434875488,-23.45400047302246 10.744000434875488,-23.45400047302246 C11.336000442504883,-23.4689998626709 11.942999839782715,-23.375999450683594 12.58899974822998,-22.97100067138672 C12.58899974822998,-22.97100067138672 19.766000747680664,-17.482999801635742 19.766000747680664,-17.482999801635742 C16.482999801635742,-8.267999649047852 10.434000015258789,-0.09300000220537186 3.7300000190734863,7.84499979019165 C-2.6689999103546143,14.336999893188477 -9.756999969482422,19.854999542236328 -18.207000732421875,23.469999313354492 C-19.40399932861328,22.166000366210938 -19.766000747680664,20.297000885009766 -19.47599983215332,17.979999542236328 C-16.020999908447266,10.001999855041504 -11.916000366210938,1.7209999561309814 -9.776000022888184,-5.656000137329102 C-9.352999687194824,-6.921000003814697 -8.321000099182129,-9.093999862670898 -5.560999870300293,-9.456000328063965z"></path></g><g opacity="1" transform="matrix(1,0,0,1,124.54199981689453,319.8139953613281)"><path fill="rgb(235,233,255)" fill-opacity="1" d=" M1.590000033378601,3.7990000247955322 C8.293999671936035,-4.138000011444092 14.343000411987305,-12.3149995803833 17.625999450683594,-21.530000686645508 C17.625999450683594,-21.530000686645508 20.347999572753906,-18.63599967956543 20.347999572753906,-18.63599967956543 C16.648000717163086,-9.10200023651123 10.09000015258789,-0.20399999618530273 2.444000005722046,8.4399995803833 C-2.8910000324249268,13.887999534606934 -9.357000350952148,17.9060001373291 -16.124000549316406,21.530000686645508 C-17.711000442504883,21.308000564575195 -19.145000457763672,20.65999984741211 -20.347999572753906,19.42300033569336 C-11.89799976348877,15.807999610900879 -4.809000015258789,10.291000366210938 1.590000033378601,3.7990000247955322z"></path></g><g opacity="1" transform="matrix(1,0,0,1,59.94300079345703,339.2909851074219)"><path fill="rgb(235,233,255)" fill-opacity="1" d=" M25.082000732421875,15.944000244140625 C12.689000129699707,10.288999557495117 0.6940000057220459,2.2239999771118164 -10.687999725341797,-9.659000396728516 C-10.687999725341797,-9.659000396728516 -22.94300079345703,-20.128000259399414 -22.94300079345703,-20.128000259399414 C-22.94300079345703,-20.128000259399414 -25.082000732421875,-17.465999603271484 -25.082000732421875,-17.465999603271484 C-25.082000732421875,-17.465999603271484 21.72100067138672,20.128999710083008 21.72100067138672,20.128999710083008 C21.72100067138672,20.128999710083008 25.082000732421875,15.944000244140625 25.082000732421875,15.944000244140625z"></path></g><g opacity="1" transform="matrix(1,0,0,1,58.59600067138672,314.27301025390625)"><path fill="rgb(255,208,156)" fill-opacity="1" d=" M-4.704999923706055,-8.343000411987305 C-7.77400016784668,-4.738999843597412 -9.595999717712402,-3.867000102996826 -11.432000160217285,-2.9619998931884766 C-4.916999816894531,2.9579999446868896 2.059999942779541,6.697999954223633 9.494999885559082,8.343000411987305 C8.503999710083008,4.243000030517578 9.288999557495117,0.25600001215934753 11.432000160217285,-3.6429998874664307 C11.432000160217285,-3.6429998874664307 6.334000110626221,-1.0759999752044678 6.334000110626221,-1.0759999752044678 C6.334000110626221,-1.0759999752044678 -4.704999923706055,-8.343000411987305 -4.704999923706055,-8.343000411987305z"></path></g><g opacity="1" transform="matrix(1,0,0,1,61.38600158691406,332.40399169921875)"><path fill="rgb(255,182,84)" fill-opacity="1" d=" M6.705999851226807,-9.788000106811523 C-0.7300000190734863,-11.432999610900879 -7.706999778747559,-15.17300033569336 -14.222000122070312,-21.093000411987305 C-14.842000007629395,-21.64699935913086 -15.449999809265137,-22.22599983215332 -16.059999465942383,-22.829999923706055 C-16.059999465942383,-22.829999923706055 -24.386999130249023,-13.241000175476074 -24.386999130249023,-13.241000175476074 C-24.386999130249023,-13.241000175476074 -12.130999565124512,-2.7709999084472656 -12.130999565124512,-2.7709999084472656 C-0.7490000128746033,9.111000061035156 11.246000289916992,17.176000595092773 23.638999938964844,22.83099937438965 C24.38599967956543,20.732999801635742 23.871000289916992,18.020000457763672 22.05299949645996,14.673999786376953 C15.597000122070312,6.4079999923706055 11.437000274658203,-1.5700000524520874 9.37399959564209,-9.288999557495117 C8.479999542236328,-9.425999641418457 7.585999965667725,-9.588000297546387 6.705999851226807,-9.788000106811523z"></path></g><g opacity="1" transform="matrix(1,0,0,1,81.38800048828125,85.75700378417969)"><path fill="rgb(237,245,255)" fill-opacity="1" d=" M-4.38700008392334,60.75 C-4.38700008392334,60.75 6.181000232696533,63.74100112915039 13.16100025177002,59.75299835205078 C13.16100025177002,59.75299835205078 7.605000019073486,-63.742000579833984 7.605000019073486,-63.742000579833984 C7.605000019073486,-63.742000579833984 -13.16100025177002,-61.270999908447266 -13.16100025177002,-61.270999908447266 C-13.16100025177002,-61.270999908447266 -4.38700008392334,60.75 -4.38700008392334,60.75z"></path></g><g opacity="1" transform="matrix(1,0,0,1,80.49099731445312,15.178999900817871)"><path fill="rgb(255,208,156)" fill-opacity="1" d=" M9.571000099182129,-15.178999900817871 C9.571000099182129,-15.178999900817871 7.478000164031982,-11.73900032043457 8.225000381469727,1.2719999551773071 C8.225000381469727,1.2719999551773071 11.217000007629395,12.189000129699707 1.3459999561309814,13.982999801635742 C1.3459999561309814,13.982999801635742 -9.123000144958496,15.178999900817871 -10.618000030517578,8.001999855041504 C-10.618000030517578,8.001999855041504 -10.916999816894531,-0.22699999809265137 -11.217000007629395,-3.440999984741211 C-11.217000007629395,-3.440999984741211 9.571000099182129,-15.178999900817871 9.571000099182129,-15.178999900817871z"></path></g><g opacity="1" transform="matrix(1,0,0,1,86.99600219726562,231.4929962158203)"><path fill="rgb(57,64,95)" fill-opacity="1" d=" M63.582000732421875,-52.137001037597656 C63.582000732421875,-52.137001037597656 41.21900177001953,-68.05599975585938 41.21900177001953,-68.05599975585938 C41.21900177001953,-68.05599975585938 21.05900001525879,-83.98300170898438 21.05900001525879,-83.98300170898438 C21.05900001525879,-83.98300170898438 -36.44900131225586,-83.98300170898438 -36.44900131225586,-83.98300170898438 C-36.44900131225586,-83.98300170898438 -44.37300109863281,-66.57099914550781 -44.37300109863281,-66.57099914550781 C-44.37300109863281,-66.57099914550781 -66.77200317382812,-45.948001861572266 -66.77200317382812,-45.948001861572266 C-66.77200317382812,-45.948001861572266 -81.927001953125,-34.23899841308594 -65.1780014038086,-14.220999717712402 C-65.1780014038086,-14.220999717712402 -36.59600067138672,12.105999946594238 -11.329999923706055,35.43000030517578 C-11.329999923706055,35.43000030517578 -36.8489990234375,72.61199951171875 -36.8489990234375,72.61199951171875 C-36.8489990234375,72.61199951171875 -34.88800048828125,80.96099853515625 -15.814000129699707,83.98300170898438 C-15.814000129699707,83.98300170898438 8.64799976348877,53.888999938964844 8.64799976348877,53.888999938964844 C17.02899932861328,61.64500045776367 23.410999298095703,67.56800079345703 25.695999145507812,69.73300170898438 C25.695999145507812,69.73300170898438 36.066001892089844,70.86499786376953 42.047000885009766,56.1349983215332 C42.047000885009766,56.1349983215332 23.698999404907227,35.37099838256836 23.698999404907227,35.37099838256836 C23.698999404907227,35.37099838256836 24.07900047302246,34.90399932861328 24.07900047302246,34.90399932861328 C24.07900047302246,34.90399932861328 24.086000442504883,34.89699935913086 24.086000442504883,34.89699935913086 C24.086000442504883,34.89699935913086 69.96299743652344,-21.542999267578125 69.96299743652344,-21.542999267578125 C69.96299743652344,-21.542999267578125 81.927001953125,-38.540000915527344 63.582000732421875,-52.137001037597656z M30.881000518798828,-26.075000762939453 C30.881000518798828,-26.075000762939453 4.00600004196167,13.083000183105469 4.00600004196167,13.083000183105469 C4.00600004196167,13.083000183105469 -30.93000030517578,-26.452999114990234 -30.93000030517578,-26.452999114990234 C-30.93000030517578,-26.452999114990234 -33.222999572753906,-28.341999053955078 -28.88599967956543,-30.60700035095215 C-28.88599967956543,-30.60700035095215 -10.265999794006348,-35.900001525878906 -10.265999794006348,-35.900001525878906 C-10.265999794006348,-35.900001525878906 3.7170000076293945,-35.63999938964844 9.718000411987305,-36.422000885009766 C9.718000411987305,-36.422000885009766 30.08300018310547,-30.985000610351562 30.08300018310547,-30.985000610351562 C30.08300018310547,-30.985000610351562 33.672000885009766,-29.851999282836914 30.881000518798828,-26.075000762939453z"></path></g><g opacity="1" transform="matrix(1,0,0,1,40.23400115966797,91.927001953125)"><path fill="rgb(133,124,248)" fill-opacity="1" d=" M22.208999633789062,-69.91200256347656 C22.208999633789062,-69.91200256347656 7.664999961853027,-65.3219985961914 3.328000068664551,-62.70500183105469 C3.328000068664551,-62.70500183105469 -3.1029999256134033,-60.5369987487793 -5.943999767303467,-52.31100082397461 C-5.943999767303467,-52.31100082397461 -31.97599983215332,-4.889999866485596 -31.97599983215332,-4.889999866485596 C-31.97599983215332,-4.889999866485596 -39.0369987487793,-4.1020002365112305 -40.233001708984375,5.019999980926514 C-40.233001708984375,5.019999980926514 -40.358001708984375,14.5649995803833 -29.739999771118164,18.60300064086914 C-29.739999771118164,18.60300064086914 -16.107999801635742,23.02400016784668 -11.28499984741211,10.409000396728516 C-11.28499984741211,10.409000396728516 -4.257999897003174,-3.5959999561309814 -4.257999897003174,-3.5959999561309814 C-3.9110000133514404,-4.258999824523926 -2.9149999618530273,-4.073999881744385 -2.8299999237060547,-3.3299999237060547 C-2.8299999237060547,-3.3299999237060547 1.6729999780654907,35.7869987487793 1.6729999780654907,35.7869987487793 C1.6729999780654907,35.7869987487793 2.121999979019165,46.70399856567383 1.5230000019073486,51.191001892089844 C1.5230000019073486,51.191001892089844 0.006000000052154064,59.14500045776367 0.006000000052154064,59.14500045776367 C0.006000000052154064,59.14500045776367 -2.38700008392334,63.18299865722656 2.697999954223633,65.2760009765625 C2.697999954223633,65.2760009765625 21.989999771118164,69.91200256347656 36.645999908447266,65.2760009765625 C36.645999908447266,65.2760009765625 40.23400115966797,64.52799987792969 39.48699951171875,61.237998962402344 C39.48699951171875,61.237998962402344 36.766998291015625,-3.6429998874664307 35.37099838256836,-54.4900016784668 C35.37099838256836,-54.4900016784668 22.208999633789062,-69.91200256347656 22.208999633789062,-69.91200256347656z"></path></g><g opacity="1" transform="matrix(1,0,0,1,120.84400177001953,92.66699981689453)"><path fill="rgb(133,124,248)" fill-opacity="1" d=" M-34.12200164794922,-55.22999954223633 C-34.12200164794922,-55.22999954223633 -30.084999084472656,38.48699951171875 -29.08799934387207,54.83700180053711 C-29.08799934387207,54.83700180053711 -29.08799934387207,59.823001861572266 -29.08799934387207,59.823001861572266 C-29.08799934387207,59.823001861572266 -31.2810001373291,65.00700378417969 -23.5049991607666,66.00399780273438 C-23.5049991607666,66.00399780273438 -5.215000152587891,68.18099975585938 5.552999973297119,64.19300079345703 C5.552999973297119,64.19300079345703 10.138999938964844,63.99399948120117 8.145000457763672,56.018001556396484 C8.145000457763672,56.018001556396484 5.052999973297119,42.98099899291992 5.052999973297119,42.98099899291992 C5.052999973297119,42.98099899291992 4.2170000076293945,-9.494999885559082 4.2170000076293945,-9.494999885559082 C4.186999797821045,-10.083999633789062 4.922999858856201,-10.37600040435791 5.302999973297119,-9.92300033569336 C5.302999973297119,-9.92300033569336 21.264999389648438,11.270000457763672 21.264999389648438,11.270000457763672 C21.264999389648438,11.270000457763672 34.12200164794922,-7.573999881744385 34.12200164794922,-7.573999881744385 C34.12200164794922,-7.573999881744385 15.154000282287598,-44.67599868774414 10.368000030517578,-53.650001525878906 C10.368000030517578,-53.650001525878906 6.78000020980835,-61.47600173950195 0.0010000000474974513,-62.84700012207031 C0.0010000000474974513,-62.84700012207031 -18.17799949645996,-68.18099975585938 -18.17799949645996,-68.18099975585938 C-18.17799949645996,-68.18099975585938 -32.27799987792969,-64.40299987792969 -32.27799987792969,-64.40299987792969 C-32.27799987792969,-64.40299987792969 -34.12200164794922,-55.22999954223633 -34.12200164794922,-55.22999954223633z"></path></g><g opacity="1" transform="matrix(1,0,0,1,154.197998046875,110.83599853515625)"><path fill="rgb(133,124,248)" fill-opacity="1" d=" M-12.555000305175781,-13.572999954223633 C-12.555000305175781,-13.572999954223633 -19.065000534057617,0.7149999737739563 -11.527000427246094,5.443999767303467 C-11.527000427246094,5.443999767303467 0.4440000057220459,13.572999954223633 7.684999942779541,6.479000091552734 C7.684999942779541,6.479000091552734 19.065000534057617,-0.18400000035762787 7.833000183105469,-12.887999534606934 C7.833000183105469,-12.887999534606934 -12.555000305175781,-13.572999954223633 -12.555000305175781,-13.572999954223633z"></path></g><g opacity="1" transform="matrix(1,0,0,1,171.75799560546875,70.10399627685547)"><path fill="rgb(255,208,156)" fill-opacity="1" d=" M-29.006000518798828,31.089000701904297 C-29.00200080871582,30.992000579833984 -28.996999740600586,30.89699935913086 -28.989999771118164,30.799999237060547 C-28.841999053955078,28.715999603271484 -27.69300079345703,26.31800079345703 -27.114999771118164,24.320999145507812 C-24.496000289916992,15.276000022888184 -21.878000259399414,6.228000164031982 -19.260000228881836,-2.818000078201294 C-16.908000946044922,-10.9399995803833 -14.557999610900879,-19.062000274658203 -12.206999778747559,-27.18400001525879 C-12.206999778747559,-27.18400001525879 -10.711000442504883,-41.242000579833984 2.747999906539917,-37.85200119018555 C2.747999906539917,-37.85200119018555 8.531000137329102,-37.15399932861328 8.531000137329102,-37.15399932861328 C8.531000137329102,-37.15399932861328 11.821000099182129,-37.35200119018555 16.506999969482422,-39.24700164794922 C16.506999969482422,-39.24700164794922 25.479000091552734,-42.3390007019043 25.479000091552734,-42.3390007019043 C25.479000091552734,-42.3390007019043 27.972000122070312,-43.83399963378906 28.768999099731445,-42.3390007019043 C28.768999099731445,-42.3390007019043 30.56399917602539,-39.84700012207031 26.875,-37.85200119018555 C26.875,-37.85200119018555 10.824000358581543,-26.68600082397461 10.824000358581543,-26.68600082397461 C10.824000358581543,-26.68600082397461 8.031999588012695,-24.093000411987305 3.8450000286102295,-23.993000030517578 C3.8450000286102295,-23.993000030517578 -0.0430000014603138,-23.69499969482422 -0.34299999475479126,-22.099000930786133 C-3.565000057220459,-4.9120001792907715 -4.965000152587891,12.831999778747559 -6.89900016784668,30.19499969482422 C-7.1519999504089355,32.47100067138672 -7.418000221252441,34.79100036621094 -8.380999565124512,36.86800003051758 C-10.413999557495117,41.24800109863281 -15.710000038146973,43.83399963378906 -20.413000106811523,42.7400016784668 C-25.398000717163086,41.582000732421875 -29.20599937438965,36.108001708984375 -29.006000518798828,31.089000701904297z"></path></g><g opacity="1" transform="matrix(1,0,0,1,66.28299713134766,26.666000366210938)"><path fill="rgb(112,96,228)" fill-opacity="1" d=" M3.2660000324249268,-10.770999908447266 C3.2660000324249268,-10.770999908447266 3.5889999866485596,-3.4860000610351562 3.5889999866485596,-3.4860000610351562 C3.5889999866485596,-3.4860000610351562 3.5299999713897705,-2.0880000591278076 5.428999900817871,-0.0949999988079071 C5.428999900817871,-0.0949999988079071 9.222000122070312,2.2960000038146973 9.321999549865723,10.770999908447266 C9.321999549865723,10.770999908447266 1.843999981880188,5.0879998207092285 -2.940999984741211,7.182000160217285 C-2.940999984741211,7.182000160217285 -9.321999549865723,9.225000381469727 -7.228000164031982,2.571000099182129 C-7.228000164031982,2.571000099182129 -4.383999824523926,-7.886000156402588 3.2660000324249268,-10.770999908447266z"></path></g><g opacity="1" transform="matrix(1,0,0,1,95.87699890136719,26.658000946044922)"><path fill="rgb(112,96,228)" fill-opacity="1" d=" M-7.190000057220459,-10.762999534606934 C-7.190000057220459,-10.762999534606934 -5.39300012588501,-4.958000183105469 -8.246999740600586,-0.9779999852180481 C-8.246999740600586,-0.9779999852180481 -9.404000282287598,1.2079999446868896 -9.104999542236328,5.0960001945495605 C-9.104999542236328,5.0960001945495605 -9.154000282287598,10.779000282287598 -9.154000282287598,10.779000282287598 C-9.154000282287598,10.779000282287598 -4.320000171661377,1.7070000171661377 3.058000087738037,3.3010001182556152 C4.51200008392334,3.615999937057495 7.072999954223633,3.385999917984009 8.156000137329102,2.23799991607666 C9.404999732971191,0.9139999747276306 7.577000141143799,-0.9909999966621399 6.789999961853027,-2.171999931335449 C4.085999965667725,-6.236999988555908 0.11299999803304672,-9.82800006866455 -4.861000061035156,-10.607000350952148 C-5.630000114440918,-10.72700023651123 -6.410999774932861,-10.779000282287598 -7.190000057220459,-10.762999534606934z"></path></g><g opacity="0.2" transform="matrix(1,0,0,1,108.05500030517578,77.80000305175781)"><path fill="rgb(255,255,255)" fill-opacity="1" d=" M-8.609999656677246,-10.340999603271484 C-8.609999656677246,-10.340999603271484 8.609999656677246,-10.340999603271484 8.609999656677246,-10.340999603271484 C8.609999656677246,-10.340999603271484 8.609999656677246,5.691999912261963 8.609999656677246,5.691999912261963 C8.609999656677246,5.691999912261963 0.8510000109672546,10.340999603271484 0.8510000109672546,10.340999603271484 C0.8510000109672546,10.340999603271484 -7.861000061035156,6.254000186920166 -7.861000061035156,6.254000186920166 C-7.861000061035156,6.254000186920166 -8.609999656677246,-10.340999603271484 -8.609999656677246,-10.340999603271484z"></path></g><g opacity="1" transform="matrix(1,0,0,1,85.4990005493164,281.1510009765625)"><path fill="rgb(41,47,75)" fill-opacity="1" d=" M10.071999549865723,4.164000034332275 C10.071999549865723,4.164000034332275 -10.071999549865723,-14.76099967956543 -10.071999549865723,-14.76099967956543 C-10.071999549865723,-14.76099967956543 1.5870000123977661,14.76099967956543 1.5870000123977661,14.76099967956543 C1.5870000123977661,14.76099967956543 10.071999549865723,4.164000034332275 10.071999549865723,4.164000034332275z"></path></g><g opacity="0.1" transform="matrix(1,0,0,1,79.33999633789062,10.38599967956543)"><path fill="rgb(57,64,95)" fill-opacity="1" d=" M10.065999984741211,-8.47599983215332 C10.065999984741211,-8.47599983215332 2.311000108718872,2.378999948501587 -10.065999984741211,1.3519999980926514 C-10.065999984741211,1.3519999980926514 -9.631999969482422,8.47700023651123 -9.631999969482422,8.47700023651123 C-9.631999969482422,8.47700023651123 9.437999725341797,7.025000095367432 10.065999984741211,-8.47599983215332z"></path></g></g><g transform="matrix(0.9999931454658508,-0.003697299165651202,0.003697299165651202,0.9999931454658508,133.74046325683594,49.10585021972656)" opacity="1" style="display: block;"><g opacity="1" transform="matrix(1,0,0,1,28.072999954223633,48.900001525878906)"><path fill="rgb(255,208,156)" fill-opacity="1" d=" M-23.823999404907227,-9.982999801635742 C-23.823999404907227,-9.982999801635742 -21.20599937438965,10.149999618530273 -18.69499969482422,19.714000701904297 C-18.05299949645996,22.1560001373291 -16.099000930786133,24.041000366210938 -13.63700008392334,24.601999282836914 C-11.402999877929688,25.11199951171875 -8.057000160217285,25.325000762939453 -3.065999984741211,24.714000701904297 C-3.065999984741211,24.714000701904297 3.066999912261963,22.621000289916992 11.440999984741211,13.347999572753906 C11.440999984741211,13.347999572753906 13.086000442504883,11.404999732971191 14.880999565124512,11.104999542236328 C14.880999565124512,11.104999542236328 20.264999389648438,12.75 23.2549991607666,4.673999786376953 C23.2549991607666,4.673999786376953 24.899999618530273,-0.5630000233650208 22.43199920654297,-2.803999900817871 C22.43199920654297,-2.803999900817871 18.91699981689453,-25.086000442504883 18.91699981689453,-25.086000442504883 C18.91699981689453,-25.086000442504883 -24.899999618530273,-22.684999465942383 -24.899999618530273,-22.684999465942383 C-24.899999618530273,-22.684999465942383 -23.823999404907227,-9.982999801635742 -23.823999404907227,-9.982999801635742z"></path></g><g opacity="1" transform="matrix(1,0,0,1,29.601999282836914,26.43400001525879)"><path fill="rgb(57,64,95)" fill-opacity="1" d=" M-25.354000091552734,12.482999801635742 C-25.25,11.461999893188477 -26.305999755859375,10.295000076293945 -26.739999771118164,9.446999549865723 C-27.639999389648438,7.684999942779541 -28.207000732421875,5.78000020980835 -28.659000396728516,3.859999895095825 C-29.413999557495117,0.6510000228881836 -29.715999603271484,-2.6630001068115234 -29.56399917602539,-5.953999996185303 C-29.416000366210938,-9.142000198364258 -28.840999603271484,-12.312000274658203 -27.832000732421875,-15.33899974822998 C-26.899999618530273,-18.134000778198242 -25.384000778198242,-21.66200065612793 -23.4689998626709,-23.917999267578125 C-22.069000244140625,-25.569000244140625 -19.900999069213867,-26.73900032043457 -17.768999099731445,-26.36400032043457 C-15.609000205993652,-25.982999801635742 -14.032999992370605,-24.19300079345703 -12.270000457763672,-22.886999130249023 C-8.656999588012695,-20.211999893188477 -3.9609999656677246,-19.476999282836914 0.5350000262260437,-19.422000885009766 C5.03000020980835,-19.367000579833984 9.541999816894531,-19.905000686645508 14.01200008392334,-19.41900062561035 C17.368999481201172,-19.054000854492188 20.709999084472656,-18.084999084472656 23.516000747680664,-16.20599937438965 C26.32200050354004,-14.32800006866455 28.55500030517578,-11.477999687194824 29.297000885009766,-8.184000015258789 C29.857999801635742,-5.692999839782715 29.55900001525879,-3.0899999141693115 29.083999633789062,-0.5809999704360962 C27.724000930786133,6.617000102996826 24.924999237060547,13.539999961853027 20.902000427246094,19.66200065612793 C19.6200008392334,19.301000595092773 18.202999114990234,19.735000610351562 17.15999984741211,20.56399917602539 C16.117000579833984,21.39299964904785 15.404999732971191,22.573999404907227 14.885000228881836,23.801000595092773 C14.677000045776367,24.29199981689453 14.48900032043457,24.805999755859375 14.13599967956543,25.207000732421875 C13.053000450134277,26.43400001525879 11.053999900817871,26.02899932861328 9.569000244140625,25.34000015258789 C10.017000198364258,21.10300064086914 10.381999969482422,16.856000900268555 10.663000106811523,12.604000091552734 C10.777999877929688,10.859000205993652 10.869000434875488,9.04800033569336 10.229999542236328,7.421000003814697 C8.98799991607666,4.25600004196167 5.11899995803833,2.6659998893737793 1.7799999713897705,3.305999994277954 C-0.08900000154972076,3.6659998893737793 -1.8029999732971191,4.585999965667725 -3.63700008392334,5.0929999351501465 C-6.26200008392334,5.822000026702881 -9.12399959564209,5.671000003814697 -11.659000396728516,4.673999786376953 C-14.041000366210938,3.7360000610351562 -16.312999725341797,2.0439999103546143 -18.86199951171875,2.2929999828338623 C-21.04199981689453,2.505000114440918 -22.868000030517578,4.171000003814697 -23.854000091552734,6.126999855041504 C-24.840999603271484,8.081999778747559 -25.128999710083008,10.305000305175781 -25.354000091552734,12.482999801635742z"></path></g><g opacity="1" transform="matrix(1,0,0,1,11.256999969482422,44.9119987487793)"><path stroke-linecap="round" stroke-linejoin="round" fill-opacity="0" stroke="rgb(209,147,94)" stroke-opacity="1" stroke-width="2" d=" M-2.990000009536743,1.8589999675750732 C-2.990000009536743,1.8589999675750732 0.2879999876022339,-1.8580000400543213 2.990000009536743,1.8589999675750732"></path></g><g opacity="1" transform="matrix(1,0,0,1,25.555999755859375,44.98899841308594)"><path stroke-linecap="round" stroke-linejoin="round" fill-opacity="0" stroke="rgb(209,147,94)" stroke-opacity="1" stroke-width="2" d=" M3.312000036239624,2.059000015258789 C3.312000036239624,2.059000015258789 -0.3179999887943268,-2.059000015258789 -3.312000036239624,2.059000015258789"></path></g><g opacity="1" transform="matrix(1,0,0,1,17.517000198364258,64.90699768066406)"><path fill="rgb(255,255,255)" fill-opacity="1" d=" M-5.413000106811523,-5.61899995803833 C-3.0329999923706055,-4.916999816894531 1.1330000162124634,-4.109000205993652 5.303999900817871,-5.323999881744385 C6.178999900817871,-5.578999996185303 6.888000011444092,-4.630000114440918 6.381999969482422,-3.871999979019165 C3.8340001106262207,-0.05700000002980232 -1.6449999809265137,5.855000019073486 -6.526000022888184,-4.263000011444092 C-6.888000011444092,-5.013999938964844 -6.211999893188477,-5.855000019073486 -5.413000106811523,-5.61899995803833z"></path></g><g opacity="1" transform="matrix(1,0,0,1,16.643999099731445,69.81900024414062)"><path fill="rgb(57,64,95)" fill-opacity="1" d=" M0.00800000037997961,1.496999979019165 C0.00800000037997961,1.496999979019165 -0.00800000037997961,1.496999979019165 -0.00800000037997961,1.496999979019165 C-0.6209999918937683,1.496999979019165 -1.1230000257492065,0.9950000047683716 -1.1230000257492065,0.38199999928474426 C-1.1230000257492065,0.38199999928474426 -1.1230000257492065,-0.382999986410141 -1.1230000257492065,-0.382999986410141 C-1.1230000257492065,-0.9959999918937683 -0.6209999918937683,-1.4980000257492065 -0.00800000037997961,-1.4980000257492065 C-0.00800000037997961,-1.4980000257492065 0.00800000037997961,-1.4980000257492065 0.00800000037997961,-1.4980000257492065 C0.6209999918937683,-1.4980000257492065 1.1230000257492065,-0.9959999918937683 1.1230000257492065,-0.382999986410141 C1.1230000257492065,-0.382999986410141 1.1230000257492065,0.38199999928474426 1.1230000257492065,0.38199999928474426 C1.1230000257492065,0.9950000047683716 0.6209999918937683,1.496999979019165 0.00800000037997961,1.496999979019165z"></path></g></g><g transform="matrix(0.9999865889549255,0.0051762075163424015,-0.0051762075163424015,0.9999865889549255,50.718841552734375,73.00080871582031)" opacity="1" style="display: block;"><g opacity="1" transform="matrix(1,0,0,1,42.50400161743164,31.746000289916992)"><path fill="rgb(199,211,232)" fill-opacity="1" d=" M-25.0939998626709,-2.619999885559082 C-25.0939998626709,-2.619999885559082 -16.674999237060547,20.948999404907227 -16.674999237060547,20.948999404907227 C-16.674999237060547,20.948999404907227 -8.607999801635742,14.640000343322754 14.17199993133545,16.750999450683594 C17.9950008392334,17.106000900268555 21.659000396728516,15.079000473022461 23.37700080871582,11.645999908447266 C23.93600082397461,10.526000022888184 24.417999267578125,9.201000213623047 24.73900032043457,7.638999938964844 C25.086000442504883,5.956999778747559 25.15399932861328,4.453000068664551 25.051000595092773,3.132999897003174 C24.76099967956543,-0.5889999866485596 22.187000274658203,-3.753999948501587 18.635000228881836,-4.906000137329102 C-3.130000114440918,-11.96399974822998 -8.048999786376953,-20.948999404907227 -8.048999786376953,-20.948999404907227 C-8.048999786376953,-20.948999404907227 -25.0939998626709,-2.619999885559082 -25.0939998626709,-2.619999885559082z"></path></g><g opacity="1" transform="matrix(1,0,0,1,20.63800048828125,31.349000930786133)"><path fill="rgb(103,116,158)" fill-opacity="1" d=" M-17.04800033569336,21.260000228881836 C-17.04800033569336,21.260000228881836 -10.140000343322754,31.349000930786133 0.6240000128746033,25.041000366210938 C9.305999755859375,19.952999114990234 12.529000282287598,8.685999870300293 14.043999671936035,1.3309999704360962 C15.557000160217285,-6.0229997634887695 17.04800033569336,-17.64699935913086 11.081000328063965,-25.750999450683594 C3.683000087738037,-35.797000885009766 -6.6479997634887695,-29.257999420166016 -6.6479997634887695,-29.257999420166016 C-6.6479997634887695,-29.257999420166016 -17.04800033569336,21.260000228881836 -17.04800033569336,21.260000228881836z"></path></g><g opacity="1" transform="matrix(1,0,0,1,14.019000053405762,28.350000381469727)"><path fill="rgb(199,211,232)" fill-opacity="1" d=" M-6.495999813079834,27.00200080871582 C0.050999999046325684,28.350000381469727 7.855999946594238,17.304000854492188 10.937000274658203,2.3320000171661377 C14.019000053405762,-12.640999794006348 11.210000038146973,-25.8700008392334 4.664000034332275,-27.218000411987305 C-1.8819999694824219,-28.565000534057617 -9.687000274658203,-17.518999099731445 -12.767999649047852,-2.5480000972747803 C-15.850000381469727,12.425000190734863 -13.041999816894531,25.65399932861328 -6.495999813079834,27.00200080871582z"></path></g><g opacity="1" transform="matrix(1,0,0,1,17.525999069213867,29.35099983215332)"><path fill="rgb(73,82,123)" fill-opacity="1" d=" M3.742000102996826,13.439000129699707 C5.341000080108643,9.899999618530273 6.678999900817871,5.789000034332275 7.5960001945495605,1.3289999961853027 C8.513999938964844,-3.13100004196167 8.90999984741211,-7.436999797821045 8.84000015258789,-11.319999694824219 C-0.012000000104308128,-13.437999725341797 -6.078999996185303,-8.654999732971191 -7.49399995803833,-1.7790000438690186 C-8.90999984741211,5.0980000495910645 -5.881999969482422,12.404000282287598 3.742000102996826,13.439000129699707z"></path></g><g opacity="1" transform="matrix(1,0,0,1,58.39400100708008,36.558998107910156)"><path fill="rgb(255,109,109)" fill-opacity="1" d=" M-4.840000152587891,0.007000000216066837 C-5.718999862670898,4.2779998779296875 -7.238999843597412,8.175999641418457 -9.204000473022461,11.517999649047852 C-6.9070000648498535,11.557000160217285 -4.418000221252441,11.687999725341797 -1.7200000286102295,11.937999725341797 C2.1029999256134033,12.291999816894531 5.767000198364258,10.267000198364258 7.486000061035156,6.833000183105469 C8.045999526977539,5.714000225067139 8.526000022888184,4.38700008392334 8.847999572753906,2.8239998817443848 C9.194000244140625,1.1430000066757202 9.262999534606934,-0.36000001430511475 9.15999984741211,-1.6799999475479126 C8.869999885559082,-5.4019999504089355 6.296000003814697,-8.565999984741211 2.74399995803833,-9.718999862670898 C0.164000004529953,-10.555000305175781 -2.177000045776367,-11.420000076293945 -4.302999973297119,-12.291999816894531 C-3.818000078201294,-8.446000099182129 -3.9600000381469727,-4.263999938964844 -4.840000152587891,0.007000000216066837z"></path></g><g opacity="1" transform="matrix(1,0,0,1,44.02299880981445,96.2040023803711)"><path fill="rgb(255,208,156)" fill-opacity="1" d=" M14.142999649047852,25.697999954223633 C14.142999649047852,25.697999954223633 7.563000202178955,-4.511000156402588 5.918000221252441,-17.52199935913086 C5.918000221252441,-17.52199935913086 4.422999858856201,-19.764999389648438 6.665999889373779,-24.400999069213867 C6.665999889373779,-24.400999069213867 8.758999824523926,-30.68199920654297 8.758999824523926,-30.68199920654297 C8.758999824523926,-30.68199920654297 9.805999755859375,-33.52399826049805 9.059000015258789,-37.262001037597656 C8.704999923706055,-39.034000396728516 9.526000022888184,-42.284000396728516 6.888999938964844,-42.76599884033203 C5.093999862670898,-43.09400177001953 4.360000133514404,-40.16999816894531 3.9739999771118164,-38.90700149536133 C3.9739999771118164,-38.90700149536133 0.9789999723434448,-41.685001373291016 -2.4570000171661377,-42.854000091552734 C-2.4570000171661377,-42.854000091552734 -5.296999931335449,-43.87900161743164 -5.296999931335449,-43.87900161743164 C-5.296999931335449,-43.87900161743164 -7.690999984741211,-45.03799819946289 -9.78499984741211,-41.000999450683594 C-9.78499984741211,-41.000999450683594 -14.718999862670898,-30.531999588012695 -14.718999862670898,-30.531999588012695 C-14.718999862670898,-30.531999588012695 -17.732999801635742,-26.694000244140625 -12.187999725341797,-21.06100082397461 C-12.187999725341797,-21.06100082397461 -7.242000102996826,-17.371999740600586 -7.242000102996826,-17.371999740600586 C-7.242000102996826,-17.371999740600586 -9.031999588012695,29.461999893188477 -9.036999702453613,29.586000442504883 C-9.147000312805176,32.47600173950195 -8.420000076293945,35.683998107910156 -7.039000034332275,38.2130012512207 C-3.927000045776367,43.909000396728516 4.644999980926514,47.59000015258789 10.013999938964844,42.895999908447266 C10.013999938964844,42.895999908447266 17.732999801635742,38.558998107910156 14.142999649047852,25.697999954223633z"></path></g><g opacity="1" transform="matrix(1,0,0,1,41.237998962402344,59.590999603271484)"><path fill="rgb(199,211,232)" fill-opacity="1" d=" M-3.930999994277954,14.890999794006348 C-3.930999994277954,14.890999794006348 -6.10099983215332,14.142000198364258 -6.10099983215332,14.142000198364258 C-7.53000020980835,13.64799976348877 -8.286999702453613,12.09000015258789 -7.793000221252441,10.661999702453613 C-7.793000221252441,10.661999702453613 0.45100000500679016,-13.199999809265137 0.45100000500679016,-13.199999809265137 C0.9440000057220459,-14.628000259399414 2.502000093460083,-15.385000228881836 3.930000066757202,-14.892000198364258 C3.930000066757202,-14.892000198364258 6.099999904632568,-14.142000198364258 6.099999904632568,-14.142000198364258 C7.5289998054504395,-13.64900016784668 8.286999702453613,-12.090999603271484 7.793000221252441,-10.663000106811523 C7.793000221252441,-10.663000106811523 -0.4519999921321869,13.199000358581543 -0.4519999921321869,13.199000358581543 C-0.9449999928474426,14.626999855041504 -2.503000020980835,15.385000228881836 -3.930999994277954,14.890999794006348z"></path></g><g opacity="0.2" transform="matrix(1,0,0,1,39.78499984741211,63.60900115966797)"><path fill="rgb(57,64,95)" fill-opacity="1" d=" M9.314000129699707,-4.821000099182129 C9.314000129699707,-4.821000099182129 6,-8.295000076293945 0.0430000014603138,-9.793999671936035 C0.0430000014603138,-9.793999671936035 -2.436000108718872,-11.175000190734863 -4.445000171661377,-6.914999961853027 C-4.445000171661377,-6.914999961853027 -9.378999710083008,3.553999900817871 -9.378999710083008,3.553999900817871 C-9.378999710083008,3.553999900817871 -10.196999549865723,7.008999824523926 -2.6489999294281006,9.170999526977539 C-2.6489999294281006,9.170999526977539 2.9019999504089355,12.24899959564209 5.646999835968018,6.5929999351501465 C5.646999835968018,6.5929999351501465 8.059000015258789,0.5210000276565552 8.059000015258789,0.5210000276565552 C8.059000015258789,0.5210000276565552 9.819999694824219,-2.3420000076293945 9.314000129699707,-4.821000099182129z"></path></g><g opacity="1" transform="matrix(1,0,0,1,38.494998931884766,62.654998779296875)"><path fill="rgb(255,208,156)" fill-opacity="1" d=" M9.503000259399414,-5.357999801635742 C9.503000259399414,-5.357999801635742 6.189000129699707,-8.831999778747559 0.23199999332427979,-10.329999923706055 C0.23199999332427979,-10.329999923706055 -2.247999906539917,-11.711999893188477 -4.256999969482422,-7.452000141143799 C-4.256999969482422,-7.452000141143799 -9.190999984741211,3.0169999599456787 -9.190999984741211,3.0169999599456787 C-9.190999984741211,3.0169999599456787 -10.008000373840332,6.4720001220703125 -2.4600000381469727,8.635000228881836 C-2.4600000381469727,8.635000228881836 3.0899999141693115,11.711999893188477 5.835000038146973,6.056000232696533 C5.835000038146973,6.056000232696533 8.246999740600586,-0.01600000075995922 8.246999740600586,-0.01600000075995922 C8.246999740600586,-0.01600000075995922 10.008999824523926,-2.878999948501587 9.503000259399414,-5.357999801635742z"></path></g></g><g style="display: none;" transform="matrix(0.32797476649284363,-0.03650427609682083,0.04247216880321503,0.38159364461898804,81.28083801269531,201.8676300048828)" opacity="0.010073268703182236"><g opacity="1" transform="matrix(1,0,0,1,0,0)"><path stroke-linecap="butt" stroke-linejoin="miter" fill-opacity="0" stroke-miterlimit="4" stroke="rgb(255,255,255)" stroke-opacity="1" stroke-width="1" d=" M-28,-305 C-28,-305 -44.89699935913086,-298.8840026855469 -40.5,-284"></path></g></g><g style="display: none;" transform="matrix(0.6957039833068848,-0.07743330299854279,0.09009254723787308,0.8094416856765747,102.7648696899414,324.7042541503906)" opacity="0.06707604260071733"><g opacity="1" transform="matrix(1,0,0,1,0,0)"><path stroke-linecap="butt" stroke-linejoin="miter" fill-opacity="0" stroke-miterlimit="4" stroke="rgb(255,255,255)" stroke-opacity="1" stroke-width="1" d=" M-28,-305 C-28,-305 -44.89699935913086,-298.8840026855469 -40.5,-284"></path></g></g><g style="display: none;" transform="matrix(1.083310604095459,-0.12057472765445709,0.14028702676296234,1.2604169845581055,124.4439926147461,453.650390625)" opacity="0.013614812871064572"><g opacity="1" transform="matrix(1,0,0,1,0,0)"><path stroke-linecap="butt" stroke-linejoin="miter" fill-opacity="0" stroke-miterlimit="4" stroke="rgb(255,255,255)" stroke-opacity="1" stroke-width="1" d=" M-28,-305 C-28,-305 -44.89699935913086,-298.8840026855469 -40.5,-284"></path></g></g></g></svg>